<?xml version="1.0" encoding="utf-8"?>
<!-- Generator: Adobe Illustrator 23.0.5, SVG Export Plug-In . SVG Version: 6.00 Build 0)  -->
<svg version="1.1" id="Слой_1" xmlns="http://www.w3.org/2000/svg" xmlns:xlink="http://www.w3.org/1999/xlink" x="0px" y="0px"
	 width="38px" height="37px" viewBox="0 0 38 37" style="enable-background:new 0 0 38 37;" xml:space="preserve">
<style type="text/css">
	.st0{fill:#E4E4E4;}
	.st1{fill:#FBFCFC;}
	.st2{fill:#F1F1F1;}
	.st3{fill:#FCFCFC;}
	.st4{fill:#B4B7B8;}
	.st5{fill:#20272B;}
	.st6{fill:#252B32;}
	.st7{fill:#0E141D;}
	.st8{fill:#222224;}
	.st9{fill:#C0CBCE;}
	.st10{fill:#BBC6CC;}
	.st11{fill:#CDD4D6;}
	.st12{fill:#B8C7CE;}
	.st13{fill:#BBC2CB;}
	.st14{fill:#5E6465;}
	.st15{fill:#A6ACAE;}
	.st16{fill:#91969E;}
	.st17{fill:#A0A9AF;}
	.st18{fill:#3E434A;}
	.st19{fill:#A7AAB2;}
	.st20{fill:#939298;}
	.st21{fill:#8B979D;}
	.st22{fill:#4B545C;}
	.st23{fill:#9AA2A7;}
	.st24{fill:#BFCCD0;}
	.st25{fill:#BAC5C8;}
	.st26{fill:#505E69;}
	.st27{fill:#131921;}
	.st28{fill:#010102;}
	.st29{fill:#161E23;}
	.st30{fill:#091013;}
	.st31{fill:#4C5458;}
	.st32{fill:#CFDFE6;}
	.st33{fill:#B4C9D4;}
	.st34{fill:#D6E5EA;}
	.st35{fill:#D9E6ED;}
	.st36{fill:#BAC8D0;}
	.st37{fill:#B9C4CB;}
	.st38{fill:#A8ADB8;}
	.st39{fill:#8D939D;}
	.st40{fill:#676C74;}
	.st41{fill:#808C96;}
	.st42{fill:#C6D8DE;}
	.st43{fill:#B5C0C6;}
	.st44{fill:#C7D2D5;}
	.st45{fill:#96A4AC;}
	.st46{fill:#A5B1B8;}
	.st47{fill:#B1C0C7;}
	.st48{fill:#C4D3D9;}
	.st49{fill:#DCE8ED;}
	.st50{fill:#CDDDE3;}
	.st51{fill:#BECACE;}
	.st52{fill:#E4EEF2;}
	.st53{fill:#CBDAE2;}
	.st54{fill:#DDE7EA;}
	.st55{fill:#D1DCE1;}
	.st56{fill:#C1CCD1;}
	.st57{fill:#ABB4BB;}
	.st58{fill:#A8B2BF;}
	.st59{fill:#EAEFF2;}
	.st60{fill:#B6C1C7;}
	.st61{fill:#E4EDF1;}
	.st62{fill:#DBE3E8;}
	.st63{fill:#D9DEE4;}
	.st64{fill:#ECF6FA;}
	.st65{fill:#E6EAEF;}
	.st66{fill:#BFCAD3;}
</style>
<g>
	<g>
		<path class="st0" d="M37.8,19c-0.9,1.2-1,2.7-1.5,4c-1.1,4.4-2.7,8.4-7.5,10.1c-2.8,1.2-5.5,2.5-8.5,2.9c-0.5,0.2-0.9,0.4-1.3,0.7
			c-0.1,0.1-0.1,0.3-0.2,0.4c0.2,0,0.4,0,0.5,0c1.5,0,3,0.3,4.4-0.1c0.4-0.1,0.9-0.1,1.3-0.1c0.8-0.3,1.6-0.7,2.2-1.2
			c0.3-0.2,0.6-0.4,0.9-0.5c0.6-0.7,1.2-1.4,2-2c1.1-0.9,2.2-1.6,3.2-2.6c0.7-0.7,1.2-1.4,1.7-2.2c0-0.8,0.3-1.6,0.8-2.4
			C37.2,23.9,37.5,21.4,37.8,19C37.8,19,37.8,19,37.8,19z"/>
		<path class="st1" d="M14.6,2.7c-0.1,0-0.5,0.2-0.7,0.3c-0.2,0.1-0.7,0.4-0.8,0.4c-0.5,0.3-0.9,0.6-1.3,0.9C10.6,5,9.4,5.7,8.1,6.5
			C7.5,6.8,6.9,7,6.4,7.1C4.9,8.8,4,10.9,2.9,12.9c-0.3,1.2-0.7,2.5-1,3.7C1.8,17.4,1.4,18,1,18.5V19c0.4,0.2,0.8,0.2,1.2-0.1
			c0.3-0.3,0.6-0.7,0.7-1.1c0.3-1.7,0.7-3.3,1.8-4.7c1.1-1.9,2-3.8,3.7-5.2c0.6-0.5,1.3-1,2-1.5c1.2-1.2,2.4-2.3,4-2.9
			C15,3.1,15.7,2.8,16,2.1C15.5,2.3,15.1,2.5,14.6,2.7z"/>
		<path class="st2" d="M13,36.2C13,36.2,13,36.2,13,36.2c0.4,0.2,0.8,0.3,1.2,0.5c0.1,0,0.2,0.1,0.3,0.2c1.5,0.2,3.1,0.2,4.6,0.2
			c-0.6-1-1.8-1.3-2.7-1.7c-0.9-0.3-1.7-0.4-2.6-0.6c-1.3-0.3-2.5-0.9-3.7-1.5c-0.9-0.4-1.7-1-2.4-1.7c-0.4-0.4-0.7-0.9-1.1-1.3
			c-0.7-1-1.2-2.1-1.7-3.1c-0.4-0.7-0.7-1.5-1-2.2c-0.1-0.4-0.3-0.8-0.4-1.2c-0.4-1.4-0.1-3-1-4.4c-0.1-0.1-0.3-0.3-0.5-0.4H1
			c0,1.1,0,2.2,0,3.4c0.1,0.1,0.1,0.2,0.2,0.3c0.2,0.5,0.4,0.9,0.6,1.4c0.4,0.4,0.7,0.8,1,1.4C3,26,3.2,26.5,3.4,27
			c0.3,0.4,0.6,0.7,0.8,1.1c0.4,0.6,0.8,1.2,1.2,1.9c0.6,1.2,0.9,2.5,1.8,3.4c1.4,1.3,3.6,2.1,5.6,2.8C12.9,36.2,12.9,36.2,13,36.2z
			"/>
		<path class="st3" d="M37.9,18.1c0.1-0.8,0.1-1.6,0.1-2.3c-0.3-2.6-1-5-1.9-7.6C36.1,8.2,36,8.1,35.9,8c-2.4-2.6-6.2-3.8-9.3-5.4
			c-0.6-0.3-1.2-0.5-1.8-0.7c0,0.1,0.1,0.3,0.2,0.4c0.7,1.2,1.9,1.8,3,2.6c1.7,1.3,3.9,1.9,5.2,3.8c0.8,1,1.4,2.1,1.9,3.4
			c1.1,2.1,1.3,4.6,2.9,6.5C37.9,18.4,37.9,18.3,37.9,18.1z"/>
		<path class="st4" d="M17,1.6c-0.1,0.1-0.2,0.1-0.3,0.2c-0.6,0.4-1.4,0.6-2,0.9c-0.1,0-0.4,0.2-0.6,0.3c0,0,0,0,0,0.1
			c0.8,1.4,2.2,2.2,3.7,2.6c0.4,0,0.9,0,1.3-0.1c0.6-0.2,1.2-0.5,1.8-0.8C22.2,3.9,24.3,4.1,25,2v0C22.5,1.2,19.7,1.3,17,1.6z"/>
		<path class="st5" d="M35.6,19.4c0.2,1,0.2,2,0.6,3c0.2,0.4,0.5,0.7,0.9,0.9c0.5-1.7,0.6-3.5,0.8-5.2c0-0.3,0-0.5,0.1-0.7
			c-0.4-2.2-1.6-4.1-2.2-6.3c-2.9-0.1-3.3,2.4-4.3,4.2c-1.2,2.4-1.6,5.1-3.2,7.3c-0.8,1.7-1.9,3.4-2,5.4c0.1,1,0.6,1.8,1.6,2.3
			c1.1,0.1,1.8-0.4,2.4-1.3c0.5-3.2,2.7-5.6,4-8.5C34.8,20.3,34.3,18.7,35.6,19.4z"/>
		<path class="st6" d="M18.3,37.1c0.3,0,0.7,0,1,0c0.1,0,0.2,0,0.2,0c0.1,0,0.3-0.1,0.4-0.1c2.6-1.9,5.7-2.9,8.3-4.9
			c0.3-0.8,0.3-1.4-0.3-2c-0.3-0.7-0.7-1.4-1-2.1c-1-0.5-1.8,0-2.6,0.7c-2.3,1.6-4.5,3.6-7,5c-0.8,0.7-2.1,1.1-1.5,2.7
			C16.6,37,17.5,36.9,18.3,37.1z"/>
		<path class="st7" d="M20,36.8c1.8-3,4.4-4.8,7.9-4.9c0.6,0.1,1,0.4,1.4,0.9c0.1,0.4,0,0.7-0.3,1C26.5,36.4,23.6,37.5,20,36.8z"/>
		<path class="st8" d="M35.9,26c0.5-0.8,0.9-1.8,1.2-2.7c-0.1-0.5-0.2-0.8-0.3-1.3c-0.7-0.2-1.2,0.2-1.7,0.7
			c-0.5,0.7-0.9,1.6-1.2,2.4c-0.6,3.2-4,4.8-4.9,7.9v0.9c0.1,0,0.3,0,0.5,0c0.2-0.2,0.5-0.5,0.8-0.7c1.1-0.9,2.2-1.6,3.2-2.6
			c0.6-0.7,1.2-1.4,1.7-2.2C35.2,27.7,35.4,26.9,35.9,26z"/>
		<path class="st9" d="M14,3C14,3,13.9,3,14,3C13.9,3,13.9,3,14,3c-0.3,0.1-0.8,0.3-0.9,0.4c-0.5,0.3-0.9,0.6-1.3,0.9
			c-0.5,0.3-1.1,0.7-1.6,1c-0.1,0.2-0.3,0.4-0.4,0.6c0,0.9,0.3,1.8,0.9,2.5c1.9,1.8,3.9,0.1,5.8,0.1c0.7-0.2,1.3-0.5,1.7-1.1
			c0.2-0.4,0.4-0.8,0.4-1.3C18.5,5.7,18.3,5.3,18,5C16.5,4.6,15.9,2.6,14,3z"/>
		<path class="st10" d="M3.9,12.9C4.5,10.4,5.6,8.2,8,7c1.1,0.7,1.5,1.7,1.4,2.9c-0.4,1.6-1.1,3-1.8,4.5c-0.4,0.6-1,1.1-1.7,1.2
			c-0.5,0.1-1,0-1.5-0.2C3.5,14.8,3.2,14,3.9,12.9z"/>
		<path class="st11" d="M5,15c-1.1-0.3-1-1.2-1.1-2.1c-0.6,0.3-0.9,0.6-1.2,0.9c-0.2,0.9-0.5,1.8-0.7,2.7c0,0.5,0,1,0,1.5
			c0.6,0.6,1.2,0.6,1.9,0.4c0.8-0.5,1.2-1.3,1.5-2.2C5.5,15.7,5.3,15.3,5,15z"/>
		<path class="st12" d="M9.9,5.9C9.5,6,9.1,6,8.7,6.1C8.6,6.2,8.5,6.2,8.4,6.3C8.2,6.4,8.1,6.7,8,7c-0.2,1.2,0.7,2,1,3
			c1.6,0.3,2.3-0.4,2-2C11,7.1,11,6.2,9.9,5.9z"/>
		<path class="st13" d="M2.1,18c0.6,0,1.3,0,1.9,0c1,0.8,1.2,1.9,1.3,3.1C5,22.7,5.6,24.8,3,25l0,0c-1.1-1.9,0.2-4.1-0.9-6H1.9
			C1.9,18.7,2,18.4,2.1,18z"/>
		<path class="st14" d="M13,35.8c-1.6-0.2-2.6-1.3-4-1.9c-0.8-1.1-1.9-2-1.5-3.6c0.7-1,1.5-0.5,2.3-0.2c0.5,0.3,1,0.7,1.5,1.2
			c0.7,0.5,1.4,1,1.9,1.6c0.2,0.4,0.3,0.8,0.4,1.2C13.8,34.8,13.5,35.4,13,35.8z"/>
		<path class="st15" d="M4.1,28c0,0,0.1,0.1,0.1,0.1c0.4,0.6,0.8,1.2,1.2,1.9c0.1,0.2,0.2,0.5,0.3,0.7c0.1,0.1,0.2,0.1,0.3,0.2
			c1.4-1.6,1.3-3.2,0.2-4.8c-1.1-0.5-2.3-1.1-2.2,1C4,27.4,4.1,27.7,4.1,28z"/>
		<path class="st16" d="M6,30.9c0-1.6,0-3.2,0-4.9c0.2-0.1,0.5-0.1,0.7-0.2c1,0.2,1.6,0.9,1.9,1.9c0,0.5,0,0.9-0.2,1.4
			C7.3,29.7,7.8,31.2,7,32C6.4,31.8,6.1,31.5,6,30.9z"/>
		<path class="st17" d="M3.2,26.3C3.3,26.7,3.5,27,4,27.1C4.2,25.9,5.1,26,6,26c0.5-2.1,1.1-4.3-1.9-4.9c-0.4,1.3,0.8,3.1-1.1,4
			C3,25.5,3,25.9,3.2,26.3C3.1,26.3,3.1,26.3,3.2,26.3z"/>
		<path class="st18" d="M13,35.8c0-0.6,0-1.2,0-1.8c1.7-1.3,3.3-1.6,5,0c-0.2,1.2-2,0.9-2.1,2.2C14.9,36.4,14,36.2,13,35.8z"/>
		<path class="st19" d="M2.1,19c1.8,1.8,0.5,4,0.9,6C1.1,23.3,2.3,21,2.1,19z"/>
		<path class="st20" d="M7,31.9c0.1-1-0.5-2.4,1-2.9c0.2,0.2,0.3,0.5,0.2,0.7C8.2,29.9,8.1,30,8,30c0.4,1.3,0.7,2.6,1.1,3.8
			C7.8,33.8,7.4,32.9,7,31.9z"/>
		<path class="st21" d="M28,3.9c1.9,1.5,4.9,1.5,6,4.1c-0.6,1-2.4,0.4-2.6,2c-0.6,3.9,0.1,8.2-3.3,11.2c-0.7,0.2-1.4,0.1-2.1-0.3
			c-0.8-0.6-1.3-1.3-0.9-2.3c0.5-1,0.8-2,1-3c0.6-2-0.3-3.9-0.3-5.9c-0.1-0.7,0-1.4,0-2.2C26,6,26.3,4.5,28,3.9z"/>
		<path class="st22" d="M30,8c0.3-1,0.9-1.2,1.8-0.7C32.4,7.8,33.2,8,34,8c0.6,1,1.9,1.7,1.8,3.1c-2.4,1.8-2.9,4.5-4,7.1
			c-0.7,1.7-0.4,4.1-2.8,4.9c-0.6-3.1,1.4-5.8,1.4-8.9C30.5,12.1,31,10,30,8z"/>
		<path class="st23" d="M28,3.9c-0.7,1.3-1.2,2.6-1,4.1c-0.4,0.3-0.8,0.3-1.2,0.1c-1-1.2-1.8-2.6-3.5-2.9c-0.6-0.2-1.2-0.4-1.8-0.7
			C20.3,4.3,20.1,4.2,20,4c1.2-1.9,3.7-0.4,5-2C26,2.7,27.4,2.7,28,3.9z"/>
		<path class="st24" d="M19,5c0.1-0.6,0.4-0.9,1-1l0,0c0.6,0.5,1.4,0.8,1.3,1.8c-0.3,0.6-0.9,0.8-1.5,0.8c-0.4-0.1-0.8-0.3-1-0.6
			C18.5,5.6,18.6,5.3,19,5z"/>
		<path class="st25" d="M19,5c0,0.3,0,0.7,0,1c-0.3,0.3-0.7,0.3-1,0c0-0.3,0-0.7,0-1C18.3,5,18.7,5,19,5z"/>
		<path class="st26" d="M30,8c2.1,3.2,1,6.6,0.5,9.9c-0.2,1.8-1,3.4-1.5,5.2c0,1.9-1.4,3.2-2.1,4.9c-0.6,0.4-1.3,0.7-1.9,1.1
			c-0.4,0.4-0.8,0.4-1.2,0c-0.2-3.2,1.3-5.6,3.2-8c3.3-2.1,1.8-5.8,2.9-8.7C30.4,11.1,30,9.5,30,8z"/>
		<path class="st27" d="M36,23c-0.3,0.7-0.7,1.4-1,2c-1.8,1.2-1.8,4.6-5,3.9c-0.3-0.7-0.9-2-0.8-2.1c2.5-1.7,2-5.5,4.8-6.9
			c0.6,0.1,1.1,0.4,1.4,0.9C35.8,21.5,35.4,22.4,36,23z"/>
		<path class="st28" d="M30,29c1.4-0.5,2.4-1.6,3-3c0.4-0.9,1.2-1,2-1c-0.5,3.8-3.1,6-6,8c-0.6-0.1-0.9-0.5-1-1c0-0.6,0-1.3,0-1.9
			C28.7,29.7,29.3,29.3,30,29z"/>
		<path class="st29" d="M35,21c-0.6-0.1-0.9-0.4-1-1c0-0.6,0-1.3,0.1-1.9c0.1-0.8,0.6-1.7,1.4-1.7c0.8,0,1.3,0.8,1.5,1.6
			C36.2,18.9,36.7,20.7,35,21z"/>
		<path class="st30" d="M35,21c0.7-1,0.7-2.3,1.9-2.9c0,1.3,0,2.6,0,3.9c-0.5,0.2-0.8,0.5-0.9,1.1C34.9,22.7,35,21.8,35,21z"/>
		<path class="st31" d="M24,29c0.4,0,0.7,0,1.1,0c-2.1,2-4.1,4.2-7,5c-1.7,0-3.3,0-5,0c0-0.3,0-0.7,0-1c1.1-1.5,3-1.1,4.4-2
			C19.6,30.3,21.3,28.1,24,29z"/>
		<path class="st32" d="M9,10c1-0.3,1.7-1,2-2c0.9,0.2,1.7,1.2,2.6,0c1.1-1.7,2.3-0.4,3.4,0c0.6,0.6,0.6,1.3,0.4,2.1
			c-0.6,1.2-1.7,1.7-3,1.8c-3.4-0.5-3.6,2.5-4.6,4.4C7.7,17,7.5,15.2,7,14C7.1,12.4,7.6,11,9,10z"/>
		<path class="st33" d="M17,10c0-0.7,0-1.3,0-2c0.1-0.6,0.4-0.9,1-1c1,0,1.8,0.3,2.3,1.2c0.3,0.7,0.3,1.4,0,2
			c-0.4,0.6-0.9,1.1-1.7,1.3C17.7,11.5,16.7,11.5,17,10z"/>
		<path class="st34" d="M20,8c-0.8,0-1.7,0.1-2-1c0-0.3,0-0.7,0-1c0.3,0,0.7,0,1,0l0,0c0.4,0.4,1,0.5,1.3,1c0,0.2,0,0.4,0,0.6
			C20.2,7.7,20.1,7.9,20,8z"/>
		<path class="st35" d="M5,16c0-0.3,0-0.7,0-1c0.3,0,0.6,0,1,0c1.3,0.7,2.5,1.8,4.2,1.5c0.5,0,0.9,0.3,1.1,0.7
			c0.1,0.5,0,0.9-0.2,1.4c-1.4,1.5-3,2.6-5.3,1.7C4.9,19,4.7,17.5,5,16z"/>
		<path class="st36" d="M10,17c-1.7,0.1-3.3,0-4-2c0.6-0.1,0.9-0.4,1-1c1.2,0.4,1.2,2.5,3,2c0.3,0.2,0.3,0.4,0.2,0.7
			C10.2,16.9,10.1,17,10,17z"/>
		<path class="st37" d="M5,16c0.8,1.2,1.2,2.5,1,4c0.7,0.6,1.6,1,2,2c0.7,1.9,2.6,3.6,1.3,6c-0.4,0.3-0.8,0.3-1.3,0
			c-0.4-1-1-1.7-2-2c-1.5-1.3-0.1-3.8-2-5c0-1,0-2,0-3C4,17.2,3.9,16.3,5,16z"/>
		<path class="st38" d="M8,28c0.3,0,0.7,0,1,0c0.4-0.3,0.9-0.4,1.4-0.3c1.2,1.2,4.4,0.7,3.2,3.8c-1.3,0.6-2.5,0.2-3.6-0.5
			c-0.7-0.3-1.3-0.7-2-1c0-0.3,0-0.7,0-1S8,28.3,8,28z"/>
		<path class="st39" d="M10,31c1.3,0,2.7,0,4,0c1-0.8,2-0.9,3.1-0.1c0.3,0.6,0.2,1.1-0.3,1.5c-1.9,0.1-3.9,0.6-5.8-0.3
			C10.5,31.9,10.1,31.6,10,31z"/>
		<path class="st40" d="M11,32c2,0,4,0,6,0c0.4-0.3,0.7-0.3,1,0.1c-1.4,1.9-3.4,0.6-5,1C12.2,33,11.3,33.1,11,32z"/>
		<path class="st41" d="M18,32c-0.3,0-0.7,0-1-0.1c0-0.3,0-0.7,0-1c0-2.7,3.2-2.5,4-4.5c1-1.1,1.8-2.3,2.2-3.7
			c0.5-1.3,1.4-2.3,2.7-2.7c0.6,0.1,1,0.4,1.1,1c0.2,3.1-2,5.3-3,7.9C22,30,20,31,18,32z"/>
		<path class="st42" d="M25.9,20c-0.6,1-1.3,2-1.9,3c-0.7,1-1.5,1.9-2.9,1.4c-0.9-0.5-1.3-1.4-1.7-2.3c-0.2-0.4-0.3-0.9-0.3-1.4
			c-0.1-1.2,0.2-2.3,1.2-3.2c0.7-0.5,1.6-0.9,2.4-1.3s1.6-0.8,2.5-0.3c0.8,0.8,1.4,1.7,0.8,2.9C25,19.3,24.9,19.7,25.9,20z"/>
		<path class="st43" d="M26.9,10c-0.5,2,1.9,4,0,6c-0.3,0.4-0.6,0.5-1.1,0.3c-0.8-1.2-2.4-1.8-2.5-3.5c0.1-0.4,0.2-0.8,0.4-1.2
			C24.8,10.9,25.4,9.5,26.9,10z"/>
		<path class="st44" d="M26.9,10c-1.1,0.4-1.1,2.5-2.9,2c-1-1.5-0.8-2.9,0.2-4.3C24.8,7.4,25.5,7.4,26,8c0.3,0,0.6,0,1,0.1
			C27,8.7,26.9,9.3,26.9,10z"/>
		<path class="st45" d="M26,16c0.3,0,0.7,0,1,0c-0.2,1.1,0.7,2.5-1.1,3c-0.2-1-1.2-1.8-0.9-2.9c0.1-0.1,0.3-0.3,0.4-0.4
			C25.6,15.7,25.8,15.9,26,16z"/>
		<path class="st46" d="M26,8c-0.7,0-1.3,0-2,0.1c-0.4,0.3-0.9,0.3-1.3,0c-0.9-1.2-1.1-2.6-0.7-4C24.3,4.3,26.4,4.9,26,8z"/>
		<path class="st47" d="M22,4c0.8,1.2,1.2,2.5,1,4c0.3,1.5-0.5,1.1-1.2,0.8c-0.3-0.3-0.4-0.7-0.6-1C21,7.2,21,6.6,21,6
			c-0.3-0.7-0.7-1.3-1-2C20.7,4,21.3,4,22,4z"/>
		<path class="st48" d="M21,6c0.6,0.1,0.9,0.4,1,1c-0.7,0.6-1.3,0.6-2,0c-0.6-0.1-0.9-0.4-1-1C19.7,6,20.3,6,21,6z"/>
		<path class="st49" d="M10,17c0-0.3,0-0.7,0-1c-1.4-3.8,0-5.6,4-5c1.5,1,3.2,0,4.7,0.6c0.4,0.3,0.6,0.6,0.7,1.1
			c-0.4,1.6-1.2,3-2.1,4.3c-0.4,0.3-0.8,0.4-1.2,0.5c-1.7-0.4-3.5,0.8-5.1-0.5C10.7,17,10.3,17,10,17z"/>
		<path class="st50" d="M19,12c-1.7-0.4-3.6,0.8-5-1c1.2,0.2,2-0.7,3-1c0.3,1.1,1.2,1,2,1C19.2,11.3,19.2,11.7,19,12z"/>
		<path class="st51" d="M22,8c0.2,0.3,0.3,0.5,0.5,0.8C22.7,8.5,22.8,8.2,23,8c0.3,0,0.7,0,1,0c1.3,1.3-0.2,2.7,0,4l0,0
			c-0.2,0.3-0.5,0.5-0.9,0.6c-0.4,0-0.7,0-1.1-0.1c-0.5-0.2-0.9-0.6-1.3-1C20.3,11,20,10.6,20,10c0-0.7,0-1.3,0-2l0,0
			C20.7,7.4,21.3,7.4,22,8z"/>
		<path class="st52" d="M20,10c0.6,0.1,0.9,0.4,1,1c1.1,1.9,0.5,3.5-0.8,5.1c-0.5,0.3-1,0.2-1.5-0.1c-0.6-1-0.4-2,0.3-3
			c0-0.3,0-0.7,0-1s0-0.7,0-1C19.1,10.4,19.4,10.1,20,10z"/>
		<path class="st53" d="M22,8c-0.7,0-1.3,0-2,0c0-0.3,0-0.7,0-1c0.7,0,1.3,0,2,0C22,7.3,22,7.7,22,8z"/>
		<path class="st54" d="M20,21c0,0.3,0,0.7,0,1c0,1-0.2,1.9-0.9,2.7c-0.5,0.6-1.2,1-1.9,1.2c-4.3,1-7.9,0.2-10.2-4
			c-0.3-0.7-0.7-1.3-1-2c1.9,0,3.3-1.4,5-2c1.4-0.1,2.9-1.2,4.4-0.1C16.2,19.9,18.9,19.4,20,21z"/>
		<path class="st55" d="M15,18c-1.3-0.2-2.7,1.3-4,0c0-0.3,0-0.7,0-1c0.8,0,1.5-0.2,2.2-0.6c1-0.6,2.1-0.8,2.8,0.6
			C16.2,17.9,15.9,18.2,15,18z"/>
		<path class="st56" d="M7,22c2.9,3.6,7,3.1,11,3c0.6,1.8-0.7,2.8-1.8,3.8c-2.3,1.5-4.3,0.5-6.2-0.8c-0.3,0-0.7,0-1,0
			C9.9,25.5,6.7,24.3,7,22z"/>
		<path class="st57" d="M10,28c2,0,4,2,6,0c1.3-0.4,2.6-0.8,3.4-2c0.4-0.3,0.8-0.4,1.2-0.4c0.7,0.2,1,0.8,1.3,1.4
			c-0.6,2.7-3.5,2.4-5,4c-1,0-2,0-3,0C13.2,29.4,10.3,30.4,10,28z"/>
		<path class="st58" d="M22,27c-0.6-0.1-0.9-0.4-1-1c-0.6-0.7-0.5-1.3,0-2c1.2,0.3,2-0.7,3-1C24.6,25,23,25.8,22,27z"/>
		<path class="st59" d="M15,18c0.6-0.1,0.9-0.4,1-1c0.3,0,0.7,0,1,0c0.3-0.3,0.6-0.5,1-0.5c0.8,0.8,3.1-1.2,3,1.5
			c-1.5,0.6-0.8,2-1,3c-0.6-0.1-1.2-0.4-1.8-0.3C15.1,20.8,15.1,20.9,15,18z"/>
		<path class="st60" d="M21,24c0,0.7,0,1.3,0,2h-0.5H20c-1.7,0-1.7-0.8-1-2c0-0.8,0-1.7,1-2C21.1,22.3,21,23.1,21,24z"/>
		<path class="st61" d="M21,18c-0.3-0.9-0.9-1.2-1.7-0.7c-0.6,0.4-1,0.5-1.3-0.3c-0.4-1.1,0.1-1.2,1-1c0.3,0,0.7,0,1,0
			c0.6-0.6,1.2-0.8,2-0.6c0.7,0.3,1.3,0.7,1,1.6C22.7,18.1,21.8,18,21,18z"/>
		<path class="st62" d="M23,17c-0.1-0.6-0.4-0.9-1-1c-1.1-1.3-0.9-2.7,0-4c0.3,0,0.7,0,1,0c0.1,1.6,2.1,2.3,2,4l0,0
			C24.4,16.3,23.7,16.7,23,17z"/>
		<path class="st63" d="M25,16c-0.9-1.2-2.6-2.1-2-4c0.3,0,0.7,0,1,0c-0.5,1.9,2.5,2.1,2,4C25.6,16,25.3,16,25,16z"/>
		<path class="st64" d="M19,16c-0.6,0.1-0.9,0.4-1,1c-0.3,0-0.7,0-1,0c-0.1-1.7,0-3.3,2-4C19,14,19,15,19,16z"/>
		<path class="st65" d="M22,12c0,1.3,0,2.7,0,4c-0.7,0-1.3,0-2,0c-0.5-1.8,1.1-3.3,1-5C21.6,11.1,21.9,11.4,22,12z"/>
		<path class="st66" d="M19,24c0,0.8-0.1,1.7,1,2c-0.8,3.1-1.1,3.3-4,2c0.7-1,1.3-2,2-3C18.1,24.4,18.4,24.1,19,24z"/>
	</g>
</g>
</svg>
