<?xml version="1.0" encoding="utf-8"?>
<!-- Generator: Adobe Illustrator 23.0.5, SVG Export Plug-In . SVG Version: 6.00 Build 0)  -->
<svg version="1.1" id="Слой_1" xmlns="http://www.w3.org/2000/svg" xmlns:xlink="http://www.w3.org/1999/xlink" x="0px" y="0px"
	 width="161.2px" height="161.2px" viewBox="0 0 161.2 161.2" style="enable-background:new 0 0 161.2 161.2;" xml:space="preserve"
	>
<style type="text/css">
	.st0{fill:#FEFEFE;}
	.st1{fill:#FEFDED;}
	.st2{fill:#FEFBEE;}
	.st3{fill:#FEFEF6;}
	.st4{fill:#FEFEF8;}
	.st5{fill:#FEFC9D;}
	.st6{fill:#FEF392;}
	.st7{fill:#FDFB96;}
	.st8{fill:#FEF398;}
	.st9{fill:#FDF38C;}
	.st10{fill:#FDFC9D;}
	.st11{fill:#FEF79B;}
	.st12{fill:#FEF296;}
	.st13{fill:#FEF38F;}
	.st14{fill:#FEF08D;}
	.st15{fill:#FDF193;}
	.st16{fill:#FDFC9F;}
	.st17{fill:#FDFBA1;}
	.st18{fill:#FEF99A;}
	.st19{fill:#FDF7A0;}
	.st20{fill:#FCFC9E;}
	.st21{fill:#FEF39A;}
	.st22{fill:#FEF49B;}
	.st23{fill:#FEFC97;}
	.st24{fill:#FCFDA6;}
	.st25{fill:#FDFCA2;}
	.st26{fill:#FDFD9E;}
	.st27{fill:#FAFE9C;}
	.st28{fill:#FDFC99;}
	.st29{fill:#FCFCA8;}
	.st30{fill:#FAFDB8;}
	.st31{fill:#FEF699;}
	.st32{fill:#FDFCA1;}
	.st33{fill:#FCFCB3;}
	.st34{fill:#FCFB9B;}
	.st35{fill:#FEF39F;}
	.st36{fill:#FEF195;}
	.st37{fill:#FDFBC4;}
	.st38{fill:#FEF89E;}
	.st39{fill:#F6FD91;}
	.st40{fill:#FCFDAA;}
	.st41{fill:#FDFCA5;}
	.st42{fill:#FCFD9B;}
	.st43{fill:#FDF195;}
	.st44{fill:#FDFC9C;}
	.st45{fill:#FCFCAB;}
	.st46{fill:#FCFDA2;}
	.st47{fill:#F8FDA0;}
	.st48{fill:#FDFC95;}
	.st49{fill:#FEF898;}
	.st50{fill:#FBFDA6;}
	.st51{fill:#FAFDAD;}
	.st52{fill:#FDFCB9;}
	.st53{fill:#FAFDA4;}
	.st54{fill:#FDFCAC;}
	.st55{fill:#FAFDBD;}
	.st56{fill:#FAFCC2;}
	.st57{fill:#FCFDA1;}
	.st58{fill:#FDFDAD;}
	.st59{fill:#FAFDA6;}
	.st60{fill:#FCFCBE;}
	.st61{fill:#FAFDBF;}
	.st62{fill:#FBFDA1;}
	.st63{fill:#FBFCBE;}
	.st64{fill:#FBFCC1;}
	.st65{fill:#FBFCC3;}
	.st66{fill:#FDFDE2;}
	.st67{fill:#F8FDBA;}
	.st68{fill:#F8FDB8;}
	.st69{fill:#F7FEA7;}
	.st70{fill:#F9FDB3;}
	.st71{fill:#F9FCBE;}
	.st72{fill:#FCFCB0;}
	.st73{fill:#FDFCDF;}
	.st74{fill:#FDFDE4;}
	.st75{fill:#FDFDE6;}
	.st76{fill:#FEFDE7;}
	.st77{fill:#FBFBCC;}
	.st78{fill:#FAFDBA;}
	.st79{fill:#FDFDE7;}
	.st80{fill:#FDFDE1;}
	.st81{fill:#FCFDEB;}
	.st82{fill:#F9FEE2;}
	.st83{fill:#FCFCBA;}
	.st84{fill:#FCFCB9;}
	.st85{fill:#FCFDE3;}
	.st86{fill:#FEFDE3;}
	.st87{fill:#FCFDE4;}
	.st88{fill:#FEFBEF;}
	.st89{fill:#FAFDEA;}
	.st90{fill:#FDFBCE;}
	.st91{fill:#FCFDE5;}
	.st92{fill:#FEFCE3;}
	.st93{fill:#FAFDDF;}
	.st94{fill:#FDFDDF;}
	.st95{fill:#FDFDE0;}
	.st96{fill:#FBFDE8;}
	.st97{fill:#FBFDD9;}
	.st98{fill:#FDFDD1;}
	.st99{fill:#FCF99F;}
	.st100{fill:#FEF9C1;}
	.st101{fill:#FDFDC3;}
	.st102{fill:#FEFCDB;}
	.st103{fill:#F9FDE5;}
	.st104{fill:#FCFDEC;}
	.st105{fill:#FEFCF0;}
	.st106{fill:#FDFCD0;}
	.st107{fill:#FDFDB9;}
	.st108{fill:#FDFDD7;}
	.st109{fill:#FEFBF1;}
	.st110{fill:#FDFDCC;}
	.st111{fill:#FDFCF0;}
	.st112{fill:#FDFCE0;}
	.st113{fill:#FAFEEC;}
	.st114{fill:#FEFDEE;}
	.st115{fill:#FDFCD2;}
	.st116{fill:#F9FDE8;}
	.st117{fill:#FEFCEC;}
	.st118{fill:#FDFDCA;}
	.st119{fill:#FDFDCB;}
	.st120{fill:#FDF8B3;}
	.st121{fill:#FDFDD0;}
	.st122{fill:#FDFDCE;}
	.st123{fill:#FEFCE9;}
	.st124{fill:#FEFBBA;}
	.st125{fill:#FEFDCA;}
	.st126{fill:#FEF68F;}
	.st127{fill:#FEF7A2;}
	.st128{fill:#FEF99D;}
	.st129{fill:#FDF679;}
	.st130{fill:#FCF891;}
	.st131{fill:#FEFAAA;}
	.st132{fill:#FEF694;}
	.st133{fill:#FCFCBB;}
	.st134{fill:#FDFDC8;}
	.st135{fill:#FDFDA8;}
	.st136{fill:#FEFBA5;}
	.st137{fill:#FDFDBF;}
	.st138{fill:#FCFCC7;}
	.st139{fill:#FDFDAF;}
	.st140{fill:#FEF8AD;}
	.st141{fill:#FCFDAF;}
	.st142{fill:#FCFB9C;}
	.st143{fill:#FDFAB1;}
	.st144{fill:#FDFBBC;}
	.st145{fill:#F9FED4;}
	.st146{fill:#FDFCBC;}
	.st147{fill:#FDFDBD;}
	.st148{fill:#FCFDBB;}
	.st149{fill:#FEF9B4;}
	.st150{fill:#FEF7AD;}
	.st151{fill:#FBFCA7;}
	.st152{fill:#FCFBB1;}
	.st153{fill:#FEF695;}
	.st154{fill:#FEF57A;}
	.st155{fill:#FEF684;}
	.st156{fill:#FEF895;}
	.st157{fill:#FDFA9A;}
	.st158{fill:#FEF9AC;}
	.st159{fill:#FEFA9A;}
	.st160{fill:#FCFC9D;}
	.st161{fill:#FDF570;}
	.st162{fill:#FDF470;}
	.st163{fill:#FEFCA3;}
	.st164{fill:#FDFC9B;}
	.st165{fill:#FDFDA1;}
	.st166{fill:#FBFC90;}
	.st167{fill:#FCFB9D;}
	.st168{fill:#FCFB91;}
	.st169{fill:#FEFA9B;}
	.st170{fill:#FEF696;}
	.st171{fill:#FEF28D;}
	.st172{fill:#FEF690;}
	.st173{fill:#FDF479;}
	.st174{fill:#FCF786;}
	.st175{fill:#FBFB82;}
	.st176{fill:#FDFB8E;}
	.st177{fill:#FEF9A3;}
	.st178{fill:#FEFAAF;}
	.st179{fill:#FEF594;}
	.st180{fill:#FCFC92;}
	.st181{fill:#FCFC9C;}
	.st182{fill:#FCFCA1;}
	.st183{fill:#FDF677;}
	.st184{fill:#FEF899;}
	.st185{fill:#FEF8A2;}
	.st186{fill:#FEF597;}
	.st187{fill:#FDF472;}
	.st188{fill:#FDF588;}
	.st189{fill:#FDF887;}
	.st190{fill:#FDFCA8;}
	.st191{fill:#FEFA91;}
	.st192{fill:#FCFD94;}
	.st193{fill:#FEF467;}
	.st194{fill:#FDFC91;}
	.st195{fill:#FEF997;}
	.st196{fill:#FEF79D;}
	.st197{fill:#FDFA85;}
	.st198{fill:#FBFDA7;}
	.st199{fill:#FEFAA6;}
	.st200{fill:#FBFA6C;}
	.st201{fill:#FEF48E;}
	.st202{fill:#FEF692;}
	.st203{fill:#FEF292;}
	.st204{fill:#FEEE88;}
	.st205{fill:#FEEF8C;}
	.st206{fill:#FEF191;}
	.st207{fill:#FEF381;}
	.st208{fill:#FEF380;}
	.st209{fill:#FEF595;}
	.st210{fill:#FEF361;}
	.st211{fill:#FEF373;}
	.st212{fill:#FCF473;}
	.st213{fill:#FBFB79;}
	.st214{fill:#FEF79A;}
	.st215{fill:#FEF69E;}
	.st216{fill:#FDFB89;}
	.st217{fill:#FCFC7F;}
	.st218{fill:#FCFC80;}
	.st219{fill:#FCF65B;}
	.st220{fill:#FEF796;}
	.st221{fill:#FEF6A3;}
	.st222{fill:#FEF4A0;}
	.st223{fill:#FEF29A;}
	.st224{fill:#FEF295;}
	.st225{fill:#FEF198;}
	.st226{fill:#FDF44F;}
	.st227{fill:#FDF568;}
	.st228{fill:#FDF471;}
	.st229{fill:#FDF585;}
	.st230{fill:#FEF599;}
	.st231{fill:#FEF59F;}
	.st232{fill:#FEF9A8;}
	.st233{fill:#FEFBAD;}
	.st234{fill:#FCFA6B;}
	.st235{fill:#FEF28C;}
	.st236{fill:#FEF193;}
	.st237{fill:#FEF090;}
	.st238{fill:#FEF395;}
	.st239{fill:#FEEF8B;}
	.st240{fill:#FEF182;}
	.st241{fill:#FEF367;}
	.st242{fill:#FBFB72;}
	.st243{fill:#FCFB7D;}
	.st244{fill:#FCFB6C;}
	.st245{fill:#FCF878;}
	.st246{fill:#FEF32E;}
	.st247{fill:#FDF67C;}
	.st248{fill:#FBFA5E;}
	.st249{fill:#FCFB69;}
	.st250{fill:#FEF223;}
	.st251{fill:#F9FA46;}
	.st252{fill:#FCF833;}
	.st253{fill:#FCF83B;}
	.st254{fill:#F9F83B;}
	.st255{fill:#FCF836;}
	.st256{fill:#FEF625;}
</style>
<g>
	<g>
		<path class="st0" d="M3.4,9.9C3.4,9.9,3.5,9.9,3.4,9.9c1.6-2,3.4-3.6,5.4-4.9C7.2,5.1,4.5,5.2,3.7,6.5C3.3,7.2,3.3,8.6,3.4,9.9z"
			/>
		<path class="st0" d="M7.8,156.3c0.3-0.1,0.7-0.2,1-0.3c0.6-0.1,1.1-0.2,1.6-0.2c-1.8-2.7-3.5-5.5-5.1-8.1c0.1,1.8,0.3,3.6,0.7,5.3
			C6.4,154.7,7,155.7,7.8,156.3z"/>
		<path class="st0" d="M77.1,0.1c-1.6,0-3.2,0-4.8,0c-0.7,1.3-2.1,2.2-4.2,2C60,1.5,51.6,4.3,44.2,7.4C38,9.9,33,14.6,27,17.4
			c-3.4,1.6-6.7,2.8-9.5,5.4c-2.4,2.3-4.2,5.3-6,8.1C7.4,37.3,5.9,44.2,4,51.4c-0.6,2.3-2.2,3.4-3.9,3.5c0,15.7,0,31.3,0,47
			c1.6,0.4,2.9,1.6,3.6,3.4c2.4,6.6,3.7,13.5,6.6,20c2.6,5.7,5.9,11.4,9.8,16.3c3.9,4.8,9.5,7.3,14.6,10.5c5.4,3.5,11.5,4,17.4,6
			c1.6,0.5,2.6,1.6,3.1,2.9h12.9c0.3-0.4,0.4-0.8,0.4-1.2c-0.7-0.7-1.6-1.2-2.5-1.5c-1.6-0.4-3.2-0.5-4.8-1c-1.6-0.4-3.3-0.4-4.8-1
			c-2-0.6-4-1.3-6-2c-4-1.4-7.9-2.8-11.6-4.8c-4.4-2.1-7.7-5.5-11-9c-4.8-4.3-8.9-9.3-12.1-15c-6.1-8.8-10.2-18.5-12.1-29
			c-0.1-2.6,0.1-5.2-0.4-7.8c-0.7-1.9-0.8-3.9,0-5.9c0.3-1.1,0.4-2.1,0.4-3.2c0.3-4.3-0.5-8.6,0.5-12.9c1.4-8.5,4-16.6,8.7-23.9
			c2.3-6.2,7.2-10.6,10.9-15.8c0.7-0.8,1.5-1.6,2.3-2.4c2.2-2.6,5.2-4.3,7.7-6.6c1.8-1.4,3.8-2.2,5.8-3.2c0.8-0.4,1.6-0.8,2.4-1.3
			C47.6,9,54.4,7,61.4,5.5c0.4-0.1,0.9-0.3,1.3-0.5c1.8-0.7,3.7-0.4,5.6-0.5c2.2,0,4.5-0.2,6.5-1.3c0.9-0.5,1.7-0.9,2.4-1.7
			c0.1,0,0.1-0.2,0.2-0.5C77.4,0.7,77.3,0.4,77.1,0.1z"/>
		<path class="st0" d="M156.4,149.5c0.6-3.7,0.4-7.9,0.4-11.9c-2.4,3.6-4.5,7.4-6.8,11.1c-0.7,1.1-1.5,2.2-2.4,3.2
			c0.8,0,1.5-0.1,2.3-0.1c1.9-0.1,4-0.2,6-0.3C156.1,150.9,156.3,150.2,156.4,149.5z"/>
		<path class="st0" d="M141.3,143.7c2.5-3.8,4.6-7.9,7.2-11.7c2.4-3.6,5.4-6.7,6.8-10.8c1.5-4.5,1.7-9.3,2.5-13.9
			c0.9-4.7,2.3-9,2.4-13.8c0-1.2,0.3-2.1,0.9-2.8c0-3.2,0-6.3,0-9.5c-0.5-0.3-1-0.3-1.5,0.1c-1.4,1.5-1.7,3.3-1.8,5.1
			c-0.1,2.8,0.3,5.6-0.5,8.4c-0.2,1-0.4,2.1-0.4,3.1c-0.1,1.7,0.1,3.4-0.6,5c-0.3,0.9-0.7,1.8-1,2.7c-0.1,6.3-3.3,11.3-6.8,16.1
			c-1,2.1-1.8,4.3-3.5,6c-11.7,15.8-26.6,26.5-46.3,29.8c-3,0.9-6.1,0-9,0.9c-0.8,0.3-1.4,0.7-1.8,1.4c-0.2,0.5-0.2,1,0.2,1.4
			c3.2,0,6.5,0,9.7,0C112.4,154.9,131.7,158.6,141.3,143.7z"/>
		<path class="st0" d="M158.1,29.3c0.4,0.6,0.9,1.2,1.3,1.9c-0.4-5.2-1.8-10.2-5-14.3c-3.7-4.7-8.7-7.3-14.2-8.8
			c1.8,1.4,3.5,2.9,5.1,4.5C150.3,17.5,154.2,23.5,158.1,29.3z"/>
		<path class="st0" d="M157,52.5c-0.8-3.4-0.8-7.3-2.3-10.5c-1.3-2.7-3.5-5.1-5.2-7.6c-3.5-5.1-6.8-10.3-11.3-14.7
			c-9.4-9.3-22.3-15.1-35.3-17c-1.8-0.3-2.9-1.3-3.4-2.5c-4.2,0-8.3,0-12.5,0c-0.3,0.4-0.4,0.8-0.1,1.3c1.3,1,3,0.8,4.5,1.3
			c0.4,0.1,0.9,0.2,1.3,0.3c1.7,0.3,3.5,0.1,5,1.1c0.5,0.4,1.1,0.7,1.8,0.9c13,2.4,24.6,7.5,34.3,16.6c0.5,0.4,1,0.9,1.6,1.3
			c3.6,2.4,6.5,5.4,8.9,8.9c2.2,2.4,3.1,5.4,4.9,8c1.4,2.1,2.1,4.5,2.6,6.9c0.7,4.4,5.3,7.2,5.1,12c0.1,0.8,0.4,1.7,0.6,2.6
			c0.1,0.7,0.2,1.3,0.2,2v6.3c0.1,2.3,0.1,4.7,1.9,6.5c0.5,0.3,0.9,0.3,1.4,0c0-6.7,0-13.4,0-20.1C159.3,55.8,157.5,54.7,157,52.5z"
			/>
		<path class="st1" d="M68.1,161.1c0-0.3,0-0.7,0-1c4.8-2.5,9.6-1.5,14.5-0.6c0.6,0.4,0.8,0.9,0.5,1.6
			C78.1,161.1,73.1,161.1,68.1,161.1z"/>
		<path class="st2" d="M87.1,0.1c0,0.3,0,0.6,0,1c-3.3,2.1-6.7,2.1-10,0c0-0.3,0-0.7,0-1C80.4,0.1,83.8,0.1,87.1,0.1z"/>
		<path class="st3" d="M160.1,76.1c0.3,0,0.7,0,1,0c0,1.7,0,3.3,0,5c-0.3,0-0.7,0-1,0C158.7,79.4,158.7,77.8,160.1,76.1z"/>
		<path class="st4" d="M83.1,161.1c0-0.3,0-0.7,0-1c1.6-1.5,3.3-1.5,5-0.1c0,0.4,0,0.7,0,1.1C86.4,161.1,84.8,161.1,83.1,161.1z"/>
		<path class="st5" d="M98.2,3.1c0.3,0.3,0.6,0.6,0.9,0.9c5.9,2,12.2,2.9,17.6,6.1c1.3,0.7,3.5,0.7,3.3,3.1
			c-1.2,1.2-2.8,1.3-4.1,0.5c-4.2-2.7-9-2.5-13.6-3.2c-8.4-1.9-16.8-4.2-25.6-3c-1.6,0.2-3.3-0.1-4.8-0.9c-1.2-1.3-3.7-0.9-3.8-3.4
			c2.4,0.2,4.6-0.5,6.9-1.1c5.7-0.7,11.4-0.7,17.2,0l0,0C94,3.4,96.3,1.9,98.2,3.1z"/>
		<path class="st6" d="M15,126.3c-6.9-8.6-10.6-18.6-12.8-29.2c0.4-0.3,0.8-0.6,1.2-0.8c0.5-0.1,1-0.1,1.5,0s0.9,0.4,1.3,0.7
			c1.7,3.9,2.5,8,3.7,12c0.5,3.4,2.4,6,4.7,8.4c2.1,2.1,3.2,4.5,2.1,7.5C16.4,125.6,15.8,126.1,15,126.3z"/>
		<path class="st7" d="M56,157.1c-2.2-0.1-4.3-0.7-6.1-1.9c-0.8-1.9-3.1-1.6-4.4-2.7c-0.9-0.8-2.6-1.3-1-3c1.6-0.8,3.4-0.7,5.1-0.6
			c2,0.2,3.8,1,5.4,2.2c2,2.2,4.1,3.8,7.3,2.4c0.4,0.1,0.9,0.2,1.2,0.5c1.5,1.5,3.2,2.2,5.3,2c1.2,0,2.3-0.3,3.5-0.4
			c0.5,0,1,0.2,1.5,0.4c1.3,1.1,2.9,2.1,0.5,3.6c-2.8-0.2-5.7,0.5-8.4-0.4c-1.7-0.2-3.5,0.5-5-0.8C59.7,156.7,57.5,158.4,56,157.1z"
			/>
		<path class="st8" d="M3.1,97.1c-0.3,0-0.6,0-0.9,0c0-3-0.1-5.9-0.1-8.9c-0.7-1.7-0.7-3.5,0-5.2c0-1,0-1.9,0.1-2.9
			c1.4-4.6-0.3-9.5,0.9-14.1c0.9-8.8,3.6-16.9,9-24c0.4,0.3,0.6,0.7,0.8,1.1c0.3,1.7-0.4,3.3-1,4.8c-0.3,0.6-0.6,1.2-1,1.9
			c-0.8,1.5-1.4,3-2.2,4.5c-2.1,4.8-2.1,10.1-3.1,15.2c-0.1,7,0.3,14.1-0.4,21.1C4.3,92.7,4.8,95.2,3.1,97.1z"/>
		<path class="st9" d="M15,126.3c0.4-0.4,0.8-0.8,1.1-1.2c2.7-0.5,3.7,1.6,4.8,3.3c1.8,3.1,4.2,5.8,7,8c2.2,2.3,6.5,3.3,5.4,7.9
			c-3.2,1.2-3.9-2.7-6.3-3.1C21.7,137.2,17.8,132.2,15,126.3z"/>
		<path class="st10" d="M61.1,4.1C61.4,4,61.7,4,62,4.1c5.8-1.2,3.1,2.4,2.7,4.8c-0.3,0.4-0.7,0.8-1.1,1c-6.7-0.6-11.6,4-17.5,5.8
			c-0.8,0.1-1.5,0-2.1-0.6c-0.5-0.7-0.6-1.4-0.5-2.2c3.3-4.3,8.6-4.5,13.1-6.3C58.1,5.9,60.2,6.1,61.1,4.1z"/>
		<path class="st11" d="M61.1,4.1c-2.2,5.2-7.9,3.6-11.6,6c-1.7,1.1-4.4,0.6-5.4,3C43,13.9,41.9,14,40.9,13
			C46.5,7.4,53.9,6.1,61.1,4.1z"/>
		<path class="st12" d="M12.1,43.1c0-0.4-0.1-0.8-0.1-1.2C13.7,35.2,19,31,23,26c0.9-0.4,1.3,0.2,1.7,0.9c0.4,3.8-3,5.3-4.7,7.9
			c-1.6,1.8-3.1,3.7-4.4,5.7C14.8,41.8,14.3,43.7,12.1,43.1z"/>
		<path class="st13" d="M44.1,150.1c1.7,1.8,4.1,2.3,6.3,3.3c2,0.9,0.9,1.5-0.5,1.8c-4.3-0.9-8.3-2.5-11.9-5
			c0.9-0.6,0.7-1.9,1.7-2.6C41.7,147.4,43.1,148.5,44.1,150.1z"/>
		<path class="st14" d="M39.1,148.1c0.6,1.2,0.5,2.1-1.1,2.1c-4.8-1.6-7.8-5.5-11-9c2.7-0.4,3.5,3.1,6.2,2.9
			C36.4,143.6,37.7,145.8,39.1,148.1z"/>
		<path class="st15" d="M25.1,24c2-3.1,5.2-4.8,8.1-6.9c0.7-0.6,1.4-0.5,2.1-0.2c0.5,0.7,0.6,1.4,0.3,2.2c-2.7,2.5-5.3,5.1-8.7,6.7
			C25.8,25.7,24.7,25.6,25.1,24z"/>
		<path class="st16" d="M66,159.1c3,0,6.1,0,9.1,0c0.7-0.5,1.4-1,2.3-1.2c2.3-0.3,4.6-0.1,6.9-0.2c1.8,0.1,3.6-0.1,4.9,1.4
			c-0.4,0.3-0.7,0.6-1.1,0.9c-1.7,0-3.3,0-5,0.1c-5,0-10,0-15,0C67.4,159.8,66.7,159.5,66,159.1z"/>
		<path class="st17" d="M64.1,9.1c-1-1.6,2.6-5-2.1-5c1.9-1.5,4.1-0.8,6.1-0.9c0.9,1.6,3.1,0.3,4,2c-1.5,1.6-4.4,1-5.5,3.3
			C65.9,9,65.1,9.6,64.1,9.1z"/>
		<path class="st18" d="M35.1,19.1c0-0.7,0-1.3,0-2c1.1-1.4,3-1.6,3.9-3.1c0.6-0.3,1.2-0.6,1.8-1c1.1,0,2.1,0.1,3.2,0.1
			c0,0.7,0,1.3,0,2c-0.1,0.2-0.2,0.4-0.4,0.6C41.1,17.3,38.8,20,35.1,19.1z"/>
		<path class="st19" d="M92.1,2.1c-5.7,0-11.4,0-17.2,0c0.7-0.3,1.4-0.6,2.1-1c3.3,0,6.7,0,10,0C88.8,1.4,90.7,0.6,92.1,2.1z"/>
		<path class="st20" d="M3,66c-0.4,4.7,1.1,9.5-0.9,14.1C2.5,75.4,1.1,70.6,3,66z"/>
		<path class="st21" d="M39.1,14c-0.1,2.5-2.1,2.8-3.9,3.1c-0.7,0-1.3,0-2,0C34.8,15.5,36.9,14.6,39.1,14z"/>
		<path class="st22" d="M25.1,24c0.4,0.8,1.2,1,2,1.1c0,2.2-0.9,3-3,2c-0.4-0.3-0.7-0.7-1.1-1C23.7,25.4,24.4,24.7,25.1,24z"/>
		<path class="st20" d="M2,83c0,1.7,0,3.5,0,5.2C0.8,86.5,0.8,84.7,2,83z"/>
		<path class="st16" d="M56,157.1c1.7,0.3,3.7-0.9,5,1.2C59.4,157.9,57.5,158.6,56,157.1z"/>
		<path class="st23" d="M146.1,128c-10.9,15.2-25,25.7-43.4,29.8c-1.1,0.2-2.3,0.2-3.4,0.3c-2.9,0-6.2,2.2-8.6-1.3
			c0.1-0.9,0.7-1.4,1.5-1.7c2.2-0.8,4.8,1.2,6.9-0.8c2.4-1.7,5.3-2.3,8.1-3.3c4.7-1.1,9.2-3,13.9-4.3c2.6-0.2,2.8-3,4.5-4.3
			c1.3-1.3,2.5-2.6,4.3-3.3c1.8-0.8,3.9-1.1,5-3.1c1-3.1,3-5.5,4.7-8.2c0.4-0.6,0.9-1.1,1.5-1.6c0.8-0.7,1.8-1.1,2.8-1.2
			C145.3,125.4,147.2,125.4,146.1,128z"/>
		<path class="st24" d="M160.1,76.1c0,1.7,0,3.3,0,5c-2,4.5,0.2,9.6-1.9,14.1c-0.5-0.4-0.9-1-1-1.7c-0.1-1.5-1-3-1.8-3.1
			c-1.2-5.7-0.8-11.4-0.3-17.1c1.9-0.9,1.5-4,4-4.3C159.4,71.4,159.8,73.8,160.1,76.1z"/>
		<path class="st25" d="M156.2,105.1c0.6,6.9-2.6,12.3-7,17.1c-0.4-0.3-0.8-0.8-1-1.3c-1-3.5,0.6-6.9,0.8-10.3
			c0.2-0.8,0.6-1.5,1-2.1C151.8,106.9,153,104.2,156.2,105.1z"/>
		<path class="st26" d="M91.1,156.1c1.9,4,5.5,1.1,8.1,2.1c-3.2,1.9-6.7,0.7-10,1c-1.7,0-3.4,0-5.1-0.1c-2.3-0.8-4.6-0.8-7,0
			c-0.7,0-1.3,0-2,0c0.2-1.6-1.4-2-2-3c2.9-2.4,6-0.2,9-0.2S88.2,153.7,91.1,156.1z"/>
		<path class="st27" d="M156.1,91.1c0.6-0.7,1.1-1.3,2.1-2.5c0,2.6,0,4.6,0,6.6c0,1,0,1.9-0.1,2.9c-0.4,0.7-0.8,1.5-1.9,1.1
			C153.1,95.2,153.1,93.7,156.1,91.1z"/>
		<path class="st28" d="M149.1,121.1c0,0.4,0,0.8,0.1,1.1c-0.5,2.2-1.4,4.2-3.1,5.8c-0.1-2-1.6-1.9-3-1.9
			C143.2,122.2,145.2,120.4,149.1,121.1z"/>
		<path class="st29" d="M156.2,105.1c-2.2,0.6-3.7,2.3-5.1,4c-0.8-0.7-1-1.6-0.9-2.6c0.1-0.5,0.2-0.9,0.4-1.4
			c0.9-1.1,1.9-2.1,3.2-2.8c1.1-0.5,2.2-0.9,3.4-0.4c0.3,0.4,0.3,0.8-0.1,1.2C157.1,103.9,157,104.7,156.2,105.1z"/>
		<path class="st30" d="M157.1,103.1c0-0.3,0-0.7-0.1-1c-0.8-1-0.8-2,0-3c0.3-0.3,0.7-0.7,1-1C157.9,99.8,158.6,101.7,157.1,103.1z"
			/>
		<path class="st31" d="M120.1,13.1c-4.8-3.8-10.7-4.9-16.2-7c-1.6-0.6-3.6-0.5-4.8-2.2c14,1.6,25.9,7.5,36,17.2
			c0.4,0.7,0,1.1-0.6,1.4c-0.9,0.1-1.8-0.6-2.8-0.1c-0.6-0.1-1.2-0.4-1.7-0.7c-3.8-1.9-6.6-5.1-9.7-7.9
			C120.2,13.5,120.2,13.3,120.1,13.1z"/>
		<path class="st32" d="M150.1,39c1.9,2,2.3,4.6,2.9,7.1c-1.6,1.7,0.1,4.5-1.8,6.1c-2.4,0.1-2.2-2-2.7-3.3c-0.7-1.9-0.9-4.1-2.3-5.7
			c-3.3-3.1-5.6-6.8-7.4-10.9c0.7-1.1,1.9-1.4,3.1-1.6c1-0.1,1.8,0.3,2.6,1C147.2,33.5,147,37.5,150.1,39z"/>
		<path class="st33" d="M157.1,99.1c0,1,0,2,0,3c-1,0.3-2,0.6-3,1c-1.8-3-0.7-6.4-1.4-9.6c1.1-8.4,1.6-16.8,0.1-25.2
			c-0.3-1.6-0.2-3.3,0.6-4.9c0.8-1.2,1.9-1.4,3.2-1.4c1,0.1,1.7,0.5,2.5,1.1c0,0.7,0,1.3,0,2c-2.9,0.8-3,2.8-2.4,5.2
			c0.1,0.7-0.1,1.4-0.7,1.8c0,6.3,0,12.7,0,19C154.2,94,154.9,96.7,157.1,99.1z"/>
		<path class="st34" d="M151.1,52.1c0.7-2-1.6-4.9,2-6c0.6,2.8,2.3,5,4.1,7.2c1.3,1.7,1.1,3.8,0.9,5.8c-0.7,0.9-1.1,2.1-2.3,2.5
			c-0.8,0.1-1.4-0.1-2-0.7C153.3,57.8,150,55.6,151.1,52.1z"/>
		<path class="st35" d="M144.1,32.1c-0.7-0.3-1.3-0.7-2-1c-1.3-1-1.9-2.8-3.5-3.5c-1-0.6-1.9-1.3-2.5-2.3c-0.6-1.1-1.1-2.2,0-3.4
			c3.8,2.3,6.8,5.3,9.1,9.1C145.1,31.6,144.7,32,144.1,32.1z"/>
		<path class="st36" d="M144.1,32.1c0.4-0.4,0.7-0.7,1.1-1.1c2.7,2,3.3,5.4,4.9,8C145.8,38.7,146.6,34,144.1,32.1z"/>
		<path class="st27" d="M156.1,72.1c0-0.7,0-1.3,0-2c-0.5-2.5-1.7-5.5,3-4c0,1,0,2,0,3C157.2,69.2,159.5,73.5,156.1,72.1z"/>
		<path class="st24" d="M159.1,66.1c-3.2-0.3-3.1,1.8-3,4c-1.5-1.5-1.3-3.2-0.4-4.9c0.9-1.6,2.2-0.6,3.4-0.1
			C159.2,65.4,159.2,65.8,159.1,66.1z"/>
		<path class="st37" d="M154.1,61.1c0.7,0,1.3,0,2,0c1-0.9,2-0.7,3,0c0,0.7,0,1.3,0,2c-0.7,0-1.3,0-2,0c-0.8-1.1-2.6,0.2-3.2-1.4
			C154,61.5,154,61.3,154.1,61.1z"/>
		<path class="st38" d="M136.1,22c0.3,1,0.6,2.1,1,3.1c-2.8,0.8-3.8-0.2-3-3c0.3-0.3,0.7-0.6,1-1C135.4,21.4,135.8,21.7,136.1,22z"
			/>
		<path class="st19" d="M98.2,3.1c-2-0.3-4.3,0.9-6.1-1C94.2,2.2,96.4,1.5,98.2,3.1z"/>
		<path class="st39" d="M159.1,61.1c-1,0-2,0-3,0c0-1.2,0.6-2,1.9-2C158.4,59.8,158.7,60.4,159.1,61.1z"/>
		<path class="st40" d="M66.1,8.1c0.5-4,3.6-2.7,6-3c0.7,0.9,1.6,1.1,2.6,1c9.7-1.3,19,1,28.4,3c0.3,0.6,0.2,1.1-0.4,1.5
			c-3.6,1.4-6.8-0.5-10.1-1.1C85.7,8.1,78.8,10,72,9.5C70,9.3,67.8,9.8,66.1,8.1z"/>
		<path class="st41" d="M103.1,10.1c0-0.3,0-0.7,0-1c6.1-0.6,11.2,3.3,17,4l0,0c1.3,2.3-0.6,3-1.9,4.1c-3.9,0.5-6.6-2.7-10.1-3.3
			C106.1,13,103.7,12.7,103.1,10.1z"/>
		<path class="st20" d="M4.1,91.1c0-7.7,0-15.3,0-23c1.5-0.4,2.8,0,3.6,1.3c1.2,3.2,0.9,6.6,0.6,9.8c-0.8,9.3-0.1,18.4,3.2,27.1
			c0.4,1.2,0.2,2.3-1,3c-0.6,0.2-1.1,0.1-1.5-0.3c-1.3-4-2.7-8-4-12c-1.4-1.3-0.7-3.2-1.2-4.7C3.7,91.9,3.8,91.5,4.1,91.1z"/>
		<path class="st42" d="M9.1,109.1c0.3,0,0.7,0,1,0c1.8,2.3,4.1,4,5.7,6.5c0.8,1.1,1.5,2.3,2,3.6c0.7,4.5,3.9,7.1,7.3,9.7
			c1.9,2.5,4.3,4.8,2,8.3c-5.3-2.5-6.2-9.1-11-12c0.4-3-0.6-5.3-2.8-7.5C10.9,115.4,8.7,112.8,9.1,109.1z"/>
		<path class="st43" d="M4.1,91.1c0,0.3,0,0.7,0,1c0.7,1.7,0.8,3.3,0,5c-0.3,0-0.7,0-1,0C3.4,95.1,2.3,92.9,4.1,91.1z"/>
		<path class="st8" d="M4.1,97.1c0-1.7,0-3.3,0-5c1.7,1.4,0.8,3.3,1,5H4.6H4.1z"/>
		<path class="st44" d="M27.1,137.1c0.5-3.2-1.3-5.6-3-8c-0.3-0.3-0.4-0.5-0.3-0.8s0.2-0.4,0.3-0.4c3.1-0.2,4.2,2.3,5.5,4.3
			c1.6,2.5,3.6,4.3,6.4,5.1c2,1.2,3.4,3,5.4,4.1c0.6,0.4,1.1,0.9,1.5,1.4c0.6,4.2,5.6,3.9,7.2,7.1c-2,0-4,0-6,0
			c-1.7-0.7-3.3-1.3-5-2c-2-1.3-4-2.7-6-4C32.6,140.5,29.2,139.3,27.1,137.1z"/>
		<path class="st45" d="M50.1,150.1c-3.8-1.1-7.4-2.3-8-7c2-1.5,3.4,0.6,5.1,0.9c0.4,0.1,0.9,0.3,1.3,0.4c4.3,1.7,8.4,3.9,12.6,5.7
			c1.4,1.3,4.5,1,4,4.2c-0.7,0.4-1.4,0.3-2-0.2c-2.7-0.6-5.7,0-8-2C53.4,151.4,51.8,150.8,50.1,150.1z"/>
		<path class="st46" d="M91.1,156.1c-6,1.3-12,1.3-18,0c-0.3,0-0.7,0-1,0c-0.3-0.6-0.2-1.1,0.4-1.5c0.6-0.2-0.2-0.2,0.4-0.2
			c6.6-0.6,13.3-0.4,19.9,0.2c0.5,0.4,0.6,0.9,0.3,1.5C92.4,156.1,91.8,156.1,91.1,156.1z"/>
		<path class="st16" d="M55.1,152.1c2.8-0.1,5.5,0.6,8,2C59.8,156,56.9,156.2,55.1,152.1z"/>
		<path class="st16" d="M63.1,154.1c0.7,0,1.3,0,2,0c0.6-0.6,1.3-0.7,2-0.4c1.3,0.8,2.6,1.6,2,3.5C66.5,157.3,64,157.3,63.1,154.1z"
			/>
		<path class="st47" d="M69.1,157.1c-0.7-1-1.3-2-2-3c2-1.2,3.9-2.2,5,1c0,0.3,0,0.7,0,1C71.4,157.3,70.2,157.1,69.1,157.1z"/>
		<path class="st20" d="M10.1,49.1c0.3-0.3,0.7-0.7,1-1c2.3-2.3,2.3-6.2,5.8-7.6c0.5,0,0.9,0.1,1.4,0.4c0.6,1.3,0,2.4-0.4,3.5
			c-1.4,3.9-2.2,7.9-5.2,11.1c-2.9,2.2-1.7,6-3.4,8.6c-0.5,0.3-1,0.3-1.5,0c-2.3-2.6-1-5.3-0.2-8.1C9.1,54,9.4,51.5,10.1,49.1z"/>
		<path class="st48" d="M8.1,56.1c-0.6,2.7-0.6,5.3,0,8c0.6,1.9,1.1,3.7-1,5c-1-0.3-2-0.7-3-1c1.8-4.9,0.8-10.5,4-15
			C9,54.1,8.8,55.1,8.1,56.1z"/>
		<path class="st49" d="M17.1,41.1c-3.2,1.3-2.1,6.3-6,7c0.3-1.7,0.7-3.3,1-5c2.3-3,4.7-6,7-9C20.8,37.1,19.6,39.3,17.1,41.1z"/>
		<path class="st49" d="M8.1,56.1c0-1,0-2,0-3c0.7-1.3,1.3-2.7,2-4C9.7,51.5,11.2,54.5,8.1,56.1z"/>
		<path class="st50" d="M46.1,15.1c5.3-3.1,10.1-7.4,17-6c0.3,0.4,0.3,0.9,0,1.3c-0.6,0.5-1.3,0.7-2,0.8c-2.3,0-4.5,0.4-6,2.5
			c-1.8,0.8-3.4,2-5.4,2.5C48.4,16.3,47.1,16.2,46.1,15.1z"/>
		<path class="st51" d="M63.1,10.1c0-0.3,0-0.7,0-1c0.3,0,0.7,0,1,0c0.7-0.3,1.3-0.7,2-1c2,0,4,0,6,0C69.7,11.7,66.6,11.6,63.1,10.1
			z"/>
		<path class="st51" d="M46.1,15.1c1.3,0,2.7,0,4,0c-1.3,3.3-4,2.8-6.6,2.5c-1.3-1.2-0.2-1.8,0.6-2.5l0,0
			C44.8,15.1,45.4,15.1,46.1,15.1z"/>
		<path class="st10" d="M44.1,15.1c-0.3,0.7-0.7,1.3-1,2c0.2,0.3,0.3,0.5,0.3,0.8c-0.1,0.3-0.1,0.4-0.2,0.4
			c-3.1,1.6-5.7,4.3-9.2,5.3c-1.9,0.6-1.5,2.3-2,3.5c-2.7,4.8-7.9,7.5-10.6,12.3c-0.2,0.4-0.5,0.7-0.8,1.1c-0.7,0.6-1.4,1.2-2.4,0.6
			c-0.3,0-0.7,0-1,0c0.9-2.3,2-4.5,2-7c1.5-2.5,4.5-3.8,5-7c1.4,0,2.4-0.7,3-2c2.4-2.4,4.6-5,8-6C38.4,18.5,40.7,15.5,44.1,15.1z"/>
		<path class="st7" d="M77.1,159.1c2.3-1.6,4.6-1.6,7,0C81.8,159.1,79.4,159.1,77.1,159.1z"/>
		<path class="st52" d="M141.1,127.1c-0.3,0.3-0.7,0.7-1,1c-3.9,6.5-9.6,11.2-15.7,15.5c-1.3,0.6-2.6,1.1-4,0.8
			c-0.4-0.3-0.6-0.6-0.7-1.1c0-0.4,0.1-0.9,0.4-1.3c1.1-1,2.6-1.5,3.4-2.8c0.7-0.9,1.5-1.6,2.5-2.1c4.2-3.9,9.3-7,12.2-12.3
			c0.9-3.1,4.1-4.8,5.1-7.9c0.2-0.4,0.5-0.8,0.8-1.1c0.4-0.3,0.9-0.4,1.4-0.5c0.7,0,1.4,0.2,2,0.6c1,1.6,1,3.3-0.6,4.4
			C144.2,122.1,143.1,124.9,141.1,127.1z"/>
		<path class="st53" d="M120.1,144.1c1.2-0.7,2.5-1.1,4-1c0.1,0.2,0.2,0.4,0.3,0.6c-0.8,1.4-0.5,3.5-2.3,4.4c-5,1.3-10,2.7-15,4
			c-0.1-0.2-0.1-0.4-0.2-0.6c0.4-1.7,1.8-2.3,3.2-2.5c3.3-0.4,5.2-3.1,8-4.3C118.8,144.3,119.4,144.1,120.1,144.1z"/>
		<path class="st54" d="M141.1,127.1c0.7-3,2.4-5.6,4.7-7.3c1.8-1.3,1-2.5,1.3-3.7c-0.3-2.7-0.2-5.1,3-6c-0.3,3.7-0.7,7.3-1,11
			c-2.8,0.8-4.8,2.4-6,5C142.4,126.4,141.8,126.8,141.1,127.1z"/>
		<path class="st53" d="M124.1,143.1c5.8-4.5,10.9-9.8,16-15c-0.4,3.4-4.4,5.2-4,9c-2.1,0.9-4.2,1.5-6,3c-1.3,1-2.7,2-4,3
			C125.4,143.7,124.8,143.7,124.1,143.1L124.1,143.1z"/>
		<path class="st46" d="M107.1,152.1c-2.7,1-5.3,2-8,3c-1.2,1.1-2.6,0.8-3.9,0.2c-0.5-1,0.1-1.5,0.9-2
			C99.7,152.9,103.1,149.3,107.1,152.1L107.1,152.1z"/>
		<path class="st26" d="M95.1,155.1c1.3,0,2.7,0,4,0c-1.3,4.2-4.1-0.1-6,1c0-0.3,0-0.7,0-1C93.8,154.6,94.4,154.5,95.1,155.1z"/>
		<path class="st28" d="M124.1,143.1c0.7,0,1.3,0,2,0c-1.7,1.4-1.3,4.5-4,5C122.8,146.4,123.4,144.8,124.1,143.1z"/>
		<path class="st28" d="M130.1,140.1c1.3-2.3,3.5-3,6-3C134.4,138.8,132.4,139.7,130.1,140.1z"/>
		<path class="st55" d="M150.1,110.1c-1,2-2,4-3,6c-0.7,0-1.3,0-2,0c-1.5-2.1,0.8-3.7,0.8-5.5c0.8-2,0.7-4.8,3.8-5.1
			c0.5,0.1,1,0.3,1.4,0.7c0,1,0,2,0,3C150.8,109.4,150.4,109.8,150.1,110.1z"/>
		<path class="st30" d="M154.1,94.1c0,3,0,6,0,9c-1,0.6-1.4,2.2-3,2c-0.8-2.6,1.2-4.9,0.7-7.5C152.1,96.2,151.7,94.2,154.1,94.1z"/>
		<path class="st56" d="M153.1,98.1c0.4,2.6-0.9,4.8-2,7c0,0.3,0,0.7,0,1c-0.3,0-0.7,0-1,0c-0.8-0.8-0.9-1.8-0.8-2.9
			c0.7-1.9,0.1-4.3,2.3-5.5C152.2,97.6,152.7,97.7,153.1,98.1z"/>
		<path class="st57" d="M118.1,17.1c0.7-1.3,1.3-2.7,2-4c4.5,1.5,6.5,6.5,11,8c-1.6,1.4-3.3,1-5,0.1c-2.1-2-5-2.4-7.6-3.5
			C118.4,17.5,118.3,17.3,118.1,17.1z"/>
		<path class="st32" d="M134.1,22.1c0.1,1.9,1.1,2.9,3,3c0.7,0.7,1.3,1.3,2,2c1,1.9-0.1,2.4-1.6,2.7c-2.4-0.6-4.5-1.8-5.9-3.9
			c-0.5-1.4-0.5-2.7,0.6-3.8C132.8,21,133.4,22,134.1,22.1z"/>
		<path class="st40" d="M132.1,22.1c0,1.3,0,2.7,0,4c-0.2,0.1-0.4,0.2-0.6,0.3c-1,0-1.8-0.3-2.6-0.8c-1.7-1.5-4.1-2.6-3.9-5.5
			c0.4-0.4,0.8-0.4,1.2,0c1.5,1,3.2,1.1,5,1C131.4,21.4,131.8,21.8,132.1,22.1z"/>
		<path class="st58" d="M151.1,52.1c0.8,3.1,4.1,5.3,3,9l0,0c-3.8-2.7-6.1-6.5-7-10.9c-0.5-2.7-1.4-4.9-3.3-6.8
			c-0.3-0.7-0.4-1.4-0.1-2.2c1.4-1,2.2,0.4,3.3,0.9C149.8,44.9,149,49.1,151.1,52.1z"/>
		<path class="st59" d="M147.1,42.1c-1-0.3-2-0.7-3-1c-1.2,0.5-2.1-0.1-2.5-1c-2.2-5-6.8-7.9-10-12c-0.2-0.8-0.2-1.5,0.4-2l0,0
			c1.8,0.8,3.8,1.3,5,3c0.8,0.9,1.9,1.6,2,3C142.6,34.8,143.2,39.8,147.1,42.1z"/>
		<path class="st48" d="M139.1,32.1c-1.3-0.6-2-1.6-2-3c1.3,0,2-0.7,2-2c2.6,0.1,3.1,1.8,3,4C141.4,32.3,140.2,32.1,139.1,32.1z"/>
		<path class="st37" d="M153.1,98.1c-0.3,0-0.7,0-1,0c-0.6-0.6-1.1-1.4-1-2.2c1-10.6,0.5-21.2,0.2-31.8c0.2-0.6,0.6-1,1.2-1.3
			c0.6-0.1,1.2,0,1.7,0.4c0.6,10.3,1.9,20.7,0,31C152.6,95.2,153.2,96.7,153.1,98.1z"/>
		<path class="st37" d="M154.1,63.1c-0.3,0-0.7,0-1,0c-0.9-0.7-2.1-0.9-2.6-2.1c-1.2-2.7-2.8-5.2-4.3-7.7c-1.3-3.1-2.7-6.1-2.5-9.6
			c0.2-0.2,0.3-0.4,0.5-0.6c2.7,1,4.2,2.7,4,5.9c-0.3,5,4.7,7.7,5.9,12.1c1,0.7,2,1.3,3,2C156.1,63.1,155.1,63.1,154.1,63.1z"/>
		<path class="st60" d="M63.1,10.1c3.2,0,6.1-0.8,9-2c10.4-0.9,20.8-0.5,31,2c1.7,1,3.3,2,5,3c-0.2,0.2-0.4,0.4-0.6,0.6
			c-4.2,1.9-7.8-1.3-11.7-1.6c-7.9-1.2-15.8-1-23.7-0.3c-0.5,0.2-1,0.3-1.4,0.4c-2.3,0.2-4.7,0.2-6.8,1.4c-0.4,0.2-0.9,0.3-1.4,0.4
			c-1,0.1-2,0-2.7-0.8c-0.7-1.5,0.2-2.3,1.3-3C61.8,10.1,62.4,10.1,63.1,10.1z"/>
		<path class="st61" d="M125.1,20.1c1.3,1.7,2.7,3.3,4,5c-0.2,0.2-0.3,0.3-0.5,0.5c-0.4,0.2-0.9,0.3-1.3,0.4c-0.5,0-0.9,0-1.4-0.1
			c-3.7-2.7-7.6-5-11.5-7.3c-1.4-1-3.2-1.4-4.7-2.2c-1.2-0.6-2.8-1.3-1.7-3.2l0.1-0.1c3.8,0.1,6.6,2.7,10,4l0,0
			C120.4,18.3,123.4,17.7,125.1,20.1z"/>
		<path class="st62" d="M7.1,69.1c1-1.5-0.4-3.5,1-5c0.3,0,0.7,0,1,0c0.4,0.3,0.7,0.7,0.9,1.2c0.4,1.5,0.3,3.1,0.1,4.6
			c-0.1,0.5-0.2,1-0.4,1.5C9.5,77.8,9.1,84.3,10,90.7c0.2,4,1,7.8,3,11.3c0.6,3,1.8,5.9,2.4,8.9c0.3,1.7,1.2,3.5-0.3,5.1
			c-1.3-2.6-5.5-3.1-5-7c0.7-0.5,1.3-1.4,0.7-2.1c-2.7-3.3-2.1-7.3-3-11C5.4,87,8,78,7.1,69.1z"/>
		<path class="st63" d="M15.1,116.1c-0.1-4.9-3.1-9.1-3-14c0.2-0.1,0.5-0.1,0.7-0.2c3.3,1.3,2.8,4.8,4.1,7.2c1.1,3.8,3.4,7,5.5,10.2
			c1.1,1.7,2.7,3.3,2.4,5.7c-0.1,0.5-0.4,0.9-0.7,1.3c-5.5,0.6-5.1-4.4-7-7.2C16.4,118.1,15.8,117.1,15.1,116.1z"/>
		<path class="st44" d="M17.1,119.1c2.5,2.2,2.9,6.4,7,7c0.5,0.7,0.6,1.3,0,2c0,0.3,0,0.7,0,1C20.1,127,17,124.1,17.1,119.1z"/>
		<path class="st64" d="M24.1,128.1c0-0.7,0-1.3,0-2c0-0.4,0-0.7,0-1.1c2.3-0.6,3.1,1.4,4.4,2.5c0.3,0.3,0.6,0.7,0.9,1
			c1.9,2.3,4.4,4,6.7,5.7c0.3,0.4,0.5,0.8,0.7,1.2c0.1,0.5,0.1,0.9,0,1.4s-0.4,0.8-0.8,1.2c-3.2,0.1-5.2-1.5-6.8-4.2
			C28,131.7,26.6,129.3,24.1,128.1z"/>
		<path class="st64" d="M36.1,138.1c0-0.3,0-0.7,0-1c3.5-1.2,4.5,1.2,5.5,3.6c0,0.5-0.2,1-0.5,1.4C38.6,141.8,37.4,140,36.1,138.1z"
			/>
		<path class="st65" d="M41.1,142.1c0-0.3,0-0.7,0-1c0.6-0.6,1.3-0.7,2.2-0.6c1.8,1.1,5,1,3.8,4.6c-1.7-0.7-3.3-1.3-5-2
			C41.8,142.8,41.4,142.5,41.1,142.1z"/>
		<path class="st66" d="M47.1,145.1c-0.1-2.6-3-2.3-4-4c2.1-0.9,1.9-4.1,4.4-4.6c6.8,1.2,12.3,5.2,18.6,7.6c3.2,1.2,6.4,1.6,9.7,1.5
			c6.8-0.1,13.6,0.5,20.3-0.6c1.3-0.2,2.6-0.1,3.8,0.6c0.4,0.4,0.6,0.9,0.5,1.5c-1.3,2.2-3.6,2.2-5.7,2.3
			c-8.1,0.1-16.2,0.4-24.3-0.1c-5.8-0.4-11.3-2.4-16.7-4.4c-1.6-0.6-3.1-2.2-4.8-0.2c-0.2,0.1-0.5,0.2-0.7,0.4h-0.5H47.1z"/>
		<path class="st67" d="M95.1,155.1c-0.7,0-1.3,0-2,0c-7,1-14-0.1-21,0c-1.4-1.6-3.3-0.8-5-1c-0.7,0-1.3,0-2,0c-0.7-2.6-3.8-1.3-5-3
			c1.6-1.5,3.5-1.2,5.4-1c0.5,0.1,1.1,0.2,1.6,0.4c6.7,1.4,13.4,2.9,20.4,1.5c2.6-0.5,5.6-0.7,8.2,0.7c0.5,0.4,0.6,0.9,0.3,1.5
			C95.8,154.4,95.4,154.8,95.1,155.1z"/>
		<path class="st66" d="M66.1,151.1c-2,0-4,0-6,0c-4-2-8-4-12-6l0,0c0.3-0.2,0.5-0.6,0.8-0.5C55.3,145.1,61.2,146.8,66.1,151.1z"/>
		<path class="st68" d="M12.1,55.1c1.7-3.7,3.3-7.3,5-11c0.9-1.4,2.1-2.6,3-4l0,0c1.2-1.2,1.7-3.5,4.2-3.1c0.3,0.4,0.5,0.8,0.6,1.3
			c0.1,0.7,0,1.4-0.3,2.1c-5.7,5.7-7,13.8-10.9,20.5c-0.4,0.4-0.8,0.5-1.3,0.5c-0.5-0.2-0.8-0.6-1-1.1C10.7,58.4,11,56.7,12.1,55.1z
			"/>
		<path class="st69" d="M12.1,55.1c0,2,0,4,0,6c-0.2,1.9-0.4,3.9-3,4c0-0.3,0-0.7,0-1C9.3,60.8,7.9,57,12.1,55.1z"/>
		<path class="st70" d="M20.1,40.1c-0.1,2-1.4,3.1-3,4c0.3-1,0.7-2,1-3C18.8,40.8,19.4,40.4,20.1,40.1z"/>
		<path class="st71" d="M43.1,18.1c0-0.3,0-0.7,0-1c2.5-0.2,4.9-0.7,7-2c1.6-0.9,2.9-2.4,5-2c0.4-0.3,0.8-0.3,1.2,0
			c0.1,0.5,0.1,0.9-0.1,1.3c-1.2,1.4-2.9,2.2-4.4,3.2c-0.5,0.4-1.1,0.8-1.7,1.1c-0.6,0.3-1.3,0.4-1.9,0.6c-2.1,0.3-3.5,1.7-4.8,3.2
			c-2.1,1.4-3.7,3.8-6.7,3.2c-0.5-0.2-0.8-0.5-1-1C36.3,20.5,40.3,20,43.1,18.1z"/>
		<path class="st51" d="M56.1,13.1c-0.3,0-0.7,0-1,0c0.5-4,3.6-2.7,6-3c-0.3,1-0.7,2-1,2.9c-0.5,0.7-1.2,0.9-1.9,1
			C57.3,14,56.7,13.6,56.1,13.1z"/>
		<path class="st70" d="M24.1,37.1c-1.3,1-2.7,2-4,3c1.8-5.9,7.5-8.5,11-13c1.2-1.8,2.3-3.8,5-2l0,0c0.3,0.4,0.4,0.8,0.3,1.3
			c-2.6,3.8-6.6,6.4-9.1,10.3C26.3,37.5,25.3,38.1,24.1,37.1z"/>
		<path class="st72" d="M36.1,25.1c-2.1-0.4-3.4,1.1-5,2c0.1-2.4-0.4-4.5,3.6-4.8c2.9-0.2,4.8-4.3,8.4-4.2
			C41.1,20.8,37,21.3,36.1,25.1z"/>
		<path class="st73" d="M139.1,125.1c-2.8,5.9-8.1,9.2-13,13c-0.9-2.7,1.3-3.6,2.7-5.1c-1.5,1.1-2.8,2.6-4.9,1.8
			c-0.4-0.2-0.8-0.5-1.1-0.9c0-0.8,0.5-1.3,1.1-1.7c3.1-1.6,5-4.4,7.6-6.6c1.9-1.1,3-3.1,4.4-4.7c0.4-0.2,0.9-0.2,1.3,0
			C138.5,122,138.4,123.7,139.1,125.1z"/>
		<path class="st74" d="M139.1,125.1c-1.8-0.8-2.1-2.3-2-4c-2-3.7,1.3-5.6,2.7-8.2c0.7-0.4,1.4-0.5,2.2-0.2c1.7,1,0.8,3.2,2.1,4.4
			C144.1,120.8,139.8,121.8,139.1,125.1z"/>
		<path class="st75" d="M123.1,134.1c3.6,0.8,5.4-2.4,9.2-4.8c-1.8,4.5-5.7,5.5-6.2,8.8c-0.7,0.7-1.3,1.3-2,2
			c-1.3,0.7-2.5,2-4.2,1.2c-0.9-1.1-0.9-2.4-0.6-3.7C120.1,135.9,121.2,134.5,123.1,134.1z"/>
		<path class="st76" d="M144.1,117.1c-2.7-0.3-1.8-2.4-2-4c-1.3-1.8,0-3.1,0.8-4.5c1-1.2,1.1-3,2.5-3.9c1.4-0.6,2.7-1.3,4.1-1.8
			c0.2,0.1,0.4,0.2,0.6,0.2c0,1,0,2,0,3c-2.7,0.6-2.3,3.2-3,5c-1.2,1.5-2.4,3.1-3,5C144.1,116.4,144.1,116.8,144.1,117.1z"/>
		<path class="st73" d="M120.1,142.1c0,0.3,0,0.6,0,1c-1,0.9-1.9,1.9-3.3,2.4c-0.7,0.1-1.4,0-1.9-0.6c-0.7-1.8,0.3-2.8,1.8-3.5
			c1-0.3,2-0.3,2.9,0.2C119.7,141.8,119.9,142,120.1,142.1z"/>
		<path class="st74" d="M144.1,116.1c-0.3-2.4,0.9-4,3-5c-0.7,1.7-1.3,3.3-2,5C144.8,116.1,144.4,116.1,144.1,116.1z"/>
		<path class="st77" d="M117.1,145.1c0.6-1.3,1.6-2,3-2c0,0.3,0,0.7,0,1c-0.3,0.3-0.7,0.7-1,1C118.4,145.7,117.8,145.7,117.1,145.1z
			"/>
		<path class="st73" d="M120.1,141.1c1.3-0.3,2.7-0.7,4-1c-0.7,1.8-2.3,2.1-4,2l0,0c-0.2-0.2-0.3-0.4-0.2-0.7
			C119.9,141.2,120,141.1,120.1,141.1z"/>
		<path class="st78" d="M117.1,145.1c0.7,0,1.3,0,2,0c-3.1,3.9-8.4,4-12,7c-4-0.9-7.1,2.5-11,2c0-0.3,0-0.7,0-1
			c-0.3-0.4-0.3-0.9-0.1-1.3c1.4-1.8,3.6-2.2,5.7-2.7c1.9-0.2,3.9,0.1,5.6-1.2c0.4-0.2,0.8-0.4,1.2-0.5c2.2-0.3,3.9-1.7,6-2.2
			c0.2,0,0.4,0,0.7,0C115.8,145.1,116.4,145.1,117.1,145.1z"/>
		<path class="st76" d="M152.1,63.1c1.2,11.7,1.6,23.3,0,35c-1.9,1.2-0.1,3.8-2,5l0,0c-1.8-1.8-1.2-4.4-2.1-6.6
			c-0.4-7.3-0.5-14.5,0-21.8c1.4-2,3.6-3.7,2-6.6C150.1,66.3,149.1,63.8,152.1,63.1z"/>
		<path class="st41" d="M125.1,20.1c-2.2-1.4-5-1.2-7-3c3,0.1,6,0.1,8,3C125.8,20.1,125.4,20.1,125.1,20.1z"/>
		<path class="st61" d="M132.1,26.1c0,0.7,0,1.3,0,2c-2.2,0.3-3.3-0.7-3-3l0,0C130.1,25.4,131.1,25.8,132.1,26.1z"/>
		<path class="st37" d="M129.1,25.1c0.7,1.3,1.7,2.4,3,3c4,2.6,7.5,5.6,9.5,10c0.5,1.2,1.1,2.4,2.5,3c0,0.7,0,1.3,0,2l0,0
			c-2,0.7-3.3-0.5-4.1-1.9c-2.8-5.3-7.1-9.1-11.7-12.6c-0.6-1.1-1.2-2.3-0.2-3.5C128.4,25.1,128.7,25.1,129.1,25.1z"/>
		<path class="st79" d="M152.1,63.1c-1.8,1.7-0.7,4-1,6c-1.4,0.9-1.8,2.4-2.6,3.7c-0.3,0.4-0.7,0.6-1.2,0.5
			c-1.2-0.7-1.3-1.9-1.4-3.2c0-1,0.1-1.9,0.3-2.8c0.7-2,0.7-3.9,0.3-6c0-0.5,0-0.9,0.2-1.4c0.5-0.9,1.3-1.4,2.3-1.4
			c1.6,0.1,1.2,1.8,2,2.5c1,0.4,1.6,1,2,2C152.8,63.1,152.4,63.1,152.1,63.1z"/>
		<path class="st74" d="M149.1,59.1c-0.7,0.3-1.3,0.7-2,1c-1.9,0.6-2.7-0.8-3.6-2c-4.4-6.6-7.8-13.8-12.7-20.1
			c-1-1.3-2.2-2.5-2.8-4.1c-0.3-2.1-2.4-4.5,1.2-5.9c5.1,3,9.1,6.9,11.7,12.3c0.7,1.5,2,2.1,3.3,2.7c1,3.3,2,6.7,3,10
			C147.5,55.2,149.3,56.8,149.1,59.1z"/>
		<path class="st80" d="M149.1,59.1c-0.9-1.9-2.3-3.7-2-6c1.6,2.5,4,4.7,4,8C150.4,60.4,149.8,59.8,149.1,59.1z"/>
		<path class="st79" d="M108,13.2c0.9,3.7,5.8,1.7,7.1,4.9c-0.2,0.1-0.3,0.3-0.5,0.4c-1.7,0.4-3.7-0.6-5.2,1.2
			c-2.1,0.2-4.1-0.4-6.2-0.8c-0.9-0.3-1.8-0.7-2.7-1c-2.6-0.8-5.4-0.6-7.8-1.9c-2.7-1.1-5.6-1.5-8.5-2c-2.3-0.7-4.7-0.8-7-0.1
			c-4.3,0.5-8.5,1.2-12.3,3.5c-0.4,0.2-0.9,0.4-1.4,0.5c-1.9,0.2-3.3-0.3-3.8-2.3c0.5-1.7,2.7-1,3.3-2.5l0,0c2.2-1.3,4.7-1.2,7-2
			c0.3,0,0.7,0,1,0c8.3-1,16.7-0.8,25,0C100.3,10.8,103.8,14.1,108,13.2z"/>
		<path class="st66" d="M96.1,11.1c-8.3,0-16.7,0-25,0C79.4,9,87.8,9.3,96.1,11.1z"/>
		<path class="st81" d="M63.1,13.1c1.1,3.7-2,1.3-3,2c-2,0.7-2.8,0.2-2-2c0.7,0,1.3-0.1,2-0.1C61.1,13.1,62.1,13.1,63.1,13.1z"/>
		<path class="st66" d="M70.1,11.1c-2.1,1.4-4.6,1.7-7,2C65,10.8,67.6,11.1,70.1,11.1z"/>
		<path class="st82" d="M129.1,28.1c-2.3,2,0.1,4,0,6c-1.2,0.7-2.3,0-3.4-0.4c-4.4-2.6-8.4-5.4-9.7-10.8c1.4-1,2.8-0.6,4.1,0.2
			c0.6,0.4,1.1,0.9,1.6,1.4c1.6,1.5,3.3,2.9,5.4,0.6c0.3,0,0.6,0,1,0C128.4,26.1,128.7,27.1,129.1,28.1z"/>
		<path class="st79" d="M127.1,25.2c-1.3,3.7-2.8,3.7-6,0c0-0.7-0.4-1-1-1c-1.2-0.7-2.5-1.2-4-1c-1,0.3-1.2-0.2-1.1-1.1
			c1-0.9,2.1-0.7,3-0.2c-1.1-1-3.5-1.1-2.9-3.7l0,0C119.8,19.3,122.9,23.1,127.1,25.2z"/>
		<path class="st83" d="M12.1,102.1c-3.1-3.1-3.3-7-3-11c-0.8-7-0.8-14,0-21l0,0c0.9-0.5,0.3-3.2,2.5-1.6c0.9,1.6,0.7,3.2,0.3,4.9
			c-1,7.8-0.7,15.4,1,23.1c0.2,0.5,0.3,1.1,0.3,1.7C13.3,99.6,13.3,101,12.1,102.1L12.1,102.1z"/>
		<path class="st84" d="M9.1,70.1c0,7,0,14,0,21C7.5,84.1,7.5,77.1,9.1,70.1z"/>
		<path class="st84" d="M11.1,68.1c-0.7,0.7-1.3,1.3-2,2c0-1.7,0-3.3,0-5c1-1.3,2-2.7,3-4l0,0c0.5,0.6,0.9,1.2,1,1.9
			c0.2,1.3,0.1,2.5-0.3,3.7C12.4,67.5,11.9,67.9,11.1,68.1z"/>
		<path class="st85" d="M28.1,128.1c-1.3-1-2.7-2-4-3c-1.2-3.8-4.2-6.6-6-10c-1-1.9-2.2-3.7-2-6c0.2-0.1,0.4-0.1,0.6-0.2
			c0.6-0.7,1.6,2.7,1.9-0.2c0.2-1.6-1.1-3.4,0.6-4.9c0.7,0,1.5,0.2,1.7,0.8c2.9,7.5,8.3,13.4,12.5,20.1c-0.2,0.4-0.5,0.8-0.9,1
			C30.9,126.2,29.4,127,28.1,128.1z"/>
		<path class="st85" d="M12.1,102.1c0-1.3,0-2.7,0-4c0.8-0.3,1.3,0.2,1.8,0.7c2.8,3,4.6,6.2,2.1,10.3l0,0
			C14,107.2,15,103.5,12.1,102.1z"/>
		<path class="st86" d="M32.1,125.1c0.3,0,0.7,0,1,0c1.5,1.5,2.5,3.4,3.7,5.1c0.4,1,0.5,1.9,0.4,2.9c-0.1,0.8-0.4,1.5-1.1,2
			c-3.3-1.2-5.5-3.7-8-6C29.6,128,31,126.6,32.1,125.1z"/>
		<path class="st87" d="M46.1,137.1c1.8,3.4-0.3,4-3,4c-0.7,0-1.3,0-2,0c-1.2-1.9-2.5-3.7-5-4c0-0.3,0-0.7,0-1
			c1.1-1.1,2.4-1.6,3.9-1.7c1.4,0.1,2.8,0.4,4,1.2c0.3,0.3,0.5,0.7,0.4,1.1c0.1,0.3-0.7,0.4-0.3,0.6c0.6,0.3-0.3,0.2,0.1-0.3
			c0.3-0.3,0.6-0.4,0.9-0.4C45.5,136.7,45.8,136.8,46.1,137.1z"/>
		<path class="st88" d="M32.1,125.1c0.4,3.1-0.9,4.4-4,4c0-0.3,0-0.7,0-1C27.8,124.9,29.9,125,32.1,125.1z"/>
		<path class="st89" d="M40.1,135.1c-1.2,0.7-2.5,1.2-4,1c0-0.3,0-0.6,0-1c0-0.7,0-1.4,0-2c0.5-0.5,1.1-0.8,1.9-0.8
			c0.5,0,0.9,0.2,1.3,0.4C40,133.3,40.6,134,40.1,135.1z"/>
		<path class="st90" d="M46.1,137.1c-0.3,0-0.7,0-1,0c-0.3-1,0.4-1.4,1.1-1.8c1.3-0.5,2.7-0.4,4-0.2c5.6,1.9,11,4.4,16.9,5.7
			c6.4,1.3,12.7,3.5,19.4,2.1c5.3-1.2,11-0.3,15.8-3.5c4.6-2.7,10-3.6,14.8-6c1.3-0.4,2.6-0.5,3.9-0.3c0.8,0.1,1.5,0.5,2.1,1.1h0.1
			c-0.7,1.3-1.7,2.3-3,3c-1,1.1-2.3,1.9-3.8,2.2c-3.8,0.7-6.5,3.5-9.8,5.2c-2.1,1.1-4,2.2-6.4,1.6c-8.1,1.4-16.2,1-24.3,1
			c-6.7,0-12.7-1.6-18.3-5.8C54.4,139,49.7,139.2,46.1,137.1z"/>
		<path class="st91" d="M102.1,150.1c-2,0.7-4,1.3-6,2c-10,1-20.1,1.5-30-1l0,0c-6.2-1.5-11.4-5.8-18-6c0.1-3.3,0.8-4.7,4.4-2.4
			c5.8,3.6,12.5,4.7,19,5.3c7.5,0.7,15.2,0.1,22.8,0.2c2,0,4,0.1,5.8-1c5.4-1.6,10.7-3.7,15-7.5c1.4,0.3,2.4,0.9,2,2.5
			c-1.3,0.6-2,1.6-2,3l0,0c-2.4,0.9-4.4,2.5-7,3l0,0C106.3,149.5,104,149.3,102.1,150.1z"/>
		<path class="st92" d="M115.1,140.1c-3.6,5.4-9,6.8-15,7c0-0.3,0-0.7,0-1c5.9-1.6,10-6.6,16-8C116.7,139.2,115.8,139.6,115.1,140.1
			z"/>
		<path class="st66" d="M66.1,151.1c10,1.2,20,1,30,1c0,0.3,0,0.6,0,1c-9.3-0.1-18.6,2-27.8-1C67.5,151.8,66.8,151.4,66.1,151.1z"/>
		<path class="st79" d="M36.1,26.1c0-0.3,0-0.6,0-1c3.1,0.7,4.2-3,7-3c1.5-1.6,2.8-3.3,5.3-3c0.8,1.1,0.8,2.3,0.7,3.6
			c-0.1,0.5-0.2,1-0.4,1.4c-0.4,0.6-0.9,1.2-1.5,1.5c-4.7,0.6-8.5,2.5-10.2,7.3c-0.4,0.9-0.8,1.7-1.3,2.5c-0.9,1.2-2,2.1-3.3,2.7
			c-2,0.7-2.9,2.5-4.2,3.8c-1.4,1.3-3,2.9-4.6,0.2c-0.1-0.8,0.1-1.5,0.6-2.1c0-0.7,0-1.3,0-2c1.2-0.8,3.1-0.6,3.6-2.5
			C29.9,31.9,33.9,29.8,36.1,26.1z"/>
		<path class="st93" d="M12.1,63.1c0-0.7,0-1.3,0-2c0.3,0,0.7,0,1,0c0.8-0.8,1.6-1.5,2.8-1.5c1.6,0.6,3.3-1.8,4.9,0.2
			c0.5,3.1,0.1,6.1-0.8,9c-0.5,1.7-0.9,4-3.6,3.7c-2-1.4-1.2-4-2.7-5.7C13,65.7,13.1,64.2,12.1,63.1z"/>
		<path class="st94" d="M16.1,60.1c-1,0.3-2,0.7-3,1c2.8-7.4,4.3-15.6,11-21c0,0.7,0,1.4,0,2c-0.5,1-0.7,2.2-1.4,3.2
			C19.8,49.9,18.4,55.2,16.1,60.1z"/>
		<path class="st95" d="M28.1,36.1c-0.8,1.8-2.3,2.1-4,2c0-0.3,0-0.7,0-1c1-0.3,2-0.7,3-1C27.4,35.6,27.8,35.6,28.1,36.1z"/>
		<path class="st66" d="M58.1,13.1c0,1.3,0.7,1.9,2,2c0.8,1.8,2.3,2.1,4,2c0.1,2.5-2.2,1.9-3.4,2.6c-1.5,0.4-2.9,1-3.9,2.2
			c-0.7,0.6-1.6,1-2.5,0.9c-0.4-0.1-0.8-0.3-1.2-0.6c0.2-2.2-1.4-3.2-2.9-4.2c0.3-0.3,0.7-0.7,1-1c1.9-0.7,3.8-1.3,5-3
			c0-0.3,0-0.6,0-1C56.8,13.1,57.4,13.1,58.1,13.1z"/>
		<path class="st96" d="M50.1,18.1c2.5,0.2,6.9-1,3,4c-1.4,1.8-3,2.4-5,1c0-1.3,0-2.7,0-4c-0.3-0.2-0.5-0.4-0.3-0.7
			c0.1-0.2,0.2-0.3,0.4-0.3C48.8,18.1,49.4,18.1,50.1,18.1z"/>
		<path class="st97" d="M48.1,18.1c0,0.3,0,0.7,0,1c-1.7,1-3.3,2-5,3C43.4,19.1,45.8,18.6,48.1,18.1z"/>
		<path class="st97" d="M56.1,14.1c-0.2,3.4-2.7,3-5,3C52.6,15.8,54,14.3,56.1,14.1z"/>
		<path class="st94" d="M28.1,36.1c-0.3,0-0.7,0-1,0c1.7-4.5,5.7-7,9-10C35,30.7,30.1,32.2,28.1,36.1z"/>
		<path class="st98" d="M147.1,70.1c0,1.1-0.2,2.3,1,3c0.8,9.6,1.1,19.2-1.6,28.6c-3.7,2.9-4.2,7.6-6.3,11.4c0,3.1-3.5,4.8-3,8
			c-0.3,0-0.7,0-1,0c-1.1-1-1.2-2.3-1.1-3.6c0-0.5,0.1-1,0.3-1.5c0.7-2.2,1.1-4.4,2-6.5c1.2-3.7,2.8-7.3,4.6-10.8
			c2.1-4.1,1.9-9.2,1.3-13.9c-0.5-4.6-1-9.2,1.6-13.5c0.2-0.5,0.6-0.9,0.9-1.2C146.2,69.7,146.6,69.7,147.1,70.1z"/>
		<path class="st99" d="M123.1,134.1c-0.7,0-1.3,0-2,0c-1.2-0.9-2.7-0.2-3.9-0.6c-0.3-0.3-0.4-0.8-0.4-1.2c0.6-1,1.8-1.2,2.7-1.8
			c1.4-0.8,2.8-1.7,4-2.9c1.1-1,2.1-2,3.2-3c0.8-0.7,1.8-1.2,2.7-1.6c0.9-0.4,1.7-1.5,3-0.8c0.4,0.6,0.6,1.2,0.5,1.9
			c-0.1,0.4-0.3,0.9-0.5,1.2c-2.7,2.7-5.7,5-8.3,7.8C123.7,133.4,123.4,133.7,123.1,134.1z"/>
		<path class="st100" d="M124.1,133.1c1-4.3,5-5.7,8-8c0.3,0.2,0.4,0.5,0.3,0.7s-0.2,0.3-0.3,0.3
			C129.8,128.8,127.9,132.1,124.1,133.1z"/>
		<path class="st101" d="M132.1,126.1c0-0.3,0-0.7,0-1s0-0.7,0-1c1.7-2,1.4-4.9,2.7-7c0.4-0.3,0.9-0.3,1.3,0c0,1.3,0,2.7,0,4
			C135.9,123.7,134.4,125.2,132.1,126.1z"/>
		<path class="st102" d="M140.1,113.1c0.3-4.3,0.5-8.6,5-11c0.8,2.5-0.9,4.6-1,7c-1.3,1-1.8,2.4-2,4
			C141.4,113.1,140.8,113.1,140.1,113.1z"/>
		<path class="st103" d="M115.1,140.1c0.3-0.7,0.7-1.3,1-2c1.3-0.3,2.7-0.7,4-1c0,1.3,0,2.7,0,4c0,0.3,0,0.7,0,1c-1,0-2,0-3,0
			C116.7,141.1,116.1,140.5,115.1,140.1z"/>
		<path class="st74" d="M144.1,109.1c-0.3-2.4,0.4-4.7,1-7c3.2-9.4,3.1-19.2,3-29l0,0c0.3-0.4,0.7-0.3,1,0c0,8,0,16,0,24
			c-0.8,2.8-0.5,5.9-3,8C144.5,106,145.7,108.2,144.1,109.1z"/>
		<path class="st104" d="M146.1,105.1c1.4-2.5-0.2-6.1,3-8c1.8,1.8,0.7,4,1,6C149,104.2,148,105.5,146.1,105.1z"/>
		<path class="st92" d="M108.1,148.1c2.2-1.3,4.2-3.1,7-3C113.2,147,111.1,148.5,108.1,148.1z"/>
		<path class="st92" d="M102.1,150.1c1.7-1.5,3.8-1.9,6-2C106.8,150.8,104.3,149.9,102.1,150.1z"/>
		<path class="st105" d="M149.1,73.1c-0.3,0-0.7,0-1,0c0.5-1.7-1.3-5.1,3-4c0.3,0.9,0.8,1.7,0.9,2.6c0.1,0.8,0.6,2.2-0.5,2.5
			C150.9,74.4,149.9,73.5,149.1,73.1z"/>
		<path class="st80" d="M147.1,70.1c-0.3,0-0.7,0-1,0c-2.2-3.7-3.5-7.6-2-12c1,0.7,2,1.3,3,2c0,0.3,0,0.7,0,1c0.8,2,0.8,4,0,6
			C147.1,68.1,147.1,69.1,147.1,70.1z"/>
		<path class="st74" d="M147.1,67.1c0-2,0-4,0-6C148.6,63.1,148.6,65.1,147.1,67.1z"/>
		<path class="st106" d="M144.1,58.1c0.7,4,1.3,8,2,12l0,0c-2.5,0.1-2.8-2-3-3.7c-0.4-2.7-1.5-5-2.6-7.3c-0.4-0.6-0.7-1.2-1.1-1.8
			c-1.1-2.6-3-4.7-4-7.3c-0.6-2.6-1.5-5.1-4-6.6c-3.4-2-5-5.2-5.8-8.9c0-0.5,0.2-0.9,0.6-1.3c1,0.3,2,0.7,3,1
			c4.7,5.1,8.2,11,11.3,17.2C141.6,53.6,145.1,54.6,144.1,58.1z"/>
		<path class="st107" d="M101.1,17.1c0.8,0,1.6,0.2,2,1c0.2,0.5,0.1,0.9-0.3,1.3c-2.9,2.1-7.4-0.6-9.7,3.2c-1.2,2.2-2.9,3.9-5.7,3.5
			C86,25.9,85,26.8,84,27.6c-0.9,0.4-1.9,0.5-2.9,0.3c-1.9-0.5-3.9-0.7-5.8,0c-6.4,2.2-13.2,2.6-19.4,5.5c-2.4,1.2-5.1,1.9-6.6,4.5
			c-0.3,0.6-0.7,1.2-1.2,1.7c-6.5,0.8-10.4,5.5-14.8,9.6c-1.1,0.4-1.9-0.1-2.5-0.9c-0.9-3,1.5-4.4,3.2-5.9c2-1.7,4-3.2,5.6-5.3
			c0.4-0.3,0.8-0.6,1.2-0.9c5-2.6,9.8-5.6,14.8-8.3c8.6-4.8,18.1-7.2,28.1-7c2.2,0.1,4.8,0.7,6.5-1.6c2.9-3.4,6.7-1.6,10.2-2
			C100.6,17.1,100.8,17.1,101.1,17.1z"/>
		<path class="st108" d="M60.1,19.1c0.9-1.6,3.1-0.4,4-2l0,0c9.4-4.8,19.1-4.6,29-2c2.5,1.2,5.6,0.3,8,2l0,0
			c-8.3,0.5-16.4,3.4-24.9,2.5c-3.2-0.3-6.2,1.2-9.3,1.6c-2.1,0.3-4.3,0.5-6.3-0.6C59.9,20.3,59.8,19.7,60.1,19.1z"/>
		<path class="st66" d="M93.1,15.1c-9.8-1.5-19.5-1.2-29,2c3.7-3.5,8.2-4,13-4c2.3-0.8,4.7-0.8,7,0C87.3,13,90.3,13.4,93.1,15.1z"/>
		<path class="st109" d="M115.1,18.1c1,1.2,2,2.4,3.3,3.8c-1.2,0.1-2.3,0.1-3.3,0.2c-0.6,0.6-1.2,0.6-2,0.4c-1.3-0.8-3.3-1.2-3-3.4
			c-0.5-1.3-0.4-2.3,1.3-2C112.6,17.4,113.9,17.8,115.1,18.1z"/>
		<path class="st110" d="M110.1,19.1c1,1,2,2,3,3c-0.2,0.1-0.3,0.3-0.5,0.4c-0.6,0.2-1.3,0.2-1.9,0.1c-1.3-0.3-2.6-0.5-3.7-1.1
			c-1-0.8-2.3-1.3-3.4-1.9c-0.1-0.2-0.3-0.3-0.4-0.5c0-0.3,0-0.7,0-1C105.5,17.8,107.8,18.5,110.1,19.1z"/>
		<path class="st111" d="M84.1,13.1c-2.3,0-4.7,0-7,0C79.4,11.5,81.8,11.5,84.1,13.1z"/>
		<path class="st110" d="M113.1,22.1c0.7,0,1.3,0,2,0c0.3,0.3,0.7,0.7,1,1c3,3.7,6.1,7.3,10,10c0,0.3,0,0.7,0,1
			c-2.5,1.4-5-0.1-6.3-1.5C117,29.6,113.9,26.5,113.1,22.1L113.1,22.1z"/>
		<path class="st105" d="M120.1,24.1c0.8-1.1,1.7-1,2.2,0.1c0.4,0.9-0.7,0.8-1.2,0.9C120.8,24.8,120.4,24.4,120.1,24.1z"/>
		<path class="st112" d="M12.1,97.1c-2.5-7.9-2.9-15.9-1-24c0.2,0.2,0.4,0.4,0.6,0.6c1.4,3.6,0.6,7.3,0.8,11c-0.1,2,0.2,3.9,0.6,5.8
			C13.4,92.8,14,95.2,12.1,97.1z"/>
		<path class="st113" d="M12.1,97.1c0-2.3,0-4.7,0-7c2.4-0.2,2.8,1.6,3.2,3.3c-0.2,2.1,1,4.8-2.2,5.7c-0.3-0.3-0.6-0.7-0.9-1
			C12.1,97.8,12.1,97.4,12.1,97.1z"/>
		<path class="st112" d="M11.1,68.1c0.3-0.3,0.6-0.7,1-1c1.5,2.3,2.5,4.5-1,6.1l0,0C11.1,71.4,11.1,69.8,11.1,68.1z"/>
		<path class="st114" d="M11.1,73.1c1.8-1.8,0.7-4,1-6.1c0-1.3,0-2.6,0-4c1.3,0.6,2,1.6,2,3c1.1,1.4,1.3,3.2,0.9,4.8
			c-0.8,3.7-0.3,7.2,0.4,10.8c-0.9,4.7-1.1,4.9-4.2,3.4C11.1,81.1,11.1,77.1,11.1,73.1z"/>
		<path class="st115" d="M16.1,72.1c5-3.2,2.8-8.6,4-13c-0.9-0.8-0.4-1.7,0.1-2.5c2.7-1.9,1.4-5.5,3.4-7.7c0.4-0.3,0.8-0.5,1.3-0.7
			c1.3-0.3,2.5-0.2,3.6,0.7c1.4,2.5-0.5,4.3-1.4,6.3c-3,3.4-4.2,7.6-4.8,11.9c-0.1,0.5-0.2,1-0.3,1.5c-1,3.8-0.4,7.6,0.4,11.3
			c0.1,1.8,0,3.6-0.8,5.3c-2.6,4.6,0.5,9.4-0.4,14c6.5,7.1,8.7,16.8,14.5,24.2c1.9,2.5,5.9,2.5,7.3,5.7c0.4,2.6,3.8,3.7,3.3,6.8
			c-0.3,0.3-0.7,0.7-1,1c-0.3,0-0.7,0-1,0l0,0c0-0.3,0-0.7,0-1c-1.9-0.6-3.4-1.8-5-3c-0.3,0-0.7,0-1,0c-1-0.8-1.2-2.1-2-3
			c-2-1-3.2-2.6-3-5c-6.4-5.8-10.1-13.5-14-21c-1.6,0.1-1.8-1.1-2.2-2.2c-0.6-6.7-2.5-13.3-2.3-20.1C15.1,78.6,12.1,74.8,16.1,72.1z
			"/>
		<path class="st116" d="M18.1,102.1c0,0.8,0.2,1.6,1,2c-0.4,2.8,2.6,5.6-0.3,8.5c-0.9-1.2-1.8-2.4-2.7-3.5c0.3-3.7-0.2-7.2-3-10
			c1.8-1.8,0.7-4,1-6C17.8,95.1,16.8,99.1,18.1,102.1z"/>
		<path class="st85" d="M36.1,130.1c1.3,0.6,2,1.6,2,3c-0.7,0-1.3,0-2,0C36.1,132.1,36.1,131.1,36.1,130.1z"/>
		<path class="st117" d="M44.1,137.1c0.2,1,1.7,2.2-0.3,2.8c-1.1,0.3-2.2-0.4-2.3-1.4C41.4,136.7,43.1,137.3,44.1,137.1L44.1,137.1z
			"/>
		<path class="st85" d="M39.1,133.1c2.1,0.2,3.5,1.7,5,3c-1.5,0.2-2.8-0.3-4-1C39.8,134.4,39.4,133.8,39.1,133.1z"/>
		<path class="st118" d="M42.1,130.1c-0.2-0.3-0.3-0.7-0.5-0.8c-10.2-5.5-14-15.5-17.6-25.5c-0.3-1-0.8-1.5-1.8-1.1
			c-1.6,0.6-2.4-0.4-2.3-1.7c0.3-5.3-2.2-10.6,0.1-15.8c1,0.4,1.7,1.1,1.9,2.1c1.6,7.4,4.5,14.4,8,21.1c0.4,0.7,0.7,1.3,1,2
			c5.9,9.7,13,17.8,23.7,23.2c12.2,6.1,25.1,6.4,38.1,7.2c1.2,0.1,2.3-0.3,3.4-0.6c2.3-0.1,4.6-1.9,6.9,0
			c-4.4,4.2-10.3,2.9-15.5,3.9c-11.6,2.1-22.3-2.1-33-5.9c-1.5-0.6-3-1.3-4.5-2C46.7,135.1,44.1,133,42.1,130.1z"/>
		<path class="st100" d="M103.1,140.1c-2.3,0.3-4.7,0.7-7,1c-0.3-0.4-0.5-0.9-0.4-1.4c5.3-2.8,10.7-5.5,16.4-7.6c1.9,0,3.6,0.7,5,2
			C113,137.5,107.5,137.5,103.1,140.1z"/>
		<path class="st119" d="M42.1,130.1c2.7,2,5.3,4,8,6c-1.3,0-2.7,0-4,0C45.2,133.8,42.2,133,42.1,130.1z"/>
		<path class="st120" d="M117.1,134.1c-1.7-0.3-3.3-0.7-5-1c-0.7-0.6-1.6-1.1-0.8-2.2c0.6-0.4,1.2-0.6,2-0.5
			c1.7,0.3,2.7,1.6,3.9,2.7c1.4,0.2,2.9-0.4,4,1C119.8,134.1,118.4,134.1,117.1,134.1z"/>
		<path class="st121" d="M54.1,22.1c0.8,0,1.6-0.2,2-1c0.5-0.4,0.9-0.4,1.3,0.1c0.6,1.4,0.1,2.9-1,3.4c-4.8,2.2-8.1,6.6-13.1,8.3
			c-2.9,0.1-4.8,3.6-8.1,2.2c0-0.8,0.2-1.6,1-2c3.2-3.3,6.6-6.3,11-8c0.3-0.3,0.7-0.7,1-1C50,23.1,52.5,23.8,54.1,22.1z"/>
		<path class="st94" d="M47.1,25.1c-3.5,2.9-6.5,6.5-11,8C37.3,27.4,40.5,25.1,47.1,25.1z"/>
		<path class="st95" d="M22.1,44.1c0.4-1,1-1.6,2-2c2.2,1.9,2.9-0.4,3.7-1.5c1.2-1.6,2-3.4,4.4-3.5c0.3,0.4,0.5,0.8,0.4,1.3
			c-1,4.3-2.8,7.9-8,8.1C23.2,46.2,22.8,45,22.1,44.1z"/>
		<path class="st122" d="M32.1,38.1c0-0.3,0-0.7,0-1c1-0.7,2-1.3,3-2c2.9-0.4,4.8-3.6,8-3c-0.2,3.2-3.4,3.7-5.1,5.7
			c-1.8,0.7-2.7,2.2-3.6,3.7c-0.5,0.9-1.1,2.7-2.8,1.1C31.4,41.1,31.4,39.6,32.1,38.1z"/>
		<path class="st97" d="M54.1,22.1c-1,3.6-4,1.3-6,2c0-0.3,0-0.7,0-1c1.7-0.3,3.3-0.7,5-1C53.4,22.1,53.8,22.1,54.1,22.1z"/>
		<path class="st123" d="M22.1,44.1c1.3,0,2,0.7,2,2c0.9,1,0.8,2,0,3l0,0c-3.3,1.8-1.2,5.6-3,8c-0.8,0.4-1,1.2-1,2
			c-1.2,0.7-2,3.3-4,1C15.8,53.9,19.4,49.2,22.1,44.1z"/>
		<path class="st112" d="M16.1,72.1c-1.8,3.2-0.7,6.7-1,10c-0.3,0.5-0.7,0.5-1,0c-2-5.3,0.1-10.7,0-16
			C16.9,67.4,15.9,69.9,16.1,72.1z"/>
		<path class="st97" d="M57.1,21.1c-0.3,0-0.7,0-1,0c0.8-1.8,2.3-2.1,4-2c0,0.3,0,0.7,0,1C59.4,21.5,58.6,22.1,57.1,21.1z"/>
		<path class="st124" d="M136.1,50.1c1.8,2.1,3.6,4.1,4,7c0.9,1.3,1.1,2.8,1.1,4.3c0.5,14.5,1.4,29.1-2.9,43.3c-0.6,2-0.8,4.5-3,5.4
			c-2.1,0.8-0.2,0.7,0.1,1c1.5,1.5,1.4,3.2,0.7,5c0,0.3,0,0.7,0,1c-0.3,0-0.7,0-1,0c-0.7,0-1.3-0.1-1.8-0.5c-0.4-0.3-0.7-0.6-1-0.9
			c-0.5-0.8-0.9-1.6-1.1-2.6c-0.2-1.3-0.2-2.6,0.4-3.8c3.5-6.6,4.3-14,4.8-21.1c0.4-6,0.8-12.1,1.3-18.1c0.3-4.3,0.5-8.6-0.3-12.8
			c-0.8-2.1-2.6-4-1.8-6.6C135.8,50.5,135.9,50.3,136.1,50.1z"/>
		<path class="st125" d="M141.1,58.1c3.6,3.2,1.9,8.6,5,12c-3.9,8.8-0.7,17.9-1.6,26.9c-0.1,0.6,0.1,1.6-0.3,1.8
			c-4.5,2.5-4,7.6-6.2,11.3c-2.4-3.7,0.4-7,1.1-10.3c2.1-10.4,3.2-20.8,1.6-31.4C140.2,65.1,140,61.5,141.1,58.1z"/>
		<path class="st101" d="M141.1,58.1c-0.1,5.8,0.3,11.4,1.7,17.1c1.4,5.6-0.2,11.4-1.2,17.1c-1.1,5.9-3.6,11.6-3.5,17.8
			c-0.7,2-0.5,4.3-2,6c-1.9-4.2-0.3-8.1,1-12.1c4.8-15.4,2.6-31.2,3-46.9C140.4,57.4,140.8,57.8,141.1,58.1z"/>
		<path class="st126" d="M130.1,124.1c-1,0.3-2,0.7-3,1c0.9-7.3-4.1-9.7-9.8-11.4c-0.6-0.2,0.2,0-0.4-0.3c-1-1.2-1.4-2.6-1.8-4
			c-0.3-1.9-1.3-3.3-2.9-4.4c-4.2-2.9-6.5-2-8.1,2.8c-1.9,5.5-0.2,9.7,4.1,13.2c0.1,0.5,0.1,1-0.1,1.4c-0.9,0.7-1.8,0.7-2.9,0.4
			c-4.5-2.4-7.1-6.7-9.9-10.6c-1-2-1.5-3.9,0.6-5.5c2.7-0.8,4.8-2.3,6.6-4.7c3.5-4.6,6.1-5,10.9-2.6c4,1.6,4.8,5.3,5.5,8.9
			c1,2.1,3,2.8,5.1,3.2C132.4,113.5,133.6,116.2,130.1,124.1z"/>
		<path class="st127" d="M117.1,133.1c-1.7,0.2-2.6-1.4-4-2c-2.5-2.1-4.7-2.7-7.3,0.3c-1.2,1.4-3.2,2.2-5,3
			c-4.6,1.1-9.6-0.2-14.2,2.5c-1.9,1.1-4.2-1.2-6.3-1.9c-1.8-1.3-4-2.2-4.4-4.8c0.8-1,2-1.4,3.1-1.8c3-1.9,5.6,0.2,8.3,0.9
			c7,1.9,12.7-2.2,18.8-4.2c1.1-0.8,2.1-1.8,3.7-1.5c2.2,0.9,2.9,3.3,4.6,4.7c0.5,0.4,0.9,0.9,1.4,1.3c0.6,0.8,2,1.1,1.4,2.5
			C117.1,132.4,117.1,132.8,117.1,133.1z"/>
		<path class="st128" d="M130.1,124.1c0.3-3.5,2.6-7.2-1.6-10.2c-1.7-1.2-4,0-5.4-1.8c-5.1-3.7-5.3-5.5-1-9.8
			c3.2-1.1,2.3-4.5,3.7-6.6c0.8-0.7,1.7-1.4,2.7-0.4c1.4,2.5,0.8,5.1,0.8,7.7c-1.8,4.4-1.3,8.1,2.8,11c0.8,0.4,1,1.2,1,2
			c1.2,1.4,1,2.9,0.7,4.5c-0.3,0.8-0.9,1.3-1.8,1.5C131.4,122.8,130.8,123.4,130.1,124.1z"/>
		<path class="st129" d="M117.1,113.1c0.8,0.2,1.6,0.4,2.4,0.6c9,2.4,9,2.4,7.7,11.4c-0.7,1.3-1.7,2.3-3,3
			c-3.3,2.8-6.7,2.8-10.2,0.2c-1.5-1.7-3.1-3.3-2.2-5.9c2.2-1.4,2.8,1,3.9,1.9c2.1,1.6,4.2,1.9,6.5,0.7c1.4-0.7,2.4-1.8,2.5-3.5
			c0.1-1.6-1-2.4-2.3-2.9c-2.2-0.9-4.3-1.9-5.4-4.2c0-0.2-0.1-0.5-0.1-0.7S117,113.3,117.1,113.1z"/>
		<path class="st130" d="M114.1,128.1c3.3,0.7,6.7,2.1,10,0c-0.7,1.8-2.5,2.2-4,3c-1.9,1-3.3-0.6-5-1c-0.3-0.3-0.7-0.7-1-1
			c-0.3-0.2-0.4-0.5-0.3-0.7C113.9,128.2,114,128.1,114.1,128.1z"/>
		<path class="st131" d="M132.1,122.1c0.3-0.3,0.7-0.7,1-1c1.2-1.5-0.2-3.5,1-5c0.3,0.3,0.7,0.7,1,1c0.1,2.8,0.2,5.6-3,7
			C132.1,123.4,132.1,122.8,132.1,122.1z"/>
		<path class="st132" d="M115.1,130.1c1.7,0.3,3.3,0.7,5,1c-0.7,1.2-1.9,1-3,1C116.4,131.4,115.8,130.8,115.1,130.1z"/>
		<path class="st133" d="M113.1,22.1c4.2,4.2,5.9,11,13,12c1.9,3.8,3.9,7.4,7.9,9.7c2.1,1.2,2.3,3.9,2.2,6.3l0,0
			c-0.7,0.3-1.2-0.1-1.7-0.5c-1-1.4-1.8-3-3.6-3.6c-1.2-0.6-2.4-1.2-3.1-2.3c-2-3.2-4.5-5.4-8.2-6.5c-4.3-1.3-5.8-4.3-5.3-8.6
			c-0.4-2.5-3.7-3.5-3.1-6.5C111.8,22.1,112.4,22.1,113.1,22.1z"/>
		<path class="st134" d="M57.1,21.1c1-0.3,2-0.7,3-1c10.7-0.9,21.4-1.9,32-2.8c3-0.2,6-0.1,9-0.2c-1.6,1.7-3.6,0.8-5.5,0.9
			c-1.8,0.1-3.6,0-4.5,2c-4.6,2.6-9.7,0.9-14.5,1.6C68.7,22.7,61,23.7,54.2,29c-4.2,3.3-9.3,5.6-14.1,8.1l0,0c-0.7,0.6-1.3,0.5-2,0
			c1-2.3,3.4-3.3,5-5c4.5-2.1,7.5-6.6,12.5-8.1C56.6,23.7,57.1,22.3,57.1,21.1z"/>
		<path class="st135" d="M81.1,27.1c1,0,2,0,3,0c0.4-0.4,0.9-0.7,1.3-0.5c4.4,1.8,6.3-0.3,6.7-4.5c2.6-4.9,7.2-2.4,11-3l0,0
			c0.3,0.4,0.3,0.8,0,1.3c-0.4,0.3-0.8,0.5-1.2,0.7c-1.7,0.5-3.6-0.1-5.1,1.1c-1.6,1.6-1.4,3.1,0.3,4.6c1.2,1.1,2.5,2.1,3.6,3.2
			c1.5,2.1,1.2,3.9-1.4,4.5c-4.4,1.1-9,2.5-12.6-2.1c-0.9-0.4-1.8-0.8-2.7-1c-2.8-1.1-6.1-1.2-8.2-3.8
			C77.5,25.9,79.3,26.6,81.1,27.1z"/>
		<path class="st136" d="M48.1,39.1c0-0.7,0-1.3,0-2c0.8-0.6,1.8-0.9,2.8-1c4-0.3,6.3-3.9,10-4.9c3.8,0.3,7.4-2.8,11.2-0.5
			c0.8,0.9,0.9,1.9,0.5,3c-2.4,2.3-5.7,2.6-8.6,3.1c-5,0.8-8.9,3.1-12.4,6.4c-0.7,0.4-1.4,0.6-2.2,0.7c-3.1,0.3-6.2,2.5-9.4,0.3
			c-0.2-2.5,2-2.6,3.5-3.5C44.9,40.1,46.9,40.4,48.1,39.1z"/>
		<path class="st137" d="M40.1,37.1c3.6-3.2,7.5-5.8,12-7.6c0.6-0.2,1.4-0.5,1.7-1c5.4-7.1,13.6-6.6,21.1-7.4
			c5.4-0.6,10.8,0,16.2-1.1c-1.1,2.3-3.2,2.2-5.2,2c-9.1-1.3-17.6,2.1-25.9,4.5c-5.2,1.5-9.7,5.6-14.4,8.5
			C43.9,36.2,42.2,37.3,40.1,37.1z"/>
		<path class="st138" d="M38.1,37.1c0.7,0,1.3,0,2,0c-0.3,2.6-2.3,3.7-4.2,5.1c-2.1,1.5-4.4,2.9-4.8,5.9c1.9,3.9-1.3,5.3-3.6,7.2
			c-0.5,0.2-1,0.1-1.4-0.2c0-2.2,2.6-3.6,2-6c-0.4-3.1,1-5.1,4-6C34.7,41.7,33,36,38.1,37.1z"/>
		<path class="st139" d="M72.1,31.1c-4,0.3-8,0.7-12,1c-1.5,0.4-2.8,1.6-4.5,1.4c-0.2-0.1-0.4-0.3-0.5-0.4c3.9-4.1,9.4-3.5,14.2-4.8
			c3.7-1,7.6-4.2,11.8-1.2c-1.7,0.2-3.6-0.7-5,1C75.4,29.9,73.9,30.7,72.1,31.1z"/>
		<path class="st140" d="M48.1,39.1c-1.3,3.8-6.1,2.1-8,5c0.2,0.2,0.4,0.5,0.3,0.7c0,0.3-0.1,0.4-0.1,0.4c-1,1.1-2.5,1.7-3.3,3.1
			c-0.2,0.4-0.5,0.7-0.9,1c-0.8,0.5-1.7,0.6-2.6,0.2c-0.2-0.2-0.3-0.3-0.5-0.5C36.5,43.4,40.7,38.8,48.1,39.1z"/>
		<path class="st141" d="M92.1,22.1c0,6.9-1.1,8.1-5.4,6.1c-0.9-0.4-1.8-0.7-2.6-1.1c0.1-1.4-0.2-3.4,2.3-2.3
			C89.3,26,90.9,24.4,92.1,22.1z"/>
		<path class="st140" d="M27.1,55.1c1.1-2.5,4.6-3.6,4-7c0.7,0.3,1.3,0.7,2,1l0,0c0.9,3.2-2.4,4.6-3,7.2c-0.4,0.8-0.8,1.6-1.3,2.4
			c-1.5,1.6-1.8,4.5-4.8,4.5c-0.3-0.4-0.5-0.8-0.6-1.3C23.4,59,25.8,57.3,27.1,55.1z"/>
		<path class="st139" d="M51.1,37.1c-1,0-2,0-3,0c1.8-2.2,3.9-4,7-4l0,0C55.5,36.2,52.4,35.7,51.1,37.1z"/>
		<path class="st142" d="M102.1,20.1c0.3,0,0.7,0,1,0c1.6-1,2.9-0.5,4,0.9c1.4,0.2,2.9-0.3,4,1.1c0.9,2.3,3.9,3.1,4,6
			c0.8,2.3-0.3,3.2-2.4,3.5c-0.5-0.1-0.8-0.5-1-0.9c0.3-3.8-1.3-6.3-5.1-7.4c-1.6-0.5-3.2-0.8-4.6-1.9
			C101.8,21,101.8,20.5,102.1,20.1z"/>
		<path class="st107" d="M107.1,21c-1.3-0.3-2.7-0.6-4-0.9c0-0.3,0-0.7,0-1C104.7,19.3,106.7,18.5,107.1,21z"/>
		<path class="st85" d="M14.1,82.1c0.3,0,0.7,0,1,0c1.4,6.6,2.6,13.2,3,20c-1.3-3-2.7-6-4-9c0-1.4-0.7-2.4-2-3c-1.7-1.4-0.8-3.3-1-5
			C14.5,86.5,13.9,83.9,14.1,82.1z"/>
		<path class="st143" d="M24.1,62.1c0,0.3,0,0.7,0,1c1.2,4.8-0.1,9.7,1.3,14.5c-0.2,2.4,0.6,4.7,1.1,7c0.8,2.5,1,5.2,1.7,7.8
			c-0.2,2.9,2,5.9,0,8.8c-3.4-0.6-3.4-3.7-4.1-6c-1.4-5-2.1-10.1-2.6-15.2c-0.4-3.9-1.9-7.8-0.5-11.8c0-0.3,0-0.7,0-1
			C22.5,65.7,21.4,62.7,24.1,62.1z"/>
		<path class="st144" d="M22.1,80.1c2.9,6.8,1.4,14.7,6,21c0.9,0.5,1.4,1.4,1.8,2.3c0.3,1,0.4,2,0.4,3c-0.1,1-0.3,2-1.2,2.7
			c-4.4-7.5-7-15.6-9-24c1.7-1.4,0.7-3.3,1-5C21.4,79.7,21.8,79.6,22.1,80.1z"/>
		<path class="st145" d="M32.1,43.1c-1.7,1.7-3,3.8-4,6c-1.3,0-2.7,0-4,0c0-1,0-2,0-3c4.6-0.8,6.3-4.4,8-8
			C32.1,39.8,32.1,41.4,32.1,43.1z"/>
		<path class="st146" d="M24.1,62.1c-1.6,1.3-1.1,3.9-3,5c0.5-4.5,1.2-8.9,5-12c0.3,0,0.7,0,1,0C27.1,57.9,24.3,59.4,24.1,62.1z"/>
		<path class="st94" d="M21.1,57.1c0.7-2.8-2-6.8,3-8C22.6,51.6,24.2,55.2,21.1,57.1z"/>
		<path class="st146" d="M22.1,80.1c-0.3,0-0.7,0-1,0c-1-4-2-8,0-12C20.5,72.2,22.3,76.1,22.1,80.1z"/>
		<path class="st147" d="M96.1,140.1c0,0.3,0,0.7,0,1c-6.3,2.3-12.7,0.7-19-0.1c-4.6-0.6-9.2-1.2-13.6-2.4
			c-11.2-3-20.4-9.3-27.4-18.7c-2.3-3.1-6.3-5.2-6-9.9c4.1,0.6,5.9,4.2,7.8,6.9c7.5,11.1,18.9,16,30.8,20.3c2.8,1,5.9,0.2,8.8,1
			c2.4,0.7,4.9,0.3,7.3,0.4C88.6,139.2,92.6,137.4,96.1,140.1z"/>
		<path class="st148" d="M77.1,139.1c-8.9,0.5-16.3-3.7-24.2-7.2c-10.4-4.8-15-14.8-22.8-21.8c-0.3-0.3-0.7-0.7-1-1c0-1,0-2,0-3
			c3.8,1.2,5.6,4.7,8.1,7.3c1.6,1.6,3,3.5,4.4,5.3c2.5,3.9,5.9,6.8,10.2,8.7c4.6,1.2,9.1,2.9,13,5.8c2.4,2.3,5.5,2.9,8.5,3.6
			c1.4,0.3,3,0.1,3.9,1.6C77.2,138.6,77.1,138.9,77.1,139.1z"/>
		<path class="st149" d="M96.1,140.1c-4,0-8,0-12,0c-0.2-0.5-0.1-1,0.3-1.4c3-1.9,6.3-2.8,9.9-2.9c2.4,0,4.6-0.4,6.5-1.9
			c2-0.7,3.9-1.6,6-2c1.3-0.2,2.3-1.5,3.8-1.2c0.2,0.1,0.4,0.3,0.5,0.4c0.3,0.7,0.7,1.3,1,2c-2.6-0.2-3.9,2.1-5.9,3.1
			C102.9,137.7,99.6,139.1,96.1,140.1z"/>
		<path class="st150" d="M108.1,133.1c-2.3,0.3-4.7,0.7-7,1c-0.3-0.2-0.3-0.4-0.3-0.7c0.1-0.2,0.2-0.3,0.3-0.3
			c2.2-1.9,5.5-2.4,6.8-5.5c0.7-1.6,1.6-1.4,2.5,0c0.8,1.2,1.8,2.3,2.7,3.5c-0.7,0-1.3,0-2,0C108.4,129.3,108.9,132.2,108.1,133.1z"
			/>
		<path class="st151" d="M135.1,49.1c0.3,0.3,0.7,0.7,1,1c-0.2,2.3,1.2,4.1,2,6c1.3,8.6,0.3,17-2.3,25.2c-0.4,1.3-0.9,2.4-0.3,3.8
			c1.6,3.4,0.9,6.7-0.8,9.9c-2.6,1.6-4.6,3.5-4.6,6.9c0,1-0.4,2.4-2,2.2c0-3,0-6,0-9c0.3-6.2-1.5-12.7,3.1-18.1
			c2.2-2.6,2.7-6,3.8-9.1c1.1-3.5,1.1-7,0.1-10.5c-0.6-1.2-1.4-2.3-1.8-3.6c-0.3-1.5-1.1-2.8-1.5-4.2c0.1-0.5,0.3-0.8,0.8-1
			C133.5,48.3,134.4,48.5,135.1,49.1z"/>
		<path class="st152" d="M134.1,95.1c-0.4-3.5,3.8-7.7-1.4-10.6c-0.2-0.1-0.1-1,0.1-1.3c6-8.2,5.2-17.7,5.3-27.1
			c2.2,4.9,1.4,10.2,0.8,15.1c-1.5,11.4-1.1,22.9-3.6,34.2c-0.5,2.3-1.8,3.3-3.1,4.7c-2,0.3-2.9-1.1-2.6-2.6
			C130.4,103.2,129.9,98.2,134.1,95.1z"/>
		<path class="st131" d="M134.1,95.1c-1.8,3.6-2.3,7.6-3.4,11.5c-0.5,1.8-0.2,2.8,1.4,3.5c0,1.3,0,2.7,0,4c-6.4-3.2-6.4-3.2-4-10
			c1.4-1.1,1-2.6,1-4C129.1,96.7,130.7,95,134.1,95.1z"/>
		<path class="st99" d="M134.1,116.1c-0.2,1.7,0.7,3.6-1,5c0-1.7,0-3.3,0-5C133.4,116.1,133.8,116.1,134.1,116.1z"/>
		<path class="st153" d="M110.1,124.1c-1.4,0-2.4,0.7-3,2c-4.1,0.9-8.2,1.1-12.3,3.1c-2.9,1.4-7.1,0.7-10.4-1.3
			c-0.9-0.5-1.7-1-2.8-0.6c-8.8,2.2-13.3-0.6-16.7-10.6c-0.3-2.5-0.4-5.1-0.1-7.6c1.2-5.2,4.9-6.6,9.7-6.4c2.8-0.1,5.3,0.7,7.7,2.1
			c0.9,0.5,1.7,1.1,2.3,2c0.9,2.9,2.7,4.8,6.1,4.9c0.7-1.9-0.5-4.9,2.8-5.5c1-0.1,2,0,2.7,0.9c-1.4,1.7-0.2,3.3,0,5
			c1.8,2.1,2.4,4.3,0,7.2c3.9-0.4,6.7,0.8,9.1,2.8c1,0,2,0,3,0C110.3,121.3,110.8,122.1,110.1,124.1z"/>
		<path class="st49" d="M96.1,107.1c-1,0-2,0-3,0c1.9-4.4,1.9-4.4-4.3-8.1c-2-1.1-3.2-2.8-4-4.9c0-0.5,0.1-0.9,0.4-1.3
			c0.6-0.4,1.3-0.5,2-0.4c3.3,2.6,6.4,5.6,11.2,3.5c1.6-0.1,3-0.6,3.9-2c0.2-0.4,0.5-0.7,0.7-1.1c1.6-2,0.1-5,2.1-6.9
			c2.9,3.7,6.6,5.7,11.4,6c1.6,0.1,3,1.3,4,2.6c0.6,0.8,1.1,1.6,1.7,2.4c1.5,1.9,2.6,3.9,0.9,6.2c-5.7,3-1.7,6,0,9c-2.4,0.2-4-1-5-3
			c-1.1-2.7-0.3-5.4,0-8.1c-1.5-1.2-3.5,0.5-5-0.9c-4.6-2.2-7.9-0.6-10.2,3.5C101.3,106.3,99.3,107.7,96.1,107.1z"/>
		<path class="st154" d="M116.1,109.1c0.7,1.2,1.2,2.5,1,4l0,0c-1.9,0.6-2.5-1.2-3.6-1.9c-2.1-1.4-4.4-2.1-6.1,0.4s-0.2,3.9,2.2,4.8
			c0.9,0.3,1.7,1,2.1,2c0.3,1,0.3,2-0.4,2.9c-0.7,0.5-1.5,0.4-2.2,0.1c-7.2-5.4-7.3-5.7-5.1-13.3c1.7-5.7,5.2-6.7,9.6-2.6
			C114.7,106.5,115.3,107.9,116.1,109.1z"/>
		<path class="st155" d="M116.1,109.1c-0.3-0.2-0.7-0.3-0.8-0.5c-2-2.8-5.4-5.5-7.9-4.4c-3.3,1.4-3,6.2-3.8,9.6
			c-0.4,1.8,0.9,3.4,2.7,4.3c1.3,0.7,2.9,1.1,2.9,3c-0.3,0.4-0.7,0.4-1,0c-6.4-2.9-8.3-13.2-3.3-18c1.5-1.5,3.7-1.5,5.1-0.8
			C112.7,103.8,116.4,104.7,116.1,109.1z"/>
		<path class="st132" d="M105.1,122.1c-3.1-0.4-5.7-2.4-9.2-1.3c-2.3,0.7-1.5-1.8-0.7-2.5c2.3-1.9,1.6-4,0.9-6.2
			C99.1,115.4,102.1,118.8,105.1,122.1z"/>
		<path class="st156" d="M113.1,100.1c2.5,1.1,4.3-3.5,6.5-1.1c1.9,2.1-1.6,3.9-1.5,6.2c0.1,1.3,0,2.6,0,3.9
			C116.6,106,117.1,101.8,113.1,100.1z"/>
		<path class="st132" d="M108.1,121.1c0.3,0,0.7,0,1,0c0.7,0,1.3,0,2,0c0.6,0.1,0.9,0.4,1,1c-0.3,2.3,1.1,4.1,2,6c0,0.3,0,0.7,0,1
			c-2.2-1-3-3-4-5c0-1.3-0.7-2-2-2C108.1,121.8,108.1,121.4,108.1,121.1z"/>
		<path class="st157" d="M66.1,117.1c2.1,4,3.3,8.5,8.8,9.6c2.6,0.5,4.8-0.1,7.2-0.6c0.6,2.6-2,2-3,3c-0.7,1.2-1.9,1-3,1
			c-3.9,1.3-7,0.5-9.1-3.4c-1.2-2.3-3.2-3.7-5.9-3.9c-5-0.3-7.6-5.1-12.1-6.3c-0.7-0.4-1.1-1-1.4-1.8c-0.3-1.1-0.2-2.1,0.7-3
			c5.2-1.1,9.9,1.9,15.1,1.3C65.8,112.9,65.2,115.7,66.1,117.1z"/>
		<path class="st136" d="M49.1,116.1c1.7,0,3.1,0.1,4.5,1.4c2.6,2.5,5.4,4.6,9.5,4.3c1-0.1,2.7,1,3.2,2.1c2.1,4.2,5.4,6,9.9,6.2
			c1.2,1.5,3.3,2,4,4c-0.8,0.9-1.8,0.9-2.8,0.8c-3.6-0.4-6.7-1.8-9.4-4.1c-2.2-1.9-4.4-3.6-7.5-3.3c-0.5,0-1.2,0-1.4-0.3
			C55.8,123.4,50.4,121.5,49.1,116.1z"/>
		<path class="st158" d="M77.1,134.1c1,0,2,0,3,0c1.5,0.1,2.9-0.2,4.1,1.1c0.5,0.5,1.9,1,2.1,0.8c4.3-4.4,9.9-1.5,14.7-2.9
			c0,0.3,0,0.7,0,1c-0.8,1.5-1.9,3.1-3.6,2.9c-4.7-0.5-8.9,1.5-13.4,2.1c-0.2,0-0.5,0-0.7,0c-3.6-0.7-7.3-1.1-10.7-2.6
			c-0.7-0.8-1.4-1.7-0.3-2.7C74,133.7,75.6,133.2,77.1,134.1z"/>
		<path class="st11" d="M79.1,129.1c1-1,2-2,3-3c3.4,1,6.8,2.6,10.5,2.3c0.6,0,1.7,0.5,1.8,0.2c3.5-4.7,8.4-2,12.7-2.5
			c-6.4,1.9-12.2,6.2-19.6,4.5C84.8,130,82.3,127.1,79.1,129.1z"/>
		<path class="st159" d="M120.1,95.1c-2.5-1.5-4.8-3-8-2.7c-4.2,0.4-5.9-2.8-7-6.3c-0.2,0.1-0.5,0.2-0.7,0.3c-0.5-0.2-0.8-0.6-1.1-1
			c-0.5-1.5-0.5-3,0.4-4.3c3.4-0.9,6.7-1.6,9.7,1.3c2.5,2.4,4.4-1.2,6.8-1.1c1.8,0,3.5,0.5,5,1.5c2.4,2.3,3.3,4.9,1.9,8.1
			c-0.7,1.7-0.5,3.6-1.1,5.3c-0.1,2.7,0.9,5.9-3,7c0.4-2.4-0.7-4.2-2-6C121.3,96.2,122.2,94.9,120.1,95.1z"/>
		<path class="st160" d="M126.1,96.1c-0.7-1.3-1.6-2.9-0.7-4.1c2.3-3.2,1.1-6-0.3-8.9c1.4-3.7,3.4-7.2,5.3-10.7
			c1.3-2.1,2.2-4.3,3.4-6.4c0.5-1,0.9-2.7,2.7-1.6c0,1.3,0.4,2.6-0.4,3.7c-0.7,4.7-2.5,8.9-5.8,12.3c-0.9,0.9-1.6,2-1.1,3.1
			c1.8,4.1-0.5,7.7-1.1,11.5C127.4,95.4,126.8,95.8,126.1,96.1z"/>
		<path class="st161" d="M112.1,122.1c-0.3-0.3-0.7-0.7-1-1c0-1,0-2,0-3c-0.3-0.2-0.4-0.5-0.3-0.7c0.1-0.3,0.2-0.4,0.2-0.4
			c2.6-0.3,2.6,4.6,5.2,3c2.5-1.5-2.1-3.8-0.3-6c0.4-0.3,0.8-0.3,1.2,0.1c2,1.2,3.4,3,5.9,3.5c1.6,0.3,3.2,0.8,3.1,3.1
			c0,2-0.4,3.5-2.1,4.8C120.2,128.5,116.4,127.4,112.1,122.1z"/>
		<path class="st162" d="M117.1,114.1c-0.3,0-0.7,0-1,0c-2.3-0.1-3.9,1.1-5,3c0,0.3,0,0.7,0,1c-1.8-1.6-6,0-5.8-4
			c0.1-2,0.3-4.2,2.9-5.2c2.5-0.9,4.5-0.2,6.3,1.3c1,0.8,1.2,2.3,2.6,2.8C117.1,113.4,117.1,113.8,117.1,114.1z"/>
		<path class="st163" d="M112.1,31.1c1.9-0.1,2.9-1.1,3-3c-0.4,6.5,4.1,8.2,9.1,9.6c1.8,0.5,2.2,2.3,3.1,3.6
			c1.2,1.8,2.4,3.6,4.8,3.8c0.9,1.3,1.1,2.7,0,4l0,0c-2,0.6-3.1-0.9-4.3-1.9c-2.8-5.6-7.7-8.5-13.5-10.3c-0.9-0.4-2-0.3-2.9-0.5
			c-1.4-0.2-3.2-0.2-3.6-2c-0.4-1.7,0.7-2.8,2-3.6C110.6,30.4,111.4,30.5,112.1,31.1z"/>
		<path class="st124" d="M132.1,49.1c0-1.3,0-2.7,0-4c1.8,0.7,2.2,2.5,3,4C134.1,49.1,133.1,49.1,132.1,49.1z"/>
		<path class="st164" d="M85.1,30.1c0.7,0.3,1.3,0.7,2,1c2.1,3.5,4.6,5.6,9.1,3.5c2.3-1.1,4.4,0.5,6,2.2c0.5,1.7-0.8,2.4-1.8,3.2
			c-2.1,1.5-3.1,3.3-3.1,5.9c0,1.7-0.5,3.2-1.5,4.6c-1.4,1.9-4.1,3.4-3.4,6.3c1.1,4.1,1.4,8.7,4.7,11.8c2.2,2.1,3.5,4.3,3.8,7.3
			c0,0.8-0.1,1.5-0.5,2.1c-2,1.1-3.2-0.7-4.7-1.4c-2.6-2-3.5-5.1-4.9-7.9c-0.9-2.5-0.9-5.4-2.6-7.7c-2.4-3.3-6.9-4.1-9-7.8
			c-0.3-1.2-0.3-2.6,0.5-3.3c3.4-2.9,2.9-6.8,3-10.6c0-0.8,0.2-1.6,0.4-2.3C84.1,34.7,83.2,32,85.1,30.1z"/>
		<path class="st165" d="M102.1,37.1c-2.9-1.4-5.8-2.3-9.2-1.1c-4,1.3-4.8-2.1-5.8-4.9c3.2,3.8,7.1,3.2,11.4,2.4
			c3.3-0.6,2.3-1.7,1.6-3.4c0.3-0.4,0.7-0.6,1.1-0.7c0.7-0.1,1.4,0,2,0.2c0.6,0.3,1.1,0.8,1.6,1.3c1.4,2.4,1.5,4.7-0.8,6.7
			C103.3,37.8,102.6,37.7,102.1,37.1z"/>
		<path class="st166" d="M85.1,30.1c-0.4,2.3,0.9,4.9-1,7c-0.4-0.3-0.6-0.6-0.8-1.1c-0.5-2.9-1.8-4.7-5-4.7
			c-2.6-0.3-2.9,1.9-3.6,3.5c-0.3,0.4-0.7,0.6-1.2,0.6c-0.8-0.2-1.2-0.6-1.4-1.4c0-1,0-2,0-3c0.7-1.8,2.5-2.2,4-3
			C79.4,27.4,81.9,30.3,85.1,30.1z"/>
		<path class="st167" d="M101.1,30.1c-0.3,0-0.7,0-1,0c-6.5-3.8-6.9-4.6-4-9c2,2.4,3.5,5.2,5.3,7.8
			C101.5,29.3,101.4,29.7,101.1,30.1z"/>
		<path class="st168" d="M101.1,29.1c-2.8-2-4.7-4.5-5-8c1.8-1.8,4-0.7,6-1c0,0.3,0,0.7,0,1c-4.6,2.1,0.4,4.6-0.3,6.8
			C101.7,28.4,101.5,28.8,101.1,29.1z"/>
		<path class="st169" d="M72.1,34.1c0.3,0.3,0.7,0.7,1,1c-0.5,2.9-4.8,6.2-8.4,6.5c-1.5,0.1-3-0.2-4.5-0.1c-1.8,0-3.5,0.4-5.1,1.4
			c-1.3,0.8-2.6,1.5-4,0.2c2.4-4.1,5.8-6.6,10.6-6.9C65.2,35.9,68.3,33,72.1,34.1z"/>
		<path class="st170" d="M51.1,43.1c3.4,0.1,5.3-4.2,9-3c0.9,1.1,3.1,0.7,3.1,2.8c-0.7,1.1-1.9,1.7-2.9,2.6
			c-0.4,0.2-0.8,0.4-1.2,0.5c-2,0.4-4.2,0.2-6.2,1c-1.7,0.3-3.4,1.1-5.1,0.1c-0.9-1.8-0.4-3,1.3-3.9C49.8,43.1,50.4,43.1,51.1,43.1z
			"/>
		<path class="st169" d="M49.1,43.1c-0.7,1.2-1.2,2.5-1,4c0.3,0.4,0.3,0.9,0.1,1.3c-0.7,0.8-1.4,1.3-2.5,0.7c-1-2.6-3.9-2.5-5.7-4
			c0-0.3,0-0.7,0-1C43.2,44.9,46.1,43,49.1,43.1z"/>
		<path class="st140" d="M51.1,37.1c1.3-1.3,2.7-2.7,4-4c1.7-0.3,3.3-0.7,5-1C57.4,34.2,55.1,37.3,51.1,37.1z"/>
		<path class="st171" d="M36.1,49.1c0-0.3,0-0.7,0-1c1-0.9,2-1.6,3.3-1.9c1.4-0.1,2.6,0.2,3.3,1.5c1.2,3-0.3,6.9,3.3,9
			c0.7,1,0.2,1.8-0.5,2.6c-0.9,0.8-2,1.3-3.3,1.4c-2.6-0.4-4.3,0.6-5.4,3.1c-0.5,1.2-0.9,3-3,2.4c-0.5-0.6-0.6-1.3-0.6-2
			c0.3-2.2,1-4.2,2.1-6c4.2-4.5,4.3-4.8,1-8.4C36.3,49.5,36.2,49.3,36.1,49.1z"/>
		<path class="st170" d="M39.1,47.1c-1,0.3-2,0.7-3,1c0.3-2.4,2.2-2.7,4-3c2.8,0.1,6.3-0.7,6,4c-0.4,0.3-0.8,0.3-1.3,0.2
			C42.9,48.5,42.1,45.1,39.1,47.1z"/>
		<path class="st172" d="M29.1,56.1c0.3-2.9,3.4-4.3,4-7c1,0,2,0,3,0l0,0c0.7,1.7-0.7,2.5-1.5,3.6C32.9,53.9,32,56.6,29.1,56.1z"/>
		<path class="st173" d="M29.1,56.1c1.7-1.3,3.3-2.7,5-4c1.2-0.8,2.5-1,3.4,0.4c1.5,2.3-0.3,3.9-1.3,5.6c-0.7,2-1.3,4-2,6
			c-0.5,0.2-0.9,0.1-1.3-0.2c-0.4-3.1-2.6-3.2-5-3.1c-0.4-0.9-0.4-1.9,0.2-2.7C28.4,57.4,28.8,56.8,29.1,56.1z"/>
		<path class="st174" d="M28.1,58.1c0,1,0,2,0,3c0,0.2,0.1,0.5,0.1,0.7c0.4,2.8-1.5,5-1.7,7.7c-0.2,2.5-0.4,5,1.2,7.2
			c0.5,1.1,0.8,2.2,1.2,3.3c0.4,1.6,0.9,3.2,0.6,4.8c-0.4,0.7-1,0.9-1.8,0.8c-0.5-0.1-0.8-0.4-1.1-0.8c-0.5-2.4-1.5-4.5-2.4-6.7
			c-0.8-5-1.6-10,0-15C25.4,61.4,26.8,59.8,28.1,58.1z"/>
		<path class="st175" d="M101.1,28.1c0-1-0.4-1.9-1.2-2.6c-4.3-4-0.9-4.1,2.2-4.4c1.7,0.3,3.3,0.7,5,1c1,0.7,2.1,1.4,1.1,2.9
			c-1.9,1.1-3.3-1-5.1-0.8c1.9,2.3,4.2,1,6.3,0.9c1.8,3.5,1.1,5.1-2.3,5C104.9,30.2,102.9,29.2,101.1,28.1z"/>
		<path class="st176" d="M108.1,25.1c-0.3-1-0.7-2-1-3c3.3,1.7,7.4,2.8,5,8c-3,1.2-6,2-9,0c-0.7,0-1.3,0-2,0c0-0.3,0-0.7,0-1
			s0-0.7,0-1c1.8-0.2,3.5,0.4,5.2,0.8c1.2,0.3,2.7,0.7,3.4-0.8S109.3,25.8,108.1,25.1L108.1,25.1z"/>
		<path class="st168" d="M103.1,30.1c3,0,6,0,9,0c0,0.3,0,0.7,0,1c-0.7,0-1.3,0-2,0c-2,1.3-4,1.4-6,0
			C103.8,30.8,103.4,30.4,103.1,30.1z"/>
		<path class="st177" d="M48.1,112.1c0,1,0,2,0,3c-6.2,1.7-9.3-2.6-12.6-6.5c-5.1-4.3-7.3-10.1-8.4-16.5c-0.7-2.3-1.3-4.7-2-7
			c0.7-0.6,1.3-0.6,2,0l0,0c2.3,1.1,2.2,3.5,3,5.5c2.1,3.4,3.7,7.1,6.4,10c1.4,1.2,2.6,2.6,3.5,4.2c1.9,3.1,4.5,5.1,8.2,5.4
			C48.6,110.8,48.7,111.5,48.1,112.1z"/>
		<path class="st178" d="M27.1,92.1c1.7,6,5,11.2,9,16c0.7,0.9,0.9,1.8,0.3,2.8c-4.7-0.5-5.5-4.7-7.3-7.8c-0.8-0.4-1-1.2-1-2
			C27.8,98.1,27.4,95.1,27.1,92.1z"/>
		<path class="st179" d="M27.1,85.1c-0.7,0-1.3,0-2,0c-0.3-2.3-0.7-4.7-1-7C26,80,27.5,82.2,27.1,85.1z"/>
		<path class="st143" d="M29.1,103.1c2.4,2.6,4.1,5.8,7,8c1.3,0.2,2,1.1,2.8,2c0.8,2,3.8,3.1,2.2,6c-4-4.3-8-8.7-12-13
			C29.1,105.1,29.1,104.1,29.1,103.1z"/>
		<path class="st148" d="M84.1,139.1c0,0.3,0,0.7,0,1c-2.3-0.4-4.9,0.9-7-1l0,0C79.4,137.4,81.8,138.2,84.1,139.1L84.1,139.1z"/>
		<path class="st58" d="M41.1,119.1c0.2-2.6-3.2-3.4-3-6c1.8-0.4,2.8,0.9,3.7,1.9c1.9,2.2,4,3.6,7,4.2c3.9,0.9,5.2,4.2,5.6,7.9
			c-0.9,1.1-1.8,1.9-3.3,1C46.6,126.4,42.9,123.8,41.1,119.1z"/>
		<path class="st58" d="M51.1,128.1c1-0.3,2-0.7,3-1c6.5,1.1,13.5,0.7,18,7c0.3,0.7,0.7,1.3,1,2c-3.3,0.9-6-1.2-9-2
			C60.3,130.9,55.4,130.2,51.1,128.1z"/>
		<path class="st149" d="M64.1,134.1c3.3-0.7,6,1.3,9,2c3.4,1.9,8-0.4,11,3c-2.3,0-4.7,0-7,0c-3.3-0.9-6.6-1.9-9.9-2.8
			C65.9,135.9,64.7,135.5,64.1,134.1z"/>
		<path class="st120" d="M108.1,133.1c0.2-1.2-0.6-2.8,0.9-3.5c1.1-0.5,1.6,0.7,2.1,1.5C109.5,130.9,109.1,132.5,108.1,133.1z"/>
		<path class="st180" d="M136.1,64.1c-2,2.8-2.5,6.5-5,9c-0.4,0.4-0.8,0.4-1.2,0c-0.5-2.9,0.9-5.5,1.7-8.1c1.2-4,0.9-7.8-1.9-11.1
			c-0.5-0.6-0.9-1.2-1.2-1.9c-0.3-1-0.3-1.9,0.3-2.8c2.7,0,3.8,2.3,5.3,3.9c0.7,1,1.3,2,2,3C136.9,58.8,136.9,61.4,136.1,64.1z"/>
		<path class="st181" d="M134.1,53.1c-2.2-0.7-3.6-2.3-5-4c-1.4,0.4-1.4-0.5-1.4-1.5c0.1-0.2,0.3-0.4,0.4-0.5c1.7-0.1,2.6,1.4,4,2
			C133.2,50.2,134.5,51.2,134.1,53.1z"/>
		<path class="st182" d="M136.1,64.1c0-2.7,0-5.3,0-8c1.6,4,1.6,8,0,12C136.1,66.8,136.1,65.4,136.1,64.1z"/>
		<path class="st183" d="M74.6,106.1c3.9,0,10.3,5.9,10.4,9.5s-5.1,9.6-8.1,9.4c-3.5-0.2-9.6-6.7-9.7-10.3
			C66.9,108.7,69.2,106.1,74.6,106.1z"/>
		<path class="st184" d="M48.1,112.1c0-0.7,0-1.3,0-2c0.2-0.2,0.3-0.3,0.5-0.5c4-1.9,7.5-4.6,12-5.2c0.5,0,0.9,0,1.4,0.2
			c2.1,0.9,3,2.8,4.1,4.5c0,2.7,0,5.3,0,8c-1.3-2.4-2.9-2.9-5.8-2.8C56.2,114.5,52.2,112.9,48.1,112.1z"/>
		<path class="st11" d="M89.1,98.1c2.7,0.3,5,2.3,6.6,3.8c2.5,2.3-0.8,3.9-2.6,5.2c-0.5,0.4-1.4,1-1.3,1.2c0.6,1.9,2.2,4.1-1,5.1
			c-2.6,0.8-6.4-3.1-6.7-6.3C85.8,104.1,87.2,101,89.1,98.1z"/>
		<path class="st185" d="M89.1,98.1c0,3.9-1.6,7-5,9c-0.7-0.3-1.3-0.7-2-1c-0.8-1.6-2.3-2.2-3.9-2.5c-1.4-0.3-2.5-0.8-2.2-2.6
			c2.9-1.7,3.2-5.3,5.5-7.5c1.4-0.6,2.6-0.4,3.7,0.6C86.4,95.4,87.8,96.8,89.1,98.1z"/>
		<path class="st11" d="M76.1,101.1c0.8,3.1,6.1,0.8,6,5c-2.2-1.1-4.4-2.4-7-2c-2.1-1-4.2-1.9-6.5-0.3c-1.4,0.9-2.8,0.7-4-0.4
			c-1.5-1.4-1.9-3.2-1.1-5c0.8-2,2.1-3.7,3.4-5.4c2-0.6,3.3,0.5,4.7,1.6C73.2,96.7,77.6,96.9,76.1,101.1z"/>
		<path class="st186" d="M67.1,93.1c0.2,1.8-0.6,3.2-1.8,4.4c-1.5,1.5-1.6,3.2-0.2,4.9c1.5,1.9,3,0.9,4.3-0.2c2.9-2.3,4,0.9,5.8,1.8
			c-4.1-0.2-7.9-0.1-9,5c-1.7-1-3-2.3-4-4c-1.6-4-0.5-8-0.1-12c0.1-0.7,0.3-1.4,0.7-2c0.6-0.5,1.2-0.8,2-0.8c0.5,0,1,0.2,1.4,0.4
			C66.9,91.3,67.6,92,67.1,93.1z"/>
		<path class="st187" d="M99.1,97.1c-5.1,1.9-9.1,0.7-12-4c-1.9-1.3-4.2-1.7-6.2-2.7c-1.8-0.8-3.7-1.5-3.1-4.1
			c0.3-0.4,0.7-0.6,1.2-0.8c4.2,0.8,7.6,3,10.8,5.6c0.6,0.4,1.1,0.8,1.6,1.2c2.3,1.9,4.8,2.2,7.3,0.7c3.2-2,1.6-4.9,1.3-7.6
			c0.4-0.7,1.1-0.9,1.9-0.9c1.1,0,1.7,0.9,2.2,1.7l0,0c1,2.8,0.9,5.5-1,8l0,0C102.2,95.7,100.3,96,99.1,97.1z"/>
		<path class="st188" d="M78.1,86.1c0,2.3,1.8,2.8,3.6,3.3c2.2,0.7,4.5,1.2,5.5,3.7c-0.7,0-1.3,0-2,0c-1.4-0.1-2.9,0.1-4.3-0.4
			c-2.9-1.7-7-2.4-6.2-7.2c0.3-0.5,0.6-0.8,1.2-0.9C76.9,84.5,77.7,85,78.1,86.1z"/>
		<path class="st128" d="M120.1,95.1c0.8-1.4,2.1-2.8,3.3-0.9c1.3,2-1.3,2-2.3,2.9C120.3,96.7,120.1,95.9,120.1,95.1z"/>
		<path class="st11" d="M81.1,92.1c1.4,0.1,2.9-0.5,4,1c0,0.3,0,0.7,0,1c-1.3,0-2.7,0-4,0c-1.7,0.2-1.5-0.9-1.3-2
			C80.2,91.6,80.7,91.6,81.1,92.1z"/>
		<path class="st189" d="M103.1,94.1c0.8-2.6,1.3-5.2,1-8c0.3,0,0.7,0,1,0C104.6,88.8,106.5,92.1,103.1,94.1z"/>
		<path class="st189" d="M99.1,97.1c0.7-1.8,2.5-2.2,4-3C102.8,96.5,100.9,96.8,99.1,97.1z"/>
		<path class="st190" d="M72.1,134.1c-4.9-5.2-12.5-3.4-18-7c-2.1-3.6-3.3-7.6-9.1-7.5c-3.1,0.1-3.7-5.2-6.9-6.5c-1-0.4-1.6-1-2-2
			c0-1,0-2,0-3c3.4,3.3,6.9,6.6,12,7c0.3,0.3,0.7,0.7,1,1c2.7,4,7.5,5.8,9.8,10.2c7.8-1.4,11.3,7.1,18.2,7.8
			C75.4,134.1,73.8,134.1,72.1,134.1z"/>
		<path class="st191" d="M120.1,82.1c-3.1,2.4-5.9,4.4-9.2-0.3c-1.4-2-4.7,1.4-6.8-0.7c-1-0.2-1.5-1-1.9-1.8
			c-0.3-0.9-0.7-1.8,0.1-2.6c0.6-0.5,1.2-0.7,2-0.9c1.5-0.4,2.9,0.2,4.2,0.9c3.4,1.8,6.7,4.1,10.9,1.7c1.1-0.6,2.6-0.1,3.2,1.5
			C122.7,81.6,120.9,81.4,120.1,82.1z"/>
		<path class="st192" d="M120.1,82.1c0.7-0.7,1.3-1.3,2-2c3.2-1.7,3.6-6.6,8-7c0.3,0,0.7,0,1,0c-2,3.3-2.4,7.6-6,10
			C123.4,82.8,121.8,82.4,120.1,82.1z"/>
		<path class="st49" d="M103.1,79.1c0.3,0.7,0.7,1.3,1,2c0,1.7,0,3.3,0,5c-0.7-0.3-1.3-0.7-2-1c-1.2-1.1-2.6-2.1-2.3-4
			C100.5,79.7,101.3,78.6,103.1,79.1z"/>
		<path class="st193" d="M111.1,117.1c0.4-5.4,0.7-5.6,5-3c0.4,0.9,0.7,1.9,1.2,2.6c1,1.4,3,2.7,0.5,4.4c-2.4,1.7-4,0.6-5.3-1.5
			C112,118.8,111.6,118,111.1,117.1z"/>
		<path class="st181" d="M115.1,36.1c5.8,1.9,11.5,3.9,13,11l0,0c-3.5-0.1-5.4-3.1-8.2-4.4c-0.3-0.3-0.6-0.7-0.8-1.1
			c-1-2-3.9-2.3-4.3-4.9C114.9,36.5,115,36.3,115.1,36.1z"/>
		<path class="st181" d="M104.1,31.1c2,0,4,0,6,0c-2,2.6-2.5,4.4,1.9,4c1.1-0.1,2.3-0.1,3.1,1l0,0c-3.5,2.1-7.2,2.4-11,1
			C104.8,35.1,105.3,33.1,104.1,31.1z"/>
		<path class="st194" d="M104.1,37.1c3.7-0.3,7.3-0.7,11-1c0.5,2.8,4.5,2.1,5,5c-3.5,1.1-6.9-0.5-10.2-1.1c-4.8-0.9-6.9,1.5-8.3,5.1
			c-1.2,3-2.6,5.7-4.5,8.3c-2.4,2.4-2.5,4.8-0.4,7.5c3.8,4.8,6.4,10.2,7.4,16.3c-0.7,0-1.3,0-2,0c-1.1,0.6-1.4-0.5-2-1
			c-0.9-2.8-2.2-5.2-4.6-7.2c-3-2.5-2.3-6.7-4-9.9c-2.3-4.4,0.9-6.6,3.3-9.3c0.6-0.7,1.3-1.8,1.1-2.6c-1.2-5.4,2.7-7.5,6.1-10
			C102.8,37.1,103.4,37.1,104.1,37.1z"/>
		<path class="st195" d="M63.1,43.1c-1-1-2-2-3-3c5.5,1.4,9.4-1.5,13-5c0.3,0,0.7,0,1,0c2.1,4.5,6.4,3.3,10,4
			c-0.3,4.1,1.7,8.9-3.6,11.7c-0.6,0.3-0.3,2.2-0.4,3.3c0.3,0.9-0.3,1.4-1,1.7c-0.8,0.1-1.5,0-2.1-0.4c-1.5-1.8-0.6-4.6-2.3-6.4
			c-0.5-0.7-1-1.4-1.6-2.1c-2.8-2.3-7-0.4-9.6-3.2C63.3,43.5,63.2,43.3,63.1,43.1z"/>
		<path class="st177" d="M89.1,60.1c2.4,2.1,1.6,5.5,3,8c-0.5,0.5-1.2,0.7-1.9,0.8c-4.3,1.3-7.1-1.7-10.3-3.7
			c-1.3-3.6,3.6-2.6,3.8-5.1C85.5,57.5,87.3,58.9,89.1,60.1z"/>
		<path class="st196" d="M89.1,60.1c-1.7-0.1-3.9-2-5,1c-1.8,2.5-4.6,1.7-7,2.2c-1.4-3.2-0.3-5.9,2-8.2c0.3-0.3,0.7-0.7,1-1
			C83.8,55.1,86.4,57.6,89.1,60.1z"/>
		<path class="st159" d="M100.1,76.1c0.7,0.3,1.3,0.7,2,1c0.3,0.7,0.7,1.3,1,2c-1,0.7-2,1.3-3,2c-1.1,1.2-2.7,1.4-4.1,1.8
			c-3.6,0.8-6.5-0.2-9-2.9c-1.3-2-3-3.8-3.3-6.3c0.1-0.5,0.3-0.9,0.7-1.1c0.9-0.4,1.8-0.4,2.8-0.1c2.8,0.8,2.7,3.9,4.4,5.7
			c1.1,1,2.3,1.2,3.7,0.9c1.6-0.4,3.3,0,4.8-1C100.1,77.4,100.1,76.8,100.1,76.1z"/>
		<path class="st197" d="M84.1,39.1c-6.6,2.2-8.9,1.3-10-4c-0.2-2.9,0.2-5.3,4-5c0.6,1.3-0.8,2.3-0.6,3.6c0.3,2.6,2.3,2.1,4,2.1
			c0.9-0.1,1.8-0.2,2.7,0.3c0,0.3,0,0.7,0,1C84.1,37.8,84.1,38.4,84.1,39.1z"/>
		<path class="st198" d="M91.1,79.1c-2.7-1.1-1.5-4.8-4-6c1.3-1.5,1.7-3.5,3-5c0.7,0,1.3,0,2,0c0.9,2.9,2.4,5.5,4,8
			c-0.1,0.2-0.3,0.3-0.4,0.5C94.1,77.3,92.6,78.2,91.1,79.1z"/>
		<path class="st199" d="M100.1,78.1c-0.6,3.2-3.2,1.6-5,2c-0.8-1.6,0-2.8,1-4l0,0C97.8,76,98.7,77.5,100.1,78.1z"/>
		<path class="st200" d="M76.1,33.1c-0.2-1.6,1.4-2,2-3c3.8,0.1,6.5,1.5,6,6c-0.7,0.3-1.3,0.7-2,1C80.5,35.2,78.7,33.5,76.1,33.1z"
			/>
		<path class="st201" d="M48.1,48.1c0-0.3,0-0.7,0-1c1.5-1,3.2-1.1,5-1c2.2-1,5.1,2.3,7-1c4.6-1.9,6,1.8,7.7,4.5
			c0.9,1.5,1.2,3.4,0.7,5.2c-0.6,1.4-1.7,2-3.2,2.2c-0.8,0-1.5-0.1-2.2-0.5c-3.6-5.3-8.7-7.8-15.1-7.3c-0.3-0.3-0.3-0.5-0.2-0.8
			C47.9,48.2,48,48.1,48.1,48.1z"/>
		<path class="st202" d="M68.1,55.1c-1.1-4.6-1.8-9.5-8-10c0.1-2,1.5-2,3-2l0,0c3.4,2.1,6.7,4.4,11,3c0.3,0.7,0.7,1.3,1,2
			c1.5,3.4-1.9,4.2-3.3,6c-0.9,0.8-1.9,1.3-3.1,1.3C68.5,55.3,68.3,55.2,68.1,55.1z"/>
		<path class="st202" d="M60.1,45.1c-0.1,2.2,0,4.7-3.4,2.4c-1-0.7-2.4-1-3.6-1.4C55.2,44.2,57.8,45.5,60.1,45.1z"/>
		<path class="st203" d="M48.1,48.1c0,0.3,0,0.7,0,1c1.8,2.1,1.5,4.5,0.9,6.9c-0.6,1.2-1.4,2-2.9,1.1c-2.9,0.2-4.2-1.3-4-4.1
			c0.1-1.6,0-3.3,0-4.9c1.3-0.6,2,0.5,3,1c0.3,0,0.7,0,1,0C46.8,48.8,47.4,48.4,48.1,48.1z"/>
		<path class="st204" d="M46.1,57.1c0.8,0,1.6-0.2,2-1c1.8-1.4,3.1-0.5,4.2,1c1.3,1.8,3,3.1,4.2,4.9c-0.6,5.3-1.7,10.5-1.6,15.9
			c0,2.7-2.4,4.2-5.1,4.5c-3.1,0.3-2.4-2.4-3.1-4.4c0,3.2,1.2,5.8,2.1,8.5c-0.5,3.5-2.4,4.1-5.1,2.2s-5.1-4.2-4.2-8.1
			c0.4-1.7-0.3-3.2-0.4-4.8c-0.2-3.2,0.8-6.1,2.9-8.5c1.4-1.7,2.2-3.6,2.7-5.6c0.2-0.7,1-1.1,0.7-2l-0.1-0.5
			C45.4,58.4,45.8,57.8,46.1,57.1z"/>
		<path class="st205" d="M45.1,61.1c1,2.5,0.1,4.5-1.7,6.1c-2.3,2.2-3.1,4.9-3.3,7.9c-0.4,0.3-0.8,0.4-1.3,0.3
			c-1.7-0.8-3.6-1-5.1-2.4c-0.3-0.7-0.3-1.4-0.1-2.1c2.2-4.1,4.9-7.8,8.4-10.9c1-0.3,2-0.7,3-1l0,0C45.7,59.8,45.7,60.4,45.1,61.1z"
			/>
		<path class="st206" d="M42.1,60.1c-1.5,4.5-5.1,7.5-8,11c-1.5-1.7-1.5-3.3,0-5c1.4-1.1,1.5-2.8,2.3-4.2
			C37.6,59.6,39.3,57.8,42.1,60.1z"/>
		<path class="st207" d="M34.1,66.1c0,1.7,0,3.3,0,5c0,0.7,0,1.3,0,2c2.6,4,0.7,7.9-0.5,11.8c-0.5,1.7-2.2,2.3-4.1,1.7
			c-0.6-0.3-0.8-0.8-0.4-1.5c-0.9-1.5-1.1-3.2-1-5c2.7,0.8,3.1-1,3.4-3c0.9-4.1-0.6-8.4,1.1-12.5c0.2-0.2,0.4-0.4,0.6-0.6
			c0.3,0,0.7,0,1,0C34.1,64.8,34.1,65.4,34.1,66.1z"/>
		<path class="st208" d="M36.1,58.1c-0.2-2.2,3.5-5.6-2-6c0.7-1,1.3-2,2-3c1.9,0,3.6,0.3,3.9,2.6C40.4,54.8,39,57,36.1,58.1z"/>
		<path class="st209" d="M45.1,49.1c-1-0.3-2-0.7-3-1c-0.7-1.2-1.9-1-3-1C42.1,44.8,43.6,46.9,45.1,49.1z"/>
		<path class="st210" d="M28.1,61.1c1.8-0.2,1.9-3.8,4.1-2.5c1.9,1.2,0.6,3.6,0.9,5.5l0,0c-0.5,0.6-0.7,1.3-1,2
			c-0.6,1.5-1.5,2.6-3.3,2.3c-1.4-0.3-1.6-1.5-1.5-2.7C27.9,64.2,27.1,62.5,28.1,61.1L28.1,61.1z"/>
		<path class="st179" d="M29.1,85.1c0,0.3,0,0.7,0,1c1.2,1.3,2.4,2.2,3.9,0.4c0.8-0.9,1.7-2,3.2-1.6c2.1,3.9,4.1,7.9,6.7,11.5
			c4,5.5,7.6,5.6,11.3-0.2c0.9-1.5,1.3-3,1.5-4.7c0.2-0.5,0.5-0.8,0.9-1c2.5-0.2,4.9,0.1,6.5,2.5c-0.3,4-0.7,8-1,12
			c-0.3,0-0.7,0-1,0c-2.6-1.4-5.2-0.9-7.7,0.1c-4.3,1.7-7.7,0.6-10.8-2.5c-2.4-2.3-4.7-4.7-7.1-7c-1.6-2.3-5-2.2-6.4-4.7
			c-0.7-2-1.3-4-2-6C27.8,85.1,28.4,85.1,29.1,85.1z"/>
		<path class="st211" d="M32.1,78.1c-0.3,1.5,0.9,3.6-0.9,4.4s-1.8-1.9-3.1-2.4c-1.2-0.7-1-1.9-1-3c-1.4-2.2-1-4.7-0.8-7.1
			c1.2-2,2.3-1,2.5,0.4c0.3,2.4,1.4,3.4,3.7,3.2C32.4,75.1,33,76.7,32.1,78.1z"/>
		<path class="st212" d="M27.1,69.1c0,2.7,0,5.3,0,8c-3.5-2.4-2-5.9-1.7-8.9c0.2-2.4,1.8-4.7,2.7-7.1c0,1.7,0,3.3,0,5
			C27.1,66.9,28.2,68.3,27.1,69.1z"/>
		<path class="st213" d="M108.1,25.1c-2.8,3-5.1,2.3-7.6-2.6C103.6,22,105.8,23.7,108.1,25.1L108.1,25.1z"/>
		<path class="st214" d="M48.1,110.1c-3.3,1.5-5.7,1.2-7.4-2.7c-1-2.3-3.1-4.2-4.6-6.3c-2-1.4-1.4-2.8,0-4.2
			C41.1,100.4,46,104,48.1,110.1L48.1,110.1z"/>
		<path class="st215" d="M36.1,97.1c0,1.3-1,2.7,0,4c-4.2-2-4.3-6.9-7-10c2.3,1.4,5.8,0.7,7,4C36.7,95.8,36.7,96.4,36.1,97.1z"/>
		<path class="st216" d="M104.1,77.1c-1.6-1.4-2.4-2.6-2.6-5.1c-0.4-4-3.4-7.3-5.9-10.6c-2.2-2.9-3.2-5.7,0.5-8.3
			c2.2,4.5,4.2,9.2,7.2,13.4c0.3,0.4,0.5,0.8,0.7,1.2c0.7,2.1,1.6,4.1,4,4.7c0.4,0.2,0.8,0.4,1.2,0.7c8.5,7.2,15.7,4.3,19.2-7.5
			c1.6-4,0.8-8.4,1.8-12.4c4.2,3.1,4.1,7.3,2.8,11.7c-0.8,2.8-1.9,5.6-2.8,8.3c-3.4,1.5-3.2,7.1-8,7c-0.5-0.3-1.3-1-1.6-0.9
			c-5.6,3.4-10,0.1-14.6-2.5C105.5,76.5,104.7,77,104.1,77.1z"/>
		<path class="st217" d="M130.1,53.1c1.8,4.5,0.9,8.8-1,13c-1.3-1.2-1.2-2.8-1.3-4.4c0.5-4.1-0.6-7.5-4.1-9.9
			c-0.6-1.5-0.2-2.9,0.6-4.2c0.3-0.4,0.7-0.7,1.1-0.8c2.4,1,2.6,3.4,3.7,5.3C129.4,52.4,129.8,52.8,130.1,53.1z"/>
		<path class="st218" d="M129.1,52.1c-1.3-1.7-2.7-3.3-4-5c-2.4-0.9-5.7-1-5-5c3.2,0.7,5.5,3.1,8,5c0,0.8,0.2,1.6,1,2
			C129.1,50.1,129.1,51.1,129.1,52.1z"/>
		<path class="st219" d="M75,110.1c4.3-0.3,5.5,2.8,5.6,6c0.1,2-0.3,4.8-3.6,4.9c-2.6,0.1-6.7-3.6-6.8-6.3
			C70.1,112.7,72.7,110.2,75,110.1z"/>
		<path class="st220" d="M36.1,97.1c0-0.7,0-1.3,0-2c1.5,1.3,3.3,2.4,4.4,4c4.3,6.1,9.9,7.1,16.2,4.1c2.7-1.3,3.6-0.1,4.4,1.9
			c-4.7,0.7-8,5.1-13,5C44.1,105.7,40.9,100.6,36.1,97.1z"/>
		<path class="st221" d="M80.1,92.1c0,0.8,0.2,1.6,1,2c-0.6,3.1-0.6,6.6-5,7c0.3-3.6-4.4-3.1-5-6c-1.7-3.7-1.8-7,2.1-9.5
			C75,88.3,76.9,90.9,80.1,92.1z"/>
		<path class="st222" d="M74.1,86.1c-3.6,2.1-2.7,5.8-3,9c-1.3-0.7-2.7-1.3-4-2c-0.3-0.7-0.7-1.3-1-2c-1.7-4-0.4-9.9,2.8-12.5
			c1.8-1.5,3.3-1.3,4.4,0.8C74.3,81.5,74.7,83.8,74.1,86.1z"/>
		<path class="st223" d="M74.1,86.1c-0.1-0.2-0.1-0.3-0.2-0.5c-1.5-2.2-0.4-7.3-3.2-6.7c-2.9,0.6-4,5.2-4.6,8.7
			c-0.2,1.1,0,2.3,0,3.5c-0.3,0-0.7,0-1,0c-3.5-3.1-1.6-6.8-0.6-10c1.1-3.6,2.9-6.9,6.7-8.6c2.6,1.1,5.4-1.4,8,0.3
			c0.2,0.4,0.3,0.9,0.2,1.3c-2.9,2.6-4.8,5.6-3.7,9.7c0,0.5-0.2,0.9-0.5,1.2c-0.5,4.5,3.9,4.7,6,7c-0.3,0-0.7,0-1,0
			C76.9,91.3,74,90.2,74.1,86.1z"/>
		<path class="st224" d="M63.1,93.1c-2.3-0.7-4.7-1.3-7-2c-1.7-1.6-2.1-3.6-1.7-5.9c1.9-4.2,4.7-6.9,9.7-6.4c0.4,4.2-1.5,8.1-1,12.3
			C63.1,91.8,63.1,92.4,63.1,93.1z"/>
		<path class="st225" d="M63.1,91.1c-1.7-4.2-1-8.1,1-12c0.4-2.5,1.6-4.8,2.4-7.2c2.1-1.8,2.9-4.8,5.5-6.1c1,0.4,1.5,1.2,1.6,2.3
			c-0.2,1.7-0.1,3.6-1.5,4.9c-6,4-8.7,11.1-7,18C64.4,91.1,63.8,91.1,63.1,91.1z"/>
		<path class="st226" d="M100.1,85.1c2.6,2.4,2.9,5,0.7,7.8c-2.4,2.9-5.4,2.7-8.5,1.6c-1.2-0.4-2.1-1.6-3.1-2.4
			c-3.6-5.6-3.5-6,2.2-7.9c2.7-0.4,5.5-0.8,8.2,0.4C99.7,84.7,99.9,84.9,100.1,85.1z"/>
		<path class="st227" d="M91.1,85.1c-5.1,1.1-2.5,4.3-2,7c-2.8-2.9-6.8-3.8-10-6c-2.4-1.7-2.8-3.8-0.5-5.6c2.3-1.9,3.9-0.6,4.9,1.8
			c0.7,1.8,2.4,1.3,3.8,1.5C88.7,83.8,90.1,83.9,91.1,85.1z"/>
		<path class="st228" d="M87.1,85.1c-2.3-0.1-5.3,0.8-5.1-3.3c0-0.7-0.4-1.5-1.1-1.3c-0.9,0.2-2,0.7-2.4,1.4c-0.9,1.4,0,2.8,0.6,4.2
			c-0.3,0-0.7,0-1,0c-0.7-0.3-1.3-0.7-2-1c-1-1.4-1.1-3-0.8-4.7c0.4-1.3,1.1-2.4,2.4-3.1c1.8-0.6,3.6-0.6,5.4-0.2
			c0.5,0.1,0.9,0.4,1.3,0.7C85.8,80.1,87.3,82.3,87.1,85.1z"/>
		<path class="st189" d="M96.1,82.1c1.1-1.4,2.6-0.8,4-1c0.6,1.4,2.1,2.3,2,4c-0.7,0-1.3,0-2,0l0,0c-1-1.2-2.5-1.5-3.6-2.5
			C96.3,82.4,96.2,82.3,96.1,82.1z"/>
		<path class="st229" d="M76.1,80.1c0,1.7,0,3.3,0,5c-0.3,0-0.7,0-1,0c0-0.3,0-0.7,0-1c-0.7-1.4-0.9-2.8,0.3-4.1
			C75.6,80,75.9,80.1,76.1,80.1z"/>
		<path class="st217" d="M120.1,42.1c0.2,3.1,4.3,2.4,5,5l0,0c-3.7,1.5-6-1.1-8.2-3.1c-2.9-2.4-5.8-2.9-9.2-1.7
			c-1.8,0.6-2.6,1.6-3.3,3.3c-2.3,5.6-4,11.1-1.2,17.1c0.6,1.2,0.7,2.9-0.1,4.3c-3.7-4-7-8.2-7-14c1.3-3.2,3.3-6,4.5-9.2
			c1.3-3.1,3.4-7,9-5.1c3.3,1.1,7.1,0.9,10.5,2.3C120.1,41.4,120.1,41.8,120.1,42.1z"/>
		<path class="st230" d="M73.1,68.1c-0.3-0.7-0.7-1.3-1-2c-2-2.6-0.5-5.1,0.2-7.6c1.3-1.6,2.2-3.7,4.8-3.4c0.7,0,1.3,0,2,0
			c-0.7,2.7-1.3,5.3-2,8C77,65.8,77.1,68.6,73.1,68.1z"/>
		<path class="st170" d="M77.1,55.1c-1.8,0.4-1.8,3.1-4,3c-2.6-0.4-2.1-2.3-2-4c0.2-2.7,4.3-2.9,4-6C78.2,49.7,76.7,52.7,77.1,55.1z
			"/>
		<path class="st170" d="M74.1,46.1c-4.2,3.2-4.2,3.2-11-3C66.5,45.2,71,43,74.1,46.1z"/>
		<path class="st231" d="M73.1,68.1c2.7-0.5,2.3-3.6,4-5c2-1.8,5,0,7-2c1.4,1.5,0.3,1.9-1,2c-1.4,0.1-2.9,0-3.1,2
			c-0.1,2.1,1.2,3.2,2.9,4.1c1.6,0.9,2.5,2.1,1.1,3.9l0,0c-1.7,1.5-3.3,1.3-5,0c-1.6,0-3.1-0.2-4.5,1c-1.3,1.1-1.9,0.1-2.5-1
			C72.3,71.4,71.4,69.5,73.1,68.1z"/>
		<path class="st232" d="M84.1,73.1c0.5-2.9-2-3-3.6-3.8c-2.3-1.2-3.2-2.5-0.4-4.2c0.9-0.3,2.4-1.3,2.7-0.4c1.2,4.2,4.7,2.7,7.3,3.4
			c-0.3,2.1,1.1,5.2-3,5C86.1,73.1,85.1,73.1,84.1,73.1z"/>
		<path class="st229" d="M79.1,73.1c1.7,0,3.3,0,5,0c0.6,2.2,2.8,3.6,3,6c0.3,0.2,0.4,0.5,0.3,0.7c-0.1,0.3-0.1,0.4-0.2,0.4
			c-1.8,0.5-2.2-1.2-3.1-2.1l0,0c-2-2-4-1.1-6,0c-0.7,0.7-1.3,1.3-2,2l0,0c-1.7-3.4,1.2-4.4,3-6C79.1,73.8,79.1,73.4,79.1,73.1z"/>
		<path class="st233" d="M96.1,76.1c0.2,1.5-0.3,2.8-1,4c-1.6,0.9-2.9,0.4-4-1C91.4,75.8,93.8,76.1,96.1,76.1z"/>
		<path class="st189" d="M87.1,80.1c0-0.3,0-0.7,0-1c2.6,2.1,5.5,3.5,9,3l0,0c-1.6,3.7-4.8,1.8-7.2,1.6C87.2,83.6,86,82.2,87.1,80.1
			z"/>
		<path class="st234" d="M76.1,33.1c4.5-2.4,5.2,0.9,6,4C79.3,36.9,75.5,38.4,76.1,33.1z"/>
		<path class="st235" d="M56.1,62.1c-2-0.8-3.8-1.8-4.5-4c-0.6-1.6-1.9-2.1-3.5-2c0-2.3,0-4.7,0-7c5.1-2.5,13.9,1.6,15,7
			c-1.4,2.5-0.4,5.9-3.2,7.8C58.2,64.3,56.9,63.6,56.1,62.1z"/>
		<path class="st236" d="M67.1,72.1c-0.4,2.6-0.3,5.4-3,7c-3.8,0.8-6.8,2.8-9,6c-0.7-0.6-1.1-1.5-0.7-2.2c3.3-5.2,3.8-11.8,7.8-16.6
			c1.2-1.4,2.2-2.8,1.4-4.9c-0.8-2.1-0.2-3.9,1.5-5.3c1-0.3,2-0.7,3-1l0,0c2.5,3.8,1.8,7.8,0.5,11.8C68,68.6,67.4,70.3,67.1,72.1z"
			/>
		<path class="st237" d="M65.1,56.1c-0.4,2-1.3,3.9-0.1,6.1c1.4,2.4-0.9,4-2.3,5.3c-1.8,1.7-2.9,3.3-2.5,6c0.5,3.3-3.4,4.5-3.9,7.5
			c-0.2,1.3-1.4,2.5-1.3,4.1c0.3,2,0.7,4,1,6l0,0c-2.1,0.2-2.3-1.5-2.9-2.8c-0.3-1.2-0.6-2.5-0.8-3.7c3-7,3.7-14.8,7.8-21.5
			c0.7-2.5-0.4-5.7,3-7C63.8,56.1,64.4,56.1,65.1,56.1z"/>
		<path class="st238" d="M67.1,72.1c-1-0.7-1.1-1.6-0.7-2.6c2-4.6,2.2-9.5,1.7-14.4c1-0.3,2-0.7,3-1c1.6,0.9,0.4,3.1,2,4
			c-0.3,2.7-0.7,5.3-1,8C71,68.6,69.8,70.9,67.1,72.1z"/>
		<path class="st239" d="M60.1,63.1c-1.2,5.6-2.6,11.2-5.1,16.4c-0.9,1.8-1.3,3.7-1.9,5.6c-1.4,1.5-3.2,1.3-5,1
			c-3.2-3.9-3.7-8.3-1.1-11.5c1.8,0.6,0.8,2.2,1.2,3.3c0.3,1.1-0.8,3,1,3.3c1.6,0.3,3.2-0.6,4.3-2.1c0.7-1,1-2.3,0.7-3.3
			c-1.5-5,0.3-9.3,2.1-13.8C57.3,62.8,58.6,63.3,60.1,63.1z"/>
		<path class="st235" d="M48.1,86.1c1.4-1.7,3.3-0.8,5-1c1.2,0.7,1,1.9,1,3c-1.3,4-3.2,8.6-7.5,8.9c-4.1,0.2-5.5-4.7-7.2-8
			c-0.7-1.3-1.1-2.8-1.4-4.3c0.4-3.2-1.9-6.7,1.1-9.7c0.3,0,0.7,0,1,0c0.4,2.2,0.9,4.2,0.4,6.7c-0.7,3.6,2.8,5.3,5.4,6.8
			C47.2,89.4,48,87.5,48.1,86.1z"/>
		<path class="st240" d="M45.1,61.1c0-0.7,0-1.3,0-2c0.9,0.2,2.6-0.5,2.4,1.2C47.4,61.3,46,61,45.1,61.1z"/>
		<path class="st206" d="M39.1,75.1c0,3.3,0,6.7,0,10c-1,0.9-2,0.8-3,0c-1.4,0.5-1.6,2-2.6,2.8c-2.4,1.9-4.3,2-4.4-1.8
			c2.3,0.1,4-0.6,4-3.2c0-3.3,1.6-6.4,1-9.8C36,73.1,38.1,72.8,39.1,75.1z"/>
		<path class="st173" d="M32.1,78.1c0-1.7,0-3.3,0-5c-2.4-2.7-0.9-5.3,0-8c0.3-0.3,0.7-0.7,1-1C32.6,68.8,34.2,73.6,32.1,78.1z"/>
		<path class="st241" d="M32.1,65.1c0,2.7,0,5.3,0,8c-1.7,0.6-0.1,4-2.5,3.4c-1.9-0.4-1.4-2.7-1.5-4.3c0-1.1,0.1-2.3-1-3.1
			c0-1.1-0.2-2.3,1-3C30.6,70.6,30.7,65,32.1,65.1z"/>
		<path class="st13" d="M36.1,85.1c1,0,2,0,3,0c1.2,3.4,2.8,6.6,5,9.5c1.7,2.2,3.2,2.5,5,0.1c1.6-2.2,3.4-4.4,5.1-6.6
			c0.7,1,1.3,2,2,3c1,3.5-1.9,9.3-5.6,10.6c-4,1.4-6.4-0.4-8.2-4.1C40.1,93.5,36.1,90.3,36.1,85.1z"/>
		<path class="st242" d="M103.1,67.1c-1-3.5-2.2-6.9-2.9-10.4c-1.2-6,4.1-14.9,9.1-16.2c3.1-0.8,5.6,0,7.7,2.1
			c2.3,2.3,4.9,3.9,8.1,4.5c-0.3,1.3-0.7,2.7-1,4c-0.3,0.4-0.7,0.5-1.2,0.5c-2.4-1.3-4.2-3.5-6.6-4.7c-5.1-4.1-9.5-2.9-11.8,3.3
			c-2.5,6.8-1.1,12.2,3.9,16c1.3,0.6,2.7,0.8,4,1.1c5.4,0.9,10.2,0.3,13.3-5.1c0.5-0.9,1.5-2,2.8-0.8c-0.1,8-5.4,13.2-13.1,12.7
			c-2.4-0.1-5,0.7-7.2-1l0,0c-1.8-1.5-3.8-2.9-5-5C103.1,67.8,103.1,67.4,103.1,67.1z"/>
		<path class="st243" d="M108.1,73.1c4.6-1,9.2,0.7,14.1-2.4c4.2-2.7,5.5-5.5,5.9-9.6c0.3-0.4,0.7-0.3,1,0c0,1.7,0,3.3,0,5
			c-0.6,4.5-1.8,9.3-6.4,10.7C117.6,78.3,111.6,79.7,108.1,73.1z"/>
		<path class="st217" d="M103.1,68.1c1.7,1.6,4.8,1.9,5,5C104.5,73.4,103.7,70.9,103.1,68.1z"/>
		<path class="st244" d="M129.1,61.1c-0.3,0-0.7,0-1,0c-2.8,5.5-7.1,8.3-13.4,8c-1,0-2-0.1-2.6-1c1.4-1.5,3.4-0.9,5-1.6
			c0.4-0.2,0.8-0.3,1.2-0.5c1.8-1.3,6.7-0.7,3.3-5.2c-0.1-3.3-0.6-6.7,1.4-9.7c0.3,0,0.7,0,1,0C129,52.8,129.5,56.7,129.1,61.1z"/>
		<path class="st188" d="M79.1,74.1c-1,2-3.6,3.2-3,6c-1.5,1.1-0.9,2.6-1,4C73.2,78.9,74.2,76.4,79.1,74.1z"/>
		<path class="st245" d="M87.1,80.1c2,5.2,5.6,3,9,2c2.2-0.1,3.8,0.4,4,3c-3,0-6,0-9,0c-1.3,0-2.7,0-4,0c-1.6-2.1-2.6-4.4-3-7
			C85.1,78.8,86.1,79.4,87.1,80.1z"/>
		<path class="st246" d="M98.1,92.1c-2.5,3.1-4.4,0.8-6.1-0.8c-1.4-1.3-0.4-2.7,1-3c2.2-0.4,4.9-2.3,6.6,1
			C100.4,90.9,99.9,91.9,98.1,92.1z"/>
		<path class="st247" d="M78.1,78.1c3.8-3.4,4.9-3.4,6,0C82.1,78.1,80.1,78.1,78.1,78.1z"/>
		<path class="st248" d="M123.1,51.1c0,3.3,0,6.7,0,10c1.1,4.3-3.5,3.9-5,6l0,0c-3.4,1.1-6.6,0.3-9.9-0.6c-4.1-3.1-6.2-7.7-5.6-12.4
			c1-7.3,7-10.2,14.4-8C119.5,47.3,121.6,48.8,123.1,51.1z"/>
		<path class="st244" d="M117.1,46.1c-8.5,0-12.2,2.3-13.5,7.9c-0.7,3.2,0.7,5.8,2.3,8.3c0.8,1.2,2.2,2.1,2.2,3.8
			c0.3,0.2,0.3,0.4,0.3,0.7c-0.1,0.2-0.2,0.3-0.3,0.3c-4.9-2.3-8-10.3-5.8-14.8c0.3-0.6,0.8-1.2,0.8-1.8c-0.3-6.5,5-6.7,9.1-7.8
			C114.7,42.1,115.2,45.3,117.1,46.1z"/>
		<path class="st249" d="M108.1,67.1c0-0.3,0-0.7,0-1c3.4-0.1,6.6,1.6,10,1c-1.8,1.8-4,0.7-6,1C110.7,68,109.1,68.6,108.1,67.1z"/>
		<path class="st249" d="M118.1,67.1c0.9-2.6,4.4-3.1,5-6c2.8,1.4,1.9,3.1,0,4.3C121.6,66.3,119.8,66.5,118.1,67.1z"/>
		<path class="st250" d="M98.1,92.1c-1-0.2-2.5,0.4-2.6-1.3c0-0.4,0.8-1.3,1.2-1.2C98.5,89.6,97.9,91.1,98.1,92.1L98.1,92.1z"/>
		<path class="st251" d="M108.1,54.1c0-4.7,2.4-6.6,7-6c5.4,0.7,6.3,1.9,6,8.5c-0.1,3.3-4.8,9.2-7.4,8.8c-4.1-0.6-6-3.2-5.6-7.4
			c0.4-0.3,0.8-0.4,1.3-0.3c2.2,0.2,2.2,5.2,5.7,2.6c0.3-0.3,0.6-0.6,0.9-0.9c1.6-1.3,3.1-2.7,1.4-4.9c-0.5-0.7-1-1.5-1.4-2.3
			c-1-1.9-2.3-2.2-3.9-0.7c-0.9,0.9-1.7,2-2.8,2.7C108.9,54.5,108.5,54.4,108.1,54.1z"/>
		<path class="st252" d="M108.1,54.1c0.3,0,0.7,0,1,0c0.6-0.8,1.2-1.5,2.3-1.5c0.5,0.1,0.8,0.5,1,0.9c0.1,1.8-0.1,3.5-1.3,4.9
			c-0.7,0.3-1.4,0.2-2-0.3c-0.3,0-0.7,0-1,0C108.1,56.8,108.1,55.4,108.1,54.1z"/>
		<path class="st252" d="M117.1,52.1c0.3,0.7,0.7,1.3,1,2c1.7,2.8,0.2,4.5-2,6c0,0.3,0,0.7,0,1c-1.8,1-3.5,1.6-4.5-1
			c0-0.7,0.2-1.3,0.8-1.7c4-2.1,2.4-3.8-0.4-5.4l0,0C113.1,49.3,114.9,49.6,117.1,52.1z"/>
		<path class="st253" d="M117.1,52.1c-2-1.1-3.8-1.6-5,1c-1,0.3-2,0.7-3,1c1.1-2.2,2.1-4.5,4.8-4.9C115.9,48.9,117,50.1,117.1,52.1z
			"/>
		<path class="st254" d="M112.1,59.1c0.3,2.7,2.4,1.8,4,2c-5.1,5.4-4.7-1.9-7-3c0.7,0,1.3,0,2,0C111.7,58.2,112,58.5,112.1,59.1z"/>
		<path class="st255" d="M116.1,60.1c1.3-1.8,2.4-3.6,2-6C121.6,57.5,119.2,58.9,116.1,60.1z"/>
		<path class="st256" d="M112.1,59.1c-0.3-0.3-0.7-0.7-1-1c-0.1-1.8,0-3.5,1-5c1.9,0.1,4.6-0.5,4.7,2.2
			C117,58.2,114.7,59.1,112.1,59.1z"/>
	</g>
</g>
</svg>
