<?xml version="1.0" encoding="utf-8"?>
<!-- Generator: Adobe Illustrator 23.0.5, SVG Export Plug-In . SVG Version: 6.00 Build 0)  -->
<svg version="1.1" id="Слой_1" xmlns="http://www.w3.org/2000/svg" xmlns:xlink="http://www.w3.org/1999/xlink" x="0px" y="0px"
	 width="85px" height="84px" viewBox="0 0 85 84" style="enable-background:new 0 0 85 84;" xml:space="preserve">
<style type="text/css">
	.st0{fill:#FDFDFD;}
	.st1{fill:#FCFCFC;}
	.st2{fill:#FCFCFD;}
	.st3{fill:#F8F8F9;}
	.st4{fill:#5975A3;}
	.st5{fill:#4C5965;}
	.st6{fill:#75777D;}
	.st7{fill:#D0D1D4;}
	.st8{fill:#5F82C4;}
	.st9{fill:#5D8ACE;}
	.st10{fill:#5B89CB;}
	.st11{fill:#698CC8;}
	.st12{fill:#4B75B3;}
	.st13{fill:#698FCE;}
	.st14{fill:#6C7695;}
	.st15{fill:#6E7FA2;}
	.st16{fill:#5976C9;}
	.st17{fill:#607BAE;}
	.st18{fill:#788EC8;}
	.st19{fill:#5573AE;}
	.st20{fill:#0D2648;}
	.st21{fill:#31508E;}
	.st22{fill:#0B1631;}
	.st23{fill:#2A4E88;}
	.st24{fill:#55709E;}
	.st25{fill:#102D6A;}
	.st26{fill:#203861;}
	.st27{fill:#3D64A3;}
	.st28{fill:#2E4C85;}
	.st29{fill:#111934;}
	.st30{fill:#26436C;}
	.st31{fill:#274372;}
	.st32{fill:#031636;}
	.st33{fill:#38568E;}
	.st34{fill:#436298;}
	.st35{fill:#152037;}
	.st36{fill:#365385;}
	.st37{fill:#1D314F;}
	.st38{fill:#1B3052;}
	.st39{fill:#243F6D;}
	.st40{fill:#1B4174;}
	.st41{fill:#5E759B;}
	.st42{fill:#193761;}
	.st43{fill:#1F2F4F;}
	.st44{fill:#142442;}
	.st45{fill:#4677AD;}
	.st46{fill:#557DBD;}
	.st47{fill:#010D27;}
	.st48{fill:#021127;}
	.st49{fill:#3A63A5;}
	.st50{fill:#7195D7;}
	.st51{fill:#6387C8;}
	.st52{fill:#6790CE;}
	.st53{fill:#5F80BD;}
	.st54{fill:#6E96D8;}
	.st55{fill:#769FDC;}
	.st56{fill:#6E9DDF;}
	.st57{fill:#7BA3DD;}
	.st58{fill:#6992D7;}
	.st59{fill:#7F9FDB;}
	.st60{fill:#5A76C1;}
	.st61{fill:#5372C0;}
	.st62{fill:#041B47;}
	.st63{fill:#092352;}
	.st64{fill:#05193E;}
	.st65{fill:#576185;}
	.st66{fill:#1D304F;}
	.st67{fill:#022958;}
	.st68{fill:#3E619D;}
	.st69{fill:#020D27;}
	.st70{fill:#031235;}
	.st71{fill:#091837;}
	.st72{fill:#1D3360;}
	.st73{fill:#08356D;}
	.st74{fill:#152C5B;}
	.st75{fill:#3B6193;}
	.st76{fill:#264074;}
	.st77{fill:#325D95;}
	.st78{fill:#1B2C51;}
	.st79{fill:#294A7B;}
	.st80{fill:#12274D;}
	.st81{fill:#061A3C;}
	.st82{fill:#05112E;}
	.st83{fill:#182643;}
	.st84{fill:#4A75AB;}
	.st85{fill:#3F65AB;}
	.st86{fill:#395F9A;}
	.st87{fill:#0C1C3B;}
	.st88{fill:#02172F;}
	.st89{fill:#5483C5;}
	.st90{fill:#0D1843;}
	.st91{fill:#010926;}
	.st92{fill:#0B163D;}
	.st93{fill:#7499D3;}
	.st94{fill:#7BAAE2;}
	.st95{fill:#4D70B0;}
	.st96{fill:#647CAF;}
	.st97{fill:#99AFDD;}
	.st98{fill:#83AAE1;}
	.st99{fill:#94BAEF;}
	.st100{fill:#91B6ED;}
	.st101{fill:#89B1E7;}
	.st102{fill:#8AB1E7;}
	.st103{fill:#7598D5;}
	.st104{fill:#6287C4;}
	.st105{fill:#82A6E4;}
	.st106{fill:#011744;}
	.st107{fill:#182D67;}
	.st108{fill:#4C6AAE;}
	.st109{fill:#3D5CA2;}
	.st110{fill:#6285C3;}
	.st111{fill:#627CB2;}
	.st112{fill:#8D90A8;}
	.st113{fill:#243662;}
	.st114{fill:#1B336F;}
	.st115{fill:#4B6197;}
	.st116{fill:#020C32;}
	.st117{fill:#010829;}
	.st118{fill:#000825;}
	.st119{fill:#B3B7D3;}
	.st120{fill:#0A1B4B;}
	.st121{fill:#5071AE;}
	.st122{fill:#374F8A;}
	.st123{fill:#355489;}
	.st124{fill:#4A619E;}
	.st125{fill:#3B5A95;}
	.st126{fill:#273F7B;}
	.st127{fill:#5C7EBA;}
	.st128{fill:#4E75B3;}
	.st129{fill:#5575AF;}
	.st130{fill:#040E33;}
	.st131{fill:#01092A;}
	.st132{fill:#031335;}
	.st133{fill:#000A24;}
	.st134{fill:#A6C4F1;}
	.st135{fill:#99B8EA;}
	.st136{fill:#A5B9E6;}
	.st137{fill:#6A8AC9;}
	.st138{fill:#90B6E9;}
	.st139{fill:#8BAAD8;}
	.st140{fill:#7B99CF;}
	.st141{fill:#98BBF0;}
	.st142{fill:#9EC1F5;}
	.st143{fill:#97BBEF;}
	.st144{fill:#93B7ED;}
	.st145{fill:#93B3E4;}
	.st146{fill:#6F90CC;}
	.st147{fill:#8EABE1;}
	.st148{fill:#86ACE6;}
	.st149{fill:#7595D1;}
	.st150{fill:#283D7D;}
	.st151{fill:#273D7C;}
	.st152{fill:#5D7DBE;}
	.st153{fill:#4B67AA;}
	.st154{fill:#4664A7;}
	.st155{fill:#4561A4;}
	.st156{fill:#425EA2;}
	.st157{fill:#334F91;}
	.st158{fill:#3A549B;}
	.st159{fill:#040827;}
	.st160{fill:#678BC7;}
	.st161{fill:#5B7FB9;}
	.st162{fill:#5B72AD;}
	.st163{fill:#8398D3;}
	.st164{fill:#6E8FCB;}
	.st165{fill:#7BA0D9;}
	.st166{fill:#789CD6;}
	.st167{fill:#6686C6;}
	.st168{fill:#91B2E9;}
	.st169{fill:#99BEF1;}
	.st170{fill:#83A4DF;}
	.st171{fill:#95B6EC;}
	.st172{fill:#94B5EC;}
	.st173{fill:#A4C7F7;}
	.st174{fill:#A5C9F9;}
	.st175{fill:#ACCEFB;}
	.st176{fill:#9EBFF1;}
	.st177{fill:#AACCF8;}
	.st178{fill:#91B2E8;}
	.st179{fill:#7E9BD4;}
	.st180{fill:#80A0D8;}
	.st181{fill:#7B9CD3;}
	.st182{fill:#96B5E9;}
	.st183{fill:#8EB0E5;}
	.st184{fill:#324E8D;}
	.st185{fill:#6B81BB;}
	.st186{fill:#718DCA;}
	.st187{fill:#8A9FD9;}
	.st188{fill:#85A8DF;}
	.st189{fill:#7EA4DD;}
	.st190{fill:#81A1DC;}
	.st191{fill:#8FA4DC;}
	.st192{fill:#9EBFF3;}
	.st193{fill:#9EBFF2;}
	.st194{fill:#A3C5F6;}
	.st195{fill:#A8CAF9;}
	.st196{fill:#B6D7FD;}
	.st197{fill:#A8C9F7;}
	.st198{fill:#A7C9F8;}
	.st199{fill:#8AA6DC;}
	.st200{fill:#87A4DD;}
	.st201{fill:#B7D8FC;}
	.st202{fill:#B6D8FA;}
	.st203{fill:#BCDDFD;}
	.st204{fill:#BDDEFE;}
</style>
<g>
	<g>
		<path class="st0" d="M34.6,3.3c-1.5,0.6-3,1.3-4.5,2c1.1-0.4,2.3-0.7,3.5-1C34.9,4.2,36.1,4,37,3.1C36.3,3.4,35.4,3.5,34.6,3.3z"
			/>
		<path class="st0" d="M20.3,10.1c-1.4,1.7-3.3,3-5.2,4.3c-3.5,2.4-6,5.6-8,9.6c-0.3,0.7-0.7,1.2-1.2,1.5C4.4,29.8,3,34.2,2.3,38.7
			c-0.3,1.5-0.5,3-0.6,4.6c0.2,0,0.4-0.1,0.6-0.2c1.4-1.9,0.7-4.2,1.4-6.2c0.3-0.9,0.6-1.7,0.9-2.6c0.1-0.4,0.2-0.9,0.2-1.3
			c0-1.5,0.3-2.9,1.5-3.9c0.5-0.4,0.9-0.9,1.2-1.4c0.2-0.3,0.4-0.7,0.5-1.1c0.2-0.5,0.4-1.1,0.7-1.8c0.4-0.7,0.8-1.4,1.1-2.2
			c0.2-0.4,0.3-0.8,0.4-1.2c1.6-3.9,4.6-6.5,8.2-8.5c0.8-0.4,1.6-0.9,2.2-1.6C21.8,10,23,8.9,24.4,8C23,8.7,21.7,9.4,20.3,10.1z"/>
		<path class="st1" d="M84,32.9c0-0.1-0.1-0.2-0.1-0.3c-1.2-4.7-3-9.4-5.6-13.7c-1-0.1-2-0.5-2.9-1.2c-2.5-2.1-3.9-5.1-6.6-6.9
			c-2.9-1.9-6.3-4.2-9.5-5.6c-3.1-1.3-6.5-1.9-10-2.1c0.5,0.2,1.1,0.4,1.6,0.6c1.5,0.5,3.1,0.4,4.5,1C56.3,5,57,5.4,57.8,5.8
			c1.4,0.7,2.6,1.6,4,2.1c1.6,0.4,3.2,0.8,4.6,1.8c1,0.7,2.1,1.3,3.1,2.1c1.2,1,2.1,2.2,2.8,3.5c0.4,0.8,0.8,1.6,1.4,2.3
			c2.9,2.1,5.2,4.7,6.1,8.3c1.1,3.1,2.1,6.2,3.3,9.2c0.6,1.2,0.7,2.7,1.6,3.9c0.2,0.1,0.4,0.2,0.6,0.2C85.1,37.1,84.5,35,84,32.9z"
			/>
		<path class="st2" d="M37.9,83.7c-1.9-1.2-4.1-1.1-6.2-1.8c-2.3-0.3-4.2-1.4-6.2-2.4c-0.8-0.3-1.5-0.7-2.3-1.1
			c-1.3-0.7-2.4-1.6-3.4-2.6c-0.8-0.7-1.4-1.4-2-2.3c-0.5-0.7-1-1.4-1.7-1.9c-0.3-0.3-0.7-0.5-1.1-0.6c-1.4-0.5-2.4-1.4-3.1-2.7
			c-0.5-0.9-0.9-1.9-1.5-2.8c-1.5-2.2-2.7-4.6-3.8-7c-1.3-2.5-2.1-5.1-2.8-7.8c-0.8-1.8-0.3-3.9-1.5-5.6c-0.2-0.2-0.5-0.3-0.7-0.3
			c0,0.2,0,0.5,0,0.7c0,0.1,0.1,0.2,0.1,0.4c0.4,2,0.9,4,1.3,6C3,52,3,52.1,3,52.2c0,0,0,0,0,0c0.1,0.4,0.2,0.9,0.2,1.3
			c0.1,0.6,0,1.2-0.2,1.7c0.1,0.1,0.1,0.3,0.2,0.4c1.9,4.6,4.9,8.7,7.5,13c0.1,0.1,0.3,0.3,0.4,0.4c1.7,2.1,4.1,3.7,6,5.7
			c2.4,2.6,5.5,4.1,8.5,5.9c1.1,0.7,1.8,1.6,2.1,2.5c0.8-0.2,1.7-0.3,2.6-0.1c0.6,0.1,1.1,0.3,1.7,0.5c2.1-0.1,4.1,0.3,6.2,0.6
			C38.1,84.1,38,83.9,37.9,83.7z"/>
		<path class="st3" d="M57,83.6c0.6-0.3,1.3-0.6,1.9-0.8c5.8-3.1,14-3.8,18.1-8.9c2.3-2.9,3.7-8,5-11.4c1.6-4.3,2.8-8.9,3.3-13.5
			c0-0.1,0-0.1,0-0.2c-0.2,0-0.4,0.1-0.6,0.3c-0.3,0.4-0.6,0.8-0.7,1.3c-2.8,11.1-8.3,20.4-18.1,27c-4.8,3.3-10.3,4.4-15.6,6.3
			c-0.2,0.2-0.2,0.3-0.3,0.5c1.6-0.2,3.2-0.4,4.7-0.7C55.5,83.4,56.3,83.4,57,83.6z"/>
		<path class="st4" d="M4,33.9c-0.6,0.2-0.8,0.6-0.9,1C3,35,3,35,3,35.1C3,35.4,3,35.7,3,36c-1.3,2.2,0.5,4.8-1.2,6.9
			c0,0-0.1,0-0.1,0c-0.1,0.7-0.1,1.4-0.1,2.1L1.8,45c1.7,1.5-0.2,3.8,1.3,5.2c1.3-0.1,1.7-1.1,2-2.2c0.6-3.4-0.1-6.8,0.6-10.3
			c0.2-0.7,0.2-1.5,0-2.3C5.4,34.6,4.8,34.1,4,33.9z"/>
		<path class="st5" d="M39.9,84.5c3.3,0.2,6.8,0,10.2-0.3c-0.3-0.5-0.6-0.8-1.1-1c-1-0.4-2-0.5-3-0.5c-2,0-4.1-0.1-6.2,0.2
			c-0.8,0.2-1.5,0.6-2,1.3c0,0,0,0,0,0.1C38.5,84.4,39.2,84.4,39.9,84.5z"/>
		<path class="st6" d="M85.1,43.9c0.1-0.7,0.2-1.4,0.3-2.1c0-0.1,0-0.1,0-0.2c0-0.2,0-0.4,0-0.5c0-0.3,0-0.7-0.1-1
			c0-0.4-0.1-0.8-0.1-1.2l-0.1,0c-0.9,0.5-1.2,1.3-1.4,2.3c0.1,2.7-0.9,5.6,1.4,7.9h0c0-0.1,0-0.1,0-0.2c0-0.2,0-0.3,0.1-0.5
			C85,46.9,84.9,45.4,85.1,43.9z"/>
		<path class="st7" d="M37.2,3.1c0,0.1,0.1,0.1,0.1,0.2c0.5,0.1,0.9,0.2,1.3,0.1C39.3,3.2,40,3.2,40.7,3c-1.1,0-2.1,0-3.2,0
			C37.4,3,37.3,3,37.2,3.1z"/>
		<path class="st8" d="M48.3,8.3c-2.5-2.2-5.7-2.8-8.8-3.5c-0.5,0-0.9,0-1.4,0.1c-1.7,0.1-4.1,1.7-4.9-1c-4.4,1.9-8.6,4-12.9,6.2
			c-0.1,0.1-0.2,0.2-0.3,0.3c-0.1,0.2-0.1,0.4-0.1,0.6c1.6,1.4,3.6,0.1,5.3,0.8c0.9,0.2,1.8,0.2,2.7,0c1.5-0.6,2.9-1.4,4.5-1.9
			c4-0.9,7.8-1,11.5,0.9c0.7,0.3,1.3,0.6,2.1,0.6c1-0.2,1.9-0.6,2.4-1.6C48.5,9.3,48.5,8.8,48.3,8.3z"/>
		<path class="st9" d="M25,11c-1.7-2.2-3.4,0.4-5.1,0c-0.3,0.2-0.6,0.4-0.9,0.5c-1,0.9-2.1,1.7-3.2,2.5c-2.4,2.1-4.9,4.1-6.3,7.1
			c0.1,0.5,0.3,0.9,0.5,1.3c0.5,0.6,1.2,0.8,1.9,0.8c1.1-0.3,2-1.1,2.8-1.9c2.5-2.6,5.4-4.5,8.3-6.6c0.5-0.3,1.1-0.8,1.5-1.3
			C25,12.7,25.6,12,25,11z"/>
		<path class="st10" d="M5,35c-0.3-0.4-0.7-0.7-1-1.1c0.1-0.3,0.1-0.7,0.2-1c0.3-1.4,0-3.1,2-3.6c4.1,0.7,2.3,3.8,2.6,6.1
			C7.9,38,9.2,41,6.9,43.2c-2.4-0.5-1.7-2.4-1.9-3.9C4.9,37.9,6.2,36.4,5,35z"/>
		<path class="st11" d="M15.1,14.4c-2.2,1.5-3.9,3.3-5.4,5.4c-0.3,0.7-0.5,1.4-0.6,2.2c0.3,0.3,0.6,0.3,0.9,0c0-1.1,0.9-1.6,1.5-2.3
			c2.2-2.5,5.6-3.8,6.4-7.3C17.1,13.1,16.1,13.8,15.1,14.4z"/>
		<path class="st12" d="M37,3.2L37,3.2c-0.8,0.2-1.6,0.3-2.4,0.1C34,3.6,33.4,3.8,32.8,4c-0.5,0.8-1.5,1.3-1.2,2.5
			c2.2,1.3,4.3-0.3,6.4-0.6C38.6,4.6,37.8,3.9,37,3.2z"/>
		<path class="st13" d="M8,35c-1.5-1.3,1.5-4.5-2-5c-0.6-0.6-0.5-1.2,0-1.8c0.4-0.4,0.8-0.8,1.2-1.2c0.5-0.1,0.9,0,1.3,0.2
			c0.3,0.3,0.6,0.7,0.9,1.1c0.9,2,1.1,4,0.4,6.1c-0.2,0.4-0.6,0.7-1.1,0.9C8.4,35.2,8.2,35.1,8,35z"/>
		<path class="st14" d="M2,40.2c0,0.9,0,1.8-0.2,2.7c2.3-2,0.8-4.6,1.2-6.9c-0.1,0.1-0.2,0.3-0.3,0.4c-0.2,0.8-0.3,1.5-0.5,2.3
			C2.2,39.2,2.1,39.7,2,40.2z"/>
		<path class="st15" d="M3.8,32c0.1,0.3,0.2,0.6,0.4,0.9C5.3,32.3,4.7,30.5,6,30v-1.8c-0.5,0.2-0.9,0.5-1.2,0.7
			C4.4,29.9,4.1,31,3.8,32z"/>
		<path class="st16" d="M7.7,24.9c0.2-0.8,0.2-1.6,1.1-2c0.2,0,0.4,0,0.6,0.1c0.4,0.2,0.7,0.5,0.9,0.9c0.1,0.7-0.3,1.2-0.9,1.5
			c-0.4,0.1-0.9,0.1-1.3-0.1C7.9,25.2,7.8,25,7.7,24.9z"/>
		<path class="st17" d="M9.1,22c0.3,0,0.6,0,0.9,0l0,0c0.2,0.2,0.3,0.4,0.3,0.7c0,0.3-0.1,0.4-0.1,0.4c-0.4,0.3-0.7,0.3-1.1,0
			l-0.3-0.2C8.8,22.5,8.9,22.2,9.1,22z"/>
		<path class="st18" d="M7.2,26c-0.1-0.5,0-0.9,0.5-1.2l0.5,0.1c0.3,0.4,0.3,0.7,0.1,1.1C7.8,26.4,7.5,26.3,7.2,26z"/>
		<path class="st19" d="M7.2,26c0.3,0,0.6,0,0.8,0c0.1,0.2,0.2,0.3,0.3,0.5C8.2,26.7,8.1,26.8,8,27c-0.3,0-0.6,0-0.9,0
			C7,26.7,7,26.4,7.2,26z"/>
		<path class="st20" d="M75.5,17.7c-0.2-0.2-0.4-0.4-0.6-0.6c-0.2-0.1-0.4-0.1-0.7-0.2c-0.4-0.3-0.8-0.4-1.1-0.3
			C72,17,71,17.5,70.8,18.8c0.3,1.1,1,1.8,2,2.4c0.4,0.1,0.8,0.2,1.2,0.3c1.1,0.2,1.5,1.2,2.2,1.8c0.3,0.3,0.6,0.5,1,0.7
			c0.9,0.4,1.6,1.3,2.6,1.5c0.4,0,0.7-0.2,1-0.5c-1-2.2-1.8-4.6-3.4-6.3C76.7,18.5,76.1,18.2,75.5,17.7z"/>
		<path class="st21" d="M58,4.7c-1.7-0.6-3.4-1-5.2-1.2c-0.7,0-1.3,0-2-0.2c-2.4,1.6-0.1,2.3,0.5,3.4c0.8,0.8,2.1,0,2.8,1
			c2.2,0.9,3.1,4.1,6.2,3.1c1.6-2.8-1.3-4-2.2-5.9C58.1,4.8,58,4.8,58,4.7z"/>
		<path class="st22" d="M80,25.1c0.3,0,0.5,0,0.8-0.1c1.4,3.1,2.7,6.2,3.4,9.6c0.5,1.3,0.4,2.6,0.3,3.9c-0.9,1.4-1.8,0.4-2.6-0.1
			c-0.8-1-1.2-2.2-1.6-3.4c-0.4-1.6-0.5-3.2-0.8-4.8C79.5,28.5,78.5,26.7,80,25.1z"/>
		<path class="st23" d="M62,7.1c-0.6-0.4-1.1-1-1.6-1.4c-0.3-0.2-0.7-0.3-1-0.5c-0.3-0.1-0.6-0.2-0.8-0.3c-0.1,0-0.2,0-0.4,0
			c-1.3,0.9-0.9,1.6,0.2,2.2C59.9,8,60.1,9.4,60,11c-0.3,0.9,0.2,1.1,0.8,1.3c1.2-0.3,1.9-1,2.5-2c0.2-0.4,0.3-0.9,0.3-1.3
			C63.5,8,62.8,7.5,62,7.1z"/>
		<path class="st24" d="M38.1,3c3.6,1.9,7.2,3,11,0.9c0.5-0.4,1.2-0.4,1.8-0.7C46.6,2.8,42.2,2.9,38.1,3z"/>
		<path class="st25" d="M71.9,13.7c-0.3-0.2-0.6-0.3-1-0.3c-0.5,0.1-1,0.3-1.4,0.6c-0.8,0.8-1.2,1.7-0.7,2.8
			c1.3,1.4,2.7,0.9,4.2,0.2c0.4,0,0.8-0.1,1.2-0.1c0-0.2-0.1-0.4-0.1-0.5C73.3,15.5,72.6,14.6,71.9,13.7z"/>
		<path class="st26" d="M68.9,10.8c-0.1-0.1-0.2-0.1-0.3-0.2c-0.2,0-0.4,0.1-0.7,0.3c-0.4,2.4,2,2.1,3.1,3.1
			c0.6,0.4,1.2,0.6,1.9,0.9C71.7,13.4,70.5,11.9,68.9,10.8z"/>
		<path class="st27" d="M49,3.1c-0.2,0.8,0.1,1.1,1,0.9c1.7-0.1,3.3-0.1,4.9-0.2C53,3.4,51,3.2,49,3.1z"/>
		<path class="st28" d="M62.9,7c-0.3,0-0.6,0-0.9,0.1c0.3,0.6,0.7,1.3,1,1.9c0.7,0.8,1.6,1,2.6,0.8c0.4-0.1,0.7-0.3,1-0.5
			C65.4,8.5,64.1,7.7,62.9,7z"/>
		<path class="st29" d="M84,39c0-1.5,0.1-2.9,0.1-4.4c1,1.2,0.8,2.8,1.1,4.2c-0.1,0.7-0.3,1.4-0.4,2.1c-0.4,0.3-0.8,0.2-1.1-0.2
			C83.4,40.1,83.4,39.5,84,39z"/>
		<path class="st30" d="M68.9,10.8c-0.8-0.5-1.6-1.1-2.5-1.6c-0.1,0-0.2,0-0.4,0c-0.1,1.4,0.4,2.2,2,1.9h1.3
			C69.1,11,69,10.9,68.9,10.8z"/>
		<path class="st31" d="M17.1,74c-0.4-0.6-0.9-1.3-1.3-1.9c0.4-1.3,1.5-1.8,2.7-2c0.5,0,0.9,0,1.4,0.1c0.7,0.2,1.2,0.6,1.7,1.1
			c1.5,1.8,3.6,2.2,5.6,2.7c0.4,0.1,0.9,0.2,1.3,0.3c1.6,0.5,3.2,0.4,4.8,0.3c2.8,0.5,5.5-1.3,8.3,0c0.9,1.1,0.1,1.9-0.6,2.7
			c-2.8,1.4-5.9,1.7-8.9,2.2c-1.5,0.1-2.9-0.3-4.4-0.4c-1.6-0.3-3.2-0.8-4.7-1.3c-1.1-0.5-2-1.1-2.8-1.9
			C19.6,74.9,18.3,74.5,17.1,74z"/>
		<path class="st32" d="M34.2,83.8c0.9,0.1,1.8,0.2,2.7,0.3c0.3,0,0.6,0,0.8-0.1c0.8-0.1,1.5-0.3,2.3-0.4c0.8-0.3,1.6-0.2,2.3-0.6
			c0.6-0.2,1.2-0.4,1.8-0.7c1.2-0.7,3.6-0.5,2.5-3c-0.9-0.6-1.9-0.8-2.9-0.8c-1.5,0-3,0.1-4.5,0.4c-1.9,0.7-3.8,0.7-5.8,0.6
			c-1,0.2-2.1-0.3-2.9,0.5c-0.5,1-0.4,2,0.4,2.8C32.1,83.2,33.1,83.6,34.2,83.8z"/>
		<path class="st33" d="M9.7,66.1c-1.8-2-3.1-4.3-3.8-6.8c-0.4-1.2-0.7-2.4-0.4-3.7c0.4-0.8,1-0.9,1.7-0.4c1.2,1.3,1.5,3.2,3,4.2
			c0.6,0.6,1.1,1.3,1.3,2.1c0.3,1.3,1.8,2.5,0.6,4.1C11.4,66.2,10.6,66.8,9.7,66.1z"/>
		<path class="st34" d="M5.4,48.2C5,47.7,4.5,47.7,4,48c0,0.8-0.2,1.6-0.9,2.1c-0.2,0.1-0.4,0.3-0.4,0.5c0,0.1,0,0.2,0.1,0.4
			c0,0.1,0.1,0.2,0.1,0.2c0.5,2.9,1.1,5.7,3,8.1C5.9,57.8,6,56.4,6,55C6.9,52.6,6.4,50.4,5.4,48.2z"/>
		<path class="st35" d="M31,80c0,1,0,1.9,0,2.9c-2.5,0.1-4.2-1.7-6.1-2.9c0.7-1.2,2-1.3,3.1-1.5C29.3,78.4,30.4,78.7,31,80z"/>
		<path class="st36" d="M19,71c-1,0.4-2.1,0.7-3.1,1.1c-0.3,0-0.6-0.1-0.9-0.2c-1.1-1.1-1.7-2.4-1.6-4c0.1-0.5,0.4-0.9,0.8-1.2
			C17.3,66.4,19,67.7,19,71z"/>
		<path class="st37" d="M28,78c-1.7-0.1-3.2-1.3-5-1c-0.5,0.7-0.6,1.4,0,2.1c0.1,0.1,0.1,0.2,0.2,0.3c0.3,0.2,0.7,0.4,1,0.6
			c0.2,0,0.4,0,0.7,0c1.2,0.2,2.1-0.6,3.1-1c0.1,0,0.2-0.1,0.3-0.4C28.4,78.4,28.3,78.2,28,78z"/>
		<path class="st38" d="M19.8,77.2c0.9,0.7,1.9,1.3,2.9,1.9c0.1,0,0.2,0,0.3,0V77l-2-2c-1.3-0.7-2.3-0.7-2.1,1.2
			C19.2,76.5,19.5,76.8,19.8,77.2z"/>
		<path class="st39" d="M13.8,71.8c0.4,0.1,0.8,0.1,1.2,0c0.2-1.4-0.3-2.6-1-3.8c-1.3-0.7-2.1,0.1-2.8,1c0.1,0.2,0.1,0.3,0.2,0.5
			C12.1,70.3,12.9,71.1,13.8,71.8z"/>
		<path class="st40" d="M14,68c-0.9,0.3-1.9,0.6-2.8,1c-0.8-0.8-1.3-1.7-1.5-2.9c0.8-0.4,1.6-0.7,2.3-1.1c1.1,0.2,1.8,0.9,2,2
			C14,67.4,14,67.7,14,68z"/>
		<path class="st41" d="M3.1,50.1c-0.5-1.7,0.8-3.8-1.3-5C2,45.8,2,46.5,2,47.2c0.3,1.3,0.6,2.5,0.8,3.8c0,0,0.1,0.1,0.1,0.1
			C3,50.8,3,50.5,3.1,50.1z"/>
		<path class="st42" d="M17.7,75.5c0.3,0.3,0.8,0.5,1.2,0.7c0.4-1,1.2-1.2,2.1-1.2c-1-1.4-2.2-2-3.9-1c0,0.5,0.1,0.9,0.3,1.2
			C17.5,75.3,17.6,75.4,17.7,75.5z"/>
		<path class="st43" d="M83.6,49.5c-1.6,1.9-2.3,4.3-3.5,6.4c-1.7,4.6-4.4,8.6-6.9,12.7c-4.3,5.6-9.7,9.5-16.5,11.4
			c-2.2,1.1-5.3,0.7-6.6,3.6c0.1,0.2,0.1,0.4,0,0.6c1.6-0.2,3.1-0.4,4.6-0.7c0.3-0.1,0.6-0.1,1-0.1c5.8-1.4,10.7-4.6,15.3-8.5
			c7.7-6.6,12.5-14.8,13.9-24.9C84.5,49.6,84.1,49.5,83.6,49.5z"/>
		<path class="st44" d="M84.9,50c-0.3,0-0.6,0-1-0.1c-2.5-1.7-0.8-4.1-1.1-6.2c0.1-1,0.3-2,1.2-2.7c0.2,0,0.5,0,0.7,0
			c0.1,2.7,0.3,5.4,0.4,8.1C85.2,49.4,85.1,49.7,84.9,50z"/>
		<path class="st45" d="M5,48c-0.3,0-0.7,0-1,0c0.5-3.6-1.1-7.5,1-11c0.6,3.1,0.8,6.3,2,9.3c-0.1,0.6-0.2,1.1-0.5,1.5
			C6,48.3,5.5,48.3,5,48z"/>
		<path class="st46" d="M6,47c-0.6-3.3-1.4-6.6-1-10c0-0.7,0-1.3,0-2c2.5,2.2-0.4,5.8,2,8c0.9,0.8,1,1.8,0.8,2.9
			C7.4,46.6,7,47.2,6,47z"/>
		<path class="st47" d="M57,81c-2.3,0.9-4.6,1.8-7,2.7c-1,0.1-2.1,0.1-3.1,0.2C45.4,83,43.5,84.1,42,83c0.3-0.3,0.7-0.7,1-1
			c1.6-1.1,4.4,0.3,5.3-2.4c2.2-2.5,5.5-3.2,7.9-5.1c1.1-0.7,2.2-1.5,3.3-2.2c0.6-0.4,1.2-0.5,1.8,0.1c1.5,1.9-2,3.9,0,5.8
			C60.7,80.4,58.4,79.9,57,81z"/>
		<path class="st48" d="M42,83c1.6,0.2,3.5-0.6,4.9,0.8c-2.3,0.4-4.6,0.2-6.8-0.1C40.6,83,41.3,83,42,83z"/>
		<path class="st49" d="M50,4c-0.3-0.4-0.6-0.6-0.9-0.9c-0.1,0-0.1,0-0.2,0c-3.1,1.5-6.1,0.2-9.2-0.1c-0.7,0-1.4,0-2,0
			c-0.3,0.1-0.5,0.1-0.7,0.2c0.3,0.9,0.7,1.8,0.9,2.7h1c4-1,7.4,1.1,11,1.9c0.8,0,1.5-0.2,2.1-0.8C52.2,5.4,50.6,5.1,50,4z"/>
		<path class="st50" d="M45,10c0.3,0.3,0.7,0.7,1,1c0.5-0.5,0.9-0.4,1.2,0.1c0.1,0.5-0.1,1-0.5,1.4c-1.2,0.7-2.4,0.6-3.7,0.4
			c-4.1-0.7-8.1-2.6-12.3-0.5c-0.5,0.1-0.9,0.2-1.4,0.1c-0.2-0.1-0.5-0.2-0.7-0.3c-0.4-0.3-0.6-0.7-0.7-1.2c1-1.3,2.4-1.8,4-2
			C36.4,7.9,40.8,8.5,45,10z"/>
		<path class="st12" d="M39,5.9c3.9-2.1,7.5-0.8,11,1.1c0.8,0.8,2.4,0.4,2.5,2c0,0.5-0.3,0.9-0.6,1.2c-1.6,0.4-2.8-0.2-3.9-1.3
			C45,8,42.3,6.2,39,5.9z"/>
		<path class="st51" d="M47,11c-0.3,0-0.7,0-1,0c0.4-0.8,1.2-1,2-1c3.5-0.1,6.4,0.5,6.3,5c-0.1,0.7-0.4,1.4-0.9,2
			c-0.4,0.3-0.8,0.4-1.3,0.3c-1.2-0.7-2.1-1.8-2.8-3C48.5,13.2,48.1,11.9,47,11z"/>
		<path class="st52" d="M45,10c-4.3-0.4-8.6-1.5-13-1C36.5,7.2,40.8,7.4,45,10z"/>
		<path class="st53" d="M53,15c0.8-4.2-2.6-4.1-5-5c0-0.3,0-0.7,0-1c1.5-0.2,2.7,0.3,4,1c3-0.2,4.1,1.5,4.2,4.2
			C55.4,15.3,54.4,16,53,15z"/>
		<path class="st54" d="M28,11c0.3,0.3,0.7,0.7,1,1c-1.5,1.4-3,2.2-5,1c0.3-0.7,0.7-1.3,1-2C26,11,27,11,28,11z"/>
		<path class="st55" d="M9,35c-0.1-2.4,0.4-4.8-1-7c1.8-1.3,2.1-3.8,4-5c0.4-1,1-1.6,2-2c0.6-0.5,1.2-0.6,1.9-0.3
			c1,2.7-2,4.5-1.7,7.1c-0.1,0.5-0.2,0.9-0.3,1.4c-0.1,0.4-0.3,0.9-0.6,1.3c-1.5,1.4-0.7,4.2-3.1,5C9.8,35.5,9.4,35.3,9,35z"/>
		<path class="st56" d="M16,21c-0.7,0-1.3,0-2,0c2.2-3.3,5.4-5.4,9-7c0.6,1,0,1.7-0.5,2.5C20.7,18.4,18.8,20.4,16,21z"/>
		<path class="st57" d="M22,16c0.3-0.7,0.7-1.3,1-2c0.3-0.3,0.7-0.7,1-1c1.7-0.3,3.3-0.7,5-1l0,0c0.2,0.2,0.3,0.5,0.3,0.8
			s-0.1,0.4-0.2,0.4c-1.7,1.6-3.5,3-5.9,3.3C22.7,16.5,22.3,16.3,22,16z"/>
		<path class="st58" d="M12,23c-1.2,1.7-0.6,4.9-4,5c0-0.3,0-0.7,0-1l0,0c0.7-0.5,0.4-1.5,1-2c0.3-0.3,0.6-0.7,1-1
			c-0.3-0.2-0.4-0.5-0.3-0.7C9.8,23.1,9.9,23,10,23c0-0.3,0-0.7,0-1C10.7,22.3,11.3,22.7,12,23z"/>
		<path class="st13" d="M7,46c0-1,0-2,0-3c0.5-2.7-1-5.6,1-8l0,0c2.4,3.3,1.7,7.4,3,11c0.4,1.2,0.9,2.4,0.4,3.7
			c-0.3,0.4-0.7,0.7-1.3,0.7C7.5,50.1,7.6,47.8,7,46z"/>
		<path class="st59" d="M10,47c-1.2-3.9-2.1-7.9-2-12c0.3,0,0.7,0,1,0s0.7,0,1,0c2.4,1.7,2.3,4.3,2.3,6.9c0,1.7,0.1,3.4-0.9,4.9
			C11,47.3,10.6,47.4,10,47z"/>
		<path class="st60" d="M9,25c0,0.8-0.2,1.6-1,2c0-0.3,0-0.6,0-1c0-0.3,0.1-0.7,0.1-1C8.4,25,8.7,25,9,25z"/>
		<path class="st61" d="M10,23c0,0.3,0,0.7,0,1c-0.3-0.3-0.6-0.6-0.9-0.9C9.4,23,9.7,23,10,23z"/>
		<path class="st62" d="M77,23c0.3,0,0.7,0,1,0c1.3,3.9,2.8,7.8,0.6,11.9c-1,1.2-2.2,1.7-3.7,1.6c-1.7-0.6-1.8-1.9-1.7-3.4
			C73.9,29.6,73.4,25.5,77,23z"/>
		<path class="st63" d="M77,23c-1,3.3-2,6.7-3,10c-0.2-0.2-0.4-0.3-0.6-0.5c-1.6-2.4-1.9-5.1-1.3-7.8c0.3-1.4,1.5-2.4,1.9-3.7
			c0.2-1.8,0.9-1.9,1.7-0.3C76.2,21.4,76,22.5,77,23z"/>
		<path class="st64" d="M78,35c1.5-4,0.4-8,0-12c0.7,0.7,1.3,1.4,2,2.1c-0.4,1.6,1.1,3.3,0,4.9c0.9,1.4,0.3,3,0.5,4.5
			c0.2,1,0.3,2.1-0.9,2.7C78.2,37.1,78.1,36.1,78,35z"/>
		<path class="st65" d="M71,19c0.6,0.7,1.3,1.3,1.9,2c-0.2,0.2-0.3,0.4-0.5,0.5c-1.7,1-3.6,0.6-5.4,0.8c-0.6,0.1-1.3,0.2-1.9,0.2
			c-1-0.1-1.9-0.6-2.9-0.2c-0.9-0.4-1.6-0.9-1.5-2c0.7-1.2,1.9-1.4,3.1-1.5c1.9-0.1,3.9,0,5.8-0.3C70.2,18.5,70.6,18.6,71,19z"/>
		<path class="st66" d="M71,19c-0.4,0-0.8,0.1-1.1,0.1c-1.9,0.8-2.9-0.2-3.5-1.8c0-0.5,0.1-1,0.5-1.4c0.7-0.4,1.5-0.4,2.1,0.2
			c1,1.5,2.6,0.8,4,1C72.3,17.7,71.7,18.3,71,19z"/>
		<path class="st67" d="M74,21c1.9,1.7,0.1,2.2-1,3c-0.6-0.1-1-0.4-1.3-0.9c-0.1-0.4-0.1-0.7,0-1.1c0.3-0.4,0.9-0.6,1.2-1.1l0,0
			C73.3,21,73.6,21,74,21z"/>
		<path class="st68" d="M60,11c0.3,0.3,0.7,0.7,1,1c1.9,0.6,2.9,1.8,2.3,3.9c-1.9,1-3-0.6-4.4-1.3c-1.2-1.3-2.7-2.4-3.7-3.9
			C54.6,9.5,53.3,8.6,54,7C56.9,7,57.7,10.1,60,11z"/>
		<path class="st27" d="M54,7c0.7,1,1.3,2,2,3c-1.8,1.3-2.7-0.4-4-1c-0.7-0.7-1.3-1.3-2-2c0.7,0,1.4,0,2,0C52.7,6.9,53.4,5.8,54,7z"
			/>
		<path class="st69" d="M84,41c0,1,0,2,0,3c-1,1.1,0,3.1-1.9,3.8c-0.7,0.3-1.5,0.4-2.3,0.3c-0.8-0.1-1.5-0.3-2.1-0.9
			c-1.1-1.8-0.5-3.4,0.4-5c1.1-1.5,1.9-3.4,3.9-4.1c0.7,0.3,1.3,0.7,2,1C84,39.7,84,40.3,84,41z"/>
		<path class="st70" d="M82,38c-0.8,1.5-1.2,3.3-3,4c-0.9,1.2-1.5,2.5-1.6,4s-1.3,1.7-2.5,1.2c-2.2-4.8,1.4-7.4,4.2-10.2
			c0.8-0.4,1-1.2,1-2c0.3-0.5,0.7-0.5,1,0C82.2,35.7,82,36.9,82,38z"/>
		<path class="st71" d="M81,35h-0.5H80c0-1.7,0-3.3,0-5C81.7,31.4,80.7,33.3,81,35z"/>
		<path class="st28" d="M63,16c0.2-1.8-1.4-2.6-2-4c0.4-1,1-1.6,2-2c1.6-1.1,2.4,0.1,3.3,1.2c-0.1,1.7,1.5,3.1,0.7,4.8
			c0,0.4-0.1,0.7-0.1,1.1c-0.3,0.4-0.6,0.7-1,1c-1.1,0.6-2.2,0.9-3.3-0.1C62.4,17.2,62.4,16.6,63,16z"/>
		<path class="st72" d="M66,12c-0.6-1.3-1.6-2-3-2c0-0.3,0-0.7,0-1c1,0.1,2,0.1,3,0.2c0.5,0.8,1.1,1.5,2,1.8c0.7,1.3,2.6,1.4,3,3
			c-0.3,0-0.7,0-1,0C68,14.6,66.8,13.6,66,12z"/>
		<path class="st73" d="M66,12c1.3,0.7,2.7,1.4,4,2c-0.3,0.7-0.7,1.3-1,2c-0.7,0-1.3,0-2,0C66.8,14.6,64.8,13.7,66,12z"/>
		<path class="st74" d="M32,79c2.8-1.4,5.9-1.8,9-2c5.1-3.3,10.9-5.5,15.2-9.9c3.2-1.3,4.2-6.1,8.7-5.3c1,1.9-0.7,3.1-1.3,4.6
			c-1.8,2.3-3.9,4.3-6.3,6c-5.9,4.3-12.4,7-19.8,7.6C35.6,79.9,33.6,80.5,32,79z"/>
		<path class="st75" d="M28,75c-0.3,0-0.7,0-1,0c-1.7-1.6-4.3-1.4-6-3c-0.3-0.3-0.7-0.7-1-1c-0.2-1,0.4-1.4,1.2-1.8
			c4.5-0.5,8.8,2.8,13.5,1c4.2-0.4,7.8-2.7,11.8-3.8c0.5,0,1,0.1,1.4,0.3c1,1.8-0.5,2.7-1.4,3.7c-0.4,0.3-0.8,0.6-1.2,0.8
			c-3.6,2-7.7,2.4-11.4,4.1c-0.5,0.1-1,0.1-1.5,0.1C30.9,75.3,29.4,75.9,28,75z"/>
		<path class="st76" d="M57,68c-4.8,4-9.6,7.9-16,9c0.3-0.7,0.7-1.3,1-2c0-0.7,0.2-1.3,0.6-1.8c0.9-1,2.2-1.4,3.4-1.9
			c0.4-0.2,0.9-0.3,1.3-0.4c2.3-0.3,4.1-1.7,5.8-3.2c1.1-1,2.1-2.6,4.1-1.7C57.6,66.8,57.5,67.4,57,68z"/>
		<path class="st77" d="M21,70c-0.3,0.3-0.7,0.7-1,1c-0.3,0-0.7,0-1,0c-1.3-1.8-2.4-3.8-5-4c-0.9-0.4-1.6-1-2-2
			c0.6-1.3-1.8-1.7-0.9-3c0.8-0.8,2-1,2.7-0.3C16.3,64.3,19.8,66.2,21,70z"/>
		<path class="st78" d="M32,79c2,0,4,0,6,0c0.3,0.3,0.3,0.6,0.2,0.8c-0.1,0.3-0.2,0.4-0.3,0.4c-1.6,0.7-3.4-0.4-5,0.7
			c-0.7-0.3-1.3-0.6-2-0.9c-1-0.3-2-0.7-3-1c0-0.3,0-0.6,0-1C29.5,77.8,30.7,78.3,32,79z"/>
		<path class="st79" d="M43,74c-0.3,0.3-0.7,0.7-1,1c-3,0.2-5.9,1.5-9,1c-0.3-0.2-0.4-0.4-0.3-0.7c0.1-0.2,0.2-0.3,0.3-0.3
			c0.3,0,0.7,0,1,0C36.9,74.2,39.7,71.8,43,74z"/>
		<path class="st36" d="M21,72c2.1,0.8,4.7,0.5,6,3C24.9,74.2,22.2,74.5,21,72z"/>
		<path class="st36" d="M33,75c0,0.3,0,0.7,0,1c-1.7-0.3-3.6,0.7-5-1C29.7,75,31.3,75,33,75z"/>
		<path class="st80" d="M38,80c0-0.3,0-0.7,0-1c7.2-0.5,13.1-4.2,19-8c0.6,0.6,0.7,1.3,0.5,2c-0.6,1.1-1.6,1.9-2.6,2.5
			c-3.4,1.9-6.8,4.2-10.9,4.5c-1.7,0-3.3,0-5,0C38.7,80.4,38.3,80.4,38,80z"/>
		<path class="st81" d="M44,80c3.9-1,6.8-4.4,11-5c0.7-0.5,1.3-0.6,2,0c-2.1,2.6-5.6,3-8,5c-0.7,0.6-1.3,0.6-2,0C46,80,45,80,44,80z
			"/>
		<path class="st82" d="M47,80c0.7,0,1.3,0,2,0c-1.3,2.8-3.8,1.8-6,2C43.8,80.3,46.2,81.7,47,80z"/>
		<path class="st83" d="M38,80c0.3,0,0.7,0,1,0c-1.8,1.8-4,0.7-6,1C34.4,79.3,36.3,80.3,38,80z"/>
		<path class="st84" d="M21,70c-2.4-2-4.9-3.8-6.7-6.4c-0.9-1.3-1.9-1.7-3.3-1.6c-0.4-0.7-0.7-1.3-1.1-2c-0.8-0.9-1.4-1.9-1.8-3
			c-0.1-1.6-1.7-3.1-0.4-4.8c2.3-0.8,2.7,1.3,3.8,2.4c0.9,2.3,2.9,3.9,4.2,5.8c0.6,1.4,1.3,2.6,2.4,3.6c0.3,0.3,0.7,0.6,1,0.9
			c1.6,1.3,3.2,2.5,5.1,3.1c0.4,0.1,0.9,0.3,1.3,0.4c1.3,0.5,2.7,0.6,4,0.9c1.8,0.7,4,0,5.5,1.7c-2.7,1.8-5.5,1-8.4,0.3
			C24.8,70.9,23,69.8,21,70z"/>
		<path class="st85" d="M8,52c-0.3,1.8,0.9,3.3,1,5c-1.2,0.6-1.4-0.5-2-1c-0.3-0.3-0.7-0.7-1-1c-1.4-2.2-0.9-4.6-1-7
			c0.3,0,0.7,0,1,0C7.8,48.8,8.6,50,8,52z"/>
		<path class="st86" d="M7,56c0.7,0.3,1.3,0.7,2,1c0.3,1,0.7,2,1,3C7.6,59.7,7.3,57.8,7,56z"/>
		<path class="st87" d="M57,81c1.3-1,2.7-2,4-3c-0.2-0.2-0.3-0.5-0.3-0.8s0.1-0.4,0.1-0.4c1.7-1.6,3.8-2.4,5.6-3.8
			c2.3-1.2,3.8-3.4,6.2-4.3c0.5-0.1,0.9,0,1.3,0.3C70.1,75.5,64.3,79.2,57,81z"/>
		<path class="st88" d="M74,69c-0.3,0-0.7,0-1,0c-0.6-0.5-0.8-1.1-0.8-1.9c0-0.5,0.2-0.9,0.3-1.3c1.3-1.8,2.8-3.5,3.5-5.7
			c0.3-0.6,0.6-1.1,1.1-1.6c1.1-0.9,1.7-2.4,3.3-2.7c0.2,0.1,0.4,0.2,0.6,0.3C79.9,61,77.1,65.1,74,69z"/>
		<path class="st88" d="M82,47c0.7-1,1.3-2,2-3c0.5,2-1,3.9-0.1,5.9c-1,2-1.1,4.4-2.9,6.1l0,0c-1.7-0.8-2-2.2-1.6-3.8
			C80.3,50.5,80.6,48.5,82,47z"/>
		<path class="st89" d="M8,52c-0.7-1.3-1.3-2.7-2-4c0-0.3,0-0.7,0-1c0.3-0.3,0.7-0.7,1-1c1,1.3,2,2.7,3,4c1.2,1.5,2.4,3,1,5
			C9.4,54.6,9.3,52.7,8,52z"/>
		<path class="st90" d="M57,73c0-0.7,0-1.3,0-2c2-1.7,4-3.3,6-5c0.6-0.7,1-1.6,2.2-1c0.8,1.4,0.2,2.7-0.2,4
			c-0.6,1.6-1.6,2.7-3.3,3.1c-0.2,0-0.4,0-0.7,0c-0.3,0.3-0.7,0.7-1,1C59,73.6,58,73.8,57,73z"/>
		<path class="st91" d="M61,77c0,0.3,0,0.7,0,1c-2-0.1-4.2-0.3-1.4-2.7c1.1-1,1.5-2,1.4-3.3l0,0c0.6-0.5,1.3-0.5,1.9-0.5
			c1,0.2,1.7,0.6,2.3,1.4C65,75.5,62.2,75.5,61,77z"/>
		<path class="st92" d="M57,73c1,0,2,0,3,0c-0.7,1.2-2,1.4-3,2c-0.7,0-1.3,0-2,0C55.4,74,56,73.4,57,73z"/>
		<path class="st57" d="M30,12c4.3-3.9,8.7-1.2,13,0c0.4,0.9,3.2,0.2,1.7,2.5c-1.6,0.9-3.1,0.4-4.6-0.3C36.9,12.3,32.9,14.7,30,12z"
			/>
		<path class="st93" d="M45,14c-0.7-0.7-1.3-1.3-2-2c1.3,0,2.7,0,4,0c1.9-0.7,2.1,1.2,3,2c0.6,1.1,2.2,1.4,2,2.9
			c-0.3,0.3-0.6,0.4-1.1,0.5c-1-0.1-1.9-0.4-2.9-0.8c-0.8-0.3-1.5-0.7-2.1-1.1C45.4,15.1,45.1,14.6,45,14z"/>
		<path class="st94" d="M30,12c3.6,0.6,7.5-1.2,11,1c-4,3.1-8,1.6-12,0c0-0.3,0-0.7,0-1C29.3,12,29.7,12,30,12z"/>
		<path class="st52" d="M50,14c-1-0.7-2-1.3-3-2c0-0.3,0-0.7,0-1C48.9,11.1,49.9,12.1,50,14z"/>
		<path class="st95" d="M52,9c1.3,0.3,2.7,0.7,4,1c0.4,1.8,3.1,1.8,3,4c0.3,0.8-0.2,1.1-0.9,1.3c-0.9-0.1-1.7-0.5-2.2-1.3
			c-1-1.7-2.3-3-4-4C52,9.7,52,9.3,52,9z"/>
		<path class="st96" d="M56,14c0.8,0,1.6,0.2,2,1c1,0.6,1.7,1.2,0.8,2.4c-1.2,0.8-2.5,0.8-3.8,0.7c-0.8-0.2-1.5-0.5-2-1.2
			c0-0.6,0-1.3,0-1.9C54,14.7,55,14.3,56,14z"/>
		<path class="st97" d="M53,16.9c0.7,0,1.3,0.1,2,0.1c0.7,0.6,1.6,1,1.1,2.2c-0.3,0.3-0.7,0.5-1.2,0.7c-1.1,0.3-2.3,0.3-3.4,0.1
			c-0.5-0.1-0.9-0.3-1.3-0.5c-0.4-0.3-0.6-0.7-0.6-1.2c0.2-0.7,0.6-1.2,1.4-1.3c0.3,0,0.7,0,1-0.1C52.4,17,52.7,16.9,53,16.9z"/>
		<path class="st98" d="M22,16c0.3,0,0.7,0,1,0c0.2,3.9-3.7,4.9-5.2,7.6C16.1,25,16,28,13,28c-0.3-2.9,1.7-4.8,3-7
			C17.5,18.8,20,17.7,22,16z"/>
		<path class="st99" d="M13,28c1.3-1.7,2.7-3.3,4-5c0.6-0.5,1.2-0.6,2-0.3c0.3,0.3,0.5,0.7,0.6,1.2c-0.5,2.5-2.2,4.4-3.7,6.3
			c-0.7,0.3-1.3,0.1-1.9-0.3c-0.3-0.3-0.6-0.6-0.9-0.9C13,28.7,13,28.3,13,28z"/>
		<path class="st100" d="M13,29c0.3,0,0.7,0,1,0c1.5,4.1-0.5,8.3,0.7,12.4c0,0.6-0.2,1.1-0.5,1.5c-0.9,0.5-1.6,0.1-2.2-0.5
			c-0.3-0.5-0.5-1-0.5-1.5c0.4-3.7-1.6-7.7,1.5-11C13,29.7,13,29.3,13,29z"/>
		<path class="st101" d="M13,30c-1.9,3.9-0.6,8-1,12c-0.3,0.3-0.7,0.4-1,0c0.3-2.4-0.4-4.7-1-7C12.1,34,9.6,30.2,13,30z"/>
		<path class="st102" d="M19,23c-0.7,0-1.3,0-2,0c2-2.3,4-4.7,6-7c2.2-0.6,3.6-2.8,6-3c4-0.6,8,1.2,12,0c1.1,1.5,2.6,0.8,4,1
			c0.3,0.3,0.7,0.7,1,1c-0.9,1.1-2.1,1.2-3.4,1.4c-1,0.2-1.9,0.4-3,0.4c-7-1.1-13.5-0.5-18.5,5.2C20.6,22.6,19.8,22.9,19,23z"/>
		<path class="st103" d="M10,47c0.3,0,0.7,0,1,0c2.8,0.2,2.6,3.2,4.4,4.4c1.1,1.7,2.8,2.6,4.1,4.1c1,1.3,1.3,2.8,0.8,4.4
			c-0.5,0.6-1.1,0.7-1.9,0.6c-0.4-0.1-0.8-0.4-1.1-0.7c-1-1.5-2.4-2.6-3.9-3.5c-1.7-1.8-2.6-3.8-2.4-6.3C10.7,49,10.3,48,10,47z"/>
		<path class="st104" d="M11,50c0.9,2,1.5,4.2,3,6c1.6,1,3,2.4,4,4l0,0c0.6,0.5,0.6,1.2,0.3,1.9c-0.3,0.4-0.7,0.6-1.2,0.7
			c-1.1,0-1.6-0.8-2.1-1.6c-1.2-2.1-4.1-3-4-6c-0.1-1.7-1.3-3.2-1-5C10.3,50,10.7,50,11,50z"/>
		<path class="st105" d="M15,52c-2.4-0.8-2.5-3.4-4-5c0-1.7,0-3.3,0-5c0.3,0,0.7,0,1,0l0,0c1.2,2.4,2.8,4.6,3.7,7.2
			C15.9,50.2,15.9,51.2,15,52z"/>
		<path class="st106" d="M79,37c-0.5,3.7-4.9,5.8-4,10c1,4.9-0.9,8.7-4.2,12.1C69.5,59,69.3,58,69.2,57c0-0.5,0.1-1,0.3-1.4
			c0.7-1.5,1.2-3.1,1.5-4.8c0.9-3.1,1.8-6.2,1.8-9.5c0-2,0.6-3.8,2.2-5.2c1-0.3,2-0.7,3-1C78.8,35.4,79,36.2,79,37z"/>
		<path class="st63" d="M75,36c-1,5.3-0.9,10.9-3,16c-1.1,1.1-1.3,2.7-2,4l0,0c-0.6,0.3-1.1,0.2-1.5-0.3c-0.8-1.6-0.5-3.1,0.2-4.7
			c1.9-4.2,2.7-8.7,2.9-13.3c0.1-1.8-0.5-4.1,2.3-4.6l0,0C74,34.1,73.8,35.3,75,36z"/>
		<path class="st107" d="M74,33c-2.3,3.2-0.9,7-1.4,10.5c-0.7,4.4-3.7,8-3.6,12.5c-0.3,2.7-1.6,4.7-4,6c-3.7,0.6-4.9,4.6-8,6
			c0-0.7,0-1.3,0-2c-0.6-2.2,1.5-2.7,2.5-3.9c2.5-4.6,5.9-8.7,7.6-13.7c1.1-2.9,1.5-6,3-8.8c1-3.7,0.3-7.4,0.5-11.2
			c0.1-1.9-0.3-4,1.4-5.5c0.3,0.3,0.7,0.7,1,1C72.5,27.1,73.8,30,74,33z"/>
		<path class="st108" d="M63,22c0.7-1.1,1.3-0.1,2,0c2.6,4,2.5,8.3,2.2,12.8c-0.3,1.5-0.8,2.9-1.1,4.4c-0.1,0.5-0.2,0.9-0.4,1.4
			c-0.6,2-0.6,4.2-1.8,6c-1.4,2.7-2.7,5.5-4.6,8c-0.9,0.6-1.7,1.3-2.7,0.2c-1.1-3.4,1.4-5.6,2.6-8.2c3.3-6.8,4.9-13.7,2.3-21.2
			C61.1,23.8,61.5,22.7,63,22z"/>
		<path class="st109" d="M66,36c0.6-4.8-1-9.3-1-14c0.3-0.3,0.7-0.6,1-0.9c1,0.8,2.4,1.1,2.8,2.5c0.5,1.3,0.5,2.7,0.5,4
			c-0.4,5.2,1.4,10.9-2.7,15.4c-0.5,0.3-1.1,0.4-1.6,0.2c-0.6-1.1-0.7-2.1,0-3.2l0,0C65.9,38.8,65.4,37.3,66,36z"/>
		<path class="st110" d="M63,22c-0.3,1-0.6,2-1,3c1.3,4.1,2.1,8.1-0.4,12.1c-2.5-1.3-1.8-3.7-1.9-5.8c-0.1-2.5,0-5-0.3-7.5
			c0.1-1.2,0.6-2.2,1.6-2.9C61.7,21.3,62.3,21.6,63,22z"/>
		<path class="st111" d="M61,20.9c0,0.8-0.2,1.6-1,2c-1.7-1-3.8-1.7-2.9-4.4c1.1-0.7,2.4-0.7,3.7-0.8c1.1,0,1.9,0.7,2.9,0.8
			c0.5,0.3,0.6,0.8,0.3,1.3C63,20,61.7,19.8,61,20.9z"/>
		<path class="st112" d="M64,19.9c0-0.3-0.1-0.5-0.1-0.8c0.6-0.7,1.6-1,2-1.9c0.3,0,0.7-0.1,1-0.1c0.6,1.3,1.6,1.9,3,2
			C68.1,20.8,66,19.7,64,19.9z"/>
		<path class="st113" d="M68,23c-1-0.3-1.6-1-2-2c2.3,0,4.6-0.1,6.9-0.1c-0.3,0.4-0.6,0.7-0.9,1.1c-0.4,0.5-0.9,0.8-1.5,0.9
			C69.6,23.1,68.8,23.1,68,23z"/>
		<path class="st114" d="M70,22c0.7,0,1.3,0,2,0c0,0.3,0,0.7,0,1c0,4.5,0.1,8.9,0,13.4c0,1.6,0.6,3.4-1,4.6c-1.5-1.4-1.5-3.3-1.3-5
			C70.2,31.3,68.3,26.6,70,22z"/>
		<path class="st115" d="M59,16.9c-0.3-0.6-0.7-1.3-1-1.9c0.3-0.3,0.7-0.7,1-1c1.7-0.2,2.6,1.4,3.9,2c0,0.6,0.1,1.2,0.1,1.9
			c-0.4,0.8-1.1,0.6-1.8,0.6C60.4,18.1,59.4,17.9,59,16.9z"/>
		<path class="st116" d="M70,59c3.1-3.4,3.7-7.9,5-12c1.3-0.1,2-0.8,2-2.1c0-1.4,0.7-2.4,2-2.9c-0.1,1.7-1.3,3.2-1,5
			c2.7,3.9-1.7,5.4-2.6,8.1c-0.6,1-1,2-1.4,3.1c-0.5,1.3-1,2.6-2.4,3.2c-0.5,0.1-0.9,0.1-1.4-0.1c-0.6-0.5-0.8-1.1-0.6-1.8
			C69.7,59.4,69.9,59.2,70,59z"/>
		<path class="st117" d="M74,55c0.5-3.1,5-4.2,4-8c0.7,0,1.3,0,2,0c1.5,1.7,0,3.3,0,5c-0.2,1.4,0.3,2.7,1,4c-1.6,0.4-1.7,2.3-3,3
			c-0.7-0.7-1.5-1.2-2.5-1.5C74.3,57.1,74.6,55.8,74,55z"/>
		<path class="st118" d="M80,52c-2.2-1.7,0.3-3.3,0-5c0.7,0,1.3,0,2,0C82,48.9,82.4,51,80,52z"/>
		<path class="st119" d="M61,17.9c0.7,0,1.3,0,2-0.1c1.1,0.4,1.9-0.4,2.9-0.7c0.1,1.4-0.8,1.8-2,1.9c-1-0.1-2-0.1-2.9-0.2
			c-0.2-0.2-0.3-0.4-0.2-0.7C60.9,18,60.9,17.9,61,17.9z"/>
		<path class="st120" d="M65,62c1.1-2.2,2.3-4.3,4-6c0.3,0,0.7,0,1,0c0,1,0,2,0,3l0,0c-1.3,2.3-1,5.9-5,6c-0.7,0.3-1.3,0.7-2,1
			C62.8,64.2,64.5,63.4,65,62z"/>
		<path class="st121" d="M35,71c-2-0.4-4.3,0.8-6-1c0.5-0.6,1.1-0.9,1.8-1.1c2.8-0.1,5.5-0.6,7.7-2.5c1.2-0.7,2.5-1.2,3.8-1.6
			c1.8-0.5,3.2-1.8,4.9-2.4c0.8-0.1,1.4,0,2,0.6c0.9,2.3-0.7,3.1-2.3,4C43.2,68.8,39.5,71.2,35,71z"/>
		<path class="st122" d="M47,72c-0.3,0-0.7,0-1,0c-1.9,0.1-1.6-0.9-1-2c0.3,0,0.7,0,1,0c2.1-1.3,3.6-3.2,5.3-4.9
			c1.8-0.6-0.1-1.4,0.2-2.1c0-0.4,0.2-0.9,0.4-1.2c0.3-0.3,0.7-0.5,1.1-0.7c1.7-0.3,3.2-1.4,4.9-1.5c0.7,0.1,1.3,0.5,1.8,0.9
			c1.4,2-0.8,2.1-1.6,3C54.5,66.5,51.8,70.6,47,72z"/>
		<path class="st123" d="M45,70c0,0.8,0.2,1.6,1,2c-1,0.7-2,1.3-3,2c-3.1-0.5-5.9,1.3-9,1c1.3-2.4,3.8-2.5,6-2.9
			C41.8,71.7,43.3,70.7,45,70z"/>
		<path class="st124" d="M52,63c0.1,0.7,1.2,1.3,0,2c-1,1.3-2,2.6-4,2c-0.3,0-0.7,0-1,0c0.5-1.4,2.2-2.2,2-4C50,62.1,51,62.2,52,63z
			"/>
		<path class="st125" d="M48,67c1.3-0.7,2.7-1.3,4-2c-0.6,3.3-3.4,4.1-6,5C46.7,69,47.3,68,48,67z"/>
		<path class="st126" d="M47,72c3.7-3,7.3-6,11-9c0.7-0.6,1.3-0.6,2,0c-0.7,1.3-2.6,1.4-3,3C53.6,68,51.8,72.4,47,72z"/>
		<path class="st127" d="M39,67c-1.9,3.1-4.9,3-8,3c-1.8-1.3-4.2,0.3-6-1c-0.3,0-0.7,0-1,0c-1.9-1.6-3.9-2.7-6-4l0,0
			c-0.5-1-1.6-1.7-1-3c0.3,0,0.7,0,1,0c3.1-0.4,4.6,2.9,7.5,3c0.5,0.1,0.9,0.2,1.4,0.4C30.7,67.6,35.2,65,39,67z"/>
		<path class="st128" d="M18,65c2.6,0.4,4.7,1.6,6,4C21.5,68.4,19.5,67.1,18,65z"/>
		<path class="st128" d="M17,62c0.3,1,0.7,2,1,3c-1.6-0.9-2.9-2-3-4C15.7,61.3,16.3,61.7,17,62z"/>
		<path class="st129" d="M25,69c2,0.3,4.3-0.8,6,1c-0.7,0-1.3,0-2,0C27.6,69.8,26,70.5,25,69z"/>
		<path class="st130" d="M73,67c0,0.7,0,1.3,0,2c-1.8,1.9-3.7,3.7-6,5c-1.2-1.4-0.3-2.6,0.4-3.9c0.9-1.1,2.1-1.8,3.2-2.6
			C71.3,67,72,66.4,73,67z"/>
		<path class="st131" d="M68,70c-0.3,1.3-0.7,2.7-1,4c-1.9,1.1-3.6,2.9-6,3c0.6-2,2.8-2.5,4-4C65.2,71.2,65.7,69.7,68,70z"/>
		<path class="st118" d="M73,67c-0.7,0.3-1.3,0.7-2,1c-3.6,1.1-2.4-1.5-2.4-3.1c0.3-1.6,1.2-2.8,2.4-3.9c1.1-0.7,1.4-2,2-3
			c0.9-0.7,2.2-0.1,3-1c1.9-1,1.9-1,2,2c-0.3,0.3-0.7,0.7-1,1c-1.3,2-2.5,4.1-4,6C73,66.3,73,66.7,73,67z"/>
		<path class="st117" d="M73,66c0.6-2.5,1.9-4.5,4-6C76.6,62.6,75.4,64.7,73,66z"/>
		<path class="st132" d="M65,65c2.5-1.3,2.9-4.4,5-6c0,0.7,0,1.3,0,2c0.6,1.4-0.8,2.5-0.6,3.8c-1.2,1.6-2.4,3.3-4.1,4.4
			c-0.5,0.2-0.9,0.1-1.2-0.2C64.3,67.7,64.7,66.3,65,65z"/>
		<path class="st131" d="M64,69c0.3,0,0.7,0,1,0c0.9,2.1,0.2,3.1-2,3c-0.7,0-1.3,0-2,0C61.7,70.7,63.6,70.6,64,69z"/>
		<path class="st133" d="M63,72c1.3-0.5,2-1.5,2-3c0.7-2,2-3.3,4-4c0.3-0.5,0.7-0.5,1,0c-0.5,1.3-1.7,2.8,1,3c-0.5,1.3-1.5,2-3,2
			c-1.6,0.4-1.7,2.3-3,3C64.2,73,63.4,72.8,63,72z"/>
		<path class="st134" d="M51,17c-0.3,0.3-0.7,0.7-1,1c-0.6,0.6-1.3,0.7-2,0.5c-1-0.3-1.8-0.8-2.2-1.9c0.4-1.3,1.2-1.4,2.3-0.7
			C49.1,16,50.3,15.8,51,17z"/>
		<path class="st135" d="M48,16c-0.8,0-1.6,0.2-2,1c-1.9,0.4-3.7,0.6-4-2c1.3,0,2.7,0,4,0C46.8,15,47.6,15.2,48,16z"/>
		<path class="st136" d="M61,17.9c0,0.3,0,0.6,0,1c-1.3,0.1-2.6,0.2-3.9,0.3c-0.4,0.2-0.7,0.2-1-0.2c-0.3-0.7-0.7-1.3-1-2
			c1.4,0,2.7-0.1,4.1-0.1C59.8,17,60.6,17.1,61,17.9z"/>
		<path class="st137" d="M56,19c0.3,0.1,0.7,0.1,1,0.2c0.4,1.7,3.1,1.7,2.9,3.8c2,4.6,0.6,9.4,1,14c0,0.2,0.1,0.4,0.1,0.7
			c0.1,1.6,0,3.2-0.2,4.8c-0.8,2.6-1.5,5.2-3.8,6.9c-0.5,0.1-1,0-1.4-0.4c-0.6-1-0.6-2-0.4-3.1c0.9-3.2,1.9-6.3,2.7-9.4
			c1.4-5.3,0.2-10-2.4-14.6C55,21,54.5,20.1,55,19C55.4,19,55.7,19,56,19z"/>
		<path class="st138" d="M50,19c0.3,0,0.7,0,1,0c0.3,0.3,0.6,0.7,0.9,1.1c0.8,1.7,1.7,3.3,2.1,5.2c0.2,1.2,0.1,2.4-0.5,3.5
			c-2.3,1.2-2.7-1.1-3.9-2c-0.5-0.5-0.9-1.1-1.2-1.8c-0.4-0.9-0.5-1.8-0.5-2.8c0-0.7,0.2-1.4,0.5-2C48.7,19.6,49.3,19.1,50,19z"/>
		<path class="st139" d="M50,19c-0.3,0.3-0.7,0.7-1,1c-1.7,0.7-3.1,0.3-4.2-1.2c0.7-1.8,1.9-1.4,3.2-0.8c0.7,0,1.3,0,2,0
			C50,18.3,50,18.7,50,19z"/>
		<path class="st140" d="M51,20c0-0.3,0-0.7,0-1c1.3,0,2.7,0,4,0c0.3,0.7,0.6,1.3,1,2c-1,1-2.2,0.6-3.3,0.2
			C52.1,20.9,51.5,20.5,51,20z"/>
		<path class="st141" d="M19,23c5.8-7.3,13.1-9.7,21-7c1.3,0.8,3.9,0.4,2.9,3.3c-1.7,0.9-3.4-0.1-5.1,0.1c-4.3,0.1-8.7-0.8-12.6,2
			c-1.2,0.8-2.4,1.5-3.5,2.3C20.8,24,20,24.6,19,24C19,23.7,19,23.3,19,23z"/>
		<path class="st142" d="M19,24c0.7-0.3,1.3-0.7,2-1c0.7,0.2,1.1,0.6,1.3,1.3c-0.1,0.7-0.4,1.2-0.9,1.6c-1.1,0.9-2.1,2-2.3,3.5
			c-0.1,0.6-0.4,1.3-0.7,1.9c-0.2,0.4-0.5,0.8-0.7,1.2c-1,2.5,0.3,5.4-1.6,7.7c-0.5,0.2-1,0.1-1.5-0.2c-1.5-3.4-1.2-6.7,0.3-9.9
			C16.3,28,17.7,26,19,24z"/>
		<path class="st143" d="M15,30c-0.4,3.3-0.4,6.7,0,10c0.6,0.6,0.6,1.3,0.3,2c-0.4,0.3-0.8,0.4-1.3,0c-2.2-4.3-0.5-8.7,0-13
			C14.3,29.3,14.7,29.7,15,30z"/>
		<path class="st101" d="M15,49c-1.9-1.9-3.4-4.1-3-7c0.7,0.3,1.3,0.7,2,1c1.2,0.9,1.4,2.2,1.7,3.5c0.1,0.7,0,1.4-0.3,2
			C15.3,48.7,15.2,48.8,15,49z"/>
		<path class="st144" d="M15,47c-0.7-1.2-1.2-2.5-1-4c0-0.3,0-0.7,0-1c0.3,0,0.7,0,1,0c1.4,1.3,2,2.9,1.3,4.9
			C15.9,47.3,15.5,47.4,15,47z"/>
		<path class="st145" d="M43,19c-0.4-1.6-2.3-1.7-3-3c0.7-0.3,1.3-0.7,2-1c1,1.4,2.8,1.1,4,2c0.8,0,1.6,0.2,2,1
			c-1.1,0.1-2.3-0.2-3,1c-0.3,0.3-0.6,0.5-1,0.5S43.3,19.3,43,19z"/>
		<path class="st146" d="M25,66c-3-0.1-4.7-2.6-7-4c0-0.7,0-1.3,0-2c0.7,0,1.3,0,2,0c0.3-0.3,0.7-0.4,1.2-0.3c0.6,0.3,1.2,0.6,1.7,1
			c1.8,1.5,4.1,1.7,6.2,2.5c0.4,0.2,0.8,0.5,1.1,0.9c0.1,0.5-0.1,0.9-0.4,1.3C28.4,66.7,26.5,65.1,25,66z"/>
		<path class="st147" d="M21,60c-0.3,0-0.7,0-1,0c-0.3-1.3-0.7-2.7-1-4c0.3-0.4,0.7-0.6,1.2-0.8c1-0.3,1.9-0.2,2.8,0.1
			s1.7,0.8,2.4,1.6c0.3,0.7,0.3,1.4,0,2.1c-0.8,1-1.9,1.3-3.1,1.4C21.8,60.4,21.4,60.3,21,60z"/>
		<path class="st148" d="M20,56c-0.3,0-0.7,0-1,0c-1.4-1.3-3.8-1.6-4-4c0-1,0-2,0-3l0,0c2.3-0.4,2.6,1.9,3.9,2.9
			c0.3,0.3,0.5,0.7,0.7,1.1C20.1,53.9,20.7,54.9,20,56z"/>
		<path class="st149" d="M18,60c-1.7-1-3-2.3-4-4C16.4,56.3,17.7,57.6,18,60z"/>
		<path class="st120" d="M70,56c-0.1-1.7,0.2-3.3,2-4C71.8,53.6,71.3,55,70,56z"/>
		<path class="st150" d="M70,22c1.3,6.3,1,12.6,1,19c-1,2.7-2,5.3-3,8c-0.9,0.4-0.2,3.2-2.4,1.7c-1-2.5,0.4-4.7,1.1-6.9
			c0.8-2.6,2.1-5.1,1.8-7.9c0.5-2.1,0.7-4.2,0.3-6.3c-0.4-0.8-0.1-1.8-0.8-2.5c0-1.3,0-2.7,0-4C68.4,22.1,69.2,22,70,22z"/>
		<path class="st151" d="M66,51c0.7-0.7,1.3-1.3,2-2c-1.7,5.2-4.8,9.7-8,14c-0.7,0-1.3,0-2,0c-0.2-0.9,2.1-0.6,1-2
			C59.8,56.6,61.7,52.9,66,51z"/>
		<path class="st152" d="M57,49c1-2.3,2-4.7,3-7c1.2-1.5-0.2-3.5,1-5l0,0c2.1-3.9,0.5-8,1-12c3.9,3.8,1.8,8.4,1.5,12.6
			c-0.4,5-2.9,9.4-5.4,13.7c-0.7,1.2-1.2,2.3-1.1,3.7c-0.4,3.5-3,4.7-5.9,5.5c-0.8-0.1-1.3-0.6-1.4-1.4C51.3,55.2,54.1,52,57,49z"/>
		<path class="st153" d="M51,60c2.2-1.4,4.4-2.8,6-5c0.7-0.3,1.3-0.7,2-1c0.3,0.4,0.5,0.8,0.5,1.3c-0.8,3.4-3,5.3-6.4,6
			c-0.7,0.2-1.4,0.3-2.1-0.1C50.7,60.8,50.7,60.4,51,60z"/>
		<path class="st154" d="M59,55c0-0.3,0-0.7,0-1c0.5-3.1,2.7-5.3,4-8c0.6,0.4,0.8,1,1,1.7c0.1,0.9,0.1,1.8-0.2,2.7
			c-0.1,0.4-0.3,0.8-0.6,1.2C61.8,52.7,61.5,55.2,59,55z"/>
		<path class="st155" d="M63,48c0-0.7,0-1.3,0-2c1.6-1.7,0.2-4.4,2-6c0,1,0,2,0,3C66.2,45.4,66.1,47.3,63,48z"/>
		<path class="st156" d="M66,36c0.9,1.6,0.1,2.9-1,4C65.2,38.6,64.5,37,66,36z"/>
		<path class="st157" d="M66,51c-2.3,3.3-4.7,6.7-7,10c-0.3-0.3-0.7-0.7-1-1c0.2-3.8,3.2-6,5-9l0,0c1.5-2.5,2.2-5.2,3-8
			c2.8-5.1,1.8-10.6,2-16c0.8,0.4,1,1.2,1,2c0.7,2,0.8,4,0,6C69.3,40.6,66.8,45.6,66,51z"/>
		<path class="st158" d="M66,43c-0.1,3-0.1,6-3,8c0-1,0-2,0-3c1.6-1.3,2.1-3,2-5C65.3,43,65.7,43,66,43z"/>
		<path class="st159" d="M76,57c-0.2,2.7-1.7,1.5-3,1c0.3-1,0.7-2,1-3C74.7,55.7,75.3,56.3,76,57z"/>
		<path class="st117" d="M70,65c-0.3,0-0.7,0-1,0c-0.2-1.5,0.3-2.8,1-4c0.3,0,0.7,0,1,0C70.7,62.3,70.3,63.7,70,65z"/>
		<path class="st160" d="M39,67c-4.4,0.3-8.9,2.1-13-1c1.6-1.1,3.8,0.2,5.3-1.3c0.4-0.1,0.9-0.2,1.3-0.1c1.5,0.9,2.9,0.4,4.2-0.3
			c0.4-0.2,0.8-0.4,1.3-0.5c1.9-0.6,3.6-2.5,5.9-1c0.7,1.4-0.5,2.2-1.1,3.2C41.7,66.3,40.3,66.7,39,67z"/>
		<path class="st161" d="M43,66c0.3-1,0.7-2,1-3c0.1-0.7,0.6-1.2,1.2-1.5c0.7-0.2,1.3-0.1,1.9,0.3c0.3,0.4,0.2,0.8-0.1,1.2
			C46.3,64.8,44.5,65.2,43,66z"/>
		<path class="st162" d="M47,63c0-0.3,0-0.6,0-0.9c0.3-0.5,0.8-0.8,1.3-0.9c1.4-0.3,2.7,0,3.8,0.9c0,0.3-0.1,0.6-0.1,0.9
			c-1,0-2,0-3,0C48.3,63,47.7,63,47,63z"/>
		<path class="st158" d="M63,51c-1,3.4-3.2,6-5,9c-1.6,0.9-2.9,2.5-5.1,2c-0.3-0.2-0.4-0.4-0.3-0.6c0.1-0.2,0.2-0.3,0.3-0.3
			c2.8-1.3,4.7-3.4,6.1-6.1C60.5,53.8,61,51.7,63,51z"/>
		<path class="st163" d="M52.9,61.1c0,0.3,0,0.6,0,0.9c-0.3,0-0.6,0.1-0.8,0.1C50.7,62,49.4,62,48,61.9c-0.3-0.5-0.2-0.9,0.2-1.3
			c1-0.5,2-0.3,2.9,0.3C51.7,61,52.3,61,52.9,61.1z"/>
		<path class="st164" d="M32,65c-1.8,1.9-4,0.6-6,1c-0.3,0-0.7,0-1,0c1.4-1.7,3.3-0.7,5-1C30.7,64.4,31.3,64.5,32,65z"/>
		<path class="st165" d="M53,20c1,0.3,2,0.7,3,1c3.3,4.1,4.8,8.7,3.5,14c-0.9,3.8-1.3,7.7-3.5,11c-0.4,0.3-0.9,0.3-1.3,0
			c-0.3-0.4-0.5-0.9-0.6-1.3c-0.1-0.7,0-1.5,0.2-2.2c2.8-6.6,3.3-13.1-1-19.4C52.8,22.2,51.9,21.2,53,20z"/>
		<path class="st166" d="M55,46c0.3,0,0.7,0,1,0c0,1,0,2,0,3c-1.5,4.2-4.6,7.2-7.5,10.3c-0.6,0.4-1.2,0.6-1.9,0.8s-1.3,0.4-2,0.5
			c-1.3,0.1-2.3-0.4-2.7-1.7c0-1.8,1.4-2.1,2.6-2.8c1.4-0.5,2.8-1,3.7-2.3c0.3-0.3,0.5-0.7,0.8-1C51.4,51,52.4,47.8,55,46z"/>
		<path class="st167" d="M48,59c2.7-3.3,5.3-6.7,8-10c0.3,0,0.7,0,1,0c-1.3,4.1-4.2,7-7,10C49.3,59.6,48.7,59.5,48,59z"/>
		<path class="st110" d="M61,37c-0.3,1.7,0.7,3.6-1,5C60.3,40.3,59.3,38.4,61,37z"/>
		<path class="st168" d="M53,29c0-1.3,0-2.7,0-4c3.5,1.4,3.7,4.6,3.9,7.7c0.3,2.7-0.6,5.2-1.4,7.8c-2.3,5.7-5.2,11-10.4,14.8
			c-3.5,2.5-7.2,4-11.4,4.7c-1.9,0.2-3.8,0.7-5-1.3c-0.1-0.9,0.4-1.5,1-2c7.2-1.1,12.8-4.8,17.6-10.1c2-2.2,2.9-4.7,3.8-7.4
			C52.4,35.8,50.5,32,53,29z"/>
		<path class="st169" d="M43,19c0.3,0,0.7,0,1,0c0.8,0.7,1.9,0.9,2.6,1.7c1.5,1,1.5,2.9,2.4,4.3c0.3,0.3,0.7,0.7,1,1
			c2.3,3.2,1.9,7,2.4,10.5c-1.3,2.3-0.7,5.8-4.3,6.7c-0.4-0.3-0.7-0.7-0.8-1.2c0.3-4.4,3.1-8.8-0.2-13c-2-3.2-4.4-6.1-7.5-8.3
			c-0.8-0.7-2-1.2-1.6-2.7C39.8,17.7,41.3,18.9,43,19z"/>
		<path class="st170" d="M55,41c1.1-5.6,2.2-11.1-2-16c-0.7-1.7-2-3.1-2-5c0.7,0,1.3,0,2,0c-0.3,1.5,1.1,2.4,1.7,3.3
			c4.8,6.6,3.8,13.1,0.3,19.7C54.4,42.3,54.4,41.7,55,41z"/>
		<path class="st171" d="M52,37c-0.7-3.7-1.3-7.3-2-11c1.6,0.4,1.7,2.3,3,3c-0.5,3.6,1.2,7.5-1,11C51.2,39,51.4,38,52,37z"/>
		<path class="st172" d="M46,21c-1-0.4-1.6-1-2-2c0.3,0,0.7,0,1,0c1.5-0.2,2.8,0.3,4,1c0,0.7,0,1.3,0,2C47.7,22.6,46.9,21.5,46,21z"
			/>
		<path class="st141" d="M46,21c1,0.3,2,0.7,3,1c0,1,0,2,0,3C48,23.7,47,22.3,46,21z"/>
		<path class="st173" d="M38,18c4.1,2.6,7.7,5.6,10,10c1.5,3.9,1.2,7.9,0.2,11.8c-1.3,1.4-2.4,3-4.7,2.5c-1.7-2,0.5-3.5,0.6-5.3
			c0.7-1.9,0.8-3.8,0.2-5.7c-0.3-1-0.6-2-1.3-2.9c-2.2-3-5.6-4.6-8.5-6.7c-1.9-1.7-3.8-1.8-5.9-0.2c-0.8,0.5-1.5,0.9-2.5,0.9
			c-0.9-0.2-1.7-0.6-2.2-1.4c2-2.9,5.1-2.9,8.2-3C34.1,18,36.1,18,38,18z"/>
		<path class="st174" d="M24,21c0.8,0,1.6,0.2,2,1c-1,1.4-2,2.6-4,2c-0.3-0.3-0.7-0.7-1-1C21.7,21.9,23,21.6,24,21z"/>
		<path class="st175" d="M22,24c1.4-0.5,2.2-2.2,4-2c0.7-0.3,1.3-0.7,2-1c2.3-1.3,4.7-1.3,7,0c3.3,1.9,6.9,3.5,9,7
			c1.2,4.6,1.8,9.1-1.3,13.3c-0.2,1.1-0.9,1.8-1.8,2.4c-1.5,0.7-2.6,2-3.7,3.2c-1.8,1.4-3.7,2.4-6.1,2.2c-0.5,0-1-0.1-1.5-0.2
			c-3.1-0.6-6.3-0.9-9-2.9c-1.1-0.7-1.6-1.8-1.8-3c-0.2-1.8-0.7-3.5-1.3-5.1c-0.1-0.4-0.2-0.8-0.3-1.3c0.3-1.8-0.8-3.8,0.7-5.5
			c0-0.7,0-1.3,0-2c0.9-1.4,2.1-2.6,3-4C21.3,24.7,21.7,24.3,22,24z"/>
		<path class="st176" d="M16,47c-0.1-1.7-1.3-3.2-1-5c0-0.7,0-1.3,0-2c0.3,0,0.7,0,1,0c1.2,0.9,1.4,2.3,2,3.6c0.8,2.5,2.9,4,4.3,6
			c1.5,1.8,3.6,2,5.7,2.5c1.8,0.5,3.9,0.4,5.1,2.4c-4.3,2.9-8.7,2.2-14-2.4C17.7,50.5,15.9,49.3,16,47z"/>
		<path class="st174" d="M17,44c-0.7-1.2-1.2-2.5-1-4c0.5-3-1-6.2,1-9c1.3,1.8-0.1,4.1,1,6l0,0c0.8,1.2,0.4,2.7,0.9,4
			C18.8,42.3,19.2,44,17,44z"/>
		<path class="st177" d="M18,37c-1.9-1.7-0.6-4-1-6c0.3,0,0.7,0,1,0C17.9,33,18.8,35,18,37z"/>
		<path class="st174" d="M21,25c-0.1,2-1.4,3.1-3,4C18.1,27,19.4,25.9,21,25z"/>
		<path class="st178" d="M16,47c1,1.3,2,2.7,3,4c0.6,0.7,0.6,1.3,0,2c-2-0.7-2.5-2.8-4-4c0-0.7,0-1.3,0-2C15.3,47,15.7,47,16,47z"/>
		<path class="st179" d="M32,65c-0.7,0-1.3,0-2,0c0-0.3,0-0.7,0-1c0.3-0.4,0.7-0.6,1.2-0.8c1.5,0.1,3,0,4.4,0.6
			c-0.7-0.9-2,0-2.8-0.6c-1.3-0.5-3.3,0.1-3.7-1.8c-0.2-0.9,0.9-1.2,1.7-1.4c1.3-0.1,2.5,0,3.8-0.2c1.9-0.5,3.9-0.9,5.8-0.3
			c1,0.2,1.9,0.5,2.7,1.1c0.3,0.4,0.4,0.8,0.3,1.3c-2.1,0.4-3.7,1.6-5.3,3c-0.3,0-0.7,0-1,0c-1.3,0.7-2.7,0.8-4,0h-0.5L32,65z"/>
		<path class="st180" d="M31,61c-0.3,0.1-0.7,0-0.9,0.2c-0.5,0.5,0,0.7,0.4,0.8c1,0.1,1.9,0,2.5,1c-0.5,0.7-1.5,0.3-2,1
			c-0.3,0-0.7,0-1,0s-0.7,0-1,0c-2.1-1.5-4.9-1.5-7-3c-0.3-0.3-0.7-0.7-1-1c0.3,0,0.7,0,1,0C25.1,59.7,28.4,57.1,31,61z"/>
		<path class="st181" d="M22,61c2.6,0.4,5.4,0.3,7,3C26.4,63.6,23.6,63.7,22,61z"/>
		<path class="st171" d="M19,53c0-0.7,0-1.3,0-2c4.3,2.7,8.5,5.7,14,3c0.2-0.2,0.3-0.3,0.5-0.5c4-0.8,7.2-3.1,10-6.1
			c1.9-1.1,3.1-2.9,4.6-4.4c2.8-1,1.7-4.7,4-6c0,1,0,2,0,3c-2.7,9.4-12.5,17-22,17c-1.7,1-3.3,1.4-5,0c-0.8,0-1.6-0.2-2-1
			C21.7,55,19.8,54.7,19,53L19,53z"/>
		<path class="st182" d="M31,61c-2.8-2-6-0.5-9-1c0.7-1.2,1.9-0.9,3-1c1-1.5,2.4-2,4-1c1.4,1.7,3.3,0.7,5,1c0.9-0.5,1.2,0.1,1.5,0.8
			c0,0.5-0.2,0.9-0.5,1.2C33.7,61,32.3,61,31,61z"/>
		<path class="st178" d="M19,53c1.5,0.8,3.3,1.2,4,3c-1,0-2,0-3,0C19.7,55,19.3,54,19,53z"/>
		<path class="st183" d="M29,58c-1.5-0.2-2.7,0.3-4,1c0-0.7,0-1.3,0-2c1.7,0,3.3,0,5,0C29.7,57.3,29.3,57.7,29,58z"/>
		<path class="st184" d="M69,35c0-2,0-4,0-6C70.5,31,70.5,33,69,35z"/>
		<path class="st185" d="M48,59c0.7,0,1.3,0,2,0c0.3,0.3,0.7,0.7,1,1c0,0.3,0,0.6,0.1,0.9c-1,0-2,0-3.1,0.1c-1.1-0.2-2.5-0.2-2-2
			C46.7,59,47.3,59,48,59z"/>
		<path class="st186" d="M38,65c0.8-2.5,2.5-3.4,5-3c0.7-0.6,1.4-0.5,2,0.1c-0.3,0.3-0.7,0.6-1,1C41.6,62.3,40.2,65,38,65z"/>
		<path class="st186" d="M33,65c1.3,0,2.7,0,4,0C35.7,65.6,34.3,68.1,33,65z"/>
		<path class="st187" d="M45,62c-0.7,0-1.3,0-2-0.1c0-0.3,0-0.7,0-1c0.5-0.7,1.5-0.3,2-1c0.3-0.3,0.7-0.7,1-1c0.7,0.7,1.3,1.3,2,2
			c0,0.3,0,0.6,0,1c-0.3,0-0.6,0.1-1,0.2C46.4,62.1,45.7,62.1,45,62z"/>
		<path class="st188" d="M35,60c-0.3-0.3-0.7-0.7-1-1c3.3-1.6,7.1-2,10.2-4.5c4.1-3.2,6.8-7.3,9.1-11.8c0.3-0.7,1.1-1.1,1.7-1.7
			c0,0.7,0,1.3,0,2s0,1.3,0,2c-1.5,3.3-3.9,6.1-6,9l0,0c-0.9,1.6-2.8,1.9-4,3c-1,0.6-2.3,0.9-3,2c-0.2,0.2-0.4,0.3-0.5,0.5
			C39.3,59.9,37.1,59.6,35,60z"/>
		<path class="st189" d="M49,54c0.9-3.7,3.6-6.3,6-9c0,0.3,0,0.7,0,1C53.9,49.4,52,52.1,49,54z"/>
		<path class="st190" d="M45,57c0.7-1.8,2.5-2.2,4-3C48.7,56.4,46.8,56.7,45,57z"/>
		<path class="st191" d="M45,60c-0.4,0.8-1.2,1-2,1c-1,0-2,0-3,0c-0.6-1.9,1.6-1.1,2-2l0,0C43,59.3,44,59.7,45,60z"/>
		<path class="st192" d="M47,40c2.1-3.9,0.5-8,1-12c3.9,4.7,1.8,9.3,0,14c-0.4,0.2-0.8,0.1-1.2-0.2C46.4,41.2,46.5,40.6,47,40z"/>
		<path class="st193" d="M47,42c0.3,0,0.7,0,1,0c0,0.3,0,0.7,0,1c0.5,3.1-1.8,4-4,5c-0.9,0.4-1.2-0.2-1.4-0.9c0-0.7,0.3-1.3,0.9-1.7
			c1.4-0.6,2.3-1.7,3-3C46.7,42.2,46.8,42.1,47,42z"/>
		<path class="st194" d="M44,46c-0.3,0.3-0.7,0.7-1,1c-0.5,1.1-0.9,2.1-2.2,2.5c-0.7,0.2-1.4,0.1-1.9-0.4c-0.8-3.3,2.6-4.3,3.6-6.7
			c0.2-0.2,0.3-0.3,0.5-0.5c1.8,0.2,2.6-1.5,4-2c0,0.7,0,1.3,0,2l0,0C46.1,43.4,45.3,44.9,44,46z"/>
		<path class="st177" d="M42,42c2.7-4.4,1.9-9.2,2-14c1.2,0.7,1,1.9,1,3c0.8,2,0.8,4,0,6c0.4,2.1-1.1,3.4-2,5l0,0
			C42.7,42.3,42.3,42.4,42,42z"/>
		<path class="st195" d="M35,21c-2.3,0-4.7,0-7,0C30.3,18,32.7,18,35,21z"/>
		<path class="st195" d="M45,37c0-2,0-4,0-6C46.5,33,46.5,35,45,37z"/>
		<path class="st196" d="M25,44c-4.6-3.7-6.1-9.1-3.9-14.5c1.4-3.5,6.4-6.7,10-6.5c3.8,0.2,9.8,5.1,10.5,8.6
			c0.5,2.6-3.5,9.1-6.3,10.8C32,44.6,28.9,46.4,25,44c0.9-1.1,3.6-0.5,2.7-3.1c2-2.2,5.9-1.1,7.3-4.6c2-4.7,1.5-6.3-3.4-8.2
			c-0.4-0.1-0.9-0.3-1.3-0.4c-6,0.2-8.5,5.2-5.6,11.4C25.3,40.7,26.3,42.3,25,44z"/>
		<path class="st197" d="M17,44c1.2-0.7,0.9-1.9,1-3c1.1-0.6,1.4,0.5,2,1c0,1.1-0.2,2.3,1,3c2.1,3.6,6,1.9,9,3c0.3,0,0.7,0,1,0
			c1,1.6,3.7,0.3,4.2,2.6c-4.9,4.1-9.6,1.8-14.2-0.6C20.1,47.7,17,46.9,17,44z"/>
		<path class="st198" d="M35,50c-1.6-0.2-3.7,0.7-4-2c2.3,0.3,4.1-1.2,6-2c1.3-0.7,2-2,3-3c0.7-0.3,1.3-0.7,2-1c0.3,0,0.7,0,1,0
			c0.7,3.5-3.5,4.2-4,7C38.1,50.9,36.7,51.2,35,50z"/>
		<path class="st177" d="M30,48c-1.1,0-2.4-0.3-3.4,0.1C23.2,49.7,22,47.6,21,45C24,46,27,47,30,48z"/>
		<path class="st177" d="M20,42c-0.7-0.3-1.3-0.7-2-1c0-1.3,0-2.7,0-4C19.3,38.4,19.6,40.2,20,42z"/>
		<path class="st177" d="M40,43c-0.1,1.9-1.1,2.9-3,3C37.7,44.7,38,43,40,43z"/>
		<path class="st193" d="M35,50c1.5,0.2,2.8-0.3,4-1c0.7,0,1.3,0,2,0c-1.1,4.2-4.9,4.1-8,5l0,0c-4.2-0.9-8.9,0.1-12-4
			C25.7,51.4,30.3,53.4,35,50z"/>
		<path class="st199" d="M42,59c-0.7,0.7-1.3,1.3-2,2c-1.7-1.4-3.3-0.1-5,0c0-0.3,0-0.7,0-1C37.2,58.6,39.6,59.1,42,59z"/>
		<path class="st200" d="M31,64c0.4-0.8,1.2-1,2-1c1,0.2,2.2-0.5,3.2,0.6C34.4,64.4,32.7,63.8,31,64z"/>
		<path class="st176" d="M33,54c2.7-1.6,6.3-1.8,8-5c0.4-1,1-1.6,2-2c0.3,0.3,0.7,0.7,1,1C41.3,51.8,38,54.5,33,54z"/>
		<path class="st192" d="M44,46c0.1-2,1.4-3.1,3-4C47.1,44.2,46.6,45.9,44,46z"/>
		<path class="st201" d="M24,39c-3.6-2.9-2.3-6.2-0.2-9c1.6-2.2,3.1-6.1,7.2-3c-0.5,1.5-1.7,2.3-2.9,3.2c-1.7,1.3-3.2,2.9-1.3,4.9
			c1.2,1.2,3.2,3,4.7,1.6c1.7-1.5,3.4-3.9,1.3-6.5c-0.8-1-2.3-1.5-1.7-3.2c2.8,0.5,6.4,0.2,6.6,4.3c0.2,4.3-2.5,8.1-6.3,9
			c-1.1,0.3-2.2,0.4-3.4,0.7C26.5,40.6,25.1,40.1,24,39z"/>
		<path class="st202" d="M24,39c1.6,0.2,3.7-0.7,4,2c1.2,3.2-0.9,3.1-3,3l0,0C24.9,42.3,23.7,40.8,24,39z"/>
		<path class="st203" d="M31,27c5.1,4.6,4.7,4.4,1.8,10.2c-1.6,3.3-3,1.2-4,0.6c-1.7-1-4.8-0.9-4.5-3.8c0.3-2.4,1-4.9,4.3-5.3
			C29.4,28.5,30.2,27.6,31,27L31,27z"/>
		<path class="st204" d="M33.4,32.6c-0.2,0.7-0.7,1.1-1.4,1c-0.8-0.1-1-0.8-0.8-1.5c0.1-0.4,0.7-0.8,1-0.8
			C32.9,31.4,33.4,31.9,33.4,32.6z"/>
	</g>
</g>
</svg>
