<?xml version="1.0" encoding="utf-8"?>
<!-- Generator: Adobe Illustrator 23.0.5, SVG Export Plug-In . SVG Version: 6.00 Build 0)  -->
<svg version="1.1" id="Слой_1" xmlns="http://www.w3.org/2000/svg" xmlns:xlink="http://www.w3.org/1999/xlink" x="0px" y="0px"
	 width="97px" height="97px" viewBox="0 0 97 97" style="enable-background:new 0 0 97 97;" xml:space="preserve">
<style type="text/css">
	.st0{fill:#FDFDFD;}
	.st1{fill:#FCFDFD;}
	.st2{fill:#FDFEFE;}
	.st3{fill:#FBFCFC;}
	.st4{fill:#C8C8C8;}
	.st5{fill:#78888C;}
	.st6{fill:#96B2B9;}
	.st7{fill:#E9EAEB;}
	.st8{fill:#87959C;}
	.st9{fill:#90A2AA;}
	.st10{fill:#839195;}
	.st11{fill:#A8A9AA;}
	.st12{fill:#99A4AA;}
	.st13{fill:#445C64;}
	.st14{fill:#617881;}
	.st15{fill:#70979C;}
	.st16{fill:#304850;}
	.st17{fill:#70878F;}
	.st18{fill:#7C9AA4;}
	.st19{fill:#3E6064;}
	.st20{fill:#4D5E66;}
	.st21{fill:#57676E;}
	.st22{fill:#3C4A54;}
	.st23{fill:#2E3940;}
	.st24{fill:#304049;}
	.st25{fill:#384650;}
	.st26{fill:#474F58;}
	.st27{fill:#293641;}
	.st28{fill:#47525A;}
	.st29{fill:#37444E;}
	.st30{fill:#90B2BA;}
	.st31{fill:#8FACB4;}
	.st32{fill:#94B3BD;}
	.st33{fill:#90B5BC;}
	.st34{fill:#8AB0B7;}
	.st35{fill:#B5C3C9;}
	.st36{fill:#88A0A7;}
	.st37{fill:#84AEB5;}
	.st38{fill:#86A8B0;}
	.st39{fill:#A4B9C0;}
	.st40{fill:#78949B;}
	.st41{fill:#9CB4BC;}
	.st42{fill:#91B2BB;}
	.st43{fill:#638587;}
	.st44{fill:#577376;}
	.st45{fill:#2F3A42;}
	.st46{fill:#4F5F65;}
	.st47{fill:#40575E;}
	.st48{fill:#3A4953;}
	.st49{fill:#2C3D45;}
	.st50{fill:#83A8AF;}
	.st51{fill:#6F8C95;}
	.st52{fill:#86A9B0;}
	.st53{fill:#516972;}
	.st54{fill:#435F6C;}
	.st55{fill:#2F4D56;}
	.st56{fill:#37515B;}
	.st57{fill:#4C626F;}
	.st58{fill:#375058;}
	.st59{fill:#5C7985;}
	.st60{fill:#6D8A93;}
	.st61{fill:#7B9BA3;}
	.st62{fill:#73929C;}
	.st63{fill:#2D424B;}
	.st64{fill:#2F454E;}
	.st65{fill:#2D474F;}
	.st66{fill:#6E8F9A;}
	.st67{fill:#293A42;}
	.st68{fill:#233037;}
	.st69{fill:#33414A;}
	.st70{fill:#15242D;}
	.st71{fill:#1D2932;}
	.st72{fill:#23343D;}
	.st73{fill:#223136;}
	.st74{fill:#293740;}
	.st75{fill:#242D38;}
	.st76{fill:#2D363E;}
	.st77{fill:#27353E;}
	.st78{fill:#1D2D35;}
	.st79{fill:#96B7C0;}
	.st80{fill:#88AAB2;}
	.st81{fill:#8CAEB6;}
	.st82{fill:#89ABB9;}
	.st83{fill:#7CA0A8;}
	.st84{fill:#7A9CA3;}
	.st85{fill:#96BEC9;}
	.st86{fill:#A2C3CC;}
	.st87{fill:#91B3BC;}
	.st88{fill:#83A4A8;}
	.st89{fill:#A0C1CA;}
	.st90{fill:#93B9BF;}
	.st91{fill:#80A1A7;}
	.st92{fill:#90B3BC;}
	.st93{fill:#849FA9;}
	.st94{fill:#5A777C;}
	.st95{fill:#6F8A93;}
	.st96{fill:#6A8F94;}
	.st97{fill:#50666D;}
	.st98{fill:#496567;}
	.st99{fill:#2A3D41;}
	.st100{fill:#35474D;}
	.st101{fill:#42535D;}
	.st102{fill:#2F494D;}
	.st103{fill:#203541;}
	.st104{fill:#283F4C;}
	.st105{fill:#7497A0;}
	.st106{fill:#516D7A;}
	.st107{fill:#3B5260;}
	.st108{fill:#3D5767;}
	.st109{fill:#364D57;}
	.st110{fill:#617C88;}
	.st111{fill:#637F8D;}
	.st112{fill:#617E86;}
	.st113{fill:#7C9EA7;}
	.st114{fill:#85A7AE;}
	.st115{fill:#6C8D99;}
	.st116{fill:#7C949F;}
	.st117{fill:#728F9B;}
	.st118{fill:#90B0B9;}
	.st119{fill:#94B2BB;}
	.st120{fill:#172731;}
	.st121{fill:#1D2C33;}
	.st122{fill:#1B2D35;}
	.st123{fill:#26333C;}
	.st124{fill:#192A32;}
	.st125{fill:#192933;}
	.st126{fill:#18252E;}
	.st127{fill:#1A2A35;}
	.st128{fill:#15272D;}
	.st129{fill:#97B8C1;}
	.st130{fill:#99B8C4;}
	.st131{fill:#8DABB6;}
	.st132{fill:#93B2BE;}
	.st133{fill:#8FB3BC;}
	.st134{fill:#7C99A1;}
	.st135{fill:#84A2A9;}
	.st136{fill:#A4C5D0;}
	.st137{fill:#AACBD3;}
	.st138{fill:#A2C5CE;}
	.st139{fill:#A9CBD5;}
	.st140{fill:#A6C7D0;}
	.st141{fill:#A8C9D1;}
	.st142{fill:#A1B8C5;}
	.st143{fill:#A3C4CD;}
	.st144{fill:#637B83;}
	.st145{fill:#576F79;}
	.st146{fill:#708993;}
	.st147{fill:#739098;}
	.st148{fill:#556D75;}
	.st149{fill:#506974;}
	.st150{fill:#4A626C;}
	.st151{fill:#425F64;}
	.st152{fill:#2A4049;}
	.st153{fill:#3A4F59;}
	.st154{fill:#33474F;}
	.st155{fill:#26404D;}
	.st156{fill:#243742;}
	.st157{fill:#385361;}
	.st158{fill:#2F4759;}
	.st159{fill:#4F6F81;}
	.st160{fill:#698695;}
	.st161{fill:#7594A0;}
	.st162{fill:#8397A5;}
	.st163{fill:#4A6978;}
	.st164{fill:#8DADB8;}
	.st165{fill:#87A7B3;}
	.st166{fill:#8DAEB8;}
	.st167{fill:#1F313D;}
	.st168{fill:#A2C3CB;}
	.st169{fill:#9AB9C5;}
	.st170{fill:#96B7BF;}
	.st171{fill:#9FBCC8;}
	.st172{fill:#94B1BA;}
	.st173{fill:#89A6AF;}
	.st174{fill:#90AFB6;}
	.st175{fill:#809FA9;}
	.st176{fill:#73909C;}
	.st177{fill:#B0D1D9;}
	.st178{fill:#AECED6;}
	.st179{fill:#A6C5D0;}
	.st180{fill:#ADCED6;}
	.st181{fill:#ABCED7;}
	.st182{fill:#A7C7D1;}
	.st183{fill:#ABCCD4;}
	.st184{fill:#B7CDD9;}
	.st185{fill:#B1D2DA;}
	.st186{fill:#85A8B3;}
	.st187{fill:#7D95A5;}
	.st188{fill:#627C88;}
	.st189{fill:#5A7582;}
	.st190{fill:#5D7781;}
	.st191{fill:#405A65;}
	.st192{fill:#4A6673;}
	.st193{fill:#4A626F;}
	.st194{fill:#304450;}
	.st195{fill:#375460;}
	.st196{fill:#2D4753;}
	.st197{fill:#314C58;}
	.st198{fill:#567684;}
	.st199{fill:#6F909C;}
	.st200{fill:#567584;}
	.st201{fill:#96BBC5;}
	.st202{fill:#90B1B9;}
	.st203{fill:#91B1BC;}
	.st204{fill:#88A9B5;}
	.st205{fill:#B8D9E1;}
	.st206{fill:#BBD8E0;}
	.st207{fill:#B6D3DA;}
	.st208{fill:#C6E3EB;}
	.st209{fill:#B6D4DC;}
	.st210{fill:#BCD5DC;}
	.st211{fill:#BEDCE3;}
	.st212{fill:#C2DDE4;}
	.st213{fill:#BCDDE6;}
	.st214{fill:#BFDFE7;}
	.st215{fill:#C0DCE3;}
	.st216{fill:#BCD8DF;}
	.st217{fill:#BFDBE4;}
	.st218{fill:#C7E3EA;}
	.st219{fill:#D0EBF2;}
	.st220{fill:#C7DCE4;}
	.st221{fill:#CAE6ED;}
	.st222{fill:#C9E4EB;}
	.st223{fill:#C2E1E8;}
	.st224{fill:#C3DFE6;}
	.st225{fill:#BDDAE1;}
	.st226{fill:#CBE6ED;}
	.st227{fill:#CDE8EF;}
	.st228{fill:#D1ECF3;}
	.st229{fill:#C6E2EA;}
	.st230{fill:#D3EEF5;}
</style>
<g>
	<g>
		<path class="st0" d="M95.2,37.7c-0.8-2.8-2.3-5.6-3.8-8.3c0.7,1.9,1.4,3.9,1.9,5.8c0.7,2,1.4,3.9,1.6,6c0.3,1.6,0.7,3.3,1.7,4.7
			C96.4,43.1,95.9,40.3,95.2,37.7z"/>
		<path class="st0" d="M56,2.6c-0.1,0-0.3,0-0.4,0c0.1,0.3,0.2,0.6,0.4,0.8c1.3,0.8,2.8,0.8,4.2,1.3c0.4,0.1,0.8,0.1,1.2,0.2
			c0.4,0.1,0.8,0.2,1.2,0.2c0.6,0.1,1.1,0.3,1.7,0.4c0.2,0.1,0.5,0.1,0.7,0.1C62.1,4.4,59.1,3.3,56,2.6z"/>
		<path class="st0" d="M87.4,17.3c0-0.9,0.2-1.7,0.6-2.3c-2.6-1.7-5.1-3.6-7.8-5.1c-1,0.7-2.4,1-4,0.4c-2.8-1-5.5-2.2-8.2-3.4
			c0.1,0.1,0.2,0.2,0.3,0.2c0.4,0.2,0.7,0.4,1.1,0.6c0.4,0.1,0.8,0.3,1.2,0.4c1.5,0.5,2.3,1.8,3.5,2.6c4.6,2.6,8.3,6.3,11.8,10.3
			c0.4,0.8,0.8,1.6,1.2,2.4c0.2,0.3,0.5,0.7,0.8,1c0.7,0.5,1.3,1.1,1.8,1.8C88.4,23.4,87.3,20.5,87.4,17.3z"/>
		<path class="st1" d="M68,94.3c2.9-1.5,5.7-4.3,8.4-6.2c3.3-2.4,6-4.6,8.6-7.8c2.4-3,4.9-5.9,6.6-9.3c1.6-3.3,2.9-6.7,4.3-10.2
			c0-0.4,0-0.7,0.1-1.1c0.3-1.8,0.5-3.7,0.7-5.7c-1.7,2.5-1.8,5.5-2.7,8.3c-0.5,2.5-1.3,4.9-2.5,7.2c-1.2,2.9-3.1,5.5-4.9,8
			c-1.1,1.9-2.4,3.5-4.4,4.6c-0.6,0.3-1.2,0.6-1.7,1c-1.1,0.7-2.1,1.6-3.1,2.5c-1.3,1.3-2.9,2.2-4.2,3.5c-1.1,1.6-2.9,2.1-4.5,2.9
			c-5.5,2.8-11.8,2.7-17.5,4.7c-0.1,0.1-0.2,0.3-0.3,0.4c4,0.2,8.2,0.1,11.7-0.8c1.4-0.4,2.9-0.8,4.3-1.2
			C67.1,94.8,67.5,94.6,68,94.3z"/>
		<path class="st1" d="M92.1,87.4c-1.9,2.4-4,4.3-6.2,6.1c0,0.1,0.1,0.2,0.1,0.2c0.1-0.1,0.3-0.2,0.4-0.2c1.5-0.6,2.8-1.2,4.1-2
			c1.3-0.8,2.5-0.9,3.6-0.6c0.4-1.7,0.3-4.3,0.5-5.6c0.1-0.5,0.2-1,0.3-1.5C94.1,85,93.1,86.2,92.1,87.4z"/>
		<path class="st2" d="M35.7,3.9C31.8,6,27.8,7.7,23.9,9.7c-2.7,1.4-4.9,2.8-7,5c-0.6,0.6-1.2,1.1-1.8,1.5c-1.8,2.4-3.3,4.8-4.9,7.5
			c-1.7,2.7-3.4,5.1-4.8,8c-0.7,1.4-1.5,2.9-2.3,4.3c-0.1,1.7-0.5,3.3-0.9,5c0,0,0.1,0,0.1,0c0.3-0.4,0.5-0.8,0.7-1.2
			c0.4-1.5,0.8-3,1.4-4.5c1.4-3.1,2.1-6.6,4.8-9c1-1.2,0.9-3,2.2-4.1c0.6-0.6,1.3-1.1,1.9-1.7c0.5-0.4,0.9-0.9,1.3-1.4
			c0.2-0.4,0.5-0.7,0.7-1.1c0.8-1.2,1.6-2.5,2.6-3.6c1.2-1.3,2.8-2,4.4-2.6c1.2-0.5,2.2-1.3,3.1-2.3c0.7-0.8,1.5-1.4,2.5-1.6
			c0.4-0.1,0.7-0.2,1.1-0.4c0.5-0.3,1-0.6,1.5-0.9c0.9-0.5,1.9-0.7,2.8-0.9c1-0.2,1.9-0.7,2.8-1.1c0.5-0.2,1.1-0.5,1.7-0.7
			c0.1,0,0.2,0,0.2-0.1C37.2,3.9,36.5,3.9,35.7,3.9z"/>
		<path class="st3" d="M4.5,87.2C4.4,87.1,4.4,87,4.3,87c0.1,2.1,0.2,4.1,0.5,6.2c1.3-0.1,2.6-0.2,3.9-0.3
			C7.1,91.2,5.6,89.2,4.5,87.2z"/>
		<path class="st3" d="M10.4,77.9c0.4,0.3,0.7,0.7,1,1.1c0.9,0.5,1.7,1.4,2.2,2.4c0.7,0.5,1.2,1.2,1.6,1.9c0.9,0.9,1.8,1.8,2.5,2.7
			c3.3,1.2,6,3.5,9.3,5.2c4.7,2.5,9.6,4.4,14.8,5.2c-1.8-1.6-4.2-1.6-6.4-2.4c-2.8-0.5-5.2-1.6-7.7-2.8c-2.1-0.9-3.7-2.4-5.5-3.8
			c-3.4-1.5-6-4.1-8.5-6.8c-1.4-1.3-2.4-2.6-3.3-4.2c-2.7-4-4.7-8.2-5.4-13c-1.3-1.7-1.4-3.9-2.8-5.5c-0.1-0.1-0.2-0.1-0.4-0.2
			C2.3,59,2.8,60.3,3,61.6c0.1,0.6,0.1,1.1,0,1.6C4.3,66.1,5.4,69,6.6,72c0.8,2.2,2.2,3.2,3.4,5C10.2,77.3,10.3,77.6,10.4,77.9z"/>
		<path class="st4" d="M96.6,53.6c0.2-2.5,0.2-5,0-7.5c-0.5,0.2-0.9,0.6-1.2,1.2c-0.3,0.7-0.4,1.4-0.3,2.2
			C95.5,50.8,95.5,52.4,96.6,53.6z"/>
		<path class="st5" d="M37.6,3.8c0,0.1,0.1,0.3,0.2,0.5c0.9,0.7,1.9,0.8,3,0.7c1-0.2,2-0.6,2.8-1.3c0,0,0.1-0.1,0.1-0.1
			C41.7,3.7,39.6,3.8,37.6,3.8z"/>
		<path class="st6" d="M43.3,3.6c1.3,2.4,3.2,0.7,5,0.3c0.3-0.2,0.5-0.4,0.7-0.7C47.1,3.4,45.2,3.5,43.3,3.6z"/>
		<path class="st7" d="M44.1,96.6c2.1,0.2,4.5,0.4,6.9,0.5v-0.1c-2.7-1.9-5.3-2.1-8-0.6C43.4,96.5,43.7,96.6,44.1,96.6z"/>
		<path class="st8" d="M1,54c0-1.3,0-2.7,0-4c1-0.8-0.1-2.5,1.2-3.2c1.6,0.3,1.7,1.6,1.7,2.9c-0.1,1.3-0.5,2.4-1.1,3.6
			C2.4,53.8,1.9,54.3,1,54z"/>
		<path class="st9" d="M2.5,41.1c-0.1,0-0.2-0.1-0.3-0.1c-0.3,1.2-0.6,2.3-0.8,3.5c0.2,0.7,0.2,1.6,1.2,1.7
			C4.7,44.5,4.3,42.8,2.5,41.1z"/>
		<path class="st10" d="M1,54v0.7c0.2,1.2,0.6,2.2,0.9,3.3H2c1.6-1.7,3.3-3.3,0-5L1,54z"/>
		<path class="st11" d="M51.5,3c0.1,0.1,0.1,0.1,0.2,0.2c0.3,0.2,0.6,0.3,1,0.4c0.4,0,0.7,0,1.1-0.1c0.5-0.1,1-0.4,1.4-0.7l0.1-0.1
			C54.1,2.8,52.8,2.9,51.5,3z"/>
		<path class="st12" d="M1,47.4V50c1.1-0.7,0.9-1.9,1-3c0.1,0,0.2-0.1,0.3-0.4c0.1-0.2,0-0.4-0.3-0.6c0-0.6-0.1-1.2-0.6-1.7
			c-0.1,0.6-0.2,1.2-0.3,1.8C1.1,46.6,1,47,1,47.4z"/>
		<path class="st13" d="M89.5,25.7c-0.4-0.7-0.7-1.3-1.2-1.8c0-0.3-0.1-0.6-0.2-0.9c-2,0-2,1.8-2.8,3c-0.9,1.9-1.3,3.8-1.1,5.8
			c0.7,2.6-0.4,5.2-0.1,7.8c0,0.8,0.2,1.5,0.6,2.1c0.3,0.4,0.7,0.6,1.2,0.6c0.5-0.2,0.8-0.6,1-1c0.6-3,0.8-6.1,3-8.6
			c1.7,0,1,2,2.1,2.6c0.4,0.2,0.8,0.3,1.3,0.3c0.3-0.1,0.7-0.2,0.9-0.5C92.9,31.9,91,28.9,89.5,25.7z"/>
		<path class="st14" d="M74.1,9.5c5.3,2.7,9.5,6.6,12.8,11.5c-0.5,0.6-1.2,0.7-1.9,0.7c-1.4-0.3-2.3-1.4-3.3-2.3
			c-1.2-1.9-2.9-3.2-5-3.9c-0.6-0.4-1.2-0.8-1.7-1.3C74,12.8,72.5,11.5,74.1,9.5z"/>
		<path class="st15" d="M69.5,7.5c-1.6-0.7-3.2-1.4-4.8-2.1c-0.5,0.3-1.2,0.3-1.5,0.9c-0.3,4.7,3.4,6.1,6.6,8c1-0.4,1.5-1.1,1.6-2.1
			c-0.2-1.5-0.9-2.9-1.5-4.3C69.8,7.8,69.6,7.7,69.5,7.5z"/>
		<path class="st16" d="M96.6,46.5c-0.1-1.6-0.3-3.1-0.6-4.7c-0.1-0.2-0.1-0.5-0.2-0.7c-0.4-0.8-0.9-1.4-1.8-1.5
			c-1,0.1-2.1-0.1-3.2,0.1c-2.8,1.1-5.3,2.4-4.2,6.2c1.7,1.1,2.9-0.6,4.4-0.8c1.2-0.4,2.3-0.7,3,0.8c0.5,0.7,0.8,1.6,2,1.1
			C96.3,46.8,96.5,46.6,96.6,46.5z"/>
		<path class="st17" d="M74.1,9.5C74.1,9.5,74.1,9.5,74.1,9.5c-1.6-0.7-3.1-1.3-4.6-2C69.3,7.7,69.2,7.8,69,8c0.1,1.6,0.7,3,2,4
			c0.5,1.2,1.2,2.3,2.2,3.1c0.6,0.6,1.3,1.1,2.2,1.2c0.4,0,0.8-0.2,1-0.6c0.1-0.6,0.1-1.2-0.4-1.7C75.3,12.5,73.7,11.4,74.1,9.5z"/>
		<path class="st18" d="M60.9,4L60.9,4c-1.2-0.4-2.4-0.8-3.7-1.1c-0.3,0-0.7,0-1,0c-0.1-0.1-0.3-0.2-0.5-0.3
			c-0.5,0.1-0.9,0.1-1.4,0.2C54.2,2.8,54.1,2.9,54,3h-1c-0.9,4,3.2,3.5,4.6,5.2c0.8,0.3,1.5,0.4,2.2,0.1c1.1-0.8,1.6-1.8,1.7-3.1
			C61.5,4.8,61.3,4.3,60.9,4z"/>
		<path class="st19" d="M85,21c0.6,0,1.2,0,1.9,0c0.3,0.7,1.4,1,1,2c-0.6,1-1.2,2-1.9,3C82.6,25,83.2,23.1,85,21z"/>
		<path class="st20" d="M95.2,37.7c-0.3-0.9-0.6-1.8-1-2.7c-0.5,0-0.8,0.1-1.3,0.1c-0.3,0.3-0.6,0.7-0.7,1.2
			c-0.1,1.6,0.4,2.8,1.8,3.7c0.6,0.3,1.2,0.7,1.8,1c0-0.3,0-0.6,0-0.8C95.6,39.3,95.4,38.5,95.2,37.7z"/>
		<path class="st21" d="M88.8,24c-0.2,0-0.4-0.1-0.7-0.1c0.5,1.7,0.1,4.3,2.7,4.3C90,26.8,89.3,25.4,88.8,24z"/>
		<path class="st22" d="M71,92.4c1.1-0.8,2.1-1.7,3.1-2.5c0.1-0.2,0.1-0.5,0.1-0.8c-2.1-1.7-4.2-0.3-6.2,0.1c-4.7,3-10,4.1-15.3,4.9
			c-3.4,0.8-6.9,0.8-10.4,0.1c-1.7-0.5-3.4-0.5-5.1-0.9c-0.8-0.1-1.5,0-2.2,0.4c-0.3,0.3-0.4,0.6-0.3,0.9c3,1,6.1,1.7,9.3,2
			c1.9,0.2,3.9,0.3,6,0.5H51c6.4-0.4,12.8-1.6,18.7-4.3C70.1,92.6,70.6,92.5,71,92.4z"/>
		<path class="st23" d="M68.1,90c2-0.3,4.1-0.6,6.2-0.9c0.4,0,0.8-0.1,1.2-0.3c0.3-0.2,0.6-0.5,0.9-0.7c0.3-0.2,0.6-0.4,0.9-0.6
			c0.3-0.4,0.7-0.9,0.9-1.4c-0.7-1.3-1.9-1.9-3.2-2.4c-0.4-0.1-0.9,0-1.3,0.1c-2.5,1.5-5.3,2.6-6.9,5.3C66.9,89.8,67.1,90.4,68.1,90
			z"/>
		<path class="st24" d="M96.7,50.7c-0.2-0.6-0.4-1.2-0.9-1.7c-0.8-0.1-1.3,0.4-1.7,1c-0.4,1.2-0.4,2.3-0.4,3.5
			c0,1.1-0.1,2.2-0.5,3.2c-0.4,1.1-0.9,2.1-1.1,3.2C92,60.4,92,60.8,92,61.3c0.1,0.7,0.4,1.4,0.9,1.9c0.7,0.3,1.3,0.3,1.9-0.3
			c0.5-1.9,1-3.9,1.5-5.9C96.6,54.9,96.7,52.8,96.7,50.7z"/>
		<path class="st25" d="M86,78.5c0.2,0,0.4,0,0.5-0.1c1.9-2.4,3.7-4.7,5.1-7.5c0.2-0.4,0.4-0.9,0.6-1.3c-0.3-0.5-0.7-0.8-1.2-1.1
			c-1-0.1-1.8,0.4-2.4,1.2c-0.8,1.6-1.6,3.3-2.6,4.7C85.6,75.8,83.6,77.1,86,78.5z"/>
		<path class="st26" d="M92.1,69.8c0.9-2,1.8-4,2.6-6.1c0-0.3,0.1-0.6,0.1-0.8H93c-1.3,0.7-2,2-2.6,3.3c-0.2,1-0.2,1.9,0.6,2.7
			C91.4,69.2,91.7,69.5,92.1,69.8z"/>
		<path class="st27" d="M78.1,86c-1.5,0-2.5-0.7-3.1-2.1c0.1-0.2,0.2-0.4,0.2-0.7c0.9-1.2,2.2-1.8,3.7-1.7c1.1,0.4,2.4,0.6,2.1,2.3
			C80,84.6,79.1,85.3,78.1,86z"/>
		<path class="st28" d="M82.8,82.8c0.8-0.8,1.5-1.6,2.3-2.5c0.6-0.7,1.2-1.5,1.8-2.2C86.5,78,86.3,78,86,78
			c-1.5,0.5-3.2,0.8-3.9,2.5c-0.4,0.8-0.8,1.7-0.1,2.6C82.3,83,82.5,82.9,82.8,82.8z"/>
		<path class="st29" d="M83,80.9c-0.3,0.7-0.6,1.5-0.9,2.2C82,83.7,81.7,84,81,83.8c-0.7-0.6-1.3-1.2-2-1.9c0-1.3,0.5-2.2,1.9-2.5
			C81.9,79.5,82.6,80,83,80.9z"/>
		<path class="st30" d="M56.5,8.2c-0.5-1-1.2-1.7-2.3-2c-2.4-0.4-4.7-1.2-7-1.8C45.1,4.3,43,5,41,4.1C40,4,39,4,38,3.9
			c0,0,0,0-0.1-0.1c-0.6,0-1.2,0-1.9,0.1C36,3.9,35.9,4,35.9,4c-0.1,0-0.2,0-0.3,0c-0.9,0.5-1.7,0.9-2.6,1.3
			c-0.4,1.5,0.3,2.5,1.5,3.3c2.5,1.2,4.9,0,7.3-0.3c5-0.7,9.2,2.3,14,2.1C56.5,9.8,56.7,9.1,56.5,8.2z"/>
		<path class="st31" d="M9,25.8c-0.1,0-0.2,0.1-0.3,0.1c-1.2,1.9-2.4,3.7-3.4,5.8c-0.6,1.2-1.2,2.5-1.9,3.7c0.2,0.5,0.5,0.8,1.2,0.8
			c1.6-0.7,1.6-2.4,2.4-3.6c0.5-1,1.3-1.8,1.9-2.6c0.8-1.1,1.3-2.4,0.6-3.8L9,25.8z"/>
		<path class="st32" d="M17.8,13.8c-0.3,0.3-0.6,0.6-0.9,0.9c-0.6,0.6-1.2,1.1-1.8,1.5c-0.2,0.2-0.4,0.5-0.6,0.7
			c-0.2,0.3-0.3,0.7-0.4,1.1c0.3,0.6,0.5,1.2,0.9,1.7c0.7,0.5,1.4,0.9,2.3,0.5c0.6-0.3,1-0.8,1.3-1.4c0.4-1.3,0.9-2.5,0.6-3.9
			C18.8,14.3,18.4,13.9,17.8,13.8z"/>
		<path class="st33" d="M28.5,7.5C27.3,8,26.1,8.6,25,9.2c0.2,1.2-0.7,2.3-0.3,3.5c3.2,1.3,3.8-0.8,4.3-3.1c0-0.5-0.1-1-0.2-1.5
			C28.7,7.9,28.6,7.7,28.5,7.5z"/>
		<path class="st34" d="M29.7,6.9C29.7,6.9,29.7,6.9,29.7,6.9c0.1,0.6,0.3,1.2,0.7,1.8c0.2,0.4,0.6,0.6,1,0.8c1,0.2,1.8-0.1,2.4-0.9
			c0-0.2,0.1-0.4,0.2-0.6c-0.3-0.9-0.7-1.8-0.9-2.7C31.9,5.8,30.8,6.3,29.7,6.9z"/>
		<path class="st35" d="M21.4,11.1c-1.4,0.9-2.7,1.9-4,3c0.5,0.3,1.1,0.6,1.6,0.8c2,0.4,2.7-1.2,3.5-2.6c0-0.5-0.1-0.9-0.4-1.3
			C21.9,11.1,21.6,11.1,21.4,11.1z"/>
		<path class="st36" d="M4.1,36.1c-0.2-0.3-0.4-0.5-0.6-0.8c-0.1,0.2-0.3,0.5-0.4,0.7c-0.1,1.4-0.4,2.8-0.7,4.2
			c0.8,0.6,1.7,0.6,2.6,0.1C6,38.6,5.3,37.3,4.1,36.1z"/>
		<path class="st37" d="M25.1,9.1c-0.4,0.2-0.8,0.4-1.2,0.6c0,0-0.1,0-0.1,0c-0.6,0.5-1.2,1-1.8,1.4V12c1,0.9,2,0.8,2.9,0.1
			C25.9,11,27.2,10,25.1,9.1z"/>
		<path class="st38" d="M12.9,19.9c-0.2,0.1-0.4,0.3-0.7,0.4c-0.6,1-1.2,2-1.9,3c0,0.2,0.1,0.4,0.2,0.7c2.6,1.3,3.2-0.4,3.7-2.4
			c0-0.6-0.3-1-0.7-1.4C13.4,20.1,13.1,20,12.9,19.9z"/>
		<path class="st39" d="M11,22.3c-0.3,0.5-0.6,0.9-0.9,1.4c-0.4,0.6-0.8,1.2-1.1,1.8c0,0.1,0,0.3,0,0.4l0.1,0.3
			c0.3,0.2,0.8,0.3,1.2,0.1c0.6-0.7,1.3-1.3,0.7-2.3V22.3z"/>
		<path class="st40" d="M5,40H2.4c-0.1,0.3-0.2,0.7-0.2,1l0,0c1.8-0.1,0.3,4.2,3.3,2.6C6.1,42.3,6.1,41.1,5,40z"/>
		<path class="st41" d="M13,19.9c0.3-0.3,0.6-0.7,0.9-1c0.2,0.1,0.3,0.2,0.5,0.3c0,0.4,0,0.7-0.3,1C13.7,20.3,13.4,20.3,13,19.9
			C13,20.1,13,19.9,13,19.9z"/>
		<path class="st42" d="M14.1,18c0.3,0.3,0.6,0.6,0.9,1c-0.1,0.1-0.3,0.2-0.4,0.4c-0.2-0.1-0.3-0.2-0.5-0.2L13.8,19
			C14,18.6,14,18.3,14.1,18z"/>
		<path class="st43" d="M10.4,62.7c-1.4-4-2.7-8.1-4.9-11.8C4.8,50.2,4.1,49.5,3,50c-0.3,1-0.7,2-1,3c2.1,1.7-0.2,3.3,0,5
			c0,0.1,0,0.2,0,0.3c0.4,1.1,0.8,2.2,1,3.4c0.1,0.3,0.1,0.7,0.1,1c0.2,0.4,0.5,0.9,0.9,1.3c0.5-0.5,0.9-1.2,1-1.9
			c0.3-1.1-0.3-2.1-0.2-2.9c0.5,1.2,0.8,2.6,1.3,3.9c0.3,0.7,0.7,1.3,1.3,1.7c0.9,0.4,1.7,0.8,2.7,0.1
			C10.5,64.1,10.6,63.4,10.4,62.7z"/>
		<path class="st44" d="M6.6,72c0.8,2.2,2.2,3.2,3.4,5c0,0.1,0.1,0.1,0.1,0.2c1-0.6,1.2-1.6,1.3-2.8c-0.4-1.9-1.6-3.2-2.7-4.7
			c-0.1-0.5-1.5-0.9-0.1-1.4C9,68.2,9.3,68,9.4,67.6C9.8,66,8.5,65.1,7.9,64c-0.3-0.3-0.7-0.7-1-1c-0.7-1-1.4-2.2-2.9-1v1.8
			c0.1,0.9,0.2,1.8,0.4,2.6C5.1,68.3,5.9,70.1,6.6,72z"/>
		<path class="st45" d="M27,91.2c0.7,0.4,1.3,0.7,2,1c0,0,0,0,0.1,0c0.2-3-2.6-4.1-3.8-6.2c-1.2-0.9-2.4-1.1-3.6,0
			c-0.3,0.6-0.3,1.2-0.1,1.9C23.4,88.9,25.1,90.1,27,91.2z"/>
		<path class="st46" d="M10,77.1c0.2,0.3,0.3,0.5,0.5,0.8c0.4,0.3,0.7,0.7,1,1.1c0.7,0.4,1.4,1,1.8,1.8c0.1-0.1,0.1-0.1,0.2-0.2
			c0.2-1.5,1.7-2.5,1.9-4c-0.8-2.1-2.1-3.1-4.4-2.5C10.6,75,10.3,76,10,77.1C10,77,10,77.1,10,77.1z"/>
		<path class="st47" d="M15.3,83.2c0.9,0.9,1.8,1.8,2.5,2.7c1.5,0.5,2.8,1.3,4.2,2.1c0-0.7,0.1-1.3,0.1-2c-0.2-0.7-0.6-1.2-1.2-1.5
			c-1.9-0.6-3.1-2.1-4.4-3.5c-1-0.8-2-1.1-3.1-0.2c0.1,0.2,0.2,0.4,0.3,0.6C14.3,81.8,14.9,82.5,15.3,83.2z"/>
		<path class="st48" d="M35,94.7V94c-0.5-1.6-1.9-2.2-3.3-2.7c-1-0.2-1.9-0.1-2.7,0.7h-0.4C30.7,93,32.8,94,35,94.7z"/>
		<path class="st49" d="M95.8,49c-0.3,0.3-0.6,0.7-0.8,1c-1.2,1-1.6,2.5-2.4,3.7c-0.6,0.8-1.4,1.2-2.2,1.5c-2,0.1-3.2,2.9-5.6,1.7
			c-0.7-1.5-0.1-2.8,0.5-4.2c2.7-3.3,5.5-6.5,9.8-7.7c0,0.9,0.3,1.6,1.1,2C96,47.7,95.9,48.4,95.8,49z"/>
		<path class="st50" d="M46.3,3.4c-0.9,0.3-1.7,0.6-2.6,0.2c-0.7,0-1.3,0.1-2,0.1c-0.2,0.1-0.5,0.3-0.8,0.4c1.5,3.6,4.1-0.4,6,0.9
			c1.8,0.4,4.1,1.8,4.3-1.8c0,0-0.1-0.1-0.1-0.1C49.6,3.2,48,3.3,46.3,3.4z"/>
		<path class="st51" d="M5,51c-0.7-0.3-1.3-0.7-2-1c-0.1-1.1,0.2-2.3-1-3c0-0.3,0-0.6,0-1c1.8-1.6,0.7-3.3,0.2-5
			c2.1-0.1,1.5,2.3,2.8,3c0.6,0.5,0.9,1.1,1.1,1.9c0.1,1.7,0.6,3.3,0.2,5C5.8,51.3,5.4,51.3,5,51z"/>
		<path class="st52" d="M56,8c-0.7-0.3-1.3-0.7-2-1c-1.8-0.8-3.5-1.6-2-4l0,0c0.3,0,0.7,0,1,0c0.4,2.9,4.5,2.1,5,5
			c-0.1,0.1-0.3,0.3-0.4,0.4C57,8.6,56.4,8.5,56,8z"/>
		<path class="st53" d="M85,21c-0.4,1.8-1.1,3.6,1,5c-0.3,2-1.4,3.9-1,6c-0.3,3-0.9,6-1,9.1c-0.5,3.7-0.8,7.5-5.1,9
			c-0.6-0.7-0.8-1.4-0.8-2.3c0.4-4.1,2.2-7.9,2.7-12c0.5-4.4,1.7-8.7,0.2-13.2c-0.4-1.2-0.1-2.6,1-3.6C83.6,18.8,84,20.4,85,21z"/>
		<path class="st54" d="M79,50c2.1-2.7,3.8-5.5,4-9c0.6-0.5,0.8-1.6,2-1c0,0.7,0,1.3,0,2c1.2,1.5,0.3,2.8-0.2,4.2
			c-1.8,2.6-2,6.2-4.8,8.2c-0.8,0.3-1.5,0.2-2.2-0.3C77,52.4,77.5,51,79,50z"/>
		<path class="st55" d="M93,35c0,0.3,0,0.7,0,1c-1.2,1.1,0.5,2.9-1,4c-2.6,1.3-5.3,2.3-5,6c-0.5,0.3-1,0.2-1.4-0.3
			c-0.5-1.3-0.3-2.6,0.4-3.7l0,0c1.3-2.6,1.3-6.1,4.7-7.3c0.5-0.1,0.9,0,1.3,0.3C92.3,35,92.6,35,93,35z"/>
		<path class="st56" d="M91,35c-1.7,2.3-3.3,4.7-5,7c0-4.2,0.2-8.2,4-11C91.1,32.1,91.3,33.5,91,35z"/>
		<path class="st57" d="M85,40c-0.7,0.3-1.3,0.7-2,1c0.7-3,0.5-6.2,2-9C86.6,34.7,84.3,37.3,85,40z"/>
		<path class="st56" d="M86,42c0,1.3,0,2.7,0,4c0.5,1.1-0.1,1.8-1,2.3c-0.5,0.1-0.9,0-1.3-0.3c-0.2-0.7-0.3-1.4,0.3-2
			c0.3-1.3,0.7-2.7,1-4C85.3,42,85.7,42,86,42z"/>
		<path class="st58" d="M91,35c-0.7-1.2-1.2-2.5-1-4c3.5-0.1,1.3,2.7,2,4C91.7,35,91.3,35,91,35z"/>
		<path class="st59" d="M82,19c2.2,10,0.3,19.6-3,29c-1.4,2.7-2,5.9-4.1,8.2c-0.5,0-1-0.2-1.3-0.6c-1.7-3.1,0.4-5.5,1.6-8.1
			c4.3-7.3,5.7-15.1,3.8-23.5c-0.2-2.3-0.7-4.5-2.5-6.2C76,17.3,75.6,16.7,76,16l0,0c0.3-0.3,0.4-0.9,1-1C79.8,14.9,81.6,16.1,82,19
			z"/>
		<path class="st60" d="M77,15c-0.3,0.3-0.7,0.7-1,1c0-0.7,0-1.3,0-2C76.3,14.3,76.7,14.7,77,15z"/>
		<path class="st61" d="M62,5c0.3,0,0.7,0,1,0c0.3,0.3,0.7,0.7,1,1c-0.5,4.5,3.9,5.4,6,8c1.5,0.2,2.7,1,3.6,2.3
			c0.4,1,0.5,1.9,0.1,2.9c-0.5,1-1.2,1.5-2.4,1.3c-3.6-2.9-5.1-7.8-9.8-9.6c-1-0.7-2.1-1.3-1.6-2.9c0.3-1,0.7-2,1-3
			C61.3,5,61.7,5,62,5z"/>
		<path class="st62" d="M73,16c-1.4,0-2.4-0.7-3-2c0.3-0.7,0.7-1.3,1-2c1.4,0.6,2.3,1.6,3,3C74.3,16,73.9,16.2,73,16z"/>
		<path class="st63" d="M95,45c-3,2.7-6,5.3-9,8c-0.6,0.6-1.2,0.6-1.9,0.3c-0.7-0.9-0.2-1.8,0.2-2.6c1.6-2.8,4.3-4.6,6.7-6.6
			C92.6,43.5,94.4,41.7,95,45z"/>
		<path class="st64" d="M91,44c-1.4,2.8-4.1,4.6-6,7c-0.9-1-0.8-2,0-3c0.3-0.7,0.7-1.3,1-2c0.3,0,0.7,0,1,0
			C88.4,45.4,89.3,43.9,91,44z"/>
		<path class="st65" d="M92,40c0.1-1.4-0.5-2.9,1-4c0.3,1.3,0.7,2.6,1,4C93.4,41,92.7,41,92,40z"/>
		<path class="st66" d="M73,16c0.3-0.3,0.7-0.7,1-1c0.7,0.3,1.3,0.7,2,1c0.3,0.3,0.7,0.7,1,1c1.3,2,2,4.2,2.5,6.5
			c0.4,5,1.9,10-0.7,14.8c-0.5,0.2-1,0.2-1.5,0c-0.7-0.5-0.9-1.2-0.9-2c0.4-3,0.9-6,0-8.9c-0.3-0.4-0.5-0.7-0.7-1.1
			s-0.4-0.8-0.5-1.2c-0.3-1.5-0.7-2.9-1.4-4.3c-0.3-0.6-0.2-1.3-0.7-1.8C73,18,73,17,73,16z"/>
		<path class="st52" d="M60,8c0.7,0.7,1.3,1.3,2,2c0.7,0.6,1.6,1,1,2.2c-0.6,0.5-1.3,0.6-2,0.6c-0.5-0.1-0.9-0.3-1.3-0.5
			C58.8,11,57.4,9.9,58,8l0,0C58.7,8,59.3,8,60,8z"/>
		<path class="st67" d="M67,89c0.3,0.3,0.7,0.7,1,1c-4.1,4.3-9.6,4.5-15,5c-3.7,0.8-7.3,0.8-11,0c-1.7-0.2-3.6,0.6-5-1
			c1-1.2,2.4-1.2,3.8-1.3c0.5,0,1.1,0,1.6,0c5,0.4,9.9-0.4,14.7-1.3c1.4-0.4,2.8-0.7,4.1-1.3c1.3-0.5,2.5-1.2,3.9-1.6
			C65.8,88.3,66.5,88.4,67,89z"/>
		<path class="st68" d="M41,94c-1.3,0-2.7,0-4,0c-0.7,0-1.3,0-2,0c-1-0.7-2-1.3-3-2c-0.1-2.1,1.5-1.7,2.7-2c3,0.4,6.1-1.2,9,0.5
			C44.9,93.3,41.7,92.6,41,94z"/>
		<path class="st69" d="M42,95c3.7,0,7.3,0,11,0C49.3,96.6,45.7,96.6,42,95z"/>
		<path class="st70" d="M75,84c-0.3,0-0.7,0-1,0c-1.4,0.4-2.9,0.9-4.3,1.4c-1.6-0.2-2.6-1.1-3-2.6c0.1-0.8,0.5-1.3,1.2-1.6
			c3.8-0.7,6.5-3,8.9-5.8c0.4-0.3,0.7-0.7,1.2-0.9c1.6-0.9,3.3-3.8,4.9-2.2c2.1,2.1-0.6,4-2,5.7c-0.3,0.4-0.7,0.7-1,1.1
			C78.5,81,76.2,82,75,84L75,84z"/>
		<path class="st71" d="M70,85c0.9-2.1,2.3-2,4-1c-1.8,2.5-4.4,3.7-7,5c-0.7,0-1.3,0-2,0c-0.7-0.8-0.5-1.6,0.3-2.2
			C67,86.7,68.3,85.2,70,85z"/>
		<path class="st72" d="M90,54c0.8,0,1.6-0.2,2-1c1.4-0.9,1.4,2.4,3,1c0,1.1,0.2,2.3-1,3c-3.4,2.7-6,6.9-11.2,6
			c-0.9-2.4,0.7-3.8,2.3-4.8C86.9,57,88.5,55.5,90,54z"/>
		<path class="st73" d="M83,63c3.4-1.7,7.1-3,9.4-6.4c0.4-0.6,1.2-0.2,1.6,0.4c-0.3,1-0.7,2-1,3c-1.1,1.5-2.2,3.1-4,3.9
			c-2.8,1.4-5.3,3.8-8.8,2.4C79.5,63.8,81.4,63.5,83,63z"/>
		<path class="st74" d="M95,54c-1.5,1.1-2.1-0.4-3-1c0.1-1.9,1.1-2.9,3-3C95,51.3,95,52.7,95,54z"/>
		<path class="st75" d="M89,63c1.3-1.1,2.1-2.8,4-3c0,0.3,0,0.7,0,1c-0.9,1.3-0.2,3.4-2.1,4.3C89.5,65.2,88.6,64.6,89,63z"/>
		<path class="st72" d="M91,65c0.7-1.3,1.3-2.7,2-4c0,0.7,0,1.3,0,2c0,1.4-0.7,2.4-2,3c-0.1-0.2-0.2-0.3-0.4-0.5
			C90.8,65.4,90.9,65.2,91,65z"/>
		<path class="st76" d="M83,80.9c-0.7-0.3-1.3-0.6-2-0.9c-0.4-0.3-0.5-0.7-0.5-1.2c0.5-2.5,4.1-1.7,4.6-4.2c0.7-0.2,1.4-0.1,1.9,0.5
			c0.1,1.1-2.2,1.5-1,3C85,79,84,80,83,80.9z"/>
		<path class="st77" d="M87,75c-0.7,0-1.3,0-2,0c-1-1-0.4-2,0.1-3c0.5-0.7,0.9-1.5,1.5-2.1c0.4-0.3,0.8-0.4,1.2-0.4
			c0.4,0.1,0.8,0.2,1.1,0.6C89.4,72.1,87.9,73.4,87,75z"/>
		<path class="st72" d="M89,70c-0.3,0-0.7,0-1,0c-0.8-2.7-0.6-4.6,3-4l0,0c0,1-0.1,1.9-0.1,2.9C90.3,69.3,89.6,69.6,89,70z"/>
		<path class="st78" d="M81,79c0,0.3,0,0.7,0,1c-0.7,0.7-1.3,1.3-2,2c-1.3,0.7-2.7,1.3-4,2c0.3-2.5,2.2-3.7,4-5
			C79.7,78.4,80.3,78.4,81,79z"/>
		<path class="st79" d="M34,8c7.5-1.6,14.9-1.5,22,2c1.7-0.7,2.5,0.6,3.3,1.7c1.1,1.6,3.1,1.8,4.5,3.1c2.2,3.1,5.8,5.7,4.4,10.3
			c-0.4,0.3-0.9,0.4-1.5,0.3c-2.5-0.9-3.2-3.3-4.5-5.1C56.4,12.2,48.6,8.7,38.7,9.8C36.9,10,34.6,10.9,34,8L34,8z"/>
		<path class="st80" d="M52,3L52,3c-0.4,0-0.7,0.1-1,0.1c-0.3,2.6-2.4,1.7-4,1.9c2,1.7,4.5,2.1,7,2C52.9,5.9,51.6,4.9,52,3z"/>
		<path class="st81" d="M59,12c-1-0.7-2-1.3-3-2c0-0.7,0-1.3,0-2c0.7,0,1.3,0,2,0c0.6,1.4,2.1,2.2,2,4C59.7,12.4,59.3,12.4,59,12z"
			/>
		<path class="st82" d="M9,26.1C9.3,26,9.6,26,10,26c1.2-0.9,2-0.3,2.6,0.8c0.2,0.8,0.2,1.6,0,2.4c-2,3.4-1,7.2-1.2,10.9
			c0,1.4,0,2.8,0,4.2c-0.1,1.8,0.1,3.7-1.6,4.9c-4.7-4.3-2.7-9.9-3-15C6.7,32.7,7.1,31.3,8,30C8.6,28.8,9.1,27.5,9,26.1z"/>
		<path class="st83" d="M8,30c0.5,6.3-1.4,12.9,2,19c1.5,1.3,1.5,3.2,2,5c0.1,1.1,0,2.1-0.7,3c-0.5,0.3-1,0.4-1.5,0.1
			c-2-3-3.3-6.3-3.8-9.9c-0.3-5-1.3-10.1,0-15.1C6.4,31,7,30.4,8,30z"/>
		<path class="st84" d="M6,32c0.8,5-0.5,10.1,1,15c-1.1,0.6-1.4-0.5-2-1c0-0.7,0-1.3,0-2c0-1.3,0-2.7,0-4c-0.7-1.2-1.1-2.5-1-4
			C4.7,34.7,5.4,33.4,6,32z"/>
		<path class="st85" d="M29,8c0.3,0,0.7,0,1,0c0.3,0.3,0.5,0.6,0.6,1.1c0.5,0.7,1,1.4,0.7,2.4c-1.4,3.1-4.8,3.8-7,6
			C22.1,17.6,20.9,22,18,19c-0.2-1.4,0.3-2.7,1-4c1-1,2-2,3.1-3.1c1,0,2,0,3,0c2.7,0.7,3-0.9,3-3C28.3,8.6,28.7,8.3,29,8L29,8z"/>
		<path class="st86" d="M18,19c2.6,1.1,3.6-2.6,6-2c0.1,0.2,0.2,0.4,0.3,0.6c-0.1,2.4-1.6,3.7-3.7,4.4c-1.3,0.3-2.1,1.3-2.5,2.5
			c-0.1,0.4-0.3,0.8-0.5,1.2c-0.8,1.2-0.2,3.6-2.8,3.2c-0.9-1-0.9-2.2-0.8-3.5c0.1-0.5,0.2-1,0.3-1.4c0.6-1.6,1.4-3.1,2.8-4.1
			C17.3,19.7,17.7,19.3,18,19z"/>
		<path class="st87" d="M17,20c-0.1,1.6-0.7,3-2,4c-1.2-0.7-0.3-2.1-1-3c-0.3-0.3-0.7-0.6-1-0.9c0.3,0,0.6-0.1,1-0.1
			c0.3-0.4,0.7-0.7,1-1l0,0C15.7,19.3,16.3,19.7,17,20z"/>
		<path class="st88" d="M29,8c-0.3,0.4-0.7,0.7-1,1.1c0-0.4,0-0.7,0-1.1C28.3,8,28.7,8,29,8z"/>
		<path class="st89" d="M31,11c-0.3-0.7-0.7-1.3-1-2c0.3-0.5,0.7-0.5,1,0c1-0.3,2-0.7,3-1c0.8,1.1,2,1.1,3.1,0.9
			c13.2-2.4,22.3,3.3,28.6,14.6c0.3,0.6,0.8,1,1.2,1.5c2.8,7.1,4.7,14.3-0.6,21.2c-0.8,0.4-1.5,0.5-2.3,0.1c-1-2.6-0.6-5.3,0-7.8
			c1.6-6.7-0.4-12.3-4.4-17.6c-3.1-5.1-8.2-6.7-13.7-7.7c-1.2-0.1-2.3-0.4-3.3-1.1c-1.7-1.3-3.4-0.7-5.2-0.2C32.6,13,32.6,13,31,11z
			"/>
		<path class="st90" d="M31,9c-0.3,0-0.7,0-1,0c0-0.3,0-0.7,0-1l0,0c0.3-0.3,0.7-0.3,1,0C31,8.3,31,8.7,31,9z"/>
		<path class="st91" d="M31,8c-0.3,0-0.7,0-1,0c0-0.3,0-0.6,0-0.9C30.4,7.4,30.7,7.7,31,8z"/>
		<path class="st92" d="M14,21c1.2,0.7,1,1.9,1,3c0,0.3,0,0.7,0,1c-0.9,0.8-1,2.8-3,2c-0.4-0.8-1.2-1-2-1c0.3-0.7,0.7-1.3,1-2
			C13,24,13.3,22.3,14,21z"/>
		<path class="st93" d="M15,19c-0.3,0.3-0.7,0.7-1,1c0-0.3,0.1-0.6,0.1-0.9C14.4,19,14.7,19,15,19z"/>
		<path class="st94" d="M9,68c-0.3-1.3-0.7-2.7-1-4c0.7,0.3,1.3,0.7,2,1c0.2,0.1,0.4,0.2,0.6,0.3c0.9,0.9,1.7,1.9,2.7,2.8
			c0.3,0.3,0.6,0.6,1,0.9c2.5,3.1,6.4,4.3,9.1,7.1c0.1,0.5-0.1,0.9-0.4,1.3c-1,0.6-2,0.7-3,0.7C15.3,75.8,10.5,73.8,9,68z"/>
		<path class="st95" d="M10,65c0-0.7,0-1.3,0-2c0.2-0.1,0.4-0.2,0.7-0.2c3.8,1,5.2,5.4,8.9,6.3c2.4,1.5,5.7,1.7,6.9,4.9
			c0,0.5-0.2,1-0.6,1.4c-3.3,1.2-5.4-1-7.8-2.6c-1.8-1.2-3.3-2.6-5.1-3.7l0,0C12.1,67.6,10.9,66.4,10,65L10,65z"/>
		<path class="st96" d="M5,51c0.3,0,0.7,0,1,0c2.4,1.7,3,4.5,4,7c0.7,1.7,1.4,3.3,0,5l0,0C7.6,59.3,6.2,55.2,5,51z"/>
		<path class="st94" d="M7,63c-1-0.3-2-0.7-2.9-1c0-1.6,0-3.2,0-5.4C5.6,58.9,7.2,60.5,7,63z"/>
		<path class="st97" d="M9,68c3,3.8,6.1,7.5,11,9c1.6,1.1,3.6,0.6,5.3,1.4c1.7,1.4,4.1,1.1,5.8,2.4c0.2,0.5,0.2,0.9,0,1.4
			c-1.2,1-2.7,1.1-4.1,1.5c-1.8,0.2-3.3-0.5-4.6-1.7c-1.8-1.9-4.5-2.1-6.7-3.3c-0.6-0.4-1.1-0.9-0.7-1.7c-0.7-1.8-2.5-2.2-4-3
			c-1.8-0.7-2.2-2.5-3-4c-0.6-0.7-0.6-1.3,0-2C8.3,68,8.7,68,9,68z"/>
		<path class="st98" d="M8,68c0,0.7,0,1.3,0,2c-1.2-0.7-2.6-1.6-1.6-3C7,66.1,7.6,67.4,8,68z"/>
		<path class="st99" d="M35,91c-1.1,0-2.3-0.2-3,1c-1,0-2,0-3,0c-1-1.9-3.5-2.7-4-5c1-0.9,2.1-0.9,3.2-0.6c2.7,1.6,5.7,1.1,8.6,1.2
			c2.1,0.1,4.3-0.4,6.1,1.1c0.4,1.5-0.6,1.7-1.6,1.7C39.2,90.4,37.1,90.6,35,91z"/>
		<path class="st100" d="M28,87c-1,0-2,0-3,0c-0.7-1.2-1.9-1-3-1c-0.3-0.3-0.7-0.7-1-1c0.3-0.4,0.7-0.7,1.1-0.8
			c0.5-0.1,0.9-0.2,1.4-0.3c1.6,0.1,3.4-0.2,4.7,1.1c0.2,0.4,0.3,0.9,0.2,1.4C28.3,86.6,28.1,86.8,28,87z"/>
		<path class="st101" d="M16,78l-1-1c-1.8,0.6-2.9,1.5-2,3.3c0.1,0.2,0.2,0.3,0.3,0.5c0.9,0.2,2,0.1,2.6,1.2
			c1.1,0.7,2.3,1.1,3.6,0.5c0.4-0.3,0.7-0.7,0.7-1.2C19.2,79.8,17.2,79.4,16,78z"/>
		<path class="st102" d="M16,82c1.3,0,2.7,0,4,0c2.3-0.1,2.9,0.9,2,3c-0.3,0-0.7,0-1,0C17.9,86.3,17.4,83.5,16,82z"/>
		<path class="st103" d="M83,63c-1,1-2,2-3,3c0.1,4-1.2,6.9-5.8,7.1c-0.6-0.5-0.8-1.2-0.8-2c0.7-2.3,1.9-4.4,3.1-6.5
			c1.5-1.5,3-2.8,4-4.7c0.9-1.6,1.9-3.5,4.4-2.9c1.8-0.7,2.7-3.1,5-3c-0.1,2.4-1.9,3.2-3.6,4.4C84.8,59.5,83.1,60.7,83,63z"/>
		<path class="st104" d="M85,57c-3.9,1.4-3.6,7.1-8,8c-0.3-0.3-0.5-0.7-0.5-1.1c0.1-1.1,1-1.8,1.6-2.7c0.2-0.4,0.4-0.8,0.6-1.1
			c2.2-2,1.5-6.2,5.3-7c0.7,0,1.3,0,2,0C85.7,54.3,85.3,55.7,85,57z"/>
		<path class="st105" d="M9,58c0-2.8-2.8-4.3-3-7c-0.9-1.5-1.1-3.2-1-5c0.7,0.3,1.3,0.7,2,1c-0.3,3.7,3.3,6.3,3,10
			c0.3,0.2,0.4,0.5,0.3,0.7c0,0.3-0.1,0.4-0.2,0.4C9.7,58.4,9.3,58.3,9,58z"/>
		<path class="st106" d="M75,56c-0.1-3.4,2-5.7,4-8c0,0.7,0,1.3,0,2c-0.3,1.3-0.7,2.7-1,4c0.2,1.5,0.4,2.9,0.7,4.4
			c0,0.7-0.1,1.3-0.6,1.9c-0.7,0.4-1.3,0.4-2,0.1c-1-0.8-1.3-1.9-1.5-3.1C74.5,56.8,74.6,56.4,75,56z"/>
		<path class="st107" d="M84,46c0,0.7,0,1.3,0,2c0.6,2.5-0.8,4.3-2.1,6.2c-0.4,0.2-0.9,0.3-1.3,0.2c-0.2-0.1-0.4-0.3-0.6-0.4
			C81.3,51.3,81.6,48.2,84,46z"/>
		<path class="st108" d="M78,58c-1.4-1.3-1.4-2.7,0-4c0.7,0,1.3,0,2,0l0,0C80.4,55.9,79.1,56.9,78,58z"/>
		<path class="st109" d="M81,54c2-1.5,1.8-4.1,3-6c0.3,0,0.7,0,1,0c0,1,0,2,0,3c-0.3,0.7-0.7,1.3-1,2c-2.4,2.2-2.2,6-5,8
			C77.4,58,79.4,56.1,81,54z"/>
		<path class="st110" d="M78,38c2.3-4.9,0.6-10,1-15c0.3-0.4,0.7-0.3,1,0c2.1,8.9,1.5,17.3-4,25c-0.4-0.4-0.6-0.8-0.8-1.3
			C75.4,43.5,76.3,40.6,78,38z"/>
		<path class="st111" d="M76,47c0,0.3,0,0.7,0,1c-0.8,2.6-2.8,5-2,8c-0.2,0.1-0.4,0.3-0.6,0.4c-0.7,0.2-1.4,0-1.9-0.6
			c-0.4-0.6-0.5-1.3-0.5-2s0.1-1.4,0.4-2.1C72.7,49.9,72.6,46.8,76,47z"/>
		<path class="st112" d="M80,23c-0.3,0-0.7,0-1,0c-1.5-1.7-1.9-3.8-2-6C79.3,18.3,80,20.5,80,23z"/>
		<path class="st111" d="M75,56c0,0.3,0,0.7,0,1c1.1,2.6-0.8,2.7-2.5,3c-0.8,0-1.6-0.2-2.2-0.7c-0.8-3.3,3-1.6,3.7-3.3l0,0
			C74.3,56,74.7,56,75,56z"/>
		<path class="st113" d="M76,25c0,0.3,0,0.7,0,1c1.9,3.6,0.8,7.3,0.5,11c0.9,3.6-0.6,6.4-2.6,9.2c-1.2,1.1-2.2,2.5-4.1,1.8
			c-1.5-2.8,0.5-4.9,1.3-7.2c2.2-4.9,2.4-10,0.8-15.2C71.3,23.8,70.1,22,71,20c0.8,0,1.6-0.2,2-1c0.3,0.3,0.7,0.7,1,1
			C74.8,21.6,75.1,23.4,76,25z"/>
		<path class="st114" d="M71,20c0.7,1.7,1.3,3.3,2,5c-0.4,0.4-0.8,0.5-1.3,0.6c-0.5-0.1-0.9-0.3-1.3-0.6c-1.8-4.7-5.6-8.3-7.4-12.9
			c-0.3-0.7-0.7-1.3-1-2C66.7,11.8,69.2,15.5,71,20z"/>
		<path class="st115" d="M73,46c1.1-2.6,3.2-4.9,3-8c0.3-0.5,0.7-0.5,1,0c0.3,0,0.7,0,1,0c0.4,3.2-1.6,5.9-2,9c-2.3,0.9-2.1,3.8-4,5
			C70.1,49.6,72.1,47.9,73,46z"/>
		<path class="st116" d="M77,38c-0.3,0-0.7,0-1,0c0-4,0-8,0-12c0.3,0,0.7,0,1,0c0.8,3.3,0.8,6.7,0,10C77,36.7,77,37.3,77,38z"/>
		<path class="st117" d="M77,36c0-3.3,0-6.7,0-10C78.6,29.3,78.6,32.7,77,36z"/>
		<path class="st116" d="M76,25c-1.6-1.3-2.1-3-2-5C75.6,21.3,76.1,23,76,25z"/>
		<path class="st118" d="M63,12c3.9,3.6,6.8,7.8,8,13c2.2,3.2,2,6.8,1.9,10.4c-0.1,0.6-0.3,1.1-0.6,1.5c-0.5,0.4-1,0.4-1.5,0.2
			c-1.7-3.9-2.1-8-2.8-12.1c-0.2-4-3.3-6.7-5-10c-0.8-0.9-2.6-1.1-2-3C61.7,12,62.3,12,63,12z"/>
		<path class="st119" d="M61,12c0.7,1,1.3,2,2,3c-2-0.1-3.1-1.4-4-3c0.3,0,0.7,0,1,0S60.7,12,61,12z"/>
		<path class="st120" d="M66,87c-0.8,0.4-1,1.2-1,2c-1,0.7-2,1.3-3,2c-2.9-0.4-5.4,1.2-8.1,1.4c-1.7-0.2-3.1,1.6-4.9,0.8
			c-0.6-0.6-0.8-1.3-0.7-2.1c0.1-0.5,0.3-1,0.6-1.4c0.6-0.5,1.3-0.7,2.1-0.9c4.6,0.1,8-2.9,11.8-4.8c1.2-0.3,2.4-0.9,3.6,0.1
			C66.9,85.2,66.8,86.1,66,87z"/>
		<path class="st68" d="M49,93c1.7-0.3,3.3-0.7,5-1c1.3-0.7,2.7-0.7,4,0c-5.1,2.2-10.6,2-16,2C44,91,46.4,91.4,49,93z"/>
		<path class="st121" d="M49,93c-2.3,0.4-4.9-0.9-7,1h-0.5H41c-0.2-2.2,2.3-1.7,3-3c1.7-1.5,3.3-1.3,5,0C49,91.7,49,92.3,49,93z"/>
		<path class="st122" d="M58,92c-1.3,0-2.7,0-4,0c2.6-0.8,5.1-2.7,8-1C60.8,91.7,59.5,92.2,58,92z"/>
		<path class="st123" d="M49,91c-1.7,0-3.3,0-5,0c-3,0-6,0-9,0c2.2-2.4,5.8,0.4,8-2c1.7-1.7,3.7-2.4,6-1.3c0.5,0.8,0.6,1.5,0,2.3
			C49,90.3,49,90.7,49,91z"/>
		<path class="st124" d="M81,79c-0.7,0-1.3,0-2,0c0.3-2.5,3.9-3.1,3.6-6.3c-2.3,0.5-3,3.5-5.6,3.3c-0.5,0.3-0.9,0.3-1.2-0.2
			c1.1-4.3,3.6-7.3,8.3-8c1.1,1.2,2.4,2.3,2,4.2c-0.3,1-0.7,2-1,3C84.9,77.6,81.6,77,81,79z"/>
		<path class="st125" d="M66,84c-1,0.3-2,0.7-3,1c-0.3-0.3-0.4-0.8-0.3-1.2c1-1.8,2.6-3,4-4.4c1.4-1.1,2.4-2.7,4.1-3.3
			c1.1-0.4,2.2-0.8,3.4-0.3c2.3,2.1-0.4,2.5-1.2,3.6c-1.3,1.7-3.3,1.9-5.1,2.5c-0.3,0.3-0.7,0.7-1,1C67.3,84,66.9,84.2,66,84z"/>
		<path class="st126" d="M68,82c1.9-2.1,6.2-1.8,6-6c0.7-0.5,1.3-0.6,2,0c0.3,0,0.7,0,1,0C75.2,79.8,72.4,82.1,68,82z"/>
		<path class="st126" d="M66,84c0.3-0.3,0.7-0.7,1-1c1,0.7,2,1.3,3,2c-1.2,0.9-2,2.6-4,2C66,86,66,85,66,84z"/>
		<path class="st127" d="M76,76c-0.7,0-1.3,0-2,0c-1,0.3-2,0.7-3,1c-0.6-2.1,1.2-2.7,2.3-3.8c0.2-0.1,0.4-0.2,0.7-0.2
			c3.6-1,4.6-4.1,6-7c3.4,0.2,5.9-2.2,9-3c0.4,1,1,1.6,2,2c0,0.3,0,0.6,0,1c-2.3,0.3-2.6,2.2-3,4c-0.3,0-0.7,0-1,0
			c-1.1-0.5-2-1.4-3-2C80.7,70.1,77.4,72,76,76z"/>
		<path class="st128" d="M84,68c2.2-1.1,2.9,0,3,2c0,0.8-0.2,1.6-1,2C84.9,70.9,83.6,69.9,84,68z"/>
		<path class="st129" d="M68,25c2.9,3.5,3,7.7,3,12c0.9,1.7,0,3.3-0.2,5c-1.1,2.1-1.9,4.5-4.7,5.2c-0.3-0.2-0.4-0.5-0.4-0.8
			s0.1-0.4,0.2-0.4c4.1-6.8,1.3-14,1-21C67.3,25,67.7,25,68,25z"/>
		<path class="st130" d="M12,27c1-0.7,2-1.3,3-2c0,1.3,0,2.7,0,4c-1.1,6.1-0.2,12.1,0.9,18.1c0.8,4.2,2.2,7.9,6.1,10.2
			c1.8,1.5,3.8,2.5,6.2,2.8c1.2,0.5,2.1,1.3,2.3,2.6c0,0.5-0.2,1-0.5,1.4c-1.8,0.6-3.5,0-5.2-0.2c-3.5-1.1-6.1-3.5-8.6-5.9
			c-3.5-5.7-5.9-11.7-5.7-18.5c0-3.6-0.1-7.2,1.5-10.5C12,28.3,12,27.7,12,27z"/>
		<path class="st131" d="M11,54c-0.9-1.5-1.1-3.2-1-5c0-1.7,0-3.3,0-5c0.5-0.2,1.2-0.1,1.2,0.3c0.4,4.8,2.8,8.8,5.1,12.8
			c0.9,2.7,3.8,3.2,5.4,5.2c0.8,1.3,3.1,1.7,2.3,3.9c-0.6,0.5-1.3,0.6-2.1,0.5C16.7,63.9,12.7,59.9,11,54z"/>
		<path class="st132" d="M16,58c-3.1-4.2-4.6-9.1-6-14c0-1.3,0-2.7,0-4c0.3-0.5,0.7-0.4,1,0c0.4,6.5,4,12,6,18
			C16.7,58.4,16.3,58.4,16,58z"/>
		<path class="st133" d="M11,40c-0.3,0-0.7,0-1,0c0.8-3.6-1.9-7.9,2-11C11.7,32.7,11.3,36.3,11,40z"/>
		<path class="st134" d="M10,58c0-0.3,0-0.7,0-1c0.3,0,0.7,0,1,0c4.6,3.9,7.7,9.5,13.8,11.6c5.4,1.9,10.8,4.5,16.6,1.5
			c1.1-0.6,2.2-1.1,3.5-1.1c0.8,0,1.5,0.3,2.2,0.8c0.5,1.2-0.1,2.1-0.9,2.9c-1.1,1-2.3,1.4-3.7,1.6c-4.4,1.2-8.9,1.1-13.4,1
			c-1.2,0-2.2-0.5-3.1-1.3c-1.9-2-4.7-2.6-7-4C15.5,66.4,10.3,64.1,10,58z"/>
		<path class="st135" d="M42,71c-8.2,4.1-15.3,0.3-22-3.8c-3.9-2.4-7.1-5.9-9-10.2c0-1,0-2,0-3c2.9,4.7,6.6,8.7,11,12
			C28.4,68.9,35.4,69,42,71z"/>
		<path class="st136" d="M31,11c2.3,2.2,4.7-1,7,0c0.4-0.5,0.8-0.5,1.2,0c-0.3,2.4-2.5,2.4-4.1,2.9c-2.2,0.7-4.5,1.1-6.4,2.6
			c-0.8,0.6-1.7,1.1-2.7,1.2c-0.8,0-1.5-0.2-2-0.8l0,0C25.4,13.9,29.2,13.6,31,11z"/>
		<path class="st137" d="M17,25c0-0.3,0-0.7,0-1c1-0.2,1.4,0.4,1.8,1.1c0.6,1.6,0.6,3.3,0.2,4.9c-2.1,9.2,0.7,16.7,7.5,23
			c5.2,2.7,10.6,4.3,16.5,2.7c2,0.3,4.2-1.1,6.2,0.3c-0.7,4.4-4.6,2.8-7.1,3.9c-7.4,1.4-14.1-0.6-20.5-4.4c-0.7-0.4-1.3-1-1.7-1.7
			c-2.4-4.2-4.7-8.1-5.3-13.2c-0.5-3.9-0.9-7.6,1.2-11C16.8,28.2,15.9,26.4,17,25z"/>
		<path class="st138" d="M17,25c-0.1,1.5,0.2,3.1-0.3,4.4c-3.1,8.2-1.4,15.5,3.9,22.2c0.4,0.6,0.3,1.6,0.5,2.4
			c-1.6,0.7-2.5-0.6-3.6-1.4C16,51.4,15.9,49.5,15,48c-1-6.3-4-12.7,0-19C16.6,28.1,15.4,25.9,17,25z"/>
		<path class="st139" d="M24,17c0.7,0,1.3,0,2,0c0.3,3.1-2,4.7-3.7,6.7c-1.1,0.8-2.2,1.3-3.5,0.4c-0.7-1.5,0.1-2.4,1.2-3.2
			C22.6,21,23,18.7,24,17z"/>
		<path class="st138" d="M20,21c-0.3,1-0.7,2-1,3c0.3,0.9-0.1,1.2-1,1c-0.3-0.3-0.7-0.7-1-1C17.7,22.7,18,21,20,21z"/>
		<path class="st140" d="M60,20c4.9,4.8,7,10.6,5.3,17.3c-0.7,2.9,0.4,6-1.3,8.7c-0.2,0.8-0.7,1.2-1.5,1.3c-1.1-0.4-1.2-1.4-1.1-2.4
			c0.2-1.4,0.5-2.7,0.9-4.1c0.8-4.5,2.1-9-1.2-13.1c-1.3-1.7-2-3.5-2-5.6C59.1,21.3,59.4,20.5,60,20z"/>
		<path class="st141" d="M60,20c0,0.7,0,1.3,0,2c-2.6,0.2-3.2-2.8-5.4-3.3c-2.8-2-6.1-3.3-8.8-5.4c-0.2-0.5-0.2-0.9,0.1-1.3
			C51.5,13.2,57.1,14.2,60,20z"/>
		<path class="st139" d="M46,12c0,0.3,0,0.7,0,1c-1.9,2-4.6,0.9-6.8,1.9c-1,0.3-2.1,0.4-3.1,0.5c-2.8-0.4-5.2,2.9-8.1,0.7
			c2.6-3.9,7.9-2.1,11-5c1.3-0.7,2.7-0.7,4,0C43.7,12.2,44.9,12,46,12z"/>
		<path class="st142" d="M63,47c0.3-0.3,0.7-0.7,1-1c0.7,0,1.3,0,2,0c0,0.3,0,0.7,0,1c1.3,2.6,4.5,4.6,2.4,8.1
			c-0.6,0.4-1.3,0.6-2,0.4c-0.7-0.2-1.3-0.6-1.8-1.1s-0.8-1.1-1-1.8C64.3,50.7,62.1,49,63,47z"/>
		<path class="st143" d="M43,11c-1.3,0-2.7,0-4,0c-0.3,0-0.7,0-1,0C39.7,9.5,41.3,9.5,43,11z"/>
		<path class="st43" d="M13,69c2.5,0.5,4.4,2.2,6.2,3.7c2,1.7,4.2,2.5,6.8,2.3c0.1,0.5,0,0.9-0.3,1.3c-1,0.5-1.9,0.5-2.7-0.3
			C18.9,74.8,15.4,72.6,13,69z"/>
		<path class="st144" d="M23,76c1,0,2,0,3,0c0.2,0,0.5,0,0.7-0.1c4.6,0.8,4.7,0.9,5,3.5c-1.7,0.8-3.4,0.6-5.2,0.2
			c-1.1-1-2.9-1.1-3.5-2.6C23,76.7,23,76.3,23,76z"/>
		<path class="st145" d="M23,77c1,0.7,2,1.3,3,2c-0.3,0.4-0.7,0.4-1,0c-2,0.1-3.7-0.4-5-2C21,77,22,77,23,77z"/>
		<path class="st43" d="M10,65c1.6,0.9,2.9,2,3,4C11.4,68.1,10.1,67,10,65z"/>
		<path class="st146" d="M26,76c0-0.3,0-0.7,0-1s0-0.7,0-1c1,0,2,0,3,0c4.7,0.8,9.5,1.3,14-1c1-0.3,2-0.7,3-1c1.6-0.9,3.1-2.4,5.2-1
			c0.2,0.5,0.2,1.1-0.1,1.6c-5.7,4.9-12.1,6.6-19.4,4.7C29.8,76.8,27.8,76.8,26,76L26,76z"/>
		<path class="st147" d="M10,58c1.2,5.4,6.6,7.5,9,12c-4.2-0.8-5.5-5.3-9-7c-0.3-1.7-0.7-3.3-1-5C9.3,58,9.7,58,10,58z"/>
		<path class="st148" d="M25,79c0.3,0,0.7,0,1,0c2,0,4,0,6,0c1.6-0.4,3.1-0.9,4.8-1c3.6,0.1,7-1.3,10.4-1.9c0.9,0.1,1.6,0.4,2,1.2
			C45.4,81.9,36.7,83.6,31,81C28.8,80.8,26.3,81.8,25,79z"/>
		<path class="st149" d="M31,81c6.3,0.1,12.6-0.2,18-4c1-2.1,2.6-2.9,4.9-2.3c0.4,0.4,0.5,0.8,0.5,1.3c-1,1.9-2.9,2.7-4.5,3.9
			c-3.3,1.8-6.7,3.2-10.6,3.4c-2.8-0.3-5.8,0.8-8.2-1.3C31,81.7,31,81.3,31,81z"/>
		<path class="st47" d="M22,85c0-1.4-0.7-2.4-2-3c0-0.3,0-0.7,0-1c1-0.8,2-0.6,3,0c1,1.3,2.4,1.8,4,2c0.6-0.5,1.3-0.5,1.9-0.3
			c0.3,0.4,0.3,0.8,0.1,1.2c-1.8,1.5-4.2-0.5-6.1,1C22.7,85,22.3,85,22,85z"/>
		<path class="st150" d="M29,83c-0.7,0-1.3,0-2,0c1.1-1.4,2.6-0.8,4-1c3,0,6,0,9,0C37.5,85,33.9,85.3,29,83z"/>
		<path class="st151" d="M23,81c-1,0-2,0-3,0c-2.4,0.4-3.3-1.2-4-3C18.5,78.7,21.1,78.9,23,81z"/>
		<path class="st152" d="M49,88c-2,0.3-4,0.7-6,1c-3.5,0-6.9,0-10.4,0c-1.8,0-3.7,0.1-4.6-2l0,0c4.6-1.5,9.5,0.2,14.2-1.2
			c1.7-0.5,3.6-0.7,5.2-1.5c4.3-0.5,7.6-4.4,12.3-3.7c1.4,3.2-1.6,3.6-3.1,4.9c-1.5,0.7-2.9,1.4-4.4,2.1C51.2,88.1,50.2,88.7,49,88z
			"/>
		<path class="st153" d="M23,85c1.6-2.7,4.1-0.2,6-1c0.2,0,0.5,0,0.7,0c3.9-0.3,7.9,0.8,11.7-0.8c6.5-1.7,12.2-5.4,18.4-7.9
			c0.5,0,1,0.2,1.4,0.6c0.4,0.7,0.4,1.5,0.2,2.3c-4.2,3.3-9.1,5-14,6.8C41,87,34.6,87.8,28,86C26.6,84.3,24.7,85.2,23,85z"/>
		<path class="st154" d="M28,86c6.7-0.2,13.6,0.9,20-2c0.4,0.2,0.5,0.4,0.4,0.7C48.2,84.9,48.1,85,48,85c-6.4,3.5-13.1,3.4-20,2
			C28,86.7,28,86.3,28,86z"/>
		<path class="st155" d="M77,64c0,0.3,0,0.7,0,1c-0.4,2.3-1.3,4.3-3,6c-0.9,1.1-1.3,2.6-2.5,3.5c-0.8,0.7-1.5,1.5-2.5,2
			c-0.7,0.2-1.3,0.1-1.9-0.2c-0.3-0.4-0.5-0.8-0.4-1.2c0.1-0.2,0.2-0.4,0.2-0.6c0.7-1.1,1.7-2,2.6-3c1.6-1.4,2.8-3.3,4-5.1
			C74.4,65.3,74.9,63.4,77,64z"/>
		<path class="st156" d="M71,74c0.7-1.3,1.7-2.3,3-3c0,0.7,0,1.3,0,2l0,0C73.2,74,72.5,75.1,71,74z"/>
		<path class="st157" d="M81,54c-0.4,2.4-2.8,4.3-2,7c0,0.3,0,0.7,0,1c-1.2,0.7-2.4,0.9-3.7,0.3c-1.1-3,2.3-0.9,2.7-2.3
			c0-0.7,0-1.3,0-2c-0.4-1.9,0.9-2.9,2-4C80.3,54,80.7,54,81,54z"/>
		<path class="st158" d="M75,62c1.3,0,2.7,0,4,0c-0.7,0.7-1.3,1.3-2,2c-1,1-2,2-3,3c-0.6-0.4-0.8-1.1-0.9-1.8c0-1.2,0.3-2.3,1.3-3
			C74.6,62.2,74.8,62.1,75,62z"/>
		<path class="st108" d="M78,60c-1,0.7-2,1.4-3,2l0,0c-2.6,2.7-3.6,6.7-6.9,9c-0.3,0.3-0.7,0.6-1.1,0.8c-1.8,0.6-2.8,3.2-5.3,2.2
			c-0.4-0.6-0.5-1.3-0.4-2c0.3-1.2,1.2-2,2.1-2.7c2.6-1.3,4.5-3.1,5.5-6c0.6-1.7,1.6-3.2,3.6-3.7c1.2,0.1,2.4-0.5,3.5,0.5
			C76.7,60,77.3,60,78,60z"/>
		<path class="st159" d="M76,60c-1.3,0-2.7,0-4,0c-0.2-0.2-0.3-0.4-0.3-0.7c0.1-0.2,0.2-0.3,0.2-0.3c1.5,0,2.9,0,3-2
			C76.2,57.7,76,58.9,76,60z"/>
		<path class="st160" d="M74,56c0,2.8-3.2,1.3-4,3c-0.1,0.1-0.3,0.3-0.4,0.4c-0.6,0.3-1.2,0.4-1.8,0.5c-1.8,0.5-1.5,3-3.3,3.6
			c-0.8,0.1-1.4-0.1-2-0.7c-0.9-1.4-0.8-2.9-0.5-4.5c0.4-1.3,1.2-2.2,2.4-2.7c1.2-0.4,2.2,0.1,3.4,0.3c0.6,0,1.3-0.1,1.9-0.2
			c0.8-0.1,1.6-0.4,2.4,0.3C72.7,56,73.3,56,74,56z"/>
		<path class="st161" d="M73,46c-0.3,2-0.7,4-1,6c0,0.7,0,1.3,0,2c-1.7,0.5-2.1-1.1-3.1-1.8C68,50.5,67.1,48.8,70,48
			C71,47.3,72,46.7,73,46z"/>
		<path class="st162" d="M70,52c0.7,0.7,1.4,1.3,2,2c0,0.7,0,1.3,0,2c-0.7,0.3-1.4,0.6-2.1,1C68.7,55.3,69.2,53.7,70,52z"/>
		<path class="st163" d="M72,59c0,0.3,0,0.7,0,1c-1.1,2.1-2.1,4.3-3.3,6.4c-1,1.9-2.7,3-4.7,3.6c-0.6,0.5-1.2,0.5-1.9,0.3
			c-1.1-2.2,1.1-3.2,1.8-4.7c0.3-0.4,0.5-0.7,0.9-1c0.3-0.3,0.7-0.5,1.1-0.7c1.6-1.4,2.3-3.6,4.2-4.9l0,0C70.7,59,71.3,59,72,59z"/>
		<path class="st164" d="M70,52c0,1.7,0,3.3,0,5c-0.6,0-1.3,0-1.9,0c-0.6-0.6-0.6-1.3,0-2c1.3-3.2-2.9-4.9-2-8c1.3-1.7,2.7-3.3,4-5
			c0.8-0.6,0.3-2.5,2.1-2.2c0.3,0.4,0.3,0.8-0.1,1.2c-0.1,2.5-2.4,4.4-2,7C68.6,49.3,68.6,50.7,70,52z"/>
		<path class="st165" d="M72,41c0-0.3,0-0.7,0-1c-0.9-1-0.7-2,0-3c0-0.3,0-0.7,0-1c1.8-3.7-0.9-7.3,0-11c0.3,0,0.7,0,1,0
			C74.8,30.5,75.2,35.8,72,41z"/>
		<path class="st166" d="M72,25c0.8,3.7,2.1,7.3,0,11c-0.3-3.7-0.7-7.3-1-11C71.3,25,71.7,25,72,25z"/>
		<path class="st166" d="M72,37c0,1,0,2,0,3c-0.7,0.7-1.3,1.3-2,2c-0.1-1.8,0.1-3.5,1-5C71.3,37,71.7,37,72,37z"/>
		<path class="st122" d="M63,84c0,0.3,0,0.7,0,1c-3.7,2.4-7.1,5.4-12,5c-0.3-2.5,2.4-2.2,3.3-3.6c0.8-0.9,2-1,2.8-1.8
			c1.2-0.3,2-1.3,3.2-1.5C61.4,83,62.3,83.1,63,84z"/>
		<path class="st167" d="M55,87c-1.3,1-2.7,2-4,3c-0.7,0-1.3,0-2,0c0-0.7,0-1.3,0-2c1-0.3,2-0.7,3-1C53,86.3,54,86.2,55,87z"/>
		<path class="st103" d="M71,74c1-0.3,2-0.7,3-1c0.1,2.2-2.6,2.2-3,4c-1.8,0.4-1.9,3.1-4,3c-0.6,0.5-1.2,0.6-2,0.2
			c-0.3-2.9,2.7-2.8,3.9-4.2C69.4,75,70,74.4,71,74z"/>
		<path class="st167" d="M65,80c0.7,0,1.3,0,2,0c-1,1.7-2.3,3-4,4c-1,0-2,0-3,0C60.4,81.1,62.5,80.3,65,80z"/>
		<path class="st168" d="M30,63c-0.4-1-1-1.6-2-2c-0.9-1.4-4.6,0.2-3.6-3.3c3.6-1.1,6.4,2.4,9.9,1.8c2.3,0.6,4.6,0.6,6.9,0.3
			c0.4-0.1,0.9-0.3,1.3-0.4c4.8-0.3,8.8-2.4,12.3-5.6c0.9-0.2,1.4,0.2,1.9,0.9c0.4,0.7,0.6,1.5,0.4,2.3C49,63,40.2,66.4,30,63z"/>
		<path class="st169" d="M30,63c8.8,0.8,17-1.2,24.9-5.1c0.9-0.5,1.7-1,2.1-1.9c1.6,2.1,1.6,2-0.1,3.8c-3,3.2-7.2,3.5-11,4.7
			c-0.5,0.2-1,0.3-1.5,0.4c-1.8,0.3-3.5,0.5-5.2,1.1c-3.3,0.5-6.5,0.1-9.2-2C30,63.7,30,63.3,30,63z"/>
		<path class="st170" d="M30,64c3.4-0.1,6.6,1.6,10,1c1.5-1.2,3.5,0.2,5-1l0,0c0.7-0.6,1.5-0.6,2.2,0c0.2,1.3-0.5,2.1-1.5,2.7
			c-5.3,1.6-10.6,1.1-16,0.3c-1.8-0.6-3.6-1-4.8-2.6c-0.3-0.5-0.2-1,0.1-1.5C26.8,62.9,28.5,63.1,30,64z"/>
		<path class="st171" d="M15,48c1,1.3,2,2.7,3,4c0.9,2.2,3.5,3,4.2,5.3C22.1,57.5,22,57.7,22,58C16.7,56.7,15.9,52.3,15,48z"/>
		<path class="st172" d="M25,63c0,0.3,0,0.7,0,1c-1.7,1.2-2.7-0.5-4-1c-1.6-1.7-4-2.7-5-5c0.3,0,0.7,0,1,0
			C19.7,59.7,22.3,61.3,25,63z"/>
		<path class="st171" d="M24,58c1.3,1,2.7,2,4,3c-2.6,0.3-4.8-0.4-6-3l0,0c0.4-0.6,1-0.6,1.6-0.4C23.7,57.7,23.9,57.9,24,58z"/>
		<path class="st173" d="M42,71c-7.1,0-14.2,0-20-5c0.7,0,1.3,0,2,0c2.7-1,4.9,1.5,7.5,1c5.7,1.7,11.4,0.2,17.1-0.5
			C49,68.6,49,68.6,45,70C44,70.3,43,70.7,42,71z"/>
		<path class="st174" d="M31,68c-2.5,0-4.7-1.1-7-2c-1-1-2-2-3-3c1.3,0.3,2.7,0.7,4,1c1.3,0.7,2.7,1.3,4,2
			C29.4,66.9,31.6,66.1,31,68z"/>
		<path class="st175" d="M45,70c1.3-1,2.7-2,4-3c0.1-0.6,0.4-1.1,1-1.5c0.9-0.5,1.8-1,2.5-1.6c0.3-0.3,0.7-0.4,1.1-0.6
			c0.9-0.2,1.7-0.1,2.5,0.5c0.6,1.2,0.1,2.2-0.6,3.2c-0.3,0.3-0.7,0.6-1.1,0.9c-2.6,0.4-4.4,3.4-7.4,2.2C46.3,70,45.7,70,45,70z"/>
		<path class="st176" d="M47,70c2.9-0.4,4.7-3.6,8-3c0.3,2.9-1.6,3.7-4,4c-1.7,0.3-3.3,0.7-5,1C46.3,71.3,46.7,70.7,47,70z"/>
		<path class="st176" d="M43,73c-4.5,3.3-9.2,2.4-14,1C33.7,74.1,38.4,74.1,43,73z"/>
		<path class="st177" d="M28,16c2.9,0.4,5.1-2.4,8-2c0.5,2.5-2,2.7-3.1,3.9c-0.4,0.3-0.7,0.6-1.1,0.8c-3.6,1.2-5.6,5.4-9.8,5.5
			c-0.3-0.4-0.3-0.8,0.1-1.2c1.3-2,2.7-4,4-6C26.7,16.7,27.3,16.3,28,16z"/>
		<path class="st178" d="M22,23c0,0.3,0,0.7,0,1c0.8,1.9-0.6,3.3-1.2,4.8c-1.2,7.7-1.3,15.1,4.9,21.1c1.1,1,2.6,2.1,2.4,4.1
			c-0.7,0.4-1.5,0.5-2.2-0.1c-7.2-5.7-10-13.2-8.7-22.1c0.3-2.3,0.7-4.6,0.7-6.9c0.3-0.3,0.7-0.7,1-1C20,23.7,21,23.3,22,23z"/>
		<path class="st179" d="M55,54c-0.1,1,0.2,2.3-0.8,2.6c-4,1.2-7.4,4.8-12.2,3.4c-0.3-0.2-0.3-0.4-0.3-0.7c0.1-0.2,0.2-0.3,0.3-0.3
			c1.8-2.2,5.7,0.4,7-3c1.4-1.8,2.4-3.6,0.9-6c-0.8-1.2-0.9-2.8,1-3.5c1.5-0.1,2.7,0.5,3.5,1.8C54.4,50.2,55.4,52,55,54z"/>
		<path class="st180" d="M26,54c0.7,0,1.3,0,2,0c1.1-1.1,2.4-1.1,3.7-0.9c3.7,0.9,7.3,2.4,11,0.1c0.8-0.5,2-0.2,2.9,0.3
			c1.3,2.8-1.8,2.3-2.7,3.5C36.9,58.6,31.3,57.2,26,54z"/>
		<path class="st181" d="M43,57c1-1,2-2,3-3c1.3-1.2,3.7-1.9,1.6-4.6c-1.6-2-0.7-3.7,1.5-4.8c1.4,0.2,2.3,0.7,2,2.3
			c-1.7,1.2-0.4,2.5,0.2,3.4c2.3,3.2,1.3,4.9-2.2,5.7C47,56.3,45.1,57.4,43,57z"/>
		<path class="st182" d="M42,59c0,0.3,0,0.7,0,1l0,0c-2.3,0.8-4.7,0.8-7,0c-4,1.1-7.1-2.3-11-2c-0.8-0.9-2.7-1.1-2-3
			C28.5,57.4,34.9,60,42,59z"/>
		<path class="st168" d="M22,55c0.7,1,1.3,2,2,3c-0.7,0-1.3,0-2,0c-0.9-2.3-3.9-3.1-4-6c1,0.7,2,1.3,3,2C21.3,54.3,21.7,54.7,22,55z
			"/>
		<path class="st183" d="M55,18c2.8,0,3.4,2.6,5,4c0.4,1.8,0.6,3.6,2,5c2.6,4.5,1.6,9.3,1,14c-0.1,1.4,0.5,3-1,4
			c-0.9,0.8-1.9,0.8-2.9,0.2c-0.9-1-0.9-2.2-0.3-3.2c3.8-7.7,1.1-14.4-3.4-20.8c-0.4-0.5-0.7-1.1-0.9-1.8C54.5,18.9,54.7,18.4,55,18
			z"/>
		<path class="st184" d="M59,45c1,0,2,0,3,0c0,0.8,0.2,1.6,1,2c0.1,2,4,3.4,1,6c-2,0.7-3.8,0.5-5.2-1.4c1.6-2,1-4,0-6
			C58.8,45.4,58.9,45.2,59,45z"/>
		<path class="st141" d="M63,41c-0.2-4.7,0.6-9.4-1-14C65.7,31.4,64.5,36.2,63,41z"/>
		<path class="st177" d="M55,18c0,0.3,0,0.7,0,1c-0.8,0.8-1.9,0.9-2.7,0.4c-4.2-2.5-8.8-3.8-13.3-5.4c2.1-1.9,4.7-0.6,7-1
			C49.5,13.7,52.4,15.7,55,18z"/>
		<path class="st185" d="M39,14c6.4-1.7,10.5,3.9,16,5c7.3,7.7,9.1,16.3,4,26l0,0c-2.8,0.1-2.9-1.8-3-3.8c1.4-6.3,2-12.4-2.4-17.9
			c-4.1-5.2-11-7.6-17.5-5.8C34.7,18,33.2,18.3,32,17c1-1.4,3.5-0.9,4-3C37,14,38,14,39,14z"/>
		<path class="st130" d="M59,51c1.3,1.6,3.6,0.7,5,2c0.3,0.3,0.7,0.7,1,1c-0.9,1-2,1.1-3.3,1c-1.3-0.7-1.6-0.7-1.6,0.2
			c0,1.1,0,2.2-0.3,3.3c-0.1,0.4-0.3,0.9-0.6,1.3c-1.7,2.1-4.1,3.3-6.6,4.1c-1.8,0.5-3.7,1.7-5.6,0.3c-0.7,0-1.3,0-2,0
			c3.3-2.5,8.3-1.5,11.2-5.1C57,58,58.7,57.5,57,56c-0.3-0.3-0.7-0.7-1-1c1.4-1.7-1.3-3.7,0.3-5.4C57.6,49.2,58.5,49.7,59,51z"/>
		<path class="st186" d="M61,54c1.3,0,2.7,0,4,0c0.3,0.3,0.7,0.7,1,1c-1,0.9-2.7,0.7-3.5,2.1c-1.1,1.5,0.3,5.2-3.7,4.1
			c-0.5-0.7-0.4-1.5,0.2-2.1l0,0C60.2,57.6,58.6,55,61,54z"/>
		<path class="st187" d="M62,56c1-1.5,2.6-0.8,4-1c0.7,0,1.3,0,2,0c0,0.7,0,1.3,0,2c-1-0.3-2-0.6-3-1C64,56.7,63,56.8,62,56z"/>
		<path class="st188" d="M65,65c0,0.3,0,0.7,0,1c-2.1,1-3.6,2.6-5.2,4.2c-0.3,0.3-0.7,0.6-1.1,0.8c-3.8,2.4-7.8,4.3-12.1,5.5
			c-3.3,1.7-7.1,1.6-10.6,2.5c-1.3,0.5-2.7,1.8-4,0c-2-1-4-2-6-3c7.2,0.8,14.4,1.8,21.1-1.9c1.3-0.7,2.6-1.4,3.9-2.1
			c3-2.3,6.2-4.4,8.8-7.3c0.3-0.4,0.5-0.7,0.9-1c0.7-0.6,1.4-1.2,2.4-0.6c0.7,0,1.3,0,2,0C65.5,63.7,65.6,64.3,65,65z"/>
		<path class="st160" d="M61,64c-1.9,4.5-5.8,6.5-10,8c0-0.3,0-0.7,0-1c1.2-1.5,3.3-2,4-4l0,0C56.9,65.8,57.7,62.4,61,64z"/>
		<path class="st189" d="M47,76c4-2,8-4,12-6c0.6,4-2.3,4.4-5,5c-1.7,0.7-3.3,1.3-5,2c-0.7,0-1.3,0-2,0c-0.3-0.2-0.5-0.4-0.3-0.7
			C46.8,76.1,46.9,76,47,76z"/>
		<path class="st190" d="M47,76c0,0.3,0,0.7,0,1c-3.5,1.8-7.2,2.3-11,2C39.7,78,43.3,77,47,76z"/>
		<path class="st191" d="M62,72c0,0.7,0,1.3,0,2c-0.1,1.2-1.3,1.4-2,2c-5.5,3.8-11.6,6.1-18,8c-4.3,0.8-8.7,0.8-13,0l0,0
			c0-0.3,0-0.7,0-1c3.6-0.5,7.5,1.1,11-1c3.7,0.1,6.6-2.3,10-3c1.4-1,3.2-1.3,4.4-2.7c0.2-0.4,0.6-0.7,0.9-0.9
			c1.2-0.4,2.3-1.2,3.1-2.2C59.5,72.4,60.4,71.2,62,72z"/>
		<path class="st192" d="M62,72c-1,0.7-2,1.3-3,2c-1.1,1.1-2.7,1.2-4,2l0,0c-0.3,0.4-0.7,0.4-1,0c0-0.3,0-0.7,0-1c1.4-2,4.5-2.1,5-5
			l0,0c1-0.7,2-0.9,3,0c0.7,0,1.3,0,2,0C63.3,70.7,62.7,71.3,62,72z"/>
		<path class="st193" d="M54,76c0.3,0,0.7,0,1,0c-1,2-2.6,3.2-5,3C50.7,77.2,52.5,76.8,54,76z"/>
		<path class="st194" d="M48,85c0-0.3,0-0.7,0-1c4.7-1.3,8.6-4.1,13-6c0.9-1.6,2.1-2.3,3.9-1.3c0.1,3.4-2.2,4.1-4.9,4.3
			C55.7,81.4,52.5,85.2,48,85z"/>
		<path class="st156" d="M60,81c1.6-1.4,3.9-1.9,5-4c0.4-0.9,0.9-1.6,2-1c0.7,0,1.3,0,2,0c-0.5,2.2-2.5,2.9-4,4
			c-1.7,1.3-3.3,2.7-5,4c-1,0.3-2,0.7-3,1c-0.3,0.4-0.7,0.4-1,0C57.2,83.5,59.3,83,60,81z"/>
		<path class="st123" d="M56,85c0.3,0,0.7,0,1,0c-0.7,0.7-1.3,1.3-2,2c-1,0-2,0-3,0C53,85.7,54.4,85.2,56,85z"/>
		<path class="st47" d="M29,84c4.3,0,8.7,0,13,0C37.7,85.6,33.3,85.6,29,84z"/>
		<path class="st195" d="M60,76c0.7-0.7,1.3-1.3,2-2c1.8-0.7,2.7-3.1,5-3c0.6,2.4-1.4,3.3-2.7,4.7C63.2,76,62.2,77,61,76
			C60.7,76,60.3,76,60,76z"/>
		<path class="st196" d="M61,76c1-0.3,2-0.7,3-1c1-0.7,2-0.9,3,0c0,0.3,0,0.7,0,1c-0.7,0.3-1.3,0.7-2,1c-1.5-0.2-2.8,0.3-4,1
			C61,77.3,61,76.7,61,76z"/>
		<path class="st197" d="M67,75c-1,0-2,0-3,0c1-1.3,2-2.7,3-4l0,0c3.2-1,3.5-5.4,7-6c0,0.7,0,1.3,0,2c-0.9,2-1.8,4-4,5
			C68.7,72.7,67.7,73.7,67,75L67,75z"/>
		<path class="st196" d="M67,75c0.1-1.9,1.1-2.9,3-3C69.3,73.3,68.4,74.3,67,75z"/>
		<path class="st195" d="M74,65c-2.7,1.5-3.2,5.8-7,6c3-2.7,4.2-7.1,8-9C74.7,63,74.3,64,74,65z"/>
		<path class="st161" d="M61,64c-2.6-0.2-3.4,3.2-6,3c0.3-1,0.7-2,1-3c-0.2-2.2,1-3,3-3c3.1-0.4,1.5-3.6,3-5c1,0,2,0,3,0
			c-0.7,0.7-1.3,1.3-2,2C62,59.9,62.8,62.4,61,64L61,64z"/>
		<path class="st159" d="M70,59c-1,2.2-1.2,5-4,6c0-2.2-1.3-4.9,2-6C68.7,59,69.3,59,70,59z"/>
		<path class="st198" d="M68,59c-2.1,1.5-1.3,4-2,6c-0.3,0-0.7,0-1,0c0-0.7,0-1.3,0-2C65.6,61.4,64.1,58.1,68,59z"/>
		<path class="st199" d="M61,64c0.7-2,0.5-4.3,2-6c0,1.7,0,3.3,0,5C62.3,63.3,61.7,63.7,61,64z"/>
		<path class="st200" d="M62,70c-1,0-2,0-3,0c1.4-2.2,2.9-4.3,6-4C64,67.3,63,68.7,62,70z"/>
		<path class="st201" d="M56,50c0.7,1.7,3.5,3.4,0,5c-0.3-0.3-0.7-0.7-1-1c-0.9-1.6-2.6-3-1-5c0.5-0.6,1.2-0.5,1.8-0.2
			c0.2,0.2,0.3,0.5,0.3,0.8C56.1,49.8,56.1,50,56,50z"/>
		<path class="st179" d="M35,60c2.3,0,4.7,0,7,0C39.7,61.6,37.3,61.6,35,60z"/>
		<path class="st130" d="M45,64c-1.4,1.7-3.3,0.8-5,1C41.4,63.3,43.3,64.2,45,64z"/>
		<path class="st202" d="M50,66c-0.3,0.3-0.7,0.7-1,1c-5.9,2-11.9,2.8-18,1c-0.7-0.7-1.3-1.3-2-2c5.7,0,11.3,0,17,0
			c1.2-0.8,2.5-1.4,4-1.2c0.3,0.3,0.4,0.5,0.3,0.8C50.2,65.9,50.1,66,50,66z"/>
		<path class="st203" d="M50,65c-1.2,0.7-2.5,1.2-4,1c0.3-0.7,0.7-1.3,1-2c2-0.3,3.9-1.4,6-1c0.3,0.2,0.5,0.4,0.3,0.7
			C53.2,63.9,53.1,64,53,64l0,0C52.1,64.7,51.3,65.6,50,65z"/>
		<path class="st204" d="M53,64c0-0.3,0-0.7,0-1c2-1.3,4-2.7,6-4c0,0.7,0,1.3,0,2c-1.3,0.7-2.3,1.7-3,3C55,64,54,64,53,64z"/>
		<path class="st204" d="M50,65c1-0.3,2-0.7,3-1c-0.1,2-1.6,2-3,2C50,65.7,50,65.3,50,65z"/>
		<path class="st205" d="M32,17c1-0.1,2.1,0.1,3-0.2c11.7-3.9,22,3.1,23.1,15.6c0.3,3.1,0.4,5.9-1.1,8.6c-0.7,0.6-1.5,0.6-2.2,0.1
			c-1.1-1.4-1-2.9-0.9-4.5c2.3-6.7-1.1-11.5-5.6-15.7c-3.3-3.1-7.5-1.6-11.4-1.6c-1.5,0-3,0-4.4-0.7c-0.2-0.2-0.4-0.4-0.5-0.5
			C32,17.7,32,17.3,32,17z"/>
		<path class="st206" d="M20,28c0.7-1.3,1.3-2.7,2-4c3.5-1.8,5.6-5.7,10-6l0,0c0.7,2.1-1,2.8-2.2,3.8c-1.3,1.1-3,1.9-3.8,3.6
			c-0.2,0.4-0.5,0.8-0.7,1.1c-1.6,1.3-2.8,3-4.8,3.8C19.4,29.7,19.3,29,20,28z"/>
		<path class="st207" d="M20,28c0,0.8,0.2,1.6,1,2c1.4,0.5,1.8,1.6,1.6,2.9c-2.8,6.1,0.9,10.6,4,15.1c1.2,1.7,3.1,2.3,4.7,3.5
			c0.7,0.7,1.2,1.4,0.7,2.4c-1.3,0-2.7,0-4,0C19.4,46.6,16.6,37.4,20,28z"/>
		<path class="st208" d="M56,49c-0.7,0-1.3,0-2-0.1c-1-0.7-2-1.3-3-2c-0.7-0.7-1.4-1.3-2-2c-0.4,0.3-0.8,0.4-1.3,0.4
			c-1.3-0.4-2.9-0.5-2.9-2.5c0.8-1.1,1.8-1.5,3.1-1.6c1.7,0.1,3.1,0.9,4.6,1.7c1.9,1.4,4.2,2.5,3.9,5.4C56.3,48.7,56.1,48.8,56,49z"
			/>
		<path class="st209" d="M48,45c0.3,0,0.7,0,1,0c-0.6,1.3-2.3,2.2-0.5,4.1c3.7,3.8,1.1,4.7-2.5,4.9c-4.7,0.2-9.3,4.1-14,0
			c-0.3-0.7-0.7-1.3-1-2c1.6-1.6,3.4-0.4,5.1-0.4c3,0,6.2,0.8,8.8-1.5C43.3,44.4,43.3,44.4,48,45z"/>
		<path class="st210" d="M55,41c0.7,0,1.3,0,2,0c-0.1,1.7,0.2,3.2,2,4c-0.4,2,7.3,4,0,6c-1-0.3-2-0.7-3-1c0-0.3,0-0.6,0-0.9V49
			c1.4-1.2,0.9-2.2-0.3-3.1c-1.3-1-1.8-2.2-1.5-3.7C54.4,41.7,54.6,41.3,55,41z"/>
		<path class="st204" d="M61,54c-1.3,1.4-0.4,3.7-2,5C60.2,57.5,56.4,54.1,61,54z"/>
		<path class="st193" d="M55,76c1-1.3,2.4-1.8,4-2C58.2,75.8,56.7,76.1,55,76z"/>
		<path class="st211" d="M37,18c7-1.7,12.2,0.5,16.3,6.6c2.5,3.8,2.9,7.3,1.7,11.4c-3.2-0.7-1.9-3.3-2.4-5.2
			c-0.9-4.7-5.9-9.6-10.9-10.4c-1.6-0.3-3.3,0-4.7-1C36.7,18.9,36.7,18.5,37,18z"/>
		<path class="st212" d="M54,30c0.3,2-0.8,4.2,1,6c0,1.7,0,3.3,0,5c0,0.3,0,0.7,0,1c-1.3,0.7-2.6,0.9-4,0.2
			c-2.1-4.3,0.4-8.2,0.9-12.3C52.6,29.4,53.3,29.4,54,30z"/>
		<path class="st213" d="M37,18c0,0.3,0,0.7,0,1c-3,2.3-6.6,3.7-9.2,6.5c-1,1.1-2.1,0.8-2.8-0.5c0.9-3.7,5.7-3.6,7-7
			C33.7,18,35.3,18,37,18z"/>
		<path class="st214" d="M25,25c3.4,0,4.7-3.4,7.5-4.7C34,19.6,35.3,19,37,19c9,0,15.6,4.3,17,11c-0.7,0-1.3,0-2,0
			c-2,0.1-2.9-1.4-4-2.6c-3.4-5.2-8-6.1-13.6-4.1c-2.1,0.7-3.7,2.1-5.3,3.4c-1.3,1-2.5,2.2-4.4,1.3c-0.4-0.7-0.3-1.4,0.2-2
			C25,25.7,25,25.3,25,25z"/>
		<path class="st215" d="M25,26c0,0.7,0,1.3,0,2c0.1,1.9-0.1,3.9,0.3,5.8c0,2,2,2,3,3c0.5,0.9,0.3,1.8-0.1,2.6
			c-1.3,2.2-0.4,3.6,1.3,5.1c1.9,1.7,4.6,2,6.3,3.9c0.5,0.9,0.9,1.7,0.3,2.7c-2.6,0.7-4.6-1.1-6.9-1.5c-1.5-0.8-2.4-2.3-3.9-3.1
			c-1.8-1.8-3.2-3.7-3.3-6.4c0.1-1.7-0.4-3.4-0.7-5.1c0-0.8,0.2-1.5,0.7-2.1c-0.3-1-0.7-2-1-3C21,27.4,23.3,27,25,26z"/>
		<path class="st216" d="M29,49c2.7-0.8,4.6,1.7,7,2c3.7-0.1,7.3-2.4,11,0c-3.9,2.6-8.3,2.2-12.6,1.6c-1.1-0.1-2.3-0.4-3.4-0.6
			c-2.1-0.3-3.9-1-5-3c0.2-0.2,0.3-0.3,0.5-0.5C27.4,48.2,28.3,48.3,29,49z"/>
		<path class="st206" d="M22,33c0,0.7,0,1.3,0,2c1.2,1.5-0.2,3.5,1,5c0,2.5,0.7,4.7,3,6c0.8,1,0.8,2,0,3l0,0c-3-3.3-5.1-7-5.7-11.5
			C20,35.6,20,34,22,33z"/>
		<path class="st217" d="M47,51c-3.7-0.7-7.3,2.5-11,0c-0.3-0.7-0.7-1.3-1-2c0.8-1,1.9-1.2,3-1.2c3.5,0.1,1.7-2,1.4-3.4
			c0.4-2.6,2.2-2.5,4.2-2.3c0.5,0.2,1,0.5,1.3,0.9c1,0.7,2,1.3,3,2c-2.7-0.2-4.6,0.1-2.2,3.3C46.4,49.1,46.6,50.1,47,51z"/>
		<path class="st218" d="M49,27c1,1,2,2,3,3c1.4,2.8-0.1,5.4-0.6,8c-0.2,1.5-0.9,2.8,0.5,4c0.6,0.7,0.6,1.3,0,2
			c-1.3-0.7-2.7-1.3-4-2c-0.4-0.4-0.6-0.8-0.8-1.3c-0.1-3.7,2.6-7.1,1-10.9C48.1,28.8,48.1,27.8,49,27z"/>
		<path class="st219" d="M48,41c0,0.3,0,0.7,0,1c-1,0.3-2,0.7-3,1c-0.3,0-0.7,0-1,0c-1.5-1.4-4.6,0.1-5.2-2.9
			c3.4-2.9,3.4-7,4.1-10.9c3.9-0.2,3.3,2.9,3.4,5.1c0.1,1.6-1.3,3.2,0.2,4.7C46.9,39.7,47.3,40.4,48,41z"/>
		<path class="st220" d="M52,44c0-0.7,0-1.3,0-2c1-0.6,2-0.6,3,0c-0.4,2.2,1.4,2.9,2.6,4.2C60,48.6,58.2,49,56,49
			C55.7,46.4,53.8,45.2,52,44z"/>
		<path class="st221" d="M49,27c0,1,0,2,0,3c-1,0.5-1.8,0-2.7-0.5c-3.5-4.2-8.6-3.5-13.2-4.3C32.3,23.8,33.2,23,34,22
			C40.1,20.2,44.8,19.9,49,27z"/>
		<path class="st222" d="M34,22c-0.3,1-0.7,2-1,3c-0.1,0.2-0.2,0.4-0.3,0.6c-1.1,1.1-1.6,2.6-2.4,3.9c-2.1,1.8-3.1,4.3-4.2,6.6
			c-1.9,0.5-1.3-1.5-2.1-2.1c0.4-2-1.2-4.3,1-6C28.5,26.7,30.3,23,34,22z"/>
		<path class="st223" d="M39,40c1.3,1.6,3.9,1.1,5,3c-1.6,0.2-3.7-0.7-4,2c-0.2,0.1-0.4,0.2-0.6,0.2c-3.6-1.8-7.2-3.5-11.1-1
			C26,42.9,26.2,41,27,39c0.8-0.4,1-1.2,1-2c-0.2-0.3-0.3-0.5-0.3-0.8c0.1-0.3,0.1-0.4,0.2-0.4c0.4-0.2,0.9-0.3,1.3-0.2
			c2.3,0.8,4.5,2.1,6.9,2.5C37.3,38.5,38.4,38.9,39,40z"/>
		<path class="st224" d="M27,39c0,1.9-0.3,4,2,5c2.7-1,4.7,0.8,6.9,1.7c1.6,0.7,3.1,1.4,4.1-0.7l0,0c1.2,0.8,3,1.5,2.4,3.2
			c-0.5,1.5-2.3,0.7-3.5,0.8c-1.3,0.1-2.6,0-3.9,0c-2.2-1.3-4.7-2.1-6.8-3.8C25.8,43.3,25.2,41.5,27,39z"/>
		<path class="st225" d="M26,49c0-1,0-2,0-3c2,0,2.3,1.7,3,3C28,49,27,49,26,49z"/>
		<path class="st224" d="M28,36c0,0.3,0,0.7,0,1c-2.1,0.1-4.3,0.2-4-3c0.7,0.7,1.3,1.3,2,2C26.7,35.4,27.3,35.5,28,36z"/>
		<path class="st225" d="M23,40c-1.7-1.4-0.8-3.3-1-5C23.7,36.4,22.8,38.3,23,40z"/>
		<path class="st226" d="M47,29c0.7,0.3,1.3,0.7,2,1c3.2,4-1,7.3-1,11c-0.8,0-1.6-0.2-2-1C46.3,36.3,44.8,32.5,47,29z"/>
		<path class="st227" d="M47,29c-1.2,3.6,1.4,7.5-1,11c-2.1-1.2-2.4-2.6-1.3-4.8c1.1-2.3,0.8-4.6-1.7-6.2c-0.2,0-0.5,0-0.7-0.1
			c-4.3-2.5-7.1,0.3-10.1,2.7c-1.5,1.2-2.1,2.9-3.2,4.4c-0.3,0-0.7,0-1,0c-0.7,0-1.3,0-2,0c-0.7-3.5,1.1-5.6,4-7
			c0.9-1.4,1.7-2.9,3-4C38.4,23.7,43.4,23.9,47,29z"/>
		<path class="st228" d="M39,40c-1-0.3-2-0.7-3-1c-0.2-0.3-0.3-0.5-0.3-0.8s0.1-0.4,0.2-0.4c0.9-1.2,2.7-1.4,3.2-3.1
			c-3.2-1.8-5.1,1.8-7.8,2c-1.4-0.3-2.1-1-1.5-2.5c1.9-4.6,8.6-7.2,13.2-5.1l0,0C44.4,34.5,42.8,38.8,39,40z"/>
		<path class="st221" d="M33,25c-0.1,2-1.4,3.1-3,4C29.9,26.8,30.4,25.1,33,25z"/>
		<path class="st229" d="M40,45c1,3.5-1,3.5-3.3,2.6c-2.6-1-5.2-2.4-7.7-3.6c1.8-5.5,5.3-1.1,7.9-1.3C37.9,42.7,39,44.2,40,45z"/>
		<path class="st219" d="M36,38c0,0.3,0,0.7,0,1c-2.8,0-5-1.2-7-3c-0.2-5.7,4.7-6.8,8.2-9.1c2.5-1.6,4.3,0,5.8,2
			c-5.4-2-8.5,1.7-11.8,4.8c-1.4,1.3-0.8,1.9,0.8,2.2C33.7,36,35.1,36.6,36,38z"/>
		<path class="st230" d="M36,38c-1.6-0.2-3-0.7-4-2c1.4-1.8,3-3.6,5.6-3.2c1.3,0.2,3.3-0.7,3.9,1.2c0.4,1.5-1.6,1.8-2.3,2.8
			C38.3,38,37.2,38,36,38z"/>
	</g>
</g>
</svg>
