<?xml version="1.0" encoding="utf-8"?>
<!-- Generator: Adobe Illustrator 23.0.5, SVG Export Plug-In . SVG Version: 6.00 Build 0)  -->
<svg version="1.1" id="Слой_1" xmlns="http://www.w3.org/2000/svg" xmlns:xlink="http://www.w3.org/1999/xlink" x="0px" y="0px"
	 width="74px" height="73px" viewBox="0 0 74 73" style="enable-background:new 0 0 74 73;" xml:space="preserve">
<style type="text/css">
	.st0{fill:#FBFAFA;}
	.st1{fill:#FCFBFB;}
	.st2{fill:#FAFAFA;}
	.st3{fill:#FCFBFC;}
	.st4{fill:#AEAEB1;}
	.st5{fill:#DEDDDE;}
	.st6{fill:#ABAAAA;}
	.st7{fill:#995C48;}
	.st8{fill:#542A1C;}
	.st9{fill:#835348;}
	.st10{fill:#584038;}
	.st11{fill:#53352D;}
	.st12{fill:#4B2E27;}
	.st13{fill:#CF8D6F;}
	.st14{fill:#776164;}
	.st15{fill:#8F6254;}
	.st16{fill:#BF8467;}
	.st17{fill:#AB6147;}
	.st18{fill:#B07B60;}
	.st19{fill:#C38762;}
	.st20{fill:#2D1C1B;}
	.st21{fill:#25110F;}
	.st22{fill:#48372F;}
	.st23{fill:#291002;}
	.st24{fill:#361911;}
	.st25{fill:#5B382D;}
	.st26{fill:#5D443F;}
	.st27{fill:#3A2C2D;}
	.st28{fill:#3A1E13;}
	.st29{fill:#904D34;}
	.st30{fill:#BE7158;}
	.st31{fill:#AF6248;}
	.st32{fill:#87472E;}
	.st33{fill:#783B26;}
	.st34{fill:#AF674D;}
	.st35{fill:#703E27;}
	.st36{fill:#5E352A;}
	.st37{fill:#47271B;}
	.st38{fill:#964F3D;}
	.st39{fill:#804A34;}
	.st40{fill:#6C3D2B;}
	.st41{fill:#41251E;}
	.st42{fill:#391F17;}
	.st43{fill:#CA744E;}
	.st44{fill:#C06E49;}
	.st45{fill:#AA552C;}
	.st46{fill:#9D5131;}
	.st47{fill:#94593D;}
	.st48{fill:#BA6C50;}
	.st49{fill:#965F3D;}
	.st50{fill:#995943;}
	.st51{fill:#BD7250;}
	.st52{fill:#AE7A65;}
	.st53{fill:#1E0C09;}
	.st54{fill:#2E1913;}
	.st55{fill:#311B12;}
	.st56{fill:#220D08;}
	.st57{fill:#180B0B;}
	.st58{fill:#240C03;}
	.st59{fill:#1B0A05;}
	.st60{fill:#260E04;}
	.st61{fill:#23120D;}
	.st62{fill:#30160F;}
	.st63{fill:#462016;}
	.st64{fill:#763A26;}
	.st65{fill:#6B3825;}
	.st66{fill:#5C2908;}
	.st67{fill:#6B331B;}
	.st68{fill:#AF6A4F;}
	.st69{fill:#A96441;}
	.st70{fill:#803D22;}
	.st71{fill:#D3816B;}
	.st72{fill:#CC7B61;}
	.st73{fill:#C6785C;}
	.st74{fill:#D3825C;}
	.st75{fill:#9F5E46;}
	.st76{fill:#59230A;}
	.st77{fill:#A15B3F;}
	.st78{fill:#602E25;}
	.st79{fill:#643329;}
	.st80{fill:#6B392B;}
	.st81{fill:#884934;}
	.st82{fill:#824634;}
	.st83{fill:#372015;}
	.st84{fill:#C67857;}
	.st85{fill:#D8896A;}
	.st86{fill:#E4916E;}
	.st87{fill:#A5573A;}
	.st88{fill:#EE9E7F;}
	.st89{fill:#BC694A;}
	.st90{fill:#C97555;}
	.st91{fill:#A4623F;}
	.st92{fill:#9B5A3B;}
	.st93{fill:#CC7D5C;}
	.st94{fill:#CC8161;}
	.st95{fill:#B86E5D;}
	.st96{fill:#DF906B;}
	.st97{fill:#A76A4E;}
	.st98{fill:#F4A685;}
	.st99{fill:#24130E;}
	.st100{fill:#42231D;}
	.st101{fill:#2D1815;}
	.st102{fill:#3F1E16;}
	.st103{fill:#5E2D1D;}
	.st104{fill:#8F4D34;}
	.st105{fill:#CA7E56;}
	.st106{fill:#864A36;}
	.st107{fill:#884930;}
	.st108{fill:#9A5539;}
	.st109{fill:#944732;}
	.st110{fill:#CE7A58;}
	.st111{fill:#AC674A;}
	.st112{fill:#E89377;}
	.st113{fill:#E48C6D;}
	.st114{fill:#B76747;}
	.st115{fill:#C37653;}
	.st116{fill:#E18F6D;}
	.st117{fill:#E08868;}
	.st118{fill:#D68261;}
	.st119{fill:#B86B51;}
	.st120{fill:#C47755;}
	.st121{fill:#B96D4E;}
	.st122{fill:#51291D;}
	.st123{fill:#542D25;}
	.st124{fill:#814432;}
	.st125{fill:#5E2B1A;}
	.st126{fill:#592B22;}
	.st127{fill:#9A5B41;}
	.st128{fill:#9A563D;}
	.st129{fill:#61210B;}
	.st130{fill:#D38260;}
	.st131{fill:#EC9771;}
	.st132{fill:#F09F79;}
	.st133{fill:#DE8963;}
	.st134{fill:#E8926A;}
	.st135{fill:#F09B75;}
	.st136{fill:#EC9773;}
	.st137{fill:#3F2219;}
	.st138{fill:#411C18;}
	.st139{fill:#542B1D;}
	.st140{fill:#633728;}
	.st141{fill:#6F3D28;}
	.st142{fill:#7D462D;}
	.st143{fill:#C07552;}
	.st144{fill:#B86C48;}
	.st145{fill:#BA6E46;}
	.st146{fill:#D27F59;}
	.st147{fill:#A45737;}
	.st148{fill:#A6603C;}
	.st149{fill:#9B5C40;}
	.st150{fill:#783A1F;}
	.st151{fill:#AA6441;}
	.st152{fill:#935538;}
	.st153{fill:#823E22;}
	.st154{fill:#692B0F;}
	.st155{fill:#D07C5A;}
	.st156{fill:#D98365;}
	.st157{fill:#F09B78;}
	.st158{fill:#934D36;}
	.st159{fill:#A45A3E;}
	.st160{fill:#EE9674;}
	.st161{fill:#673426;}
	.st162{fill:#74402E;}
	.st163{fill:#894B38;}
	.st164{fill:#F19F7B;}
	.st165{fill:#F7A57D;}
	.st166{fill:#E98F6D;}
	.st167{fill:#EC9878;}
	.st168{fill:#FBA37F;}
	.st169{fill:#834830;}
	.st170{fill:#C77050;}
	.st171{fill:#AF5E3B;}
	.st172{fill:#CA7652;}
	.st173{fill:#BD6841;}
	.st174{fill:#BC6C53;}
	.st175{fill:#C37551;}
	.st176{fill:#9A5A3C;}
	.st177{fill:#A35941;}
	.st178{fill:#9F4C28;}
	.st179{fill:#B76445;}
	.st180{fill:#934120;}
	.st181{fill:#B96647;}
	.st182{fill:#D17B61;}
	.st183{fill:#FBA48C;}
	.st184{fill:#F19876;}
	.st185{fill:#F29F79;}
	.st186{fill:#80402B;}
	.st187{fill:#AA5F47;}
	.st188{fill:#B7684A;}
	.st189{fill:#EEA280;}
	.st190{fill:#E38C6C;}
	.st191{fill:#FEAD85;}
	.st192{fill:#F5A578;}
	.st193{fill:#E99773;}
	.st194{fill:#BA6945;}
	.st195{fill:#9B4521;}
	.st196{fill:#F6A27C;}
	.st197{fill:#BF694A;}
	.st198{fill:#B4654C;}
	.st199{fill:#D47D58;}
	.st200{fill:#D47F5D;}
	.st201{fill:#D98462;}
	.st202{fill:#C97C5B;}
	.st203{fill:#934A27;}
	.st204{fill:#813811;}
	.st205{fill:#FAA980;}
	.st206{fill:#E89674;}
	.st207{fill:#EF9F7D;}
	.st208{fill:#EC9976;}
	.st209{fill:#E99974;}
	.st210{fill:#C87655;}
	.st211{fill:#B56B4E;}
	.st212{fill:#83320E;}
	.st213{fill:#823206;}
	.st214{fill:#FEB38C;}
	.st215{fill:#A6542C;}
	.st216{fill:#994B26;}
	.st217{fill:#FEB18C;}
</style>
<g>
	<g>
		<path class="st0" d="M71.4,27.5c-1.2-4.5-3.5-9-6.8-12.4c-2.3-2.3-4.8-4.7-6.9-7.2c-0.1-0.1-0.2-0.2-0.3-0.2
			c-3.6-1.4-7.1-3.4-10.9-4.2c-1.2-0.3-2.5-0.4-3.8-0.5c4.3,1.7,8.9,2.6,12.7,5.5c2.4,1.2,4.7,2.5,6.3,4.8c3.1,2.8,6.7,5.1,7.3,9.8
			c0.2,0.5,0.3,0.9,0.5,1.3c1.1,1.5,2,3.1,2.5,4.8C71.7,28.6,71.6,28.1,71.4,27.5z"/>
		<path class="st1" d="M14.7,12.2c-0.3,0.5-0.6,1-1.1,1.5c-1.2,1.2-2.5,1.7-3.9,2.2c-0.1,0-0.2,0.1-0.3,0.1
			c-0.3,0.1-0.5,0.2-0.8,0.2c0,0.1,0,0.2,0,0.3c0,0.7-0.1,1.3-0.4,1.9c-0.1,0.2-0.2,0.5-0.3,0.7c0,0,0,0,0,0c0,0,0,0,0,0
			c-0.1,0.3-0.3,0.5-0.5,0.7C7.2,20,7,20.2,6.8,20.4c-0.1,0.1-0.1,0.1-0.2,0.2c0,0.7-0.3,1.5-0.7,2.3c-2,3.4-4.1,6.8-4.2,10.9
			c0,0.2,0,0.3,0,0.5c0.2,0,0.4,0,0.6-0.1c1.4-2.3,1.1-5.1,2.4-7.4c0.6-1.5,1.3-2.9,2-4.3c0.8-1.7,1.6-3.3,3-4.5
			c0.3-0.3,0.6-0.6,0.8-1c0.2-0.3,0.4-0.7,0.6-1c0.3-0.4,0.8-0.7,1.3-1c0.3-0.2,0.7-0.4,1-0.6c0.5-0.3,1-0.7,1.4-1.2
			c0.6-0.7,1.3-1.5,1.9-2.2C16,11.3,15.3,11.8,14.7,12.2z"/>
		<path class="st2" d="M72,52.1c0-0.1,0-0.2,0-0.3c0-0.7,0.1-1.3,0.4-1.9c0,0,0-0.1,0-0.1c0-0.6,0.1-1.1,0.3-1.7
			c0-0.1,0-0.1,0.1-0.2c0-0.4,0.1-0.8,0.1-1.2c-0.9,1.2-1.2,2.7-1.8,4.1c-2.5,5.4-5.8,10.2-10.7,13.7c-4.7,3.2-9.7,5.6-15.3,6.8
			c-1.1,0.4-2.3,0.7-3.2,1.5c-0.1,0.1-0.1,0.2-0.2,0.3c2.2-0.1,4.4-0.3,6.4-0.7c0.6-0.9,1.5-1.6,2.9-1.9c1.8-0.4,3.4-0.7,4.9-1.2
			c3.2-1.3,6.2-2.9,8.8-5.1c0.3-0.2,0.5-0.5,0.8-0.7c1.4-1.4,2.5-2.8,3.4-4.6c0.5-1,1.9-2.7,2.6-4.2c0-0.1,0.1-0.2,0.1-0.4
			c0-0.2,0-0.5,0.1-0.7C71.8,53,71.9,52.5,72,52.1z"/>
		<path class="st3" d="M32.1,72.6c-0.9-0.8-2-1.1-3.1-1.5c-2.8-0.9-5.6-1.7-8.1-3.1c-1.1-0.6-2.1-1.3-3.3-1.9
			c-1-0.4-1.8-1.1-2.6-1.8c-3-1.3-4.8-3.8-6.3-6.6c-1.8-2.4-3.1-5-3.9-7.8c-0.7-1.7-1-3.5-2.4-4.9c0.6,2.9,1.4,5.5,0.9,8.4
			c0.7,1.6,1.5,3.2,2.3,4.8c0.3,0.1,0.7,0.2,1,0.4c3,1.5,5.5,4.6,8.1,6.7c2.7,2.1,5.7,3.8,8.4,5.8c0.2,0.1,0.3,0.1,0.5,0.2
			c2.8,1,5.6,1.5,8.5,1.7C32.2,72.9,32.2,72.7,32.1,72.6z"/>
		<path class="st4" d="M1.8,33.9c0,0-0.1,0-0.1,0c0,0.2,0,0.4-0.1,0.5c-0.1,3,0,6.2,0.5,9.1c0.1,0.4,0.1,0.8,0.2,1.2
			c1.3-1.5,0.7-3.7,1.5-5.4c0.2-1,0.2-2.1-0.1-3.1C3.3,35.2,2.8,34.3,1.8,33.9z"/>
		<path class="st5" d="M35.5,73.1c2,0,4.1,0,6.3-0.1c-3.2-2-6.4-2-9.6,0C33.3,73,34.4,73.1,35.5,73.1z"/>
		<path class="st6" d="M73.1,43.8c0-0.9,0-1.8,0.2-2.6c0-0.3-0.1-0.6-0.1-0.9c-0.1-0.9-0.1-1.8-0.2-2.7c-0.1,0.2-0.1,0.5-0.2,0.7
			c0,2.1-0.6,4.3,0.3,6.3C73.1,44.4,73.1,44.1,73.1,43.8z"/>
		<path class="st7" d="M46.4,3.5C42.1,2.5,37,2.9,32.6,3.8c-2.6,0.5-5.1,1.4-7.4,2.4c0.7,0.4,1.4,0.5,2.3,0.5c1.1-0.3,2-1,3.1-1.3
			c1.9-0.6,3.9-0.8,5.9-1c1.7-0.2,3.4-0.2,5,0.6c1.7,0.9,3.8,1.2,5.2,2.7c1.3,1.1,2.5,2.2,4.3,2.4c1,0.1,1.9,0,2.9-0.3
			c1-0.4,1.9-0.9,2.3-1.9c-0.8-0.7-1.7-1.3-2.6-1.8C51.3,5,48.9,4,46.4,3.5z"/>
		<path class="st8" d="M70.1,23.8c0,0,0-0.1,0-0.1c-0.1-0.3-0.2-0.5-0.3-0.8c-0.5-0.3-0.9-0.4-1.4-0.1c-2.8,2.8-3.4,5.9-1.4,9.4
			c3.7,0.2,4.4-2.1,4.1-5.1C70.6,26,70.6,24.8,70.1,23.8z"/>
		<path class="st9" d="M58.5,8.8c-0.7-0.3-1.5-0.7-2.2-1C55.4,8,54.4,7.9,54,9c-0.8,1-0.4,1.8,0.4,2.5c1.2,0.7,2.6,0.7,3.9,1.1
			c1,0.3,2,0.8,3.1,0.7c0.2-0.1,0.4-0.2,0.6-0.3c0-0.2-0.1-0.4-0.1-0.6C60.7,11.2,59.5,10,58.5,8.8z"/>
		<path class="st10" d="M64.6,15.1c-0.6-0.6-1.2-1.2-1.8-1.8c-0.3-0.1-0.6-0.2-0.8-0.3v0.2c-0.3,0.4-0.3,0.8-0.2,1.2
			c0.7,1.3,1.9,2.2,2.8,3.4c1.5,1.7,1.8,4.4,4.4,5.2h0.8C68.5,20.1,66.8,17.3,64.6,15.1z"/>
		<path class="st11" d="M72.3,31.3c-0.2-1.3-0.5-2.6-0.8-3.8c-0.3-1.2-0.8-2.4-1.2-3.6c0,0-0.1-0.1-0.1-0.1C70,24.9,70,25.9,70,27
			c0.9,0.8,0.8,1.9,0.7,2.9c0.2,0.6,0.6,1.1,1.2,1.4C72,31.3,72.1,31.3,72.3,31.3z"/>
		<path class="st12" d="M73,38c-0.2-2.4-0.4-4.7-0.8-7H72c-0.5,0.5-0.7,1.1-0.5,1.7c0.2,1.8,0.1,3.6,1.2,5.1
			C72.8,37.9,72.9,37.9,73,38z"/>
		<path class="st13" d="M21.5,8c-2.3,1.3-4.6,2.7-6.8,4.2c-0.1,0.3-0.3,0.6-0.5,0.8c0,0.1,0.1,0.2,0.1,0.4c0.2,0.1,0.4,0.2,0.6,0.3
			c0.4,0.1,0.9,0.2,1.3,0.2c0.5-0.1,0.9-0.1,1.3-0.2c1-0.3,2-0.6,3-1c0.4-0.2,0.8-0.4,1.1-0.7c0.8-0.8,1.8-1.4,1.8-2.7
			C22.7,8.6,22.1,8.2,21.5,8z"/>
		<path class="st14" d="M4.1,26c-0.8,1.6-1.6,3.2-2,4.9c-0.1,1-0.2,2.1-0.3,3.1c0.3,0.8,0.1,1.8,1.1,2.2c0.8-0.2,1.4-0.6,1.7-1.3
			c0.7-1.6,1-3.3,0.9-5.1C5.2,28.4,5.3,27,4.1,26z"/>
		<path class="st15" d="M8,21.6c-0.5-0.2-1-0.3-1.5-0.1c-0.1,0.4-0.3,0.9-0.6,1.3C5.3,23.9,4.6,25,4,26.2C4.2,27.5,3.5,29,5,30
			l0.5-0.5c0.6-1.4,1.3-2.8,2.3-3.9C8.5,24.3,9.2,23,8,21.6z"/>
		<path class="st16" d="M23.2,7.1c-1.5,0.7-2.9,1.5-4.3,2.4c0.2,0,0.5-0.1,0.8-0.2c1.1-0.5,2.5-0.8,3.3,0.7c0.6,0.5,1.2,0.6,2,0.4
			c0.3-0.3,0.4-0.7,0.4-1.2C25,8,24.2,7.5,23.2,7.1z"/>
		<path class="st17" d="M26.5,5.6c-1.5,0.6-2.9,1.3-4.3,2c0.8,0.6,1.9,0.8,2.7,1.5c1.6-0.2,2.7-1,3.3-2.4C28.1,6.5,28.1,6.2,28,6
			C27.5,5.9,27,5.8,26.5,5.6z"/>
		<path class="st18" d="M10.4,17.4l-0.5-0.5c-0.6,0.1-1,0.2-1.4,0.4c-0.1,0.4-0.2,0.8-0.4,1.1c-0.1,0.2-0.2,0.5-0.3,0.7c0,0,0,0,0,0
			c0,0,0,0,0,0c-0.1,0.3-0.3,0.5-0.5,0.7C7.2,20,7,20.2,6.8,20.4c-0.1,0.1-0.1,0.1-0.2,0.2c0,0.4-0.1,0.9-0.3,1.4
			C6.9,21.9,7.5,22,8,22c0.4,0.3,0.9,0.4,1.3,0.1C10.5,20.7,11.1,19.2,10.4,17.4z"/>
		<path class="st19" d="M10.2,16c0.3,0,0.6,0,0.8,0c0.2,0.8-0.1,1.2-0.9,1.1L10,16.9C10,16.6,10.1,16.3,10.2,16z"/>
		<path class="st20" d="M72,51.7c0-0.7,0.1-1.3,0.4-1.9c0,0,0-0.1,0-0.1c0-0.6,0.1-1.1,0.3-1.7c0-0.1,0.1-0.1,0.1-0.2
			c0.1-1.3,0.3-2.6,0.2-4c0-0.9,0-1.8,0.2-2.6c0-0.3-0.1-0.6-0.1-0.9c-0.1-0.8-0.1-1.6-0.2-2.3h0c-1.4,1.2-1.1,3.1-1.8,4.5
			c-0.1,0.5-0.2,0.9-0.3,1.4c-0.2,1.3-0.3,2.7-0.9,3.9c-2.5,5.9-6.2,11-10.3,15.9c0.2,0.8,0.6,1.3,1.4,1.5c5-3.4,8.6-7.9,10.9-13.1
			C72,51.9,72,51.8,72,51.7z"/>
		<path class="st21" d="M51.1,70.4c1-0.2,2-0.4,2.9-0.6c2.5-1.2,4.8-2.7,7.1-4.5c-0.2-0.6-0.6-1.1-1.2-1.3c-0.5-0.6-1.1-0.7-1.9-0.5
			c-2.8,1-5,3.1-7.8,3.9c-0.4,0.2-0.8,0.4-1.1,0.7c-1.2,1-2.7,0.8-4.1,1c-1.5,0.3-3,0.4-4.5,0.7c-0.9,0.4-1.8,0.8-1.8,2
			c0.2,0.5,0.5,0.8,1.1,0.8c1.8-0.2,3.7,0.3,5.4-0.4c1.2-0.1,2.4-0.3,3.6-0.6C49.4,71.1,50.1,70.6,51.1,70.4z"/>
		<path class="st22" d="M35.2,73.1h3.5c1.2,0,2.4-0.1,3.6-0.1c0.9-0.3,2-0.1,2.8-0.9C43.1,72,41.1,72,39,71.9
			c-3.4-1.7-6.8-2.3-10.2,0.2c0.3,0.4,0.7,0.5,1.1,0.6C31.7,73,33.4,73.1,35.2,73.1z"/>
		<path class="st23" d="M35.7,68.6c-0.3-0.6-0.8-1-1.4-1.3c-0.7-0.2-1.3-0.2-2-0.1c-0.4,0.1-0.9,0.2-1.3,0.3c-2.5,0.4-5,0.5-7.3-0.6
			c-3.6-0.8-3.9-0.7-3.7,2c0,0,0.1,0.1,0.1,0.1c2.7,1.7,5.4,3.1,8.7,3.1C32.2,72,35.6,72,39,71.9c0-0.3,0-0.6,0.1-0.9
			C38.2,69.8,36.3,70.1,35.7,68.6z"/>
		<path class="st24" d="M32,63.7c-3.7,1-7.3,2.5-11.1,0.6c-1.9,0-3.8,0-3.9,2.6c0.3,0.1,0.6,0.3,0.8,0.5c0.7,0.5,1.5,1,2.2,1.5
			c0-1.5,0.5-2.2,2.1-1.4c0.6,0.3,1.3,0.4,1.9,0.5c2.7,0.8,5.3,0.8,8,0c2-2,6.7,0.5,7.1-4.2C36.8,62.1,34.4,63,32,63.7z"/>
		<path class="st25" d="M7.8,58.3c-1.9-2.3-3.2-5-3.9-8c-0.5-1.3-0.4-2.6-0.3-3.9c1.6-1.6,2.3,0.2,2.9,1c1.1,1.7,3.2,2.3,4.2,4
			c0.2,0.7,0.3,1.4,0,2.1c-0.7,1.2-1.4,2.4-1.8,3.7C8.5,57.9,8.2,58.2,7.8,58.3z"/>
		<path class="st26" d="M4.8,39.9c-0.4-0.7-0.9-1.3-1.9-1c-1.5,1.3-0.9,3-0.8,4.5c0,0,0,0.1,0,0.1c0.3,2.1,0.9,4,1.2,6
			c0.2,0.3,0.4,0.6,0.6,0.9C3.9,48.9,4,47.5,4,46c1.1-1,1.3-2.3,1.3-3.7C5.3,41.4,5.1,40.7,4.8,39.9z"/>
		<path class="st27" d="M14.6,65.1c0.1,0,0.2,0,0.3,0.1c0.9-1.2,0.2-2.3-0.3-3.3c-1.7-1.8-3.5-3.5-5.3-5.2c-0.5-0.2-0.9-0.1-1.3,0.2
			c0,0.5-0.1,0.9-0.2,1.4c0.3,0.5,0.5,1,0.8,1.5C10.7,61.4,12.6,63.5,14.6,65.1z"/>
		<path class="st28" d="M14.9,65.4c0.7,0.5,1.4,1,2.1,1.5c0,0,0,0,0,0c1-1.3,2.4-1.8,4-1.9c-1.4-3.1-3.9-3.7-7-3
			c-0.2,1.2,0.7,2.1,0.9,3.2C14.9,65.3,14.9,65.3,14.9,65.4z"/>
		<path class="st29" d="M4,40c-0.2-0.6-0.6-0.9-1.1-1.1c0-0.9,0-1.9,0.1-2.8c0.2-0.5,0.5-0.9,1-1.1c0.8-0.7,1.7-1,2.7-0.8
			c0.7,0.2,1.3,0.6,1.7,1.2c0.1,0.4,0.2,0.9,0.1,1.4c-0.4,0.8-1.1,1.4-1.7,2.1C6,39.5,5.4,40.6,4,40z"/>
		<path class="st30" d="M42.1,4.1c1,0.5,2,1.1,3.3,1C46.7,5,47,5.9,47,7c0.2,2.2,2.6,2.6,3.6,4.2c0.4,0.9,0.3,1.8-0.2,2.7
			c-0.5,0.6-1.2,0.8-2,0.7c-0.7-0.2-1.4-0.5-2-0.9c-1.5-1.3-3.3-2-5.1-2.8c-1.7-0.7-3.4-1.4-2.8-3.8C39.5,5.8,40.6,4.8,42.1,4.1z"/>
		<path class="st31" d="M50,14c0-1,0-2,0-3c-0.6-1.1,0.5-1.4,1-2c1,0,2,0,3,0c0,0.8,0,1.6,1,2c1,1.5,1.1,3.2,0.9,5
			c-0.1,0.4-0.3,0.8-0.6,1.2c-0.3,0.3-0.7,0.5-1.2,0.7c-0.4,0.2-0.9,0.3-1.3,0.4c-1.5,0.3-2.6-0.2-3.2-1.7
			C49.4,15.6,49.8,14.8,50,14z"/>
		<path class="st32" d="M36.1,4.2c-1.9,0-3.8,0.7-5.6,0.1c-0.6,0.2-1.2,0.4-1.8,0.6C28.4,5.2,28.1,5.5,28,6c1.8,3.1,5.3,2.6,8,3.7
			c0.5,0.1,1,0,1.5-0.2c1.2-0.6,0.9-1.8,1.1-2.8C38.6,5,37.7,4.3,36.1,4.2z"/>
		<path class="st33" d="M38.2,3c-0.6,0.1-1.2,0.1-1.8,0.2c-0.2,0-0.3,0-0.5,0.1c-0.5,0.6-0.5,1.2,0,1.7c1.4-0.1,2.1,0.6,2,2
			c0.3,0.5,0.6,0.5,1,0.1c1.8-0.1,3-1,3.1-3C41.3,3.2,40.3,3,39.4,3C39,3,38.6,3,38.2,3z"/>
		<path class="st34" d="M51,9c-0.3,0.7-0.7,1.3-1,2c-2,0.2-3.3-1.4-4.4-2.5C44.5,7.3,46.1,7.2,47,7C48.9,6.6,49.1,9.4,51,9z"/>
		<path class="st35" d="M32.6,3.8c-0.8,0.2-1.6,0.3-2.3,0.6C32,5.8,34.1,4.6,36,5V3.2C34.8,3.4,33.7,3.6,32.6,3.8z"/>
		<path class="st36" d="M65,17c2.5,1.2,2,4.4,4,6c-2.3,2.6-2,5.9-2,9c0,1-0.3,1.8-1.2,2.3c-0.5,0-0.9-0.2-1.2-0.6
			c-0.5-0.9-0.6-1.8-0.5-2.8c0-0.5,0.1-1,0.3-1.4c0.7-2.2,0.4-4.4,0.4-6.6C65,21,63.6,18.9,65,17z"/>
		<path class="st37" d="M66,34c0-0.8,0-1.7,1-2c2.6-0.7,3.5-2.5,3-5c1.8,0.5,1.7,1.7,1,3c0.9,2.6-0.4,4.4-2.1,6
			c-0.4,0.3-0.8,0.5-1.3,0.6c-0.7,0.1-1.4-0.1-1.9-0.7C65.4,35.2,65.4,34.6,66,34z"/>
		<path class="st38" d="M55,17c0.6-2-1.2-4,0-6c1.4,0.2,3-0.7,4,1c1.5,1.9,2.2,3.8-0.2,5.6C57.4,18.1,56.1,18.2,55,17z"/>
		<path class="st39" d="M59,17c1.3-1.7-0.5-3.3,0-5c1.2-0.2,2,0.6,3,1.1c0.1,0.3,0.1,0.6,0.1,0.9c0.2,1.2,0.3,2.3,0,3.5
			c-0.8,1-1.8,1.4-3,0.8c-0.2-0.3-0.3-0.5-0.3-0.8S58.9,17,59,17z"/>
		<path class="st40" d="M62,17c-0.6-1-0.7-2,0.1-3c1.3,0.6,2.3,1.7,3,3c0.2,2,1.4,3.9,1,6c-1.4,2.2,0.3,4.8-1,7c0,0.3,0,0.7,0,1
			c-0.8,0.6-0.2,2.1-1.5,2.3c-0.5-0.1-0.9-0.4-1.2-0.8c-1-2.3-0.3-4.5,0.1-6.8c0.4-2.5,0.3-4.9-0.8-7.3C61.6,17.9,61.7,17.4,62,17z"
			/>
		<path class="st41" d="M68,36c1.1-2,3-3.5,3-6c0.5,0.1,0.9,0.4,1,1c0,0.7,0,1.3,0,2C71,34.5,72.8,39.7,68,36z"/>
		<path class="st42" d="M73,38c0-0.3,0-0.5,0-0.8c0-0.3,0-0.6-0.1-0.8c-0.1-1.1-0.4-2.3-0.9-3.4c-1.4,0.9-0.6,4.8-4,3
			c-1.3,1.7-3,3.3-2.4,5.7c1.4,2,4.1-1.3,5.2,1.4c0.4,0.3,0.8,0.2,1.2-0.1C73.8,41.6,72.7,39.7,73,38z"/>
		<path class="st17" d="M23,10c0.6,0,1.3,0,1.9,0c1.8-1.9,3.8-1.5,5.9-0.7c1.1,0.5,2.1,1,2.4,2.3c-0.1,1-0.9,1.5-1.6,2
			c-0.5,0.4-1,0.8-1.6,1.1c-1.1,0.6-2.1,1.5-3.3,1.9c-1.7-0.1-2.9-1.4-4.5-1.7c-0.7-0.5-1.1-1.3-1.3-2.1c0-0.2,0-0.4,0-0.6
			C21,10.7,21.6,10,23,10z"/>
		<path class="st43" d="M17,13c1-0.4,1.9-1.3,3.1-1c0.3,0.4,0.5,0.8,0.7,1.4c-0.2,2.1-1.1,3.4-3.4,2.9c-0.7-0.5-1-1.1-1-1.9
			C16.4,13.9,16.6,13.4,17,13z"/>
		<path class="st44" d="M17,14c0,0.7,0,1.4,0.1,2.1c-0.2,0.1-0.3,0.2-0.5,0.3c-0.4,0-0.8-0.1-1.1-0.3c-0.3-0.3-0.6-0.6-0.8-0.9
			c-0.2-0.4-0.2-0.7-0.2-1.1c0.1-0.4,0.2-0.7,0.5-1c0.3,0,0.7,0,1,0C16.4,13.3,16.7,13.6,17,14z"/>
		<path class="st45" d="M17,14c-0.5-0.1-0.9-0.4-1-0.9c0.3,0,0.6,0,0.9,0C17,13.3,17,13.7,17,14z"/>
		<path class="st46" d="M20,13c0-0.3,0-0.6,0.1-0.9c0.3,0,0.6-0.1,0.9,0l0,0C21.4,13,20.9,13.2,20,13z"/>
		<path class="st47" d="M7,35c-1,0-2,0-3,0c0-1.7,0-3.4,1-5l0,0c0.4-0.3,0.8-0.4,1.2-0.1c0.9,1.1,1,2.5,1.3,3.9
			C7.5,34.3,7.3,34.7,7,35z"/>
		<path class="st48" d="M8,22c0.3,0,0.6,0,1,0c0.6,0,1.2,0.2,1.8,0.3c1.3,0.2,2.7,0.3,2.8,2.1c-0.2,1.8-0.3,3.6-1.8,4.9
			c-1.5,0.6-2.7-0.9-4.1-0.7c-0.6-0.3-1.1-0.7-1.2-1.4c0-0.5,0.2-0.8,0.5-1.2C7.3,24.7,7.7,23.3,8,22z"/>
		<path class="st49" d="M7,26c0,0.3,0,0.7,0,1c-0.7,0.9,0.2,2.3-1,3c-0.3,0-0.7,0-1,0C5.3,28.5,4,26.2,7,26z"/>
		<path class="st50" d="M31,10c-2,0.1-4-0.8-6.1,0c0-0.3,0-0.6,0-0.9C25.3,7.3,27.3,7.4,28,6c2.4,1.6,5.8,0.7,8,3
			C34.6,10.9,32.9,11,31,10z"/>
		<path class="st51" d="M10,23c-0.5-0.1-0.9-0.5-1-1c0-1.7,1.4-3.1,1.1-4.9c0.3-0.4,0.6-0.8,0.9-1.1l0,0c0.3-0.3,0.7-0.5,1.1-0.5
			c0.4,0,0.8-0.1,1.2-0.2c0.4-0.1,0.8-0.1,1.2,0.1c0.4,0.2,0.7,0.4,0.9,0.8c0.5,0.8,1.3,0.9,2.1,1.2c0.4,0.2,0.7,0.5,0.9,0.9
			c0.1,0.4,0,0.9-0.2,1.3c-0.8,1.1-2,1.7-3.3,2.1C13.2,21.8,11.5,22,10,23z"/>
		<path class="st52" d="M12,16c0-0.3,0-0.7,0-1c0.3,0,0.7,0,1,0c0.1,0.2,0.2,0.4,0.4,0.5c-0.1,0.2-0.3,0.3-0.4,0.5
			C12.7,16,12.3,16,12,16z"/>
		<path class="st53" d="M59.9,64c-0.6,0-1.3,0-1.9,0c-2.9,0.2-3.3-1.8-3.6-4c0.6-2.3,2.6-2.9,4.6-3.2c3.7-0.6,5.9-2.7,7-6.1
			c1.3-1.5,2.6-3.2,5-2.6c-1.4,4.9-4.6,8.9-7.1,13.2C63,62.6,60.8,62.5,59.9,64z"/>
		<path class="st54" d="M71,48c-1.3,1-2.7,2-4,3c-2.1,0.9-4.3,1.4-6.3,2.3c-1.2-0.4-1.4-1.3-1.3-2.3c0.2-0.8,0.6-1.4,1.1-1.9
			c2.3-1.9,5.2-2.9,7.4-4.9c1.2-1.1,2.7-1.2,4.1-0.2C71.7,45.4,72.7,47,71,48z"/>
		<path class="st55" d="M72,44c-1,0-2.1-0.3-2.8,0.5C67,47.1,63.8,48.2,61,50c-1.4-2.2,0.4-3.4,1.5-4.8c2.5-2,5-4,8.5-2.2
			c0.3,0,0.7,0,1,0C72,43.3,72,43.7,72,44z"/>
		<path class="st56" d="M55,60c0.9,1.4,1.1,3.3,3,4c-2.3,2-4.6,4.2-8,4c-0.5-0.9-0.2-1.7,0.2-2.5c1-1.6,2.6-2.9,3.2-4.8
			C53.8,60.1,54.2,59.6,55,60z"/>
		<path class="st57" d="M51,66c-0.3,0.7-0.7,1.3-1,2c0,0.3,0,0.7,0,1c-1.7,0.6-3.5,0.2-5.2,0.3c-1.3-0.5-3.1,0.1-4-1.5
			C44.6,63.6,47,63.2,51,66z"/>
		<path class="st58" d="M39,71c-1,0-2-0.1-2.9,0c-2.1,0.2-1.5-0.9-1.1-2c1.3-1.4,2.9-2,4.8-1.5c0.7,0.7,1.7,1.2,1.2,2.5
			C40.7,71,39.8,71,39,71z"/>
		<path class="st59" d="M41,70c-0.3-0.7-0.7-1.3-1-2c0.3-0.3,0.7-0.3,1,0c1.4,0.3,3-0.7,4,1c0.4,0.2,0.5,0.4,0.4,0.7
			C45.2,69.9,45.1,70,45,70C43.7,69.9,42.3,71.3,41,70z"/>
		<path class="st60" d="M45,70c0-0.3,0-0.7,0-1c1.7-0.5,3.3-0.5,5,0C48.6,70.9,46.7,69.6,45,70z"/>
		<path class="st61" d="M41,68c-0.3,0-0.7,0-1,0c-1.7,0-3.2,1.4-5,1c-0.1-0.5-0.5-0.9-1-1c2.2-2.6,5.6-2.5,8.3-3.9
			c1.9-1,4.1-1.3,6-2.4c0.6-0.3,1.3-0.4,2-0.4c1.3,0.9,2.4-1.9,3.7-0.3c1,2.9-2.5,3-3,5C47.2,64.3,44.1,66.2,41,68z"/>
		<path class="st62" d="M49,62c-2,3.3-5.8,2.6-8.7,3.9c-2,0.9-4.5,0.6-6.3,2.1c-0.7,0-1.3,0-2,0c0.5-1.3,1.5-2,2.9-2
			c1.6-0.1,3.1-0.6,4.1-2c-0.6-1.1,0.1-1.8,0.7-2.6c0.7-0.7,1.6-1.1,2.6-1.2C44.4,61.2,47.5,58.7,49,62z"/>
		<path class="st62" d="M24,68c2.7,0,5.3,0,8,0C29.3,69.5,26.7,69.5,24,68z"/>
		<path class="st63" d="M40,62c-0.3,0.7-0.7,1.3-1,2c-4.1-0.8-7.7,1.4-11.4,2.4C24.8,67.1,22.9,67,21,65c-2.3-1-4.7-2-7-3
			c-2.5-0.8-4.2-2.5-5-5c0.4-0.4,0.9-0.5,1.5-0.5c7.3,5.4,15.8,4,24,4.2C36.3,60.7,38.5,60.3,40,62z"/>
		<path class="st64" d="M4,46c0-1.3,0-2.7,0-4c1.7-1.3,3.2-0.4,4.7,0.4c1.6,2.1,0.8,5.8,4.5,6.5c0.4,0.2,0.7,0.5,1,0.8
			c0.6,1.4,1.4,2.5,3,2.9c0.6,0.3,1.1,0.7,1.7,1.1c2.1,2.6,5.3,0.2,7.7,1.6c1.1,0.7,2.1,1.4,1.3,3C22.2,60.7,15,58.2,10,52
			C6.1,49.9,6.1,49.9,4,46z"/>
		<path class="st65" d="M10,52c1.5,0.9,3.1,1.8,4.6,2.9c4.1,2.8,8.5,4,13.4,3.1c0.2,0.1,0.5,0.2,0.7,0.4c0.4,0.4,0.6,0.9,0.4,1.5
			c-4.7,2.6-9.3,0.9-13.7-0.9c-1.9-0.8-3.9-1.8-5.4-3.4c-0.3-0.5-0.3-1,0-1.5C10,53.3,10,52.7,10,52z"/>
		<path class="st66" d="M10,54c0,0.3,0,0.7,0,1c0.6,0.7,0.6,1.3,0,2c-0.3,0-0.7,0-1,0s-0.7,0-1-0.1C8,55.5,7.8,53.9,10,54z"/>
		<path class="st67" d="M9,43c-1.8,0.4-3.3-1-5-1c0-0.7,0-1.3,0-2c1-0.3,1.6-1,2-2c0.9-0.5,1.6,0.1,2.3,0.5c0.9,0.9,2.5,0.6,3.2,1.9
			c0.3,1,0.2,1.9-0.5,2.7C10.4,43.5,9.7,43.6,9,43z"/>
		<path class="st68" d="M11,40c-0.9-0.5-2.9,1.9-3-1c-0.6-0.6-0.6-1.3,0-2c0-0.3,0-0.7,0.1-1c0.2-0.3,0.5-0.6,0.7-0.9
			c0.5-0.6,0.9-1.3,1.8-1.5c0.4,0,0.8,0.1,1.2,0.4c1.2,1.5,2.5,2.9,2.4,5C13.2,39.9,12.2,40.2,11,40z"/>
		<path class="st69" d="M9,36c-0.3,0-0.7,0-1,0c-0.1-0.5-0.5-0.9-1-1c0-0.3,0-0.7,0-1c-0.6-1.6-1.2-3.2,0.8-4.4c1,0,1.6,0.5,2,1.4
			C10.2,32.8,9.6,34.4,9,36z"/>
		<path class="st70" d="M8,37c0,0.7,0,1.3,0,2c-0.7-0.3-1.3-0.7-2-1C6.3,37,7.1,37,8,37z"/>
		<path class="st71" d="M38,7c0.3,0,0.6,0,1,0.1c-0.2,2.3,1.6,2.5,3.1,2.8c2,0.5,3.8,1.2,5,3.1c0.5,1.5,0.3,2.9-0.7,4.1
			c-1.4,0.7-2.8,0.1-4.1-0.4c-1-0.6-1.7-1.4-2.5-2.2c-0.9-1.4-3-1.7-3.3-3.6c-0.2-0.8,0-1.4,0.5-1.9C38,8.7,38,7.8,38,7z"/>
		<path class="st72" d="M46,17c-0.2-1.5,0.3-2.7,1-4c0.5,0.1,0.9,0.5,1,1c0.6,0.5,1.5,0.9,1.3,1.9c-0.3,1-0.7,2.1-2,2.3
			C46.7,18,46.2,17.7,46,17z"/>
		<path class="st73" d="M49,16c-0.3-0.7-0.7-1.3-1-2c0.7,0,1.3,0,2,0c1.2,0.7,1.2,1.4,0,2C49.6,16.3,49.3,16.3,49,16z"/>
		<path class="st74" d="M49,16c0.3,0,0.7,0,1,0c0.5,1.8,1.6,1.9,3,1c0.6,0.6,1.3,1.2,1.4,2.2c-0.6,1.9,1.1,3.3,1.2,5
			c-0.5,2,0.9,4.2-0.4,6.1c-2.9,1.5-3.5,4.7-5.2,7c-1.6,2.1-2.4,6.5-6.9,4.1c-1.1-1.7-0.2-2.9,1.2-3.7c2.6-1.5,3.2-4,3.8-6.5
			c0.1-0.4,0.2-0.9,0.3-1.3c0.4-1.4,0.3-3,0.8-4.4c0.6-1.5,0.2-2.8-0.8-4c-0.6-0.9-1.4-1.7-1.5-2.9c0.1-0.2,0.2-0.4,0.3-0.6
			C47.7,17.3,48.3,16.7,49,16z"/>
		<path class="st75" d="M53.9,19C53,18.6,53,17.8,53,17c0.4,0,0.7,0,1.1,0.1c0.3,0.3,0.6,0.3,0.8,0l0,0c1.3,0,2.7,0,4,0
			c0,0.3,0,0.7,0,1c2.9,2.5,3.9,5.5,1.9,9.1c-1.7,0.5-2.7-0.9-4-1.5c-0.6-0.4-1-1-1.2-1.7c0-0.5-0.2-1,0-1.4
			C56.8,20.5,55.9,19.5,53.9,19z"/>
		<path class="st76" d="M55,17c-0.1,0.2-0.3,0.5-0.4,0.7c-0.1-0.2-0.3-0.5-0.4-0.7C54.4,17,54.7,17,55,17z"/>
		<path class="st77" d="M37,9c0,0.6-0.1,1.3-0.1,1.9c-0.1,0.8-0.5,1.3-1.2,1.7c-1,0.3-1.9,0.2-2.7-0.6c-0.7-0.7-1.3-1.3-2-2
			c1.8,0.4,3.2-1,5-1C36.3,9,36.7,9,37,9z"/>
		<path class="st78" d="M66,34c0,0.7,0,1.3,0,2c1,1.2,0.4,2.2-0.3,3.2c-2.1,2.7-4.6,5-6.1,8.2c-1.1,1.2-2.3,2.5-3.8,3.2
			c-1,0.3-1.9,0.4-2.9,0.1c-1-0.4-1.6-1.2-1.4-2.3c0.1-0.5,0.4-0.9,0.7-1.2c2.1-1.9,4.6-3.4,6.1-6c0.2-0.4,0.5-0.7,0.8-1
			c1-1,2-2.1,3-3.2c1-1,1.2-2.7,2.9-3.1C65.3,34,65.7,34,66,34z"/>
		<path class="st79" d="M65,34c-1.1,1.1-0.5,3.1-2,4c-1.6-2-1.1-3.7,1-5c0-0.8,0-1.7,1-2C65,32,65,33,65,34z"/>
		<path class="st80" d="M65,30c0.4-2.3-1-4.9,1-7C65.6,25.3,67,27.9,65,30z"/>
		<path class="st41" d="M65,39c0.4-1,1.2-1.8,1-3c0.7,0,1.3,0,2,0c0.8,2.5-2.1,3.7-2,6c-0.5,0.3-0.9,0.2-1.3-0.2
			C64.1,40.8,64.3,39.9,65,39z"/>
		<path class="st81" d="M60,27c2.2-3.3-0.4-6-1-9c1.2,0.2,2-0.7,3-1c0,0.3,0,0.7,0,1c2.7,5.5,0.4,10.7-1,15.9
			c-0.1,0.4-0.8,0.3-1.3,0.1c-1.1-1.4-1.1-3.1-0.9-4.8C59,28.3,59.3,27.6,60,27z"/>
		<path class="st82" d="M60,34c2.3-5.1,3.1-10.4,2-16c3.5,1.9,2.1,5.3,1.7,7.8C63.4,28.2,63,30.6,63,33c-0.2,3-2,5.3-3,8
			c-0.3,0-0.7,0-1,0c-1.2,3-4.6,4.1-6,7c-0.3,0-0.7,0-1,0.1c-0.5,0.5-1.1,0.6-1.8,0.3c-0.4-0.3-0.5-0.7-0.5-1.1
			c0.1-0.4,0.3-0.8,0.6-1.2c1.5-2.2,3.3-4.1,5.2-6C57.6,38.6,56.7,34.7,60,34z"/>
		<path class="st80" d="M60,41c-0.3-3.2,1.9-5.4,3-8c0.3,0,0.7,0,1,0c-1,1.5-1.1,3.2-1,5C61.3,38.3,61.4,40.4,60,41z"/>
		<path class="st83" d="M65,42c0.3,0,0.7,0,1,0c0.5-0.1,1-0.1,1.4-0.3c0.9-0.6,0.9-2.5,2.3-2.1c1.6,0.5,1.2,2.1,1.3,3.4
			c-3.3-0.6-5.6,1.4-8,3c-0.6-0.6-0.8-1.3-0.7-2.1C62.8,42.8,63.3,41.6,65,42z"/>
		<path class="st84" d="M22,14c0.6,0.2,1.5,0.7,1.7,0.5c2.1-1.8,2.3-1,1.9,1.2c0,0,0.9,0.2,1.3,0.4c0.9-0.4,1.3,0.2,1.5,1
			c0,0.5-0.2,0.9-0.4,1.3c-2.9,1.4-5.7,1.5-8.4-0.4C19.1,15.7,20.8,15,22,14z"/>
		<path class="st85" d="M22,14c0.3,1.9-2.4,2.2-2.1,4c-0.3,0.3-0.6,0.5-1,0.5S18.2,18.3,18,18h-0.2c-0.5-0.6-1.6-0.9-0.9-2l0,0
			c2,0,2.9-1.1,3-3.1c0.5-0.1,0.9-0.4,1-1C22,12.3,22,13.1,22,14z"/>
		<path class="st86" d="M29.9,13.9c0.4-0.3,0.8-0.6,1.1-0.9c1.3-0.4,2.3,0.1,3.2,0.9c-0.1,2.6-1.2,3.9-3.9,2.9
			C29.3,15.9,29.9,14.9,29.9,13.9z"/>
		<path class="st87" d="M34,14.1c-1.1,0-2-0.6-3-1.1c0.4-0.9,1.2-0.9,2-1c1,0,1.9,0,2.9,0c0.6,0.5,0.7,1.1,0.5,1.8
			c-0.3,0.4-0.7,0.6-1.1,0.7C34.8,14.6,34.3,14.4,34,14.1z"/>
		<path class="st88" d="M29.9,13.9c1.5,0.6,0.1,1.4,0.1,2.1c0,1.7-0.8,1.7-2,1c-0.1-0.5-0.5-0.9-1-1C27.5,14.7,28.5,14,29.9,13.9z"
			/>
		<path class="st89" d="M17,16c0.3,0.7,0.6,1.3,0.9,2c-0.6,0-1.3-0.1-1.9,0c-2.1,0.2-1.4-1-1-2c0.3-0.4,0.7-0.4,1,0
			C16.3,16,16.7,16,17,16z"/>
		<path class="st90" d="M16,16h-0.5H15l0,0c-0.1-0.2-0.3-0.3-0.4-0.5c0.1-0.2,0.3-0.3,0.4-0.5C15.5,15.1,15.9,15.5,16,16z"/>
		<path class="st91" d="M14,15c0-0.3,0-0.7,0-1c0.3,0,0.7,0,1,0c0,0.3,0,0.7,0,1l0,0C14.7,15.4,14.3,15.4,14,15z"/>
		<path class="st92" d="M8,30c-1.7,1-0.7,2.7-1,4c-1.7-1-0.7-2.6-1-4c0.1-1.1-0.4-2.4,1-3c0.1,0.5,0.5,0.9,1,1
			C8.6,28.7,8.6,29.3,8,30z"/>
		<path class="st93" d="M11,29c1.8-1.2,0.5-3.7,2-5c0.5-0.9,1.1-1.5,2.2-1c1.2,1.5,1.6,3.3,2.4,5c0.2,0.7,0.1,1.3-0.2,2
			c-2.2,0.8-1,3.8-3,4.7c-1.8,0.5-2.9-0.7-4-1.8C9.9,31.4,9.9,30.1,11,29z"/>
		<path class="st94" d="M15,23c-0.7,0.3-1.3,0.7-2,1c-0.4-2.1-2.4,0.5-3-1c0.9-2.5,2.7-2.8,5-2c0.7,0.3,1.2,0.7,1.1,1.5
			C16,23,15.5,23.2,15,23z"/>
		<path class="st95" d="M11,29c0,1.3,0,2.7,0,4c0.3,0.2,0.4,0.4,0.3,0.7C11.2,33.9,11.1,34,11,34h-0.5H10c-1-0.8,0-2.2-1-3
			c-0.1-0.5-0.5-0.9-1-1c0-0.7,0-1.3,0-2C9.6,26.5,10.1,28.5,11,29z"/>
		<path class="st96" d="M15,23c1.4-0.7-0.1-1.3,0-2c0.7-1.2,2-1.4,3-2c0.3-0.4,0.7-0.4,1.2-0.2c1,1.2,1.4,2.8,2.1,4.2
			c0,1.3-1,1.7-1.9,2.1c-0.7,0.3-1.1,0.9-1.4,1.6c-0.2,0.5-0.5,1-1,1.3C15.3,26.7,14.9,25,15,23z"/>
		<path class="st97" d="M14,15c0.3,0,0.7,0,1,0c0,0.3,0,0.7,0,1c-0.7,0-1.3,0-2,0c0-0.3,0-0.7,0-1C13.3,15,13.7,15,14,15z"/>
		<path class="st98" d="M19,19c-0.3,0-0.6,0-1,0c0-0.3,0-0.7,0.1-1c0.3,0,0.6,0,0.9,0c0.3,0.2,0.4,0.4,0.3,0.6
			C19.2,18.9,19.1,19,19,19z"/>
		<path class="st99" d="M54,61c-1.3-0.7-1.6,1.9-3,1c-1.4-2.5,0.8-3.3,2.1-4.5c0.9-0.7,1.8-1.4,2.7-2.1c1.6-1.2,3.3-2,5.3-2.4
			c1.2-3.2,3.5-2.8,6-2c-0.7,4.8-3.8,6.7-8.3,7c-1.5,0.1-2.8,0.6-3.7,2C54.5,60.1,54.1,60.5,54,61z"/>
		<path class="st100" d="M63,44c0,0.7,0,1.3,0,2c-0.5,1.4-2.3,2.2-2,4c-0.5,0.1-0.9,0.5-1,1c-0.5,0.5-1.1,0.8-1.8,0.8
			c-0.5-0.1-0.9-0.2-1.3-0.5c-0.3-0.4-0.4-0.8-0.2-1.2c0.6-0.9,1.5-1.7,2.2-2.4C60.8,47,60.3,43.7,63,44z"/>
		<path class="st101" d="M58,51c0.7,0,1.3,0,2,0c0,0.8,0,1.6,1,2c-1.6,1.1-2.8,2.9-5,3c-0.7-0.8-0.5-1.6,0-2.5S57.2,51.8,58,51z"/>
		<path class="st102" d="M54,58c-0.9,1.4-3.4,1.6-3,4c-0.7,0-1.3,0-2,0c-2.2-1.3-4.8,0.5-7-1c-0.3-0.5-0.3-0.9,0.1-1.3
			c0.6-0.5,1.3-0.7,2.1-0.8c2.5,0.1,4.8-0.8,7-1.7C52.3,57,53.2,57.1,54,58z"/>
		<path class="st103" d="M42,60c0,0.3,0,0.7,0,1c-0.7,0.3-1.3,0.7-2,1c-6,0.1-12-0.2-18,0.2c-4.5,0.3-8.6-2.2-12-5.3
			c0-0.7,0-1.3,0-2c4.2,1.7,7.9,4.5,12.6,4.7c2.2,0.1,4.5,1.2,6.4-0.7c1.7-0.8,3.4,0.7,5.1,0c0.9-0.1,1.7-0.2,2.6,0
			c1.4,0.3,2.9,0.4,4.3,0.4C41.4,59.5,41.7,59.7,42,60z"/>
		<path class="st104" d="M26,56c-0.8-0.2-1.9-0.7-2.3-0.4c-2.8,2.5-4.2,0.2-5.7-1.6c-0.5-0.9,0.1-1.2,0.7-1.5
			c2.5-0.3,5.2-2.2,7.6,0.3c0.4,0.6,0.5,1.3,0.4,2C26.6,55.3,26.4,55.7,26,56z"/>
		<path class="st105" d="M13.9,50.1c-0.3,0-0.6-0.1-0.9-0.1c-1.1-1.5-1.4-3.1-0.4-4.8c0.6-0.7,1.3-1.1,2.2-1.2
			c0.9-0.1,1.7,0.1,2.4,0.6c1,1.2,1,2.4,0.6,3.8c-0.5,1-1.3,1.6-2.3,1.9C14.9,50.5,14.4,50.4,13.9,50.1z"/>
		<path class="st106" d="M13,45c0,1.7,0,3.3,0,5c-4.7-2-4.8-2.2-4-7c0.7,0,1.3,0,2,0c0.1,0.1,0.3,0.2,0.4,0.4
			c0.2,0.5,0.3,0.9,0.1,1.4v0.4l0.3-0.3c0.3-0.2,0.6-0.3,0.9-0.2C12.7,44.7,13,45,13,45z"/>
		<path class="st107" d="M26,56c0-0.3,0-0.7,0-1c1.3-1.2,2.9-1.3,4.5-0.8c0.8,0.3,1.4,0.8,1.8,1.6c0.2,0.5,0.1,1-0.1,1.6
			C31,58.8,29.6,58.9,28,58l0,0C27.7,57,27,56.3,26,56z"/>
		<path class="st106" d="M13.9,50.1c0.3-0.1,0.7-0.1,1-0.2c1.2-0.8,2-0.4,2.6,0.8c0.2,0.8,0,1.6-0.6,2.2
			C14.3,53.7,13.4,52.8,13.9,50.1z"/>
		<path class="st108" d="M17,53c0-0.7,0-1.3,0-2c1.1-0.9,1.8-0.4,2.4,0.6c0.1,0.5,0,1-0.4,1.4c-0.5,0.1-0.9,0.5-1,1
			C17.5,53.9,17.1,53.5,17,53z"/>
		<path class="st64" d="M28,58c1.5,0.2,2.7-0.3,4-1c1.2,0.2,1.9,0.9,2.4,1.9c0.1,0.4,0,0.8-0.4,1.1c-2,1.4-3.4-0.5-5-1
			C28.5,58.9,28.1,58.5,28,58z"/>
		<path class="st109" d="M11,40c0.6-1.4,1.9-0.9,3-1.1c0.2,0.1,0.3,0.3,0.5,0.4c0.4,0.8,0.4,1.6,0.1,2.5c-0.3,0.6-0.7,1.1-1.3,1.4
			c-0.4,0.2-0.8,0.3-1.2,0.3c-0.4-0.1-0.8-0.3-1.1-0.6l0,0C11,42,11,41,11,40z"/>
		<path class="st110" d="M11,34c0-0.3,0-0.7,0-1c1.2,0.7,2.5,1.2,4,1c1.4,0.2,2.4,0.9,3.4,1.9c0.2,0.4,0.3,0.9,0.3,1.3
			c-0.1,1.2-0.6,2.2-1.6,3c-1.4,0.4-2.2-0.4-3-1.3l0,0C12.1,37.8,11.9,35.7,11,34z"/>
		<path class="st111" d="M9,31c1.4,0.6,0.9,1.9,1,3c0,0.8,0,1.7-1,2C9,34.3,9,32.7,9,31z"/>
		<path class="st112" d="M36,13.9c0-0.6-0.1-1.3-0.1-1.9c0.3-0.4,0.7-0.7,1-1.1c0.6,1.4,3.2,0.9,3.1,3.1c-0.2,1.3-0.9,2.2-1.9,3
			C35.8,17.1,35,16.1,36,13.9z"/>
		<path class="st113" d="M38,16c0.3-1,1-1.7,2-2c1.4-0.1,2,0.6,2,2c0.8,0.6,1.7,1.2,0.7,2.3C40.2,19.4,38.9,18.1,38,16z"/>
		<path class="st114" d="M43,18c-0.4-0.7-0.7-1.3-1.1-2c1.5-0.2,2.8,0.3,4,1c0.5,0.1,0.9,0.5,1,1v0.1c-0.6,0.7-1.4,0.9-2.3,0.8
			c-0.4-0.1-0.8-0.2-1.2-0.4C43.3,18.3,43.2,18.1,43,18z"/>
		<path class="st115" d="M43,41c3.3,1.1,4.3-2,5.5-3.6c1-1.3,2.3-3,2.3-4.7c0.1-3.3,2.2-2.6,4.1-2.7c0.4-0.3,0.8-0.3,1.2,0
			c1.1,1.7,0.2,3-0.7,4.5c-3.2,4.8-6.7,9.2-11.3,12.7c-1.1,0.4-1.9-0.2-2.5-1c-0.6-0.9-0.7-1.9-0.5-2.9C41.4,42.1,41.9,41.3,43,41z"
			/>
		<path class="st116" d="M44,18c1,0,2,0,3,0c0.7,1,1.3,2,2,2.9c1.1,6-5.1,16.2-10.2,16.7c-1.3-0.6-1-1.4-0.4-2.3
			c2.3-3.6,3.4-7.8,5.5-11.4c1-1.7,0.4-2.7-0.4-4C43.3,19.3,43.4,18.6,44,18z"/>
		<path class="st117" d="M38,37c4.1,0.8,4.9-2.8,6.5-5.1c1.6-2.5,1-6.3,4.3-8C49.2,23.6,49,22,49,21c1.7,1.4,2.3,3,1,5
			c-2.2,0.9-0.5,2.7-1,4l0,0c-1,5.2-4.4,8.3-9,10.4C38.2,39.9,36.1,39.6,38,37z"/>
		<path class="st118" d="M40,40c0.3-0.8,0.8-1.4,1.6-1.8c2.9-1.6,5.7-3.1,6-7c0-0.4,1-0.8,1.5-1.2c0,3.9-0.5,7.5-4.9,9
			c-0.9,0.3-1,1.2-1.1,2c-0.3,0.7-0.7,1.4-1,2c-1.1,0.5-1.8-0.2-2.4-1C39.3,41.3,39.4,40.6,40,40z"/>
		<path class="st119" d="M53.9,19c1.1,0,2.2,0,3.3,0c0.2,1.9-0.4,3.4-1.2,4.9c-0.3,0.2-0.7,0.3-1,0c-0.5-0.6-0.8-1.4-1.4-1.8
			C51.7,20.8,53.1,20,53.9,19z"/>
		<path class="st120" d="M55,24c0.3,0,0.7,0,1,0c0.5,0.1,0.9,0.5,1,1c0.8,1.9,0.4,3.6-1,5c-0.3,0-0.7,0-1,0C55.2,28,52.4,26,55,24z"
			/>
		<path class="st118" d="M49,30c-0.5-1.5-2.5-3.5,1-4C48.3,27,51.2,29.1,49,30z"/>
		<path class="st121" d="M56,30c-0.1-1.8,0-3.5,1-5c1.5,0,3.1-0.2,3,2c0,0.7,0,1.3,0,2c-1,5.6-3.5,10.2-8,13.7
			c-0.9,1.3-0.7,3.1-2,4.2V47c-0.5,0.5-0.4,1-0.4,1.6c-0.2,0.4-0.4,0.7-0.8,0.9c-0.4,0.2-0.8,0.3-1.1,0.4c-0.6,0.1-1.2,0-1.8-0.1
			c-0.4-0.1-0.8-0.3-1.1-0.5c-0.6-0.6-0.8-1.4-0.8-2.2c0.1-1.2,0.2-2.1,1.5-3.2c2.4-1.9,6.5-2.7,5.8-7.2c-0.1-0.9,1.2-1.3,2.1-1.8
			C55.2,33.8,56.3,32.3,56,30z"/>
		<path class="st122" d="M63,44c-1.5,1.2-2,3.4-4,4c-0.3-0.2-0.4-0.4-0.3-0.7c0.1-0.2,0.2-0.3,0.3-0.3c0.9-3.5,3.3-5.8,6-8
			c0,1,0,2,0,3C64,42.3,63.3,43,63,44z"/>
		<path class="st123" d="M57,50c0,0.3,0,0.7,0,1c-0.1,0.4-0.3,0.8-0.5,1.2c-0.9,1.4-1.5,3.2-3.5,3.6c-0.7,0.1-1.4-0.1-1.9-0.5
			c-0.7-1.1-0.3-2.2,0.1-3.4c0.3-0.9,1-1.5,1.9-1.9c1,0,2,0,3,0C56.3,49.6,56.7,49.6,57,50z"/>
		<path class="st124" d="M53,48c0.4-3.7,4.2-4.5,6-7c0,1.3,0.1,2.5-1.5,3.3C55.7,45.1,54.9,47.2,53,48z"/>
		<path class="st125" d="M53,50c-0.3,0.7-0.7,1.3-1,2c-0.4,0.3-0.8,0.4-1.2,0.2c-1-0.9-2.4-1.5-1.8-3.3l0,0c0.4-0.3,0.4-0.9,1-1
			c0.7,0,1.3,0,2,0.1C52,48.9,52.1,49.7,53,50z"/>
		<path class="st126" d="M57,50c-0.3,0-0.7,0-1,0c0.6-1.4,1.6-2.4,3-3c0,0.3,0,0.7,0,1C58.7,49,58,49.7,57,50z"/>
		<path class="st127" d="M51,42c0.1-0.3,0.2-0.7,0.4-0.8c4.7-2.7,6.2-7.8,8.5-12.2c0,1.7,0,3.3,0,5c-1.5,2.2-1.5,5.3-4,7
			C54.4,41.8,53.1,43.6,51,42z"/>
		<path class="st128" d="M51,42c1.8,0.4,3.3-1,5-1c-2.4,1.6-2.9,5-6,5.9C50.4,45.3,49.1,43.3,51,42z"/>
		<path class="st129" d="M50,48c-0.1,0.5-0.5,0.9-1,1c0.1-0.8-0.1-1.7,1-2C50,47.3,50,47.7,50,48z"/>
		<path class="st130" d="M19,19c0-0.3,0-0.7,0-1c0.3,0,0.7,0,1,0c2.7,0,5.3,0,8,0c0.8-0.5,1.3,0,1.8,0.6c0.5,0.9,0.8,1.8,0.2,2.8
			c-1.1,1.1-2.5,1.6-4,1.8c-1.7,0.1-3.4,0.3-5-0.1C18,22.8,19.3,20.5,19,19z"/>
		<path class="st131" d="M29,19c-0.2-0.5-0.5-0.9-1.1-1c0-0.3,0-0.7,0-1c0.8,0,1.6,0,2-1c2.3,1.4,3-0.5,4-1.9c0.3,0,0.7,0,1,0
			c1.2,2.2-0.4,3.3-1.7,4.5C31.9,19.3,30.6,20.1,29,19z"/>
		<path class="st132" d="M33,18c0.4-1.4,2.3-2.1,2-3.9c0.3-0.1,0.6-0.1,1-0.2c0.2,1.2-0.1,2.8,2,2.1c1.6,0.8,2.9,2.6,5,2l0,0
			c0.8,3.9-1.9,2.4-3.6,2.4C37.3,19.4,34.6,20.1,33,18z"/>
		<path class="st133" d="M18,36c-1.5,0.1-2.5-0.6-3-2c-0.2-0.7-0.5-1.5-0.6-2.2c-0.5-2.5,0.7-2.7,2.6-1.8c0.7,0.9,2.2,0.6,2.5,1.9
			c0.2,1.1-0.2,2.2-0.6,3.2C18.7,35.4,18.4,35.8,18,36z"/>
		<path class="st134" d="M19,32c-0.2-0.5-0.5-0.7-1.1-0.5c-2.6,0.9-1-0.8-0.9-1.6c0-0.7,0-1.3,0-2s0-1.3,0-2
			c4.2-0.4,3.9,2.4,3.6,5.1C20.3,31.8,19.9,32.3,19,32z"/>
		<path class="st135" d="M20,31c-0.7-1.9,0.3-4.7-3-5c0-0.8,0-1.6,1-2c0.9,0.9,2.2,0.2,3.2,0.7c1.8,1.3,2.8,3,2.4,5.3
			c-0.2,1-0.6,1.7-1.5,2.2C21,32.5,20.4,31.9,20,31z"/>
		<path class="st136" d="M21,25c-1.1-0.1-2.4,0.4-3-1c1.1-0.1,2.4,0.4,3-1c1.4-1.8,3.3-0.7,5-1c0.2,0.3,0.4,0.5,0.4,0.8
			s0,0.5-0.1,0.5c-0.7,1.3-1.8,2.2-3.3,2.5C22.2,25.8,21.5,25.5,21,25z"/>
		<path class="st137" d="M53,55c2.3-0.4,1.4-3.1,3-4c0.8,0.9,1.5,1.7,1,3c-1,0.4-1,1.2-1,2c-0.4,1-1,1.7-2,2c-1,0-2,0-3,0
			C50.2,56,52.2,55.9,53,55z"/>
		<path class="st138" d="M57,54c-0.4-1-1.2-1.8-1-3c0.3,0,0.7,0,1,0s0.7,0,1,0C57.9,52.1,58.4,53.4,57,54z"/>
		<path class="st139" d="M53,55c-0.7,1-1.3,2-2,3c-1.8,2.7-4.5,1.9-7,2c0.7-3.9,3.4-5.1,7-5C51.7,55,52.3,55,53,55z"/>
		<path class="st140" d="M51,55c-2.6,1.3-5.2,2.5-7,5c-0.7,0-1.3,0-2,0c-0.3,0-0.7,0-1,0c0.3-3.2,3.5-3.5,5.3-5.3
			c0.3-0.3,0.7-0.5,1-0.8c1.2-0.6,1.8-2.6,3.7-1.9c0.3,0,0.7,0,1,0C52.2,53.2,51.4,54,51,55z"/>
		<path class="st141" d="M47,55c-1.2,2.6-4.4,2.8-6,5c-1.3,1-2.7,1-4,0c0.1-3,2.9-3.3,4.7-4.7c1.1-0.5,2.2-1,3.4-1.1
			C45.8,54.2,46.5,54.4,47,55z"/>
		<path class="st142" d="M42,56c-1.7,1.3-3.3,2.7-5,4c-1,0-2,0-3,0c0-0.3,0-0.7,0-1c0.5-3.5,3.3-3.6,5.9-4
			C40.7,55.1,41.5,55.3,42,56z"/>
		<path class="st143" d="M19,53c0-0.3,0-0.6,0-1c0.9-1.1-0.7-1.8-0.4-2.9c0.2-0.6,0.5-1.2,0.9-1.7c0.9-0.9,1.9-1.9,3.3-1.8
			c1.1,0.3,1.9,1.1,2.7,1.9c0.5,0.5,0.9,1,1.2,1.6c0.6,1.3,1.3,2.5,0.4,3.9c-0.4,0.3-0.8,0.3-1.2-0.1c-1.6,0-3.3-1.7-4.7,0.6
			C20.9,54.3,19.8,53.1,19,53z"/>
		<path class="st144" d="M26,53c0.3,0,0.7,0,1,0c1.4-1.2,2-3.3,4.2-3.6c1.5,0,3,0.4,4.1,1.5c0.6,3.5-2.2,3.4-4.3,4.1
			c-1.7,0-3.3,0-5,0C26,54.3,26,53.7,26,53z"/>
		<path class="st145" d="M14.1,39c1.1-0.1,2,0.7,2.9,1c1.1,0.7,1.5,1.7,1.6,2.9C18.5,44,18,44.7,17,45c-0.7,0-1.3,0-2,0
			c-0.5-0.6-1.1-1.1-1.3-1.9c-0.1-0.4,0-0.8,0.3-1.1C14,41,14,40,14.1,39z"/>
		<path class="st146" d="M17,45c0.3-0.7,0.7-1.3,1-2c0.4-0.3,0.8-0.3,1.2-0.1c0.8,0.9,0.8,2,0.9,3.2c0,0.6-0.1,1.3-0.1,1.9
			c-0.1,0.5-0.5,0.9-1,1c-0.7,0.6-1.3,0.6-2-0.1C17,47.6,17,46.3,17,45z"/>
		<path class="st147" d="M17,48.9c0.7,0,1.3,0,2,0.1c0.1,1,1.9,2,0,3c-0.3-1-1.2-1-2-1c-0.4-1-1.2-1-2-1C15.3,49,16.2,49,17,48.9z"
			/>
		<path class="st148" d="M14,43c0.9,0.4,1,1.2,1,2c-0.7,0-1.3,0-2,0h-0.2c-0.2-0.3-0.2-0.7-0.1-1C13.1,43.5,13.5,43.2,14,43z"/>
		<path class="st149" d="M12,45c0,0.2,0,0.3,0,0.5c0,0.8,0.2,1.7-0.7,2.1c-0.2,0.1-0.7,0-0.8-0.2c-0.6-1-0.5-1.8,0.6-2.4
			C11.3,44.6,11.7,44.7,12,45z"/>
		<path class="st150" d="M12,45c-0.3,0-0.7,0-1,0c0-0.7,0-1.3,0-2c0.3,0,0.7,0,1,0c0.2,0.2,0.5,0.4,0.8,0.5L13,44
			c0,0.3-0.1,0.7-0.2,1C12.6,45,12.3,45,12,45z"/>
		<path class="st151" d="M31,55c0.4-1.1,1.2-1.9,2.5-2s1.5-1,1.5-2c-0.3-0.6-0.2-1,0.3-1.4c2-0.7,3.2,0,3.6,2c0.2,2.8-2.1,3.3-4,4.1
			c-1,0.4-1.9,0.9-2.9,0.3C31.5,55.9,31.1,55.6,31,55z"/>
		<path class="st152" d="M32,56c0.7-0.3,1.3-0.7,2-1c1.8-0.7,3.8-0.7,5.7-0.4c0.5,0.4,0.6,0.8,0.3,1.4c-2.3,0.4-4.4,1.1-6,3
			c-1-0.4-1.7-1-2-2C32,56.7,32,56.3,32,56z"/>
		<path class="st153" d="M14,43c-0.3,0.3-0.7,0.7-1,1l-0.1-0.1c-0.2-0.2-0.3-0.4-0.2-0.6c0.1-0.2,0.2-0.3,0.3-0.3
			c0.1-0.5,0.4-0.9,0.9-1C14,42.4,14,42.7,14,43z"/>
		<path class="st154" d="M13,43c0,0.3,0,0.6-0.1,0.9c-0.5-0.1-0.8-0.4-0.9-0.9C12.4,43,12.7,43,13,43z"/>
		<path class="st155" d="M19,43c-0.3,0-0.7,0-1,0c-0.4-1-1.2-1.8-1-3c-0.2-1.2,0.6-2,1-3c1.1-0.7,2,0,2.9,0.6c0.3,0.3,0.6,0.6,0.7,1
			s0.2,0.8,0.3,1.2c0,0.4,0,0.8-0.1,1.3c-0.1,0.4-0.3,0.8-0.6,1.1C20.6,42.8,19.9,43.1,19,43z"/>
		<path class="st156" d="M21,38.1c-1.2,0.1-2-0.7-3-1.1c0-0.3,0-0.7,0-1s0-0.7,0-1c0.7-0.8,1.6-0.9,2.6-0.5c0.6,0.4,1,1,1.1,1.7
			c0,0.5,0,0.9-0.2,1.4C21.3,37.7,21.2,37.9,21,38.1z"/>
		<path class="st157" d="M39,19c0.6,0.1,1.3,0.2,1.9,0.5c1.7,0.9,2-0.1,2.1-1.5c0.3,0,0.6,0,1,0.1c0,0.7,0,1.3,0,2
			c0.3,0.9-0.3,1.4-1,1.7c-1.3,0.4-2.5,0.4-3.7-0.2c-0.5-0.3-0.7-0.7-0.8-1.2C38.5,19.8,38.6,19.4,39,19z"/>
		<path class="st158" d="M44,47c0.9,0.3,1,1.1,1,1.9c0.2,0.2,0.3,0.5,0.3,0.7c0,0.3-0.1,0.4-0.1,0.4c-1.3,0.7-3,0.3-4.2,1.3
			c-0.5,0.1-0.9,0-1.3-0.1c-2.5-2.7-1.1-4.1,1.6-5.2c0.2,0,0.5,0,0.7,0C42.7,46.3,43.3,46.7,44,47z"/>
		<path class="st159" d="M40,41.9c0.7,0.4,1.3,0.7,2,1.1c0,1,0,2,0,3l0,0c-1.3,0.7-2.6,0.9-3.6-0.6c-0.5-1.1-0.5-2.1,0.1-3.2
			C38.9,41.8,39.4,41.7,40,41.9z"/>
		<path class="st160" d="M40,41.9c-0.3,0-0.6,0-1,0.1c-0.4,0.3-0.8,0.4-1.3,0.2c-1.4-1.8-4-2.4-4.9-4.8c3.1-4.1,6.5-8.1,7.1-13.5
			c0.2-1.8,1.8-2.1,3-2.8c0.5-0.1,0.9-0.5,1-1c3,1.9,3.1,2,0.8,4.2C44,25,44,25.7,43.9,26.5c-0.5,3.3-3.4,5.7-3.7,9.2
			c-0.1,0.8-2,0.2-2.3,1.4c-0.4,1.4-0.4,1.4,2,3C40,40.7,40,41.3,40,41.9z"/>
		<path class="st161" d="M51,52c-1.7,0.3-1.6,2.4-3,3c-2.2-2-2.2-4,0-6c0.3,0,0.6-0.1,0.9-0.1C49.4,50.1,51.4,50.3,51,52z"/>
		<path class="st162" d="M48,49c-0.7,2-0.6,4,0,6c-0.3,0-0.7,0-1,0c-0.7,0-1.3,0-2,0c-0.3-0.4-0.5-0.8-0.5-1.3
			c0.1-1.7,0.6-3.3,1.5-4.7C46.7,49,47.3,49,48,49z"/>
		<path class="st163" d="M46,49c-0.3,1.7,0.8,3.6-1,5c-1-0.3-1.4-1-1.4-1.9c0.1-0.9,0.7-1.5,1.4-2.1c0-0.4,0-0.7,0-1.1
			C45.4,49,45.7,49,46,49z"/>
		<path class="st164" d="M39,19c0,0.3,0,0.7,0,1c-1.2,1.4-3.1,1.1-4.5,2c-1.2,0.5-2.3-0.4-3.5-0.4c-0.4-0.1-0.7-0.3-1-0.6
			c-0.3-0.7-0.7-1.3-1-2c1.3-0.3,2.6-0.7,4-1C35,18.3,37,18.7,39,19z"/>
		<path class="st165" d="M30,21c0.3,0,0.7,0,1,0c-0.5,3.3-1.1,3.6-5,2c0-0.3,0-0.7,0-1C27.3,21.7,28.7,21.3,30,21z"/>
		<path class="st166" d="M21,35c-1,0-2,0-3,0c-0.2-1.2,0.6-2,1-3c0.5-0.1,0.9-0.5,1-1c0.7,0.3,1.3,0.7,2,1c0.3,0.2,0.5,0.6,0.6,0.9
			c0,0.4,0,0.8-0.2,1.1s-0.5,0.6-0.8,0.8C21.4,34.9,21.2,35,21,35z"/>
		<path class="st165" d="M21,25c0.7,0,1.3,0,2,0c2,0.7,4.2-0.3,6.2,0.9c0.4,0.6,0.5,1.3,0.3,2c-0.5,1.2-1.3,2-2.4,2.6
			c-0.4,0.2-0.9,0.4-1.4,0.4c-1,0.1-2-0.1-2.7-0.9C23.1,28,21.4,26.8,21,25z"/>
		<path class="st167" d="M23,30c1,0,2,0,3,0c0.3,0.3,0.5,0.7,0.6,1.1c-0.1,0.4-0.2,0.9-0.5,1.2c-0.7,0.6-1.5,1-2.3,1.2
			c-0.7,0.1-1.3,0-1.8-0.6c0-0.3,0-0.7,0-1C22.3,31.3,22.7,30.7,23,30z"/>
		<path class="st168" d="M29,26c-2.1,0.3-4.3,1.1-6-1c1-0.7,2-1.3,3-2c1.7-0.6,4.5,1.5,5-2c1.6-1.5,2.1,0.5,3,1
			c0.2,0.2,0.4,0.4,0.5,0.6c0.6,1.3,0.5,2.5-0.3,3.7C32.4,27.7,30.6,28.5,29,26z"/>
		<path class="st169" d="M44,52c0.3,0.7,0.7,1.3,1,2c0,0.3,0,0.7,0,1c-1,0.4-1.8,1.2-3,1c-0.7,0-1.3,0-2,0c0-0.3,0-0.7,0-1
			c0.3-1.6,1.3-2.5,2.6-3.2C43.1,51.7,43.6,51.7,44,52z"/>
		<path class="st170" d="M31,50c-1.4,0.9-1.6,3.4-4,3c-0.3-1.3-0.7-2.7-1-4c-0.3-0.3-0.4-0.8-0.3-1.2c0.4-0.6,0.9-1,1.5-1.3
			c1.4-0.4,2.6,0.1,3.9,0.6c0.4,0.2,0.8,0.5,1.1,0.8C32.5,49,31.9,49.6,31,50z"/>
		<path class="st171" d="M20,48c-0.5-0.2-0.8-0.5-1-1c0.9-0.9,0.8-2.5,1.9-3.2c1-0.3,1.7,0.2,2.2,1c0.1,0.4,0.1,0.9-0.2,1.2
			C22,46.7,21,47.4,20,48z"/>
		<path class="st172" d="M23,46c0-0.3,0-0.6,0-1c0.3-0.3,0.6-0.6,1-0.7c0.7-0.1,1.3,0,1.9,0.3c0.5,0.4,0.7,1,0.7,1.7
			c-0.1,0.4-0.3,0.8-0.6,1.1c-0.3,0.3-0.7,0.5-1,0.7C24,47.7,23.3,47,23,46z"/>
		<path class="st173" d="M25,48c0.1-0.5,0.5-0.9,1-1c0.3,0.2,0.4,0.4,0.3,0.6C26.2,47.9,26.1,48,26,48c0,0.3,0,0.7,0,1
			C25.5,48.9,25.1,48.5,25,48z"/>
		<path class="st174" d="M31,50c0.3-0.7,0.7-1.3,1-2c0.3-0.3,0.7-0.5,1.2-0.5c1,0.1,1.7,0.6,2.1,1.4c0.1,0.4,0,0.8-0.3,1.2
			c0,0.3,0,0.7,0,1C33.5,51.2,32.2,50.7,31,50z"/>
		<path class="st175" d="M21,44c0,1.5-0.6,2.5-2,3c0-1.3,0-2.7,0-4c0.3-0.9,1.1-1,2-1C21.5,42.6,21.6,43.3,21,44z"/>
		<path class="st176" d="M43,52c-0.6,1.4-1.6,2.4-3,3c-2,0-4,0-6,0c0.4-0.8,1.1-1,2-1c1.4,0.1,2.1-0.6,2-2c0.6-0.5,0.9-1.6,2-1
			c0.3,0,0.7,0,1,0C42.2,50.3,43,50.4,43,52z"/>
		<path class="st177" d="M40,51c-0.7,0.3-1.3,0.7-2,1c0.1-2.3-1.6-2-3-2c0-0.3,0-0.7,0-1c0.3-2.3,1.7-3.6,4-4c0.6,1.4,1.9,0.9,3,1
			C40.7,47.4,37.7,48.2,40,51z"/>
		<path class="st178" d="M21,44c0-0.7,0-1.3-0.1-2c0-0.3,0.1-0.6,0.1-1c1-0.9,2.1-0.9,3.2-0.1c0.9,1.4,0.8,2.8-0.2,4.1
			c-0.3,0-0.7,0-1,0C22.4,44.7,21.7,44.3,21,44z"/>
		<path class="st179" d="M24,41c-1,0-2,0-3,0c0-0.4,0-0.7,0-1.1c0.5-0.4,0.5-1,0.5-1.5c0.1-0.4,0.3-0.7,0.6-0.9
			c0.4-0.2,0.8-0.3,1.2-0.3c0.4,0,0.8,0.1,1.2,0.2c0.8,0.4,1.5,0.9,1.7,1.8C26.1,40.5,25.2,41,24,41z"/>
		<path class="st180" d="M22,39c-0.1,0.5-0.4,0.9-1,1c0-0.3,0-0.6,0-0.9C21.3,38.6,21.6,38.5,22,39z"/>
		<path class="st181" d="M22,39c-0.3,0-0.6,0-1,0.1c0-0.3,0-0.7,0-1V38c0.3-0.3,0.7-0.4,1,0C22,38.3,22,38.7,22,39z"/>
		<path class="st182" d="M21,37c0-0.6,0-1.3,0-1.9l0,0c0.2-0.1,0.4-0.3,0.5-0.4c0.2,0.1,0.4,0.1,0.6,0.2c0.3,0.4,0.4,0.8,0.5,1.2
			c0,0.4-0.2,0.8-0.5,1.2C21.7,37.4,21.3,37.3,21,37z"/>
		<path class="st183" d="M21,37c0.4,0,0.7,0,1.1,0c0.4-0.3,0.8-0.3,1.1,0c0.2,0.5,0.1,0.8-0.4,1h-0.4H22c-0.3,0-0.7,0-1,0
			C21,37.7,21,37.3,21,37z"/>
		<path class="st184" d="M43,21c-0.6,0.6-1.7,1.2-1.6,1.6c0.8,4.2-2.6,6.9-3.4,10.5C37.4,36,34.3,36,33,38c-0.2,0.1-0.4,0.3-0.5,0.4
			c-2,0.4-3.5-0.6-4.7-2c-0.3-0.6-0.5-1.2-0.4-1.9c0.2-0.6,0.5-1.2,0.9-1.7s0.8-1,1.2-1.5c0.3-0.3,0.7-0.6,1.1-0.7s0.9-0.1,1.3,0
			c2.5,1.5,3.2-0.7,4.4-2c1.7-1.6,0.6-3.6,0.8-5.4c0.3-1,0.2-2.6,2-2.2C40.3,21,41.7,21,43,21z"/>
		<path class="st185" d="M39,21c-1.4,0.6-0.9,1.9-1,3c-2.1,0.8-2.8-1-4-2l0,0c0.5-3.5,3.3-1.4,5-2C39,20.3,39,20.7,39,21z"/>
		<path class="st186" d="M43,52c-0.4-0.9-1.2-1-2-1c0.5-3.5,2.5-1.5,4-1c0,0.8,0,1.7-1,2C43.7,52,43.3,52,43,52z"/>
		<path class="st187" d="M39,45c-1,1.7-2.3,3-4,4c-0.7-0.3-1.3-0.7-2-1c-0.4-2.8,1.4-4.6,3-6.4c0.8-0.3,1.5-0.2,2.1,0.3
			c0.3,0,0.6,0,0.8,0.1C39,43,39,44,39,45z"/>
		<path class="st188" d="M38.2,41.9c-0.7,0-1.4,0.1-2.2,0.1c-0.7,0-1.1,0.6-1.7,0.7c-0.9,0.2-1.8,0.1-2.5-0.6
			c-0.4-0.6-0.6-1.3-0.5-2c0.1-1.1,1-1.6,1.8-2.1l0,0C35.3,38.5,37.7,38.9,38.2,41.9z"/>
		<path class="st189" d="M22,33c0.6,0,1.2,0,1.8,0c0.2,0.1,0.3,0.2,0.5,0.2c0.2,0.3,0.3,0.7,0.2,1.1c-0.1,0.2-0.1,0.4-0.2,0.5
			c-0.2,0.3-0.5,0.5-0.9,0.7c-0.6,0.1-1.1,0-1.5-0.5v-0.2c-0.3-0.2-0.4-0.4-0.3-0.6c0.1-0.2,0.2-0.3,0.2-0.3C22,33.7,22,33.3,22,33z
			"/>
		<path class="st190" d="M22,34c0,0.3,0,0.6,0.1,0.9c-0.3,0-0.7,0.1-1,0.1C21.1,34.5,21.4,34.1,22,34z"/>
		<path class="st191" d="M29,26c1.7,1.6,3.3,0,5,0c2.1-1.1,2.9-0.1,3.3,1.8c-1.9,3-4.6,1.6-7.1,1.1c-0.5-0.2-0.9-0.5-1.2-0.9
			C29,27.3,29,26.7,29,26z"/>
		<path class="st192" d="M29,28c0.3,0,0.7,0,1,0c1.1,0.8,2.2,1.5,1,3c-0.3,0-0.7,0-1,0h-0.5c-0.3,0-0.6-0.1-1-0.1
			c-0.3,0-0.6-0.1-0.9-0.3l-0.4-0.3L27,29.9C27.4,29,28,28.3,29,28z"/>
		<path class="st193" d="M26.1,31.1c0-0.4,0-0.7-0.1-1.1c0.3,0,0.6,0,1-0.1l0.1,0.2c0.3,0.3,0.3,0.7,0,1.1
			C26.8,31.4,26.4,31.4,26.1,31.1z"/>
		<path class="st194" d="M23.8,33c0.4-1,1.2-1.1,2.1-1c0.3-0.3,0.7-0.4,1.1-0.3c0.3,0.3,0.5,0.7,0.6,1.1c0,0.2,0,0.4-0.1,0.6
			c-0.1,0.2-0.2,0.4-0.3,0.6c-0.3,0.3-0.7,0.4-1.2,0.4c-0.9-0.2-1.4-0.7-2-1.4L23.8,33z"/>
		<path class="st195" d="M27.1,32c-0.4,0-0.8,0-1.2-0.1C26,31.6,26,31.3,26,31c0.3-0.1,0.6-0.1,1-0.1c0.3-0.3,0.7-0.4,1-0.1
			c0.2,0.4,0.2,0.8,0.1,1.2C27.8,32.4,27.4,32.3,27.1,32z"/>
		<path class="st196" d="M37,28c-0.5-1.4-1.5-2.1-3-2c0-1.3,0-2.7,0-4c1.8-0.3,2.6,1.5,4,2c-0.1,1.7,2.3,3.9-1,5
			c-0.3-0.2-0.4-0.4-0.3-0.7C36.8,28.1,36.9,28,37,28z"/>
		<path class="st197" d="M31,48c-1.3-0.3-2.7-0.7-4-1c-0.1-0.2-0.3-0.4-0.4-0.5c-0.1-1.2,0.3-2.3,1-3.2c1.1-1.1,2.1-2.9,3.8-0.7
			c-0.6,1.1,0.3,1.9,0.5,2.9C32,46.4,31.7,47.3,31,48z"/>
		<path class="st198" d="M31,48c0-1,0-2,0-3c1.1-1.4,2.7-2,4-3c0.3-0.9,0.7-0.9,1,0c0,2.5-1.9,4-3,6c-0.3,0-0.7,0-1,0S31.3,48,31,48
			z"/>
		<path class="st199" d="M26,48c0-0.3,0-0.7,0-1l0,0c0.3-0.4,0.6-0.4,1,0l0,0C26.9,47.5,26.5,47.9,26,48z"/>
		<path class="st200" d="M24,41c0.7-0.7,1.3-1.3,2-2c0.4-0.3,0.8-0.3,1.3-0.1c0.9,0.8,1.3,1.8,1.2,3c-0.6,1.2-1.1,2.5-2.4,3.1
			c-0.7,0-1.3,0-2,0C24,43.7,24,42.3,24,41z"/>
		<path class="st201" d="M26,45c0.7-1,0.8-2.4,2-3c0.6,0.7,0.6,1.3,0,2c-0.4,1-1.2,1.8-1,3c-0.3,0-0.6,0-1,0C26,46.3,26,45.7,26,45z
			"/>
		<path class="st202" d="M27,39c-0.3,0-0.7,0-1,0c-0.7-0.3-1.3-0.7-2-1c-0.7-1-0.8-2,0-3h-0.1c0.3-0.3,0.7-0.5,1.1-0.6
			c0.6,0.1,1.2,0.4,1.7,0.7c0.3,0.3,0.6,0.6,0.8,1c0.4,0.5,0.8,1,0.8,1.7C28.1,38.5,27.7,38.9,27,39z"/>
		<path class="st203" d="M24,35c0,1,0,2,0,3c-0.4,0-0.7,0-1.1,0c0.1-0.3,0.1-0.6,0.1-0.8c-0.3-0.4-0.6-0.7-0.9-1.1
			c-0.1-0.3-0.1-0.6-0.1-1C22.7,35,23.3,35,24,35z"/>
		<path class="st204" d="M22.1,36.1c0.6,0.1,0.8,0.5,0.9,1.1c-0.3,0-0.6-0.1-0.9-0.2C22,36.7,22,36.4,22.1,36.1z"/>
		<path class="st205" d="M37,28c0,0.3,0,0.7,0,1c-1,1.4-1.9,2.9-3.1,4.6c-1.4-0.4-1.4-2.5-2.9-2.6c0.2-1.2-0.6-2-1-3
			C32.3,27.3,34.7,29.9,37,28z"/>
		<path class="st206" d="M28,38c-0.3-0.7-0.6-1.4-0.8-2c0.3-0.3,0.6-0.4,0.9,0c1.7,0.6,3.1,2,5,2c-0.3,0.7-0.7,1.3-1,2
			C29.2,42.2,28.6,41.9,28,38z"/>
		<path class="st160" d="M27.8,31.9c0.1-0.3,0.1-0.6,0.1-0.9l0.3-0.4c0.3-0.1,0.6-0.1,0.9,0s0.6,0.2,0.8,0.4l0,0c0,0.3,0,0.7,0,1
			c-0.3,0.3-0.7,0.5-1.1,0.5C28.4,32.5,28.1,32.3,27.8,31.9z"/>
		<path class="st207" d="M28,36c-0.3,0-0.6,0-0.9,0h-0.2c-0.5-0.7-0.5-1.3,0-2l0.3,0.1c0.3-0.3,0.5-0.4,0.8,0C28,34.7,28,35.3,28,36
			z"/>
		<path class="st208" d="M28,34c-0.3,0-0.6,0-0.8,0c0-0.4,0-0.7-0.1-1.1c0.4-0.5,1-0.4,1.5-0.4c0.1,0.1,0.2,0.3,0.4,0.4
			C28.9,33.5,28.5,33.9,28,34z"/>
		<path class="st209" d="M29,32c0.3,0,0.7,0,1,0c-0.1,0.5-0.5,0.9-1,1l0,0c-0.3-0.2-0.4-0.4-0.3-0.7C28.8,32.1,28.9,32,29,32z"/>
		<path class="st210" d="M28,38c0.9,1.6,1.4,4,4,2c0,0.7,0,1.3,0,2c0.3,0.9-0.1,1.2-1,1c-1.9-2.5-1.8,1.2-3,1c0-0.7,0-1.3,0-2
			c-0.4-1-1.2-1.8-1-3C27.1,38.5,27.4,38.1,28,38z"/>
		<path class="st211" d="M31,43c0.5-0.1,0.9-0.5,1-1c1,0,2,0,3,0c-0.7,1.8-1.5,3.5-4,3C31.1,44.3,29.6,43.7,31,43z"/>
		<path class="st212" d="M24.2,33c0.8,0,1.6,0,1.9,1c-0.2,0.3-0.6,0.5-1,0.5s-0.7-0.2-0.8-0.6C24.2,33.6,24.1,33.3,24.2,33z"/>
		<path class="st194" d="M24.2,33.8c0.3,0,0.5,0.1,0.8,0.1c0.3,0.2,0.4,0.4,0.3,0.6c0,0.4-0.2,0.5-0.3,0.5c-0.4,0-0.7,0-1.1,0
			C24,34.6,24.1,34.2,24.2,33.8z"/>
		<path class="st213" d="M28,31c-0.3,0-0.6,0-0.9,0c0-0.3,0-0.6,0.1-0.9c0.3-0.1,0.6-0.1,0.9,0c0.4,0.2,0.5,0.4,0.4,0.6
			C28.2,30.9,28.1,31,28,31L28,31z"/>
		<path class="st214" d="M30,31c-0.4,0-0.7,0-1.1,0c-0.3-0.4-0.3-0.7,0.1-1C29.6,30.1,29.9,30.5,30,31z"/>
		<path class="st215" d="M29,30c0,0.3-0.1,0.7-0.1,1c-0.3,0-0.6,0-0.9,0c0-0.3,0-0.6,0-0.9C28.3,30.1,28.7,30,29,30z"/>
		<path class="st216" d="M25,35c0-0.3,0-0.7,0-1c0.3,0,0.7,0,1,0s0.6,0,0.9,0c0,0.7,0,1.3,0,2C26.3,35.6,25.7,35.3,25,35z"/>
		<path class="st217" d="M29,32c0,0.3,0,0.7,0,1c-0.6,0-1.3,0-1.9,0c-0.1-0.3-0.1-0.6,0-0.9c0.2-0.1,0.5-0.1,0.8-0.2
			C28.2,31.9,28.6,32,29,32z"/>
	</g>
</g>
</svg>
