<?xml version="1.0" encoding="utf-8"?>
<!-- Generator: Adobe Illustrator 23.0.5, SVG Export Plug-In . SVG Version: 6.00 Build 0)  -->
<svg version="1.1" id="Слой_1" xmlns="http://www.w3.org/2000/svg" xmlns:xlink="http://www.w3.org/1999/xlink" x="0px" y="0px"
	 width="78px" height="78px" viewBox="0 0 78 78" enable-background="new 0 0 78 78" xml:space="preserve">
<g>
	<g>
		<path fill="#FEFEFE" d="M1,37C1,25,1,13,1,1c11.7,0,23.3,0,35,0c0.2,0.2,0.4,0.5,0.3,0.7c0,0.3-0.1,0.4-0.1,0.4
			c-0.5,0.5-1.1,0.8-1.7,1c-1,0.4-1.9,1.1-2.9,1.6c-2.4,1-5.3,0.9-7.2,3c-1.4,0.7-2.9,1.2-4.2,2c-3,1.6-5.7,3.6-7.8,6.4
			c-1.4,1.1-2.2,2.5-2.7,4.2c-1.2,1.8-2.4,3.6-3.1,5.7c-1.2,1.9-2,3.9-2.4,6c-0.1,0.7-0.3,1.3-0.5,2c-0.4,1.1-0.7,2.2-1.5,3.1
			C1.8,37.4,1.4,37.3,1,37z"/>
		<path fill="#FCFBFA" d="M34,79c-10.1,0-20.2-0.1-30.3,0.1c-2.4,0-2.8-0.5-2.8-2.8C1.1,64.8,1,53.4,1,42c0.5-0.3,0.9-0.3,1.3,0.1
			c2,3.4,1.6,7.6,3.3,11.1c0.3,0.8,0.7,1.7,1,2.5c0.7,1.8,1.6,3.4,3,4.8c0.7,0.8,1.5,1.6,2,2.5c0.7,1.5,1.4,3,2.9,4
			c0.7,0.5,1.4,1,2,1.5c1.2,1.2,2.5,2.3,4,3.1c1.4,1,2.9,1.9,4.5,2.6c2.2,1.4,4.7,1.5,7.2,2.2C33.1,77,34.4,77.4,34,79z"/>
		<path fill="#FCFBFA" d="M45,1c10.4,0,20.8,0.1,31.3-0.1c2.3,0,2.8,0.4,2.8,2.8C78.9,13.8,79,23.9,79,34c-0.4,0.3-0.8,0.4-1.2,0.2
			c-0.8-0.8-1.1-1.9-1.7-2.9c-0.8-1.3-1.3-2.8-1.8-4.3c-0.3-0.8-0.4-1.7-0.7-2.6c-0.6-2.2-1.7-4.1-3.2-5.8c-1.2-1.3-2.2-2.8-3.3-4.2
			c-2.3-2.6-4.6-5.2-8-6.5C55.9,6.3,52.5,5,49,3.8c-1.3-0.5-2.8-0.6-4-1.5C44.7,1.9,44.7,1.4,45,1z"/>
		<path fill="#FDFCFC" d="M79,44c0,10.8-0.1,21.7,0.1,32.5c0,2.2-0.4,2.6-2.6,2.6C66,78.9,55.5,79,45,79c-0.3-0.4-0.3-0.9,0-1.3
			c3.5-1.6,7.3-2.4,10.6-4.3c2.4-0.8,4.7-1.7,6.8-3.1c3.3-2,6.1-4.5,8.1-7.9c2.8-4.1,4.8-8.6,5.7-13.5c0.6-1.6,0.4-3.4,1.5-4.9
			C78.1,43.7,78.5,43.6,79,44z"/>
		<path fill="#6F4314" d="M56.1,74.3C52.8,76.5,49,77.6,45,78c-2.6,1.2-5.5-0.4-8,1c-1,0-2,0-3,0c0.1-1.7-1.8-0.6-2.2-1.6
			c-0.3-0.5-0.3-1,0-1.6c0.9-0.8,2-1,3.1-1.1c1.6-0.1,3.2,0,4.8-0.1c3.4,0.3,6.6-0.4,9.7-1.4c1.5-0.4,2.9-0.9,4.5-1.1
			c0.8,0,1.5,0.2,2.2,0.7C56.5,73.3,56.5,73.8,56.1,74.3z"/>
		<path fill="#C2BDB3" d="M45,1c0,0.4,0.1,0.8,0.1,1.2c-1.1,2.2-3.1,1-4.8,1.3c-1.6-0.4-3.4-0.1-4.5-1.7c0-0.3,0.1-0.5,0.1-0.8
			C39,1,42,1,45,1z"/>
		<path fill="#D4D1CE" d="M79,44l-0.4,0.1l-0.4,0c-2.2-3.4-2.2-6.7,0-10.1c0.3,0,0.6,0,0.9,0C79,37.3,79,40.7,79,44z"/>
		<path fill="#CEC7BD" d="M37,79c2.5-2.1,5.3-0.7,8-1c0,0.3,0,0.6,0,1C42.3,79,39.7,79,37,79z"/>
		<path fill="#EFEDE8" d="M1.9,42l-0.5,0L1,42c0-1.7,0-3.3,0-5c0.3,0,0.6,0,0.9,0C3.5,38.6,3.5,40.3,1.9,42z"/>
		<path fill="#D78D3A" d="M5.9,25.8c-0.1-2.5,1-4.5,3.1-5.8c1-0.8,1.3-2.5,3.1-2.2c0.9,0.5,1.3,1.3,1.4,2.2
			c-0.2,1.8-0.6,3.6-1.6,5.2c-1.3,1.3-0.8,3.4-1.7,4.9c-0.9,0.5-1.9,0.3-2.8,0c-0.5-0.2-0.9-0.4-1.3-0.7C5,28.2,5.3,27,5.9,25.8z"/>
		<path fill="#DE9241" d="M19.9,8.8c1.3-0.8,2.4-2,4.1-1.7c0.4,0.3,0.5,0.6,0.5,1.1c-2.3,1.6,0.7,1.2,0.8,1.9
			c0.2,2.2-1.5,3.2-2.7,4.4c-0.8,0.6-1.6,1-2.5,0.8c-1.2-0.7-2.4-1.2-3.2-2.4C16.9,10.9,19,10.3,19.9,8.8z"/>
		<path fill="#AF7E45" d="M1.9,42c0-1.7,0-3.4,0-5c0.3-1.1,0.6-2.3,0.9-3.4c2.7,2.6,0.9,6.1,1.8,9.1C5,43.3,5.3,44,5.5,44.7
			c0.5,2.2,0.7,4.4,0.7,6.6c-0.1,1-0.3,2-1.2,2.7C2.3,50.4,2.8,46,1.9,42z"/>
		<path fill="#CB8541" d="M24,8c0-0.3,0-0.6,0-0.9c1.7-3,4.9-2.6,7.7-3.3c1-0.6,1.4,0.1,1.7,0.8c0.1,0.8-0.3,1.5-0.9,2
			c-1.3,0.8-2.8,1.2-4.2,1.7C26.8,8.8,25.3,9.3,24,8z"/>
		<path fill="#DDA260" d="M19.9,8.8c-0.3,1.9-1.7,2.9-2.9,4.2c0,0.7-0.3,1.2-0.8,1.7c-0.6,0.6-1.2,1.2-1.9,1.7
			c-0.6,0.3-1.2,0.3-1.9,0.1c-0.2-0.2-0.3-0.3-0.5-0.5C13.1,11.8,16.6,10.5,19.9,8.8z"/>
		<path fill="#C1955D" d="M5.9,25.8C6.1,27,5.8,28.3,7,29c0.3,0.2,0.5,0.5,0.6,0.9c0,0.4,0,0.7-0.1,1.1c-0.2,0.5-0.5,1-0.8,1.5
			c-0.2,0.3-0.5,0.6-0.8,0.8c-0.4,0.2-0.7,0.2-1.1,0.2c-0.8-0.2-1.3-0.8-1.7-1.5C3.8,29.9,3.5,27.3,5.9,25.8z"/>
		<path fill="#BF823C" d="M3.1,32.1C3.8,32.4,4.4,32.7,5,33c0.8,0.9,1,2,0.8,3.1c-1,2.5,0.4,5.6-1.9,7.9c-2.1-3.3-0.3-7-1.2-10.4
			C2.9,33.1,3,32.6,3.1,32.1z"/>
		<path fill="#C7844D" d="M33,5c-0.5-0.4-0.9-0.8-1.4-1.2c0.5-1,1.1-1.8,2.4-1.7c1.6,0.9,3.4,0,5,0.6c0.3,0.4,0.5,0.8,0.5,1.3
			c-0.2,1.1-1,1.6-2,1.7C36,5.5,34.4,6.1,33,5z"/>
		<path fill="#AE8350" d="M12,18c-1,0.6-1.4,2.2-3,2c-0.3-2.3,0.7-3.6,3-4c0,0,0.1,0.4,0.1,0.4C12.5,16.9,12.5,17.5,12,18z"/>
		<path fill="#8B6235" d="M39,3.1c-1.7-0.3-3.5,0.6-5-0.9c0.6-0.1,1.2-0.2,1.9-0.3C37.5,2.5,39.7,1.1,41,3C40.4,3.5,39.7,3.6,39,3.1
			z"/>
		<path fill="#A85F13" d="M8.9,61c-2.1-1-2.1-3.2-2.8-5.1c0.1-0.2,0.2-0.4,0.2-0.6c0.9-1,1.9-1.2,3-0.4c1.1,1.3,1.8,2.7,1.9,4.4
			C11,60.5,10.5,61.6,8.9,61z"/>
		<path fill="#704814" d="M32,76c-0.1,0.5-0.1,0.9-0.2,1.4c-2.7-0.5-5.5-0.8-7.9-2.4c-0.3-0.4-0.3-0.8,0-1.2c2.9-1.8,5.4,0.2,8,1
			C32.3,75.2,32.3,75.6,32,76z"/>
		<path fill="#976838" d="M14.1,67.8c-1.7-1.1-3.3-2.3-3.4-4.7c0.4-0.7,1.1-0.8,1.8-0.7c0.7,0.1,1.3,0.5,1.8,1
			c0.7,0.7,1.1,1.4,1.3,2.4C15.5,66.8,15.1,67.5,14.1,67.8z"/>
		<path fill="#7D4D20" d="M20,72.1c-2.1,0.1-3-1.5-4.1-2.8c-0.5-2,1-1.9,2.2-2c0.8,0.1,1.4,0.5,1.9,1c0.3,0.4,0.5,0.8,0.7,1.2
			c0.1,0.5,0.1,0.9,0.1,1.4C20.6,71.4,20.4,71.8,20,72.1z"/>
		<path fill="#8C5F2F" d="M20,72.1c0-0.4,0-0.8,0-1.2c0.5-0.4,1.2-0.6,1.8-0.6c0.4,0.1,0.9,0.2,1.3,0.4c0.6,0.4,1.1,0.8,1.3,1.5
			c0.2,0.7,0.1,1.3-0.4,1.9c0,0.3,0,0.7-0.1,1C22.3,74.4,21,73.5,20,72.1z"/>
		<path fill="#9A5B11" d="M13,63c-0.8,0.1-1.6,0.1-2.3,0.2c-0.6-0.7-1.2-1.4-1.8-2.1c0.7-0.6,1.4-1.3,2.1-1.9
			c0.2-0.1,0.4-0.3,0.5-0.4c0.5,0.1,0.8,0.3,1.1,0.6C13.4,60.5,14.1,61.6,13,63z"/>
		<path fill="#874F0A" d="M18.9,68c-1.2,0-2.4-0.1-3.1,1.2c-0.6-0.5-1.2-1-1.8-1.5c0.3-0.6,0.7-1.2,1-1.8c0.3-0.4,0.8-0.5,1.3-0.6
			C17.7,65.8,19.3,65.9,18.9,68z"/>
		<path fill="#B57630" d="M5,54c0-1,0-2,0-3c3.7,0.8,2.1,2.9,1.3,4.8c0,0-0.2,0.1-0.2,0.1C5.3,55.5,5.1,54.8,5,54z"/>
		<path fill="#936A3C" d="M60,7.4c3.7,1,5.9,3.7,7.9,6.7c-0.5,0.6-1.2,0.7-1.9,0.7c-0.5-0.1-0.9-0.2-1.3-0.4c-1.5-1-3.1-1.8-4.6-2.9
			c-0.7-0.6-1.1-1.4-1.4-2.3c-0.1-0.5,0-0.9,0.2-1.3C59.1,7.6,59.5,7.4,60,7.4z"/>
		<path fill="#856444" d="M60,7.4c-0.3,0.2-0.7,0.5-1,0.7c-1.5,1.3-3.1,0.6-4.6,0.1c-0.4-0.1-0.8-0.3-1.2-0.5
			C52,7,50.9,6.2,49.8,5.6c-0.8-0.4-1.5-0.9-2-1.7c0-0.8,0.2-1.3,1.1-1.1C52.9,3.5,56.5,5.3,60,7.4z"/>
		<path fill="#735840" d="M78.1,34c0,3.4,0,6.7,0,10.1c-0.3,1.7-0.7,3.4-1,5.2c-0.4-0.2-0.8-0.5-1.1-0.9c-0.6-1.1-0.9-2.2-0.7-3.4
			c0.4-1.6,0.5-3.2,0.4-4.9c0-0.7,0-1.4,0-2.2c0.1-2-0.1-4,0.5-5.9c0.2-0.5,0.5-0.8,1-1.1C77.5,31.9,77.8,32.9,78.1,34z"/>
		<path fill="#C8814B" d="M48.9,2.9c-0.3,0.4-0.6,0.8-0.9,1.2c-1.6,2.3-4.2,1-6.2,1.8c-1.3,0-2.3-0.6-2.8-1.8c0-0.3,0-0.6,0-0.9
			C39.7,3,40.4,3,41,3c1.2-1.3,2.8,0,4.1-0.8C46.4,2,47.8,1.9,48.9,2.9z"/>
		<path fill="#73431D" d="M74.8,24c0.1,0.9,0.3,1.8,0.4,2.8c-0.1,0.2-0.3,0.4-0.4,0.5c-1.4,0.3-2.8,0.5-3.6-1.1
			c-0.6-2-1.7-4-0.5-6.2C73.7,19.6,72.8,23.4,74.8,24z"/>
		<path fill="#754D28" d="M74.8,24c-2.5-0.2-2.1-3.1-3.8-4c-1-0.4-1.5-1-1.1-2.1c0.4-0.3,0.8-0.3,1.2,0.1
			C72.9,19.6,74.2,21.6,74.8,24z"/>
		<path fill="#915B2C" d="M71,18c-0.4,0-0.7,0.1-1.1,0.1c-0.4,0.3-0.8,0.3-1.3,0.2c-1.2-1.2-3-2-2.7-4.2c0.6,0,1.2,0,1.8,0
			C69.1,15.1,70.5,16.3,71,18z"/>
		<path fill="#73431D" d="M75.2,26.8c1.6,0.9,0.5,3.1,2,4.1c-0.2,0-0.4,0.1-0.5,0.2c-0.8,0.5-1.5,0.4-2.1-0.3
			c-0.6-1.3-0.7-2.6,0.3-3.7L75.2,26.8z"/>
		<path fill="#6C4B2D" d="M76.7,47.9c0.1,0.4,0.2,0.9,0.4,1.3c-0.4,5.3-2.6,9.8-5.9,13.9c-0.4,0.3-0.9,0.3-1.4,0.1
			c-1.2-1.7-0.6-3.2,0.3-4.8c0.3-0.4,0.7-0.6,1.1-0.8c2.8-2.2,2.7-5.7,3.9-8.5C75.5,48.4,75.9,47.9,76.7,47.9z"/>
		<path fill="#745132" d="M70,63c0.4,0,0.8,0.1,1.2,0.1c-1.8,3.7-4.7,6.2-8.3,7.9c-0.6,0.6-1.2,0.5-1.9,0.3
			c-0.7-1.4,0.3-2.1,1.1-2.9c1.3-0.9,2.4-1.9,3.5-3C66.9,64.4,67.8,62.4,70,63z"/>
		<path fill="#7C5B3C" d="M61,71c0.6,0,1.3,0,1.9,0c-2,1.7-4.3,2.7-6.8,3.3c0-0.4,0-0.8-0.1-1.2C57.3,71.4,58.8,70.4,61,71z"/>
		<path fill="#643A10" d="M61,71c-1.6,0.7-3.3,1.4-4.9,2.1c-0.7,0-1.4,0-2.1,0c-0.2-0.3-0.3-0.5-0.3-0.8c0-0.3,0-0.5,0.1-0.5
			c1.6-2.7,4.6-3.1,7.1-4.3c0.7-0.2,1.4-0.1,2.1,0.3c0.3,0.3,0.4,0.5,0.3,0.8C63.2,68.8,63.1,69,63,69C62.3,69.6,61.6,70.3,61,71z"
			/>
		<path fill="#673706" d="M50,74c-3.1,1.9-6.5,2.1-10,2c-0.6-0.7-1.8-0.3-2.2-1.4c0-0.5,0.2-0.9,0.6-1.1c1.1-0.5,2.2-0.5,3.3-0.3
			c1.3,0.4,2.5,0.1,3.8-0.2c0.9-0.1,1.8-0.2,2.8,0C48.9,73.1,49.5,73.4,50,74z"/>
		<path fill="#6A3D05" d="M32,76c0-0.3,0-0.7,0-1c-0.2-0.9-0.4-1.9,0.6-2.5c1.3-0.7,2.8-0.7,4.2-0.4c0.5,0.1,0.9,0.4,1.3,0.7
			c0.3,0.4,0.3,0.9,0,1.3h0c-0.7,1.1-2.3,0.9-3,2C34,76,33,76,32,76z"/>
		<path fill="#633406" d="M50,74c-0.7,0-1.3,0-2,0c0.1-2.6,2.1-2.7,3.9-3c0.8,0.1,1.6,0.3,2.1,1c0,0.3,0,0.7,0,1
			C52.8,73.7,51.5,74.2,50,74z"/>
		<path fill="#683A05" d="M35,76c0.1-2,1.5-2,3-2c0.7,0.7,1.3,1.3,2,2C38.3,76,36.7,76,35,76z"/>
		<path fill="#EA9A38" d="M10,30c-0.1-1.8-2-3.9,1-5c1.4-0.6,2.9-0.3,4.4-0.4c0.9,0.2,1.7,0.7,2.1,1.5c0.8,2.1-0.5,3.5-1.7,4.9
			c-0.4,0.5-0.9,1-1.4,1.5c-0.7,0.6-1.5,1-2.4,1.1c-0.9,0-1.6-0.5-2.2-1.2C9.4,31.6,9.8,30.8,10,30z"/>
		<path fill="#EC9135" d="M12,18c0-0.6,0.1-1.1,0.1-1.7c0.6-0.1,1.3-0.2,1.9-0.3c0.5,1.2,1.2,1.3,1.9,0.2c0.9-0.2,1.7-0.2,2.6,0.1
			c0.4,0.2,0.7,0.6,0.8,1c0,0.5-0.2,0.9-0.6,1.2c-1.6,0.9-2.6,2.5-4.5,3c-0.5,0-0.9-0.1-1.4-0.3c-0.3-0.4-0.3-0.8,0.1-1.2
			C12.7,19.3,12.3,18.7,12,18z"/>
		<path fill="#E59934" d="M13,20c0,0.3,0,0.6,0,1c0.3,0.3,0.6,0.5,1,0.7c0.3,0.3,0.6,0.6,0.7,1c0.3,0.8,0.4,1.6,0.2,2.4
			c-1.3,1.8-2.7,0.5-4,0C12.3,23.6,11.4,21.3,13,20z"/>
		<path fill="#E38C3E" d="M10,30c1.1,0.7,0.1,1.3,0,2c-1.3,1.2-2.7,1-4,0c0.3-0.3,0.7-0.7,1-1c0.3-0.3,0.4-0.6,0.5-1
			c0-0.4,0.2-0.7,0.5-1C8.6,29.3,9.3,29.7,10,30z"/>
		<path fill="#FEAA48" d="M8,29c0,0.3,0,0.7,0,1c-0.3,0.3-0.6,0.3-0.9,0C7,29.7,7,29.4,7,29C7.3,29,7.6,29,8,29z"/>
		<path fill="#F29E3A" d="M20,15c0.7-0.3,1.3-0.7,2-1c2.2-1.6,4.5-2.9,7.3-2.8c1.5,0.3,2.5,1,2,2.7c-1.7,1.9-4.5,1-6.3,2.7
			c-2,0.6-3.9,1.7-6,0.4l0,0C18.5,15.9,19.1,15.4,20,15z"/>
		<path fill="#EC9130" d="M20,15c-0.3,0.7-0.7,1.3-1,2c-1,0-2,0-3,0c-0.2-1-0.2-2,0-3c0.3-0.3,0.6-0.7,0.9-1
			C18.4,13,19.9,12.9,20,15z"/>
		<path fill="#E79236" d="M29,12c-2.3,0.7-4.7,1.3-7,2c1-1.3,2-2.7,3-4c0.6-0.6,1.3-0.7,2-0.5C28.1,10,29.4,10.3,29,12z"/>
		<path fill="#E08632" d="M27,10c-0.7,0-1.3,0-2,0c-0.7-0.2-1.4-0.3-2.2-0.5C23.2,9,23.6,8.5,24,8c1.3-0.3,2.7-0.7,4-1
			c0.6,0.7,1.9,0.2,2.2,1.3C29.8,10,28.6,10.4,27,10z"/>
		<path fill="#B56D20" d="M6.3,55.8C6.2,54.1,7,52.2,5,51c0.4-2-1.1-4,0-6c0.4-0.3,0.8-0.3,1.2-0.1c0.4,0.5,0.7,1.1,0.9,1.7
			c0.2,1.6,1.6,2.3,2.4,3.5c0.6,1.2,0.8,2.5,0.9,3.8c-0.1,0.7-0.4,1.3-1.3,1C8.1,55.3,7.2,55.6,6.3,55.8z"/>
		<path fill="#C67A1A" d="M6,45c-0.3,0-0.7,0-1,0c-0.3-0.3-0.7-0.7-1-1c0.5-2.6-1-5.5,1-8c2.9,2.1,1.2,5.2,1.6,7.8
			C6.5,44.3,6.3,44.7,6,45z"/>
		<path fill="#CB8126" d="M33,5c1.3-0.1,2.7-1,4,0c0.6,0.5,0.6,1.1,0.4,1.8c-0.3,0.6-0.8,1.1-1.3,1.5c-0.4,0.2-0.9,0.3-1.3,0.4
			c-1.2,0-2.2-0.4-3-1.5c-0.2-0.5-0.1-0.9,0.2-1.2C32.3,5.7,32.7,5.4,33,5z"/>
		<path fill="#E98222" d="M32,6.1c0,0.3,0,0.6,0,0.9c0.3,0.3,0.4,0.6,0.3,0.8c-0.1,0.3-0.2,0.4-0.3,0.4c-0.7,0.4-1.4,0.4-2-0.3
			c-0.8,0-1.6-0.2-2-1C29.3,6.7,30.7,6.4,32,6.1z"/>
		<path fill="#E38826" d="M16,14c0.6,1,0.6,2,0,3c-1.1,0.5-2,0.8-2-1C14.4,15.1,15,14.4,16,14z"/>
		<path fill="#D08023" d="M6,44c-1.9-2.5,0.5-5.5-1-8c0-1,0-2,0-3c0.3,0,0.6-0.1,1-0.1c0.3-0.3,0.7-0.4,1.2-0.2
			c0.5,1.8,0.8,3.8,2.4,5.2c0.2,0.4,0.4,0.8,0.5,1.3c0.2,1.2,0.1,2.4-0.4,3.5c-0.5,0.9-1.2,1.5-2.3,1.7C6.8,44.5,6.4,44.3,6,44z"/>
		<path fill="#E09036" d="M7,33c-0.3,0-0.7,0-1,0C6,32.6,6,32.3,6,32c1.3,0,2.7,0,4,0c0.7,0.3,1.3,0.7,2,1c1,1,1.2,2.2,1,3.5
			c-0.1,0.5-0.3,0.9-0.6,1.3c-1,0.8-1.8,0.3-2.6-0.3C8.6,36.2,7.7,34.7,7,33z"/>
		<path fill="#FEA840" d="M7.1,30c0.3,0,0.6,0,0.9,0c-0.3,0.3-0.6,0.7-1,1C7,30.7,7,30.3,7.1,30z"/>
		<path fill="#CE7E20" d="M37,7c0-0.6,0-1.3,0-1.9C37.8,5,38.6,4.8,39,4c1,0.3,2,0.7,3,1c0.3,0.3,0.4,0.7,0.3,1.1
			c-0.5,1-1.2,1.7-2.2,2.1c-0.4,0.1-0.8,0.2-1.2,0.1c-0.4-0.1-0.8-0.3-1.1-0.5c-0.2-0.1-0.3-0.2-0.5-0.4C37.2,7.3,37.1,7.2,37,7z"/>
		<path fill="#C9802E" d="M9.1,55c0.3-0.3,0.6-0.7,0.9-1c3.3,1,2.2,2.9,1,4.9c0,0,0,0.2,0,0.2C9.8,58,9.1,56.7,9.1,55z"/>
		<path fill="#6C3A07" d="M32,73c0.1,0.7,1.1,1.3,0,2c-2.8,0.9-5.1-1.9-7.9-1c0-0.7-0.1-1.3-0.1-2c0.6-0.5,1.3-0.7,2-0.6
			c1.8,0.5,3.8,0.3,5.6,1.2C31.7,72.7,31.8,72.8,32,73z"/>
		<path fill="#C9802E" d="M13,63c-0.3-1.3-0.7-2.6-1-3.9c-1.8-2.8,0.8-2.7,2.2-3.3c0.5,0,0.9,0.2,1.2,0.6c0.8,1.3,1.1,2.7,1.4,4.1
			c0,1.9-0.1,3.7-2.8,3.5C13.7,63.6,13.4,63.3,13,63z"/>
		<path fill="#A45E13" d="M14,64c1.8-0.7,2.1-2.2,1.9-4c1.1-0.5,1.7,0.1,2.3,0.9c0.6,1.2,0.3,2.2-0.2,3.3c-0.4,0.9-1.1,1.4-2,1.8
			c-0.3,0-0.7,0-1,0C14.7,65.3,14.4,64.7,14,64z"/>
		<path fill="#BD7C30" d="M16,66c0.3-0.7,0.6-1.3,1-2c1.5-0.5,3-0.4,4.6-0.4c1.1,0.2,2,0.9,2.8,1.6c0.5,0.4,0.8,1,0.8,1.7
			c-0.2,0.4-0.5,0.7-0.9,0.8c-0.4,0.2-0.8,0.3-1.1,0.4c-0.6,0.1-1.1,0.3-1.6,0.5c-0.3,0.2-0.7,0.3-1,0.4c-0.2,0-0.4,0-0.6,0.1
			c-0.4-0.3-0.7-0.7-1.1-1C18,67.3,17,66.6,16,66z"/>
		<path fill="#733F00" d="M22.2,71c-0.7,0-1.4-0.1-2.1-0.1c0-0.3,0-0.6,0-0.8c0.3-0.3,0.6-0.5,1-0.6c0.4,0,0.8,0.2,1.1,0.4
			C22.4,70.2,22.4,70.6,22.2,71z"/>
		<path fill="#7D4407" d="M21,70c-0.3,0-0.6,0-1,0c0-0.3,0-0.7,0-1c0,0,0-0.1,0-0.1c0.4-0.2,0.7-0.2,1,0C21.3,69.3,21.3,69.7,21,70z
			"/>
		<path fill="#A6681B" d="M26,72.1c-0.7,0-1.4-0.1-2-0.1c-0.3-0.3-0.6-0.7-0.9-1c0.1-0.2,0.1-0.4,0.2-0.6c0.2-0.3,0.5-0.6,0.9-0.9
			c0.4-0.2,0.8-0.3,1.2-0.4c1.1-0.1,2.2-0.1,3,0.8c0.3,1-0.2,1.7-1,2.3C26.8,72.4,26.4,72.4,26,72.1z"/>
		<path fill="#B5803C" d="M22.2,71c-0.1-0.3-0.2-0.6-0.3-0.9c-0.3-0.3-0.3-0.7,0-1c0.3-0.2,0.7-0.3,1.1-0.3c0.3,0.3,0.5,0.6,0.5,1
			c0,0.4-0.2,0.7-0.5,1c0,0,0,0.1,0,0.1c0,0-0.4,0-0.4,0L22.2,71z"/>
		<path fill="#DF9038" d="M14,56c0.3,1.7-3.2,0.8-2,3.1c-0.3-0.1-0.7-0.1-1-0.2c-0.2-1.6,0.7-3.5-1-4.9c-1.5-1.1-0.8-2.6-1-4
			c-0.3-1.5,0.7-1.5,1.7-1.4c1.7,0.7,2.4,2.1,2.8,3.8C13.5,53.6,14.6,54.7,14,56z"/>
		<path fill="#AC5B1C" d="M60,11c2,0.4,3.9,1,5,3c0.5,1.4,1.5,2.8,0.1,4.3c-1.2,0.4-2.2,0-3.3-0.4c-0.6-0.3-1.1-0.8-1.5-1.5
			c-0.2-0.4-0.4-0.9-0.5-1.3C59.6,13.6,58.8,12.2,60,11z"/>
		<path fill="#854E21" d="M65,18c0.5-1.3-1-2.7,0-4c0.3,0,0.7,0,1,0.1c1,1.3,2,2.6,3,4c-0.3,0.4-0.7,0.7-1.2,0.8
			C66.7,19,65.7,18.9,65,18z"/>
		<path fill="#AB5D0E" d="M60,11c0.3,1.3,0.6,2.7,1,4c-0.5,0.5-1.1,0.7-1.8,0.5c-0.6-0.2-1.1-0.6-1.6-1.2c-0.5-0.7-0.8-1.5-1-2.3
			c0-0.6,0.2-1.2,0.6-1.6c0.5-0.6,1-1.1,1.7-1.5C59.8,9.4,60,10.2,60,11z"/>
		<path fill="#B1631D" d="M59,9c0,0.8-0.2,1.6-1,2c-1.7-0.5-4-0.1-4.5-2.7c0-0.5,0.2-0.9,0.5-1.3c1.6,0.3,3.3,0.7,4.9,1
			C59,8.4,59,8.7,59,9z"/>
		<path fill="#C47425" d="M42,6c0-0.3,0-0.7,0-1c1.7-1.8,4.1-0.1,5.9-1c0.8,0,1.6,0.2,2.1,1c0.3,0.8,1.9,1.1,1,2.3
			c-0.6,0.6-1.4,1-2.2,1.3C48.1,8.9,47.4,9,46.7,9C45,8.8,43.4,8.4,42,7.3C41.7,6.9,41.6,6.5,42,6z"/>
		<path fill="#A5611D" d="M51,7c0.2-0.9-2-0.6-1-2c1.4,0,2.4,0.6,3,1.9C52.4,7.5,51.7,7.5,51,7z"/>
		<path fill="#C86C1B" d="M51,7c0.7,0,1.4,0,2-0.1C53.4,7,53.7,7,54,7c0,0.3,0,0.6,0,1c-0.6,0.6-1.3,0.9-2.1,1
			c-1.1,0.1-2.1-0.1-2.9-1C49.4,7.2,50.2,7,51,7z"/>
		<path fill="#582F08" d="M72,58c-0.3,0-0.6,0-1,0c-1.4-1.3-1.9,1.9-3.3,0.7c-0.6-0.8-0.6-1.7-0.5-2.6c0.9-2.7,2.7-5.1,2-8.2
			c-0.1-0.7,0-1.4,0.3-2.1c1.1-1.6,2.8-2.6,4.6-3.4c0.8-0.2,1.5-0.1,2.1,0.5c0.3,0.7,0.4,1.4-0.2,2.1c0.3,1,0.5,1.9,0.8,2.9
			c-0.3,0.4-0.5,0.8-0.7,1.1c-0.7,0.8-0.5,2.2-1.7,2.8c-1.6,0.8-2.1,2-1.6,3.7C72.8,56.4,72.6,57.3,72,58z"/>
		<path fill="#67380D" d="M75,31c0.5,0,1.1,0.1,1.6,0.1c0.1,2.3,0.2,4.6,0.3,6.9c-1.2,1-1.2-1.9-2.5-0.7c-1.7-0.8-1.6-2.5-2-4
			c0-0.5,0-0.9,0.2-1.4C73.3,31.1,73.9,30.5,75,31z"/>
		<path fill="#61330B" d="M75,37c1.3-1,1.1,1.1,2,1c0,0.7,0,1.3,0,2c-1,0.8-0.1,2.2-1,3c-0.7,0-1.3,0-2,0c-1.2-1-1.4-2.3-1.4-3.7
			C72.9,38,73.9,37.5,75,37z"/>
		<path fill="#572D09" d="M76,43c0-1.1-0.2-2.3,1-3c-0.2,1.7,0.6,3.6-1,5C76,44.3,76,43.6,76,43z"/>
		<path fill="#7C420E" d="M68,18c0.3,0,0.7,0,1,0c0.3,0,0.6,0,0.9,0.1c0.3,0.7,0.7,1.3,1,1.9c0.3,2.3,0.7,4.7,1,7
			c0.9,1.8,0.1,2.4-1.7,2.4c-1.6-0.9-1.5-2.7-2.2-4c-0.5-1.2-1-2.4-1.2-3.7C66.8,20.3,67,19.1,68,18z"/>
		<path fill="#703E10" d="M70,29c1.3,0,2-0.7,2-2c1-0.6,1.9-0.7,2.9,0.1c0,1.3,0.1,2.6,0.1,3.9c-0.7,0.3-1.3,0.7-2,1
			c-1.1,0.9-2,2.4-3.7,2.2C67.4,32.1,67.6,30.4,70,29z"/>
		<path fill="#5F3206" d="M68,59c0.9-0.7,1.6-2.1,3-1c-0.4,1.7-0.7,3.3-1.1,5c-1.3,1-2.6,2-4,3c-0.6,0.5-1.2,0.6-1.9,0.3
			c-1-1.8,0.3-3.1,1.1-4.5c0.7-0.9,1.4-1.8,2.2-2.5C67.6,59.2,67.8,59.1,68,59z"/>
		<path fill="#5B3614" d="M72,58c0-1,0-2,0-3c-0.6-1.9,0.7-3,2-4c0.7-0.7,1.3-1.3,2-2C75.3,52.3,75.3,55.9,72,58z"/>
		<path fill="#623B0E" d="M64,66c0.7,0,1.3,0,2,0c-0.7,1.3-1.6,2.4-3,2.9c0-0.3,0-0.6,0-1C62.3,66.8,62.3,66,64,66z"/>
		<path fill="#5A3207" d="M54,72c-0.7,0-1.3,0-2,0c-1.4-1.2-3.7,0.6-4.9-1.3c-0.3-0.4-0.4-0.8-0.4-1.3c0.3-0.7,0.9-1,1.6-1.3
			c2.3-0.2,4.4-1.2,6.6-1.6c1.4,0.1,2.8,0.3,4.2,0.4c0.7,0.2,1.4,0.4,1.8,1.1C59.2,70.2,55.9,69.9,54,72z"/>
		<path fill="#532F05" d="M61,68c-0.7,0-1.3,0-2,0c-0.3-0.4-0.6-0.8-0.8-1.2c-0.4-1.2-0.3-2.4,0.3-3.6c0.4-0.6,1.1-0.9,1.7-1.1
			c1.5-0.3,2.9-1.3,4.4-1.4c0.7,0.2,1.2,0.6,1.3,1.4c-0.7,1.3-1.3,2.7-2,4c-0.8,0.4-1,1.2-1,2C62.3,68,61.7,68,61,68z"/>
		<path fill="#653809" d="M38,74c0-0.3,0-0.7,0-1c1.1-1.6,3.1-2.1,4.3-3.7c0.5-0.5,1.1-0.7,1.8-0.8c1.2,0.1,2.2,0.5,2.9,1.4l0,0
			c0.5,1-0.1,1.8-0.8,2.4c-1.5,0.3-2.5,2-4.2,1.6C40.7,74,39.3,74,38,74z"/>
		<path fill="#613201" d="M46,72c0.3-0.7,0.7-1.3,1-2c1.4,1.3,3.7,0.4,5,2c-1.6,0.2-3,0.7-4,2c-1,0-2,0-3,0
			C44.4,72.8,45.5,72.6,46,72z"/>
		<path fill="#633406" d="M46,72c-0.3,0.7-0.7,1.3-1,2c-1,0.3-2,1.6-3,0C43.4,73.4,44.3,71.9,46,72z"/>
		<path fill="#71410E" d="M43,70c-1.1,2-2.9,2.6-5,3c-0.3,0-0.7,0-1,0c-0.6-1,0.1-1.7,0.6-2.4c0.5-0.5,1-0.9,1.6-1.2
			c0.4-0.2,0.9-0.3,1.3-0.3C41.5,69,42.3,69.2,43,70z"/>
		<path fill="#7E511F" d="M38,71c-0.3,0.7-0.7,1.3-1,2c-1.7,0-3.3,0-5,0c0,0,0,0,0,0c-0.4-0.4-0.4-0.9-0.2-1.4
			c0.4-0.7,1-1.1,1.8-1.4C35.2,69.8,36.7,69.7,38,71z"/>
		<path fill="#FDAE45" d="M15,31c0.1-1.9,2.7-2.8,2-5c0.8-0.3,1.2,0.1,1.6,0.7c0.6,0.8-0.6,2.8,1.7,2.4c1,1.5,2.5,2.2,4,2.9
			c-0.2,2.3,4.3,1.9,2.9,4.9c-0.7,1.1-1.8,1.5-3,1.6c-1.2-0.1-2.3-0.4-3.3-1.2c-0.9-2-1.9-3.7-4.4-3.8C15.2,33.4,13.9,32.8,15,31z"
			/>
		<path fill="#F9AB41" d="M15,31c-0.1,2.2,1.9,1.6,2.8,1.7c3,0.2,3.9,1.6,3.2,4.3c-0.3,0.4-0.6,0.6-1,0.8c-1.4,0.7-2.9,0.5-4.4,0.7
			c-0.8,0.2-1.5,0.9-2.4,0.7c-1-0.6-0.8-1.5-0.7-2.4c0.5-1.6,0.3-3.4,1.4-4.7C14.3,31.7,14.7,31.3,15,31z"/>
		<path fill="#F7A63E" d="M18,27c-0.3-0.3-0.7-0.7-1-1c-0.7-0.3-1.3-0.7-2-1c-1.2-0.7-1-1.9-1-3c1.8-0.9,3.4-2.1,5.1-3.3
			c1-0.2,1.9,0.2,2.7,0.8C22.8,23.1,21,25.4,18,27z"/>
		<path fill="#FDB048" d="M14,32c0.1,1.8-0.1,3.5-1,5c-0.3,0.4-0.7,0.5-1,0c0-1.3,0-2.7,0-4C12.7,32.7,13.3,32.3,14,32z"/>
		<path fill="#F7A23F" d="M21,20c-0.7-0.3-1.3-0.7-2-1c-0.3-0.2-0.3-0.4-0.3-0.7c0.1-0.2,0.2-0.3,0.3-0.3c0-0.3,0-0.7,0-1
			c2-0.3,3.9-1.3,6-1c0.5-0.3,0.9-0.3,1.2,0.2C26.1,19.6,23.3,19.5,21,20z"/>
		<path fill="#EF9D3E" d="M19,18c0,0.3,0,0.7,0,1c-0.3,3.3-2.7,3-5,3c0,0,0,0,0,0c-0.2-0.2-0.3-0.4-0.2-0.7c0.1-0.2,0.2-0.3,0.2-0.3
			C15.8,20.3,16.3,17.3,19,18z"/>
		<path fill="#D99130" d="M14,21c0,0.3,0,0.7,0,1c-0.3-0.3-0.7-0.7-1-1C13.3,21,13.7,21,14,21z"/>
		<path fill="#E6943A" d="M30,8c0.7,0,1.3,0,2,0c1.1,1,1.2,2.2,1.1,3.5c-0.1,0.8-0.3,1.5-0.8,2.1C32,14.1,31.5,14.2,31,14
			c0-1.3-0.7-2-2-2c-0.7-0.7-1.3-1.3-2-2C28,9.3,29,8.7,30,8z"/>
		<path fill="#F29E36" d="M31,14c0.3,0,0.7,0,1,0c0.1,0.2,0.1,0.4,0.2,0.6c-0.2,0.7-0.7,1-1.3,1.3c-1,0.4-2,0.8-3.1,0.9
			c-0.7,0-1.3-0.2-1.7-0.8c-0.3,0-0.7,0-1,0C26,12.4,29,14.7,31,14z"/>
		<path fill="#C5771D" d="M11,49c-0.8,0-1.6,0.2-2,1c-1.9-0.1-2.9-1.1-3-3c0.5-0.4,1.1-0.4,1.7-0.4c0.8,0,1.6-0.2,2.4-0.2
			c0.4,0,0.8,0.2,1.1,0.4c0.2,0.3,0.4,0.7,0.4,1.1c0,0.2-0.1,0.4-0.1,0.6C11.3,48.7,11.2,48.8,11,49z"/>
		<path fill="#C9741B" d="M8,48c-0.7-0.3-1.3-0.7-2-1c0-0.7,0-1.3,0-2c0-0.3,0-0.7,0-1c0.3,0,0.7,0,1,0C8.9,44.9,9.1,46.3,8,48z"/>
		<path fill="#E39934" d="M32,12c0-1.3,0-2.7,0-4c0-0.3,0-0.7,0-1c1,0.3,2,0.7,3,1c0.8,0.9,0.4,1.7-0.2,2.5C34,11.3,33.5,12.5,32,12
			z"/>
		<path fill="#F2A747" d="M34,10c0.8-0.4,0.9-1.2,1-2C35.4,8,35.7,8,36,8C36.2,8,36.5,8,36.7,8c0.7,0.1,1.2,0.4,1.6,1.1
			c0.1,0.5,0,0.9-0.2,1.3c-0.7,0.9-1.5,1.9-2.8,2.1C33.8,12.2,33,11.6,34,10z"/>
		<path fill="#C98728" d="M36,8c0.3-0.3,0.6-0.6,1-1c0,0,0,0,0,0C37.2,7.9,37,8.4,36,8L36,8z"/>
		<path fill="#D58731" d="M7,33c1.6,0.9,2.9,2,3,4c-0.1,0.6-0.5,0.9-1,1C6.1,37.2,5.8,35.4,7,33z"/>
		<path fill="#F0A542" d="M9,38c0.3-0.3,0.7-0.7,1-1c0.7,0.3,1.3,0.7,2,1c0.8,0.9,1,1.9,0.8,3c-0.1,0.4-0.3,0.8-0.6,1.1
			c-0.4,0.2-0.8,0.3-1.2,0.3c-0.6-0.2-1-0.6-1.3-1.2C9.4,40.5,9.7,39.6,9,39C9,38.7,9,38.4,9,38z"/>
		<path fill="#C98028" d="M8,48c0.1-1.5-0.3-2.8-1-4c0.7-0.3,1.3-0.7,2-1c0.2,0.1,0.4,0.2,0.7,0.3c1.2,1.1,1.5,2.4,0.3,3.7
			C9.3,47.3,8.7,47.7,8,48z"/>
		<path fill="#EFAA46" d="M9,39c0.8,0.4,0.9,1.2,1,2c0.5,0.6,0.6,1.3,0.2,2c-0.4,0.3-0.8,0.3-1.2,0c0,0,0,0,0,0C9,41.7,9,40.3,9,39z
			"/>
		<path fill="#F1A540" d="M12,42c0-1.3,0-2.7,0-4c0-0.3,0-0.7,0-1c0.3,0,0.7,0,1,0c0,0.8,0.2,1.6,1,2C14.9,41,14.3,42.1,12,42z"/>
		<path fill="#EA983B" d="M38,10c0-0.3,0-0.7,0-1c0.1-0.6,0.5-0.9,1-1C40,7.3,41,6.7,42,6c0,0.3,0,0.6,0,0.9c0.6,0.6,1.5,1,1.5,2.1
			c-0.1,0.7-0.5,1.2-1,1.6c-1.1,0.6-2,1.7-3.4,1.6C38.2,11.7,37.9,10.9,38,10z"/>
		<path fill="#E79C3E" d="M39,8c-0.3,0.3-0.7,0.7-1,1c-0.8,0-1.6-0.2-2-1c0.3-0.3,0.7-0.7,1-1c0.3,0,0.7,0,1,0
			C38.3,7.4,38.7,7.7,39,8C39,8,39,8,39,8z"/>
		<path fill="#ECAA49" d="M39,8c-0.3-0.3-0.7-0.7-1-1C38.3,7.3,38.7,7.7,39,8z"/>
		<path fill="#865015" d="M32,72c0,0.3,0,0.6,0,1c-2-0.2-4.2,0.8-6-0.9c0.3,0,0.7,0,1-0.1c0.6-0.5,1.4-0.8,2.1-1
			C30.2,70.9,31.2,71.1,32,72z"/>
		<path fill="#BB6907" d="M18,61c-0.7-0.3-1.4-0.7-2.1-1c-1.4-1.1-0.8-2.6-0.9-4c0.2-0.1,0.4-0.3,0.5-0.4c1-0.2,1.7,0.3,2.3,1
			c0.8,1.2,1.3,2.5,0.6,3.9C18.3,60.7,18.2,60.8,18,61z"/>
		<path fill="#CC760F" d="M14,56c-0.1-1.1-2.9-1.2-1.1-3c0.8-1,0.5-2.7,2-3.3c0.5-0.1,0.9-0.1,1.3,0.2c0.4,0.6,0.5,1.2,0.5,1.9
			c-0.1,0.7-0.3,1.3-0.4,1.9C16,54.6,15.7,55.4,15,56c0,0,0,0,0,0C14.7,56,14.3,56,14,56z"/>
		<path fill="#AD6615" d="M22,64c-1.7,1.1-3.3,1.1-5,0c0.3-1,0.7-2,1-3c0,0,0-0.1,0-0.1c1.6-2.1,3-1.2,4.4,0.3
			C22.9,62.2,22.9,63.2,22,64z"/>
		<path fill="#BA7325" d="M25,67c-0.4-0.3-0.7-0.7-1.1-1c-0.2-0.2-0.3-0.5-0.3-0.8c0-0.3,0.1-0.4,0.2-0.4c0.8-0.8,1.8-1.2,3-1.3
			c1.8,0.2,3.7-0.1,4.7,1.9c0.2,1.8-1,2.5-2.3,3.2c-0.9,0.3-1.9,0.4-2.9,0.1C25.6,68.3,25.2,67.8,25,67z"/>
		<path fill="#AD6408" d="M24,65c0,0.3,0,0.6-0.1,0.9c-0.7-0.6-1.3-1.3-2-1.9c0-1,0-2,0-3c0.4-1,1.1-1.5,2.2-1.3
			c0.7,0.3,1.1,0.8,1.4,1.5C25.9,62.9,25,64,24,65z"/>
		<path fill="#B47526" d="M23,69c-0.3,0-0.7,0-1,0c0,0-0.4-0.1-0.4-0.1c-0.2-0.2-0.4-0.3-0.5-0.5c0,0-0.1-0.4-0.1-0.4
			c0.4-0.8,1.2-1,2-1C23.6,67.7,23.5,68.3,23,69z"/>
		<path fill="#C67B2F" d="M25,67c0.3,0.3,0.7,0.7,1,1c-0.4,1-1.1,1.6-2.2,1c-0.3-0.7-0.4-1.4,0.2-2C24.3,67,24.7,67,25,67z"/>
		<path fill="#B46D1D" d="M24,67c0,0.7,0,1.3,0,2c0.3,0.2,0.5,0.4,0.3,0.7C24.2,69.9,24.1,70,24,70L24,70c-0.3,0.3-0.6,0.3-1,0
			c0-0.3,0-0.7,0-1c0-0.7,0-1.3,0-2C23.3,67,23.7,67,24,67z"/>
		<path fill="#8C5F2F" d="M20.9,69.1c-0.3,0-0.6-0.1-0.9-0.1c0.3-0.3,0.7-0.6,1-0.9c0,0,0,0,0,0c0.1,0.2,0.3,0.4,0.4,0.6
			C21.2,68.8,21.1,68.9,20.9,69.1z"/>
		<path fill="#8C5F2F" d="M22,69c0,0.3,0,0.7,0,1c-0.3,0-0.6,0-0.9-0.1c0-0.3,0-0.6-0.1-0.9c0,0,0.1-0.1,0.1-0.1
			C21.4,68.7,21.7,68.7,22,69L22,69z"/>
		<path fill="#A86A1C" d="M24,70c0-0.3,0-0.7,0-1c0.7-0.3,1.3-0.7,2-1c1,0,2,0,3,0c0.3,0.3,0.4,0.7,0.4,1.2
			c-0.2,0.7-0.6,1.1-1.4,0.8C26.7,70,25.3,70,24,70z"/>
		<path fill="#98611C" d="M28,70c0.3-0.3,0.7-0.7,1-1c0.5-0.5,1.2-0.8,1.9-0.7c0.7,0.2,1.2,0.7,1.3,1.5C31.9,71.6,30,71.1,29,72
			c-0.7,0-1.3,0-2,0C27.3,71.3,27.7,70.7,28,70z"/>
		<path fill="#C38B49" d="M23,70c0.3,0,0.6,0,1,0c-0.3,0.3-0.6,0.5-0.9,0.8C23,70.6,23,70.3,23,70z"/>
		<path fill="#BE6700" d="M15,50c-0.6,1.1-0.9,2.4-2.1,3c-0.6-1.3-1.2-2.7-1.9-4c0,0,0,0,0,0c0.4-0.5,0.6-1.2,1.4-1.4
			C13.8,47.9,15.3,48,15,50z"/>
		<path fill="#90540C" d="M68,18c0,1.3,0,2.7,0,4c-0.8,0.6-1.6,0.1-2.4-0.1c-1-0.4-2-0.9-2.9-1.5c-0.5-0.4-1-0.9-1.2-1.6
			c-0.2-0.7-0.1-1.3,0.5-1.8c1,0.3,2,0.7,3,1C66,18,67,18,68,18z"/>
		<path fill="#D5863F" d="M62,17c0,0.7,0,1.3,0,2c-0.5,0.6-1.2,0.6-1.9,0.5c-1.5-0.7-2.7-1.9-3.5-3.4c-0.2-0.7-0.2-1.4,0.2-2.1
			c0.4-0.3,0.8-0.4,1.3-0.2c0.4,0.4,0.8,0.8,1.2,1.2c0.4,0.7,1.4,0.3,1.8,1C61.3,16.4,61.6,16.7,62,17z"/>
		<path fill="#AC500B" d="M61,16c-0.7-0.1-1.5-0.2-1.8-1c0.6,0,1.2,0,1.8,0C61,15.3,61,15.7,61,16z"/>
		<path fill="#BA6B23" d="M52,8c0.7,0,1.3,0,2,0c0.5,2.1,3,1.6,4,3c-0.3,0.3-0.7,0.7-1,1c0.2,0.2,0.3,0.4,0.3,0.7
			c0,0.3,0,0.4-0.1,0.4c-0.3,0.3-0.7,0.4-1.1,0.4c-0.6-0.5-1.2-0.3-1.9-0.1c-0.4-0.1-0.7-0.4-0.9-0.7C52.8,11.1,51.3,9.9,52,8z"/>
		<path fill="#A96508" d="M57,13c0-0.3,0-0.7,0-1c0.8,0.4,1,1.1,1,1.9c0,0-0.5,0-0.5,0l-0.5,0c-0.3-0.2-0.4-0.4-0.3-0.6
			C56.8,13.1,56.9,13,57,13z"/>
		<path fill="#C5752B" d="M52,8c0.9,1.6,2.4,2.9,2,5c-0.4,0.3-0.8,0.4-1.2,0.4c-2-0.4-3.1-2.2-4.7-3.3c-0.6-0.5-1.6-0.9-1.1-2
			c0.7,0,1.3,0,2,0C50,8,51,8,52,8z"/>
		<path fill="#DC9439" d="M47,8c0.4,0.8,1.2,1,2,1c0.5,1.4-0.6,1.6-1.5,1.9C46.2,11,45.1,10.7,44,10c-0.4-0.3-0.7-0.7-1-1
			c-0.3-0.7-0.7-1.4-1-2.1C43.7,7.3,45.3,7.7,47,8z"/>
		<path fill="#5C350D" d="M70,48c1.8,3.3-0.4,5.6-2,8c-1.2,1.1-2.5,1.8-4.2,1.1c-1.3-2.9,0.7-5.2,1.2-7.8c0.3-0.6,0.7-1.2,1.3-1.5
			c1-0.2,1.7,0.7,2.7,0.5C69.4,48.2,69.7,48.1,70,48z"/>
		<path fill="#5A3411" d="M73,39c0.7,1.2,1.2,2.5,1,4c-0.7,1.8-2.5,2.2-4,3c-1,0.1-1.8-0.2-2.4-1.1c-0.4-0.9-0.1-1.8,0.4-2.5
			c0.9-1.2,1.4-2.8,2.6-3.9C71.6,38.1,72.6,36.9,73,39z"/>
		<path fill="#4C3210" d="M64,57c1.3-0.7,2.6-1.1,4-1c0,1,0,2,0,3c0,0,0,0,0,0c-0.7,0.8-1.6,1-2.7,0.9c-1-0.2-1.8-0.6-2.4-1.5
			c-0.2-0.4-0.3-0.9-0.1-1.4C63.2,56.7,63.6,56.7,64,57z"/>
		<path fill="#553312" d="M68,45c0.8,0,1.6,0.2,2,1c0,0.7,0,1.3,0,2c0,0.3,0,0.7,0,1c-1.2,0.4-1.8-0.4-2.4-1.2
			C67.1,46.7,67.2,45.8,68,45z"/>
		<path fill="#502804" d="M74,51c-0.7,1.3-1.3,2.7-2,4C69.9,52.3,71.7,51.5,74,51z"/>
		<path fill="#683A13" d="M70,34c0.1-2,1.5-2,3-2c0,0.3,0,0.7,0,1c0.9,1.8,0.7,3.4-1.3,4.3c-1.2,0-1.6-1-1.9-1.9
			C69.6,34.9,69.7,34.4,70,34z"/>
		<path fill="#653711" d="M71,37c1.8-0.8,2.1-2.3,2-4c1.6,0.9,0.4,3.1,2,4c-0.4,1-1,1.6-2,2c-0.7-1.1-1.3-0.1-2,0
			C70.5,38.3,70.5,37.7,71,37z"/>
		<path fill="#824717" d="M70,34c0,0.3,0,0.7,0,1c-0.1,0.2-0.2,0.5-0.3,0.7c-0.5,0.6-1.2,0.9-1.9,0.9c-1-0.2-1.8-0.7-2.1-1.8
			c0.6-2.1,1.3-4.1,1.1-6.3c0.3-1.4-0.1-3.3,2.2-3.4c1.5,1,0.9,2.6,1,4C69.3,30.7,68.1,32.3,70,34z"/>
		<path fill="#97571B" d="M69,25c-1.5,1.1-0.8,2.6-1,4c-0.9,1.2-1.8,2.2-3.3,0.7c-0.1-3-0.7-6.1,1.3-8.7c0.7,0.3,1.3,0.7,2,1
			C68.3,23,68.7,24,69,25z"/>
		<path fill="#482D08" d="M65,59c1,0,2,0,3,0c0,1.4-0.7,2.4-2,3c-0.3-0.3-0.7-0.7-1-1C64.4,60.3,64.4,59.7,65,59z"/>
		<path fill="#5E360D" d="M55,67c-2,1.8-4.4,2.3-7,2c-0.3-0.3-0.5-0.8-0.4-1.2c0.3-0.9,0.8-1.6,1.5-2.2c2.7-0.7,4-3.5,6.6-4.3
			c0.7-0.1,1.4,0,2,0.3c0.4,0.3,0.6,0.6,0.7,1.1c-0.1,1.4-0.7,2.6-1.7,3.5C56.3,66.6,55.7,66.9,55,67z"/>
		<path fill="#63380D" d="M48,68c0,0.3,0,0.7,0,1c-0.3,0.3-0.7,0.7-1,1c-1.1,0-2.3,0.2-3-1c-0.2-1,0.3-1.4,1.1-1.7
			C46.2,67,47.2,67.1,48,68z"/>
		<path fill="#4E2F12" d="M55,67c0.3-0.3,0.7-0.7,1-1c1.5-1.2,2.2-0.1,3,1c0,0.3,0,0.7,0,1C57.6,67.9,56,68.5,55,67z"/>
		<path fill="#5A330B" d="M58,63c0-0.3,0-0.7,0-1c-1.2-1.5-0.3-2.8,0.4-4.2c0.5-0.6,1-1.1,1.8-1.4c1.1-0.3,2-0.3,2.8,0.6
			c0,0.3,0,0.7,0,1c0,1.9-0.7,3.6-2,5c-0.7,0-1.3,0-2,0C58.7,63.5,58.3,63.5,58,63z"/>
		<path fill="#522F0C" d="M61,63c-0.1-2,0.4-3.7,2-5c0.7,0.3,1.3,0.7,2,1c0,0.7,0,1.3,0,2C63.6,61.6,62.7,63.1,61,63z"/>
		<path fill="#53300C" d="M58,63c0.3,0,0.7,0,1,0c0,1.3,0,2.7,0,4c-1-0.3-2-0.7-3-1C56.7,65,57.3,64,58,63z"/>
		<path fill="#7C4306" d="M45,68c-0.3,0.3-0.7,0.7-1,1c-0.3,0.3-0.7,0.7-1,1c-1,0-2,0-3,0c-0.8-0.7-1.3-1.5-1.3-2.5
			c0.1-0.6,0.4-1.1,0.8-1.5c0.3-0.2,0.6-0.4,0.9-0.6c0.3-0.1,0.6-0.2,1-0.3c0.5-0.2,0.9-0.5,1.2-0.8c0.3-0.2,0.6-0.4,1-0.4
			c0.4,0.1,0.7,0.3,1,0.5c0.6,0.8,1,1.6,1.1,2.7C45.5,67.4,45.3,67.7,45,68z"/>
		<path fill="#905312" d="M39,67c0.3,1,0.6,2,0.9,3c-0.3,0-0.7,0-1,0c-1.4,0.9-2.9,0.3-4.3,0.5c-0.5-0.1-0.9-0.4-1-0.8
			c0.2-1.7,1.7-2.1,2.8-2.9c0.7-0.3,1.3-0.4,2-0.2C38.7,66.7,38.9,66.9,39,67z"/>
		<path fill="#824A0D" d="M34,70c1.7,0,3.3,0,5,0c-0.3,0.3-0.7,0.7-1,1c-1.7,0-3.3,0-5,0c-0.2-0.2-0.4-0.5-0.3-0.7
			c0-0.3,0.1-0.4,0.1-0.4C33.3,69.6,33.6,69.6,34,70z"/>
		<path fill="#9A6222" d="M33,70c0,0.3,0,0.7,0,1c-0.3,0.3-0.7,0.7-1,1c-1,0-2,0-3,0c1-0.7,2-1.3,3-2C32.3,69.7,32.7,69.7,33,70z"/>
		<path fill="#FDAA41" d="M26,16c0.7,0,1.3,0,2,0c1.6,0.7,2,2.1,2.4,3.6c0.1,0.4,0.1,0.9,0,1.3c-0.2,0.6-0.7,1.1-1.2,1.6
			c-0.4,0.3-0.7,0.5-1.1,0.7c-1,0.5-2.1,0.7-3.2,0.6c-3.3-0.1-3.3,2.8-4.4,4.8c-0.2,0.1-0.3,0.3-0.5,0.4c-2.4,1.1-1.9-0.7-2-2
			c0.9-2.4,3.2-4.1,3-7C22.6,18.6,25.2,18.5,26,16z"/>
		<path fill="#FEB348" d="M25,23c1-0.3,2-0.7,3-1c0.5,0.5,0.8,1.1,0.8,1.8c-0.2,1.9-0.8,3.8-0.3,5.8c0.1,1.2,0.3,2.4,1,3.5
			c0.4,0.8,0.5,1.7,0.4,2.6c-0.1,0.5-0.3,0.9-0.5,1.3c-0.5,0.6-1.2,0.7-1.9,0.5c-0.2-0.1-0.4-0.3-0.5-0.4c0.5-2.6-4.5-1.8-3-5
			c-1.9-2.2-0.9-4.6-0.3-7C23.9,24.2,24.3,23.5,25,23z"/>
		<path fill="#FEB047" d="M25,25c-0.6,2.3-1.3,4.6-1,7c-2.8,1-3.8-0.5-4-3c0,0,0,0,0,0C20.7,26.5,21.2,23.7,25,25z"/>
		<path fill="#FDA838" d="M20,37c0.3,0,0.7,0,1,0c1.1,0,2.3-0.2,3,1c1.1,1.4,0.3,2.4-0.8,3.4c-0.5,0.3-1,0.4-1.6,0.4
			c-0.9,0-1.6-0.3-2.1-1C18.8,39.4,19,38.2,20,37z"/>
		<path fill="#FEAB3C" d="M23,41c0.3-1,0.7-2,1-3c1-0.3,2-0.7,3-1c0,0,0,0,0,0c1,1,1.9,2.1,0.5,3.5c-0.7,0.6-1.5,1.1-2.3,1.6
			C24.2,42.4,22.9,43.1,23,41z"/>
		<path fill="#F8A33E" d="M20,37c0,1.3,0,2.7,0,4c0.2,0.2,0.3,0.5,0.3,0.7c-0.1,0.3-0.1,0.4-0.2,0.4c-1.9-0.7-3,2.3-5.1,1
			c-1.1-2,0.5-4.1,0-6.1C16.7,37.5,18.3,37.5,20,37z"/>
		<path fill="#F3A43C" d="M15,37c2.4,2,0.3,4,0,6c-0.2,0.2-0.3,0.3-0.5,0.5c-0.9,0.4-1.8,0.4-2.6-0.3c-0.3-0.4-0.2-0.8,0.1-1.2
			c0,0,0,0,0,0c1.3-0.6,2-1.6,2-3C14,38.2,14.2,37.4,15,37z"/>
		<path fill="#E79935" d="M34,10c0,1.3,0.7,2,2,2c0.2,0.2,0.3,0.5,0.3,0.7c0,0.3,0,0.4-0.1,0.4c-0.5,0.6-1.2,1-2,1.3
			c-0.4,0.1-0.8,0.2-1.2,0.2c-0.4-0.1-0.7-0.3-1-0.6c0,0,0,0,0,0c0-0.7,0-1.3,0-2C32.7,11.3,33.4,10.7,34,10z"/>
		<path fill="#FAA940" d="M30,20c-0.7-1.3-1.3-2.7-2-4c1-0.3,2-0.7,3-1c0.3,0.3,0.6,0.6,0.7,0.9c0.1,0.4,0.2,0.8,0.2,1.2
			c0,0.6,0,1.2-0.2,1.8c-0.1,0.4-0.4,0.7-0.6,1C30.7,20.3,30.4,20.3,30,20z"/>
		<path fill="#FEB44E" d="M31,16c0-0.3,0-0.7,0-1c0.3-0.3,0.7-0.7,1-1c0.3,0,0.7,0,1,0c0.8,1.1,0.5,1.8-0.6,2.4
			C31.8,16.5,31.4,16.4,31,16z"/>
		<path fill="#E48F28" d="M15,50c-1-0.6-2-1.3-3-1.9c-0.4,0.3-0.7,0.3-1,0c0-0.3,0-0.7,0-1c0.3-1,1-1.5,2-1.8c0.7-0.1,1.4,0,2.1,0.2
			c1.1,0.6,1.9,1.4,2.3,2.5C17.4,49,17,49.7,16,50C15.6,50,15.3,50,15,50z"/>
		<path fill="#DC9433" d="M13,46c-0.7,0.3-1.3,0.7-2,1c-0.3,0-0.7,0-1,0c-0.3-1.3-0.6-2.7-1-4c0.3,0,0.6,0,1,0c0.3-0.3,0.4-0.9,1-1
			c0.3,0,0.7,0,1,0c0,0.3,0,0.7,0,1C12.8,43.8,13.8,44.6,13,46z"/>
		<path fill="#CC760F" d="M11,48c0.3,0,0.7,0,1,0c-0.3,0.3-0.6,0.6-1,1C11,48.7,11,48.3,11,48z"/>
		<path fill="#F09F3F" d="M36,13c0-0.3,0-0.7,0-1c0-1.3,0.7-2,2-2c0.8,0.4,1,1.2,1,2c0.6,0.6,0.5,1.2,0.1,1.9
			C37.8,14.6,36.8,14,36,13z"/>
		<path fill="#EAA33F" d="M11,42c-0.3,0.3-0.7,0.6-1,1c0-0.7,0-1.3,0-2C10.3,41.3,10.7,41.7,11,42z"/>
		<path fill="#DF8A2A" d="M43,9c0.3,0,0.6,0,1,0c0.7,0.8,0.9,1.7,0.6,2.7c-0.3,0.7-0.7,1.3-1.3,1.8c-0.8,0.5-1.7,1.1-2.7,0.3
			C40,12.2,41.1,11.1,42,10C42.3,9.7,42.7,9.3,43,9z"/>
		<path fill="#E59234" d="M42,10c-0.3,1.3-0.7,2.6-1,4c-0.4,0.5-1,0.6-1.6,0.4c-0.1-0.1-0.3-0.3-0.4-0.4c0-0.7,0-1.3,0-2
			C40,11.4,40.4,9.8,42,10z"/>
		<path fill="#D17D24" d="M24,60c-0.7,0.3-1.3,0.7-2,1c-1.3-0.1-2.6-0.9-4-0.1c-0.3-1.3-0.7-2.6-1-3.9c0.3-0.4,0.7-0.6,1.2-0.7
			c1.5,1.1,2.7,0,4-0.5C23.7,56.8,24.7,58.1,24,60z"/>
		<path fill="#D88127" d="M18,57l-0.5,0c0,0-0.5,0-0.5,0c-0.5-0.8-1.2-1-2-1c0-1,0-2,0-3C17.8,53,19.1,54.1,18,57z"/>
		<path fill="#D47F24" d="M18,57c-0.1-2-1.4-3.1-3-4c0.3-0.3,0.7-0.7,1-1c0.7-0.6,1.5-0.3,2.3-0.1c0.6,0.1,1.2,0.3,1.7,0.5
			c0.8,0.3,1.5,0.6,2.2,0.9c0.6,0.3,0.9,0.8,1,1.5c-0.2,0.7-0.6,1.1-1.3,1.2C20.9,57.5,19.5,57.5,18,57z"/>
		<path fill="#FBA241" d="M18,53c-0.7-0.3-1.3-0.6-2-1c0-0.7,0-1.3-0.1-2c0.4-0.7,0.7-1.3,1.1-2c0.7-0.6,1.4-0.6,2.1-0.1
			C19.8,49.9,19.3,51.5,18,53z"/>
		<path fill="#E19338" d="M31,65c-1.4-0.3-2.7-0.7-4.1-1c-1.7-0.7-1.4-2.3-1.4-3.7c0.3-0.4,0.6-0.6,1.1-0.7c2.4,0.5,4.6,1.2,4.9,4.1
			C31.5,64.3,31.3,64.7,31,65z"/>
		<path fill="#AB6927" d="M31,65c0-0.3,0.1-0.6,0.1-0.9c0.3-0.4,0.6-0.6,1.1-0.8c0.7-0.1,1.4,0,1.9,0.5c0.5,0.9,0.2,1.8-0.2,2.6
			c-0.6,1.3-1.6,2.1-2.9,2.6c-0.7,0-1.3,0-2,0c0-0.3,0-0.7,0-1C29.6,67,31.2,66.6,31,65z"/>
		<path fill="#BB6B0C" d="M26,60c0.3,1.3,0.6,2.7,1,4c-1,0.3-1.9,0.7-2.9,1c0.3-1.3,0.7-2.6,1-4C24.5,59.9,25.1,59.9,26,60z"/>
		<path fill="#DA8224" d="M26,60c-0.3,0.3-0.7,0.7-1,1c-0.3-0.3-0.7-0.7-1-1c-0.7-1.3-1.3-2.7-2-4c0.3-0.3,0.7-0.7,1-1
			c1.8-4.2,3.5-0.6,5.2,0.1c0.7,0.5,1.4,1,2,1.7c0.2,0.4,0.2,0.8,0.1,1.3c-0.7,0.9-1.6,1.5-2.6,1.9C27.4,60,27.2,60,27,60
			C26.7,60,26.3,60,26,60z"/>
		<path fill="#BA833A" d="M22,69c-0.3,0-0.7,0-1,0c0-0.3,0-0.6,0-1C21.3,68.4,21.7,68.7,22,69z"/>
		<path fill="#A1601F" d="M31,69c0.7-1,1.3-2,2-3c2.3,0.3,1.7,1.6,1,3c0,0.3,0,0.7,0,1c-0.3,0-0.7,0-1,0c-0.3,0-0.7,0-1,0
			C31.7,69.7,31.3,69.3,31,69z"/>
		<path fill="#A96521" d="M66,21c-0.2,3,0.7,6.1-1,9c0.8,1.3,1.2,2.5-0.9,3c-2.2-1.4-2.3-3.5-2.3-5.7c0.7-2.4-0.7-5.1,1.3-7.3
			C64,20.3,65,20.7,66,21z"/>
		<path fill="#C57D25" d="M63,20c-0.3,2.3,0.8,4.7-0.1,7c-0.6,0.7-1,1.5-2.1,1.3c-0.6-0.3-1.1-0.8-1.3-1.5c-0.4-1.5,0-3.1-0.4-4.7
			c-0.1-0.7-0.1-1.4,0.1-2.1c0.2-0.4,0.4-0.8,0.8-1.1c0.6,0,1.3,0,1.9,0C62.3,19.3,62.7,19.6,63,20z"/>
		<path fill="#C2731B" d="M60,19c0,0.4,0,0.7,0,1.1c-0.6,0.5-1.3,0.6-2,0.5c-1.5-0.6-2.6-1.3-2.5-3.2c0.2-0.8,0.7-1.2,1.5-1.4
			C58.3,16.6,59.3,17.7,60,19z"/>
		<path fill="#C68538" d="M57,16c-0.3,0.3-0.7,0.7-1,1c-0.4-0.3-0.6-0.6-0.8-1c-0.2-0.6-0.2-1.3,0-2c0.2-0.4,0.4-0.8,0.8-1
			c0.3,0,0.6,0,1,0c0,0.3,0.1,0.6,0.1,0.9C57,14.6,57,15.3,57,16z"/>
		<path fill="#D88830" d="M53,13c0.3,0,0.7,0,1,0c0.3,0,0.7,0,1,0c0.3,0.3,0.5,0.6,0.5,1.1c0,0.6,0,1.2-0.1,1.8
			c-0.3,0.8-0.5,1.6-1.1,2.2c-0.4,0.2-0.8,0.3-1.2,0.2c-0.4-0.2-0.7-0.5-0.9-0.9c-0.5-0.7-0.8-1.5-1.2-2.3c-0.3-0.8-0.6-1.7,0.1-2.5
			C51.8,12.5,52.5,12.5,53,13z"/>
		<path fill="#D98A3B" d="M55,14c0-0.3,0-0.7,0-1c0.3-0.6,0.7-0.6,1,0c0,0.3,0,0.7,0,1C55.7,14.4,55.3,14.5,55,14z"/>
		<path fill="#CE7E2C" d="M53,13c-0.7,0-1.3,0-2,0c-1.1,0.7-2.1,0-3-0.4c-0.6-0.4-1-0.8-1.3-1.4c-0.1-0.4,0-0.8,0.3-1.2
			c0.8,0,1.6-0.2,2-1C50.3,10.3,51.7,11.7,53,13z"/>
		<path fill="#DC882E" d="M47,10c0,0.3,0,0.7,0,1c-0.6,1.4-1.6,1.9-3,1c0-1,0-2,0-3C45,9.4,46,9.7,47,10z"/>
		<path fill="#6B4213" d="M63,57c-1,0-2,0-3,0c-0.3,0.4-0.7,0.4-1.1,0.1c-0.1-2.6,2.1-4.2,2.7-6.5c0.1-0.6,0.2-1.3,0.3-1.9
			c0.1-0.9,0.3-1.8,1-2.5c2.5-0.6,2.4,1.6,3.1,2.9c0.1,2.9-1.6,5.2-2,8C63.7,57,63.3,57,63,57z"/>
		<path fill="#764515" d="M66,49c-1.6-0.4-1.7-2.2-2.9-3c-0.1-0.2-0.2-0.4-0.2-0.6c0.2-0.6,0.6-1,1.1-1.4c0.9-0.7,1-1.7,1.4-2.7
			c0.4-1.1,0.9-2.2,2.1-2.8c0.8-0.2,1.5,0,2.1,0.7c0.2,1.3,0.4,2.6-0.4,3.8c-0.8,0.4-1,1.2-1,2c0,1,0,2,0,3c-0.3,0.4-0.6,0.4-1,0
			C66.7,48.3,66.3,48.7,66,49z"/>
		<path fill="#623E1E" d="M67,48c0.3,0,0.7,0,1,0c0.7,0.3,1.3,0.7,2,1C67.8,52.4,67.9,48.8,67,48z"/>
		<path fill="#6A3D18" d="M69,43c0-1.3,0-2.7,0-4c-0.8-1.6,0.3-2.7,1-4c0,0,0,0,0,0c0.8,0.4,1,1.2,1,2c0,0.7,0,1.3,0,2
			C70.3,40.3,69.7,41.7,69,43z"/>
		<path fill="#904F18" d="M64,33c1.2-0.7,1-1.9,1-3c1-0.3,2-0.7,3-1c0.1,2.2,0.3,4.5-2,6c-0.2,1.3-0.4,2.5-2.2,2
			c-0.9-1.1-0.9-2.3-0.3-3.5C63.6,33.3,63.8,33.2,64,33z"/>
		<path fill="#814309" d="M64,37c0.7-0.7,1.3-1.3,2-2c0.7,0.3,1.3,0.7,2,1c0.5,1,0,1.6-0.7,2.2c-0.8,0.4-1.4,1.1-2.3,1.3
			c-0.5,0.1-0.9,0.1-1.3,0c-0.7-0.3-1-0.8-1.1-1.6C62.8,37.2,63.1,36.7,64,37z"/>
		<path fill="#703E10" d="M67,38c0.3-0.7,0.7-1.3,1-2c0.7-0.3,1.3-0.7,2-1c0.2,1.5-0.3,2.8-1,4c-0.7,0-1.3,0-2,0
			c-0.3-0.2-0.3-0.4-0.3-0.7C66.8,38.1,66.9,38,67,38z"/>
		<path fill="#6B3D10" d="M59,57c0.3,0,0.7,0,1,0c-0.3,0.3-0.7,0.7-1,1c-1,1.3-1.9,2.8-3,4c-2.5,1.1-3.3,5-7,4
			c-0.1-0.2-0.2-0.4-0.2-0.7c1.7-3.7,4.9-6,7.5-8.9C57.3,56.1,58.2,56.2,59,57z"/>
		<path fill="#673B0E" d="M56,62c0.1-2,1.4-3.1,3-4c-0.3,1.3-0.7,2.7-1,4C57.3,62,56.7,62,56,62z"/>
		<path fill="#6B380D" d="M45,68c0-0.3,0-0.7,0-1c0.7-0.9,1.7-1.3,2.8-1.5c0.5,0,0.8,0.1,1.2,0.4c0,0,0,0,0,0c0,0.8-0.2,1.6-1,2
			C47,68,46,68,45,68z"/>
		<path fill="#78400F" d="M48,66c-0.7,1.2-1.9,1-3,1c-0.3-1-0.7-2-1-3c0.2-0.2,0.3-0.3,0.5-0.5c1.1-0.5,2.1-0.3,3,0.6
			C47.8,64.7,48,65.3,48,66z"/>
		<path fill="#935416" d="M43,64c0,0.4,0,0.7-0.1,1.1c-0.3,0.3-0.7,0.6-1,0.9l-0.5,0L41,66c-0.3-0.2-0.5-0.6-0.7-0.9
			c-0.1-0.4-0.1-0.8,0-1.2c0.1-0.4,0.3-0.7,0.5-1c0.4-0.2,0.7-0.3,1.1-0.2c0.4,0.2,0.7,0.4,0.9,0.8C42.9,63.6,42.9,63.8,43,64z"/>
		<path fill="#8D4706" d="M44,64c-0.3,0-0.7,0-1,0c0,0,0,0,0,0c-0.3-0.3-0.4-0.7-0.5-1.2c0-0.4,0.2-0.8,0.6-1.1
			c0.8,0,1.2,0.4,1.4,1.1C44.5,63.3,44.3,63.7,44,64L44,64z"/>
		<path fill="#8A4D0F" d="M40,66c-0.3,0.3-0.7,0.7-1,1c0,0,0,0,0,0c-0.2-0.2-0.3-0.4-0.2-0.6c0.1-0.2,0.1-0.3,0.2-0.3
			c0.2-0.1,0.3-0.2,0.5-0.2C39.7,65.9,39.8,65.9,40,66z"/>
		<path fill="#8C4D0E" d="M41,65c0,0.3,0,0.7,0,1c0,0-0.5,0-0.5,0S40,66,40,66c0,0,0,0,0,0C39.8,65.1,40.1,64.8,41,65z"/>
		<path fill="#AA7132" d="M42,66c0.3-0.3,0.6-0.6,1-0.9C42.6,65.4,42.3,65.7,42,66z"/>
		<path fill="#AC6920" d="M34,69c0-1.1,0.2-2.3-1-3c0.3-0.7,0.7-1.3,1-2c-0.3-0.2-0.4-0.5-0.4-0.8c0-0.3,0-0.5,0.1-0.5
			c0.6-0.8,1.4-1.3,2.5-0.9c0.8,0.6,1.2,1.5,1.5,2.4c0.2,1,0.1,1.9-0.7,2.7C36.4,68.3,35.5,69,34,69z"/>
		<path fill="#925109" d="M37,67c0-1,0-2,0-3c0.3-0.3,0.6-0.3,0.9-0.3c0.3,0.2,0.5,0.4,0.7,0.8c0.2,0.3,0.3,0.6,0.3,1
			c0,0.2,0,0.3,0,0.5c0,0.3,0,0.7,0,1C38.3,67,37.7,67,37,67z"/>
		<path fill="#FEB748" d="M28,24c0-0.7,0-1.3,0-2c0.3,0,0.7,0,1,0c0.8-0.5,1.7-0.8,2.6-1c0.5,0,0.9,0.1,1.4,0.2
			c1.6,0.6,2.2,2.2,3.2,3.5c0.5,1.2,0.4,2.5,1.1,3.7c0.1,0.4,0.2,0.8,0.2,1.2c0.2,0.5-1.1,0.4-0.4,1.1c0.2,0.4,0.3,0.7,0.2,1.1
			c-0.5,0.9-1.4,1.5-2.1,2.1c-1,0.7-1.9,1.7-3.3,1.2C31,34.3,30,33.6,29,33c-2.6-0.2-1.5-1.7-1-3C27.8,28,28.4,26,28,24z"/>
		<path fill="#FEAE44" d="M25,25c-2.2,0.7-4,1.9-5,4c0.2-3.2-0.2-7,5-6C25,23.7,25,24.3,25,25z"/>
		<path fill="#FEB543" d="M32,22c-1,0-2,0-3,0c0.3-0.3,0.7-0.7,1-1c0.3-0.3,0.7-0.5,1.2-0.5C31.9,20.8,32.4,21.2,32,22z"/>
		<path fill="#F1A637" d="M31,21l-0.5,0c0,0-0.5,0-0.5,0c0-0.3,0-0.7,0-1c0.3,0,0.7,0,1,0c0.1,0.2,0.2,0.3,0.3,0.5
			C31.2,20.7,31.1,20.8,31,21z"/>
		<path fill="#FDB444" d="M32,35c1-0.7,2-1.3,3-2c0.7,0.1,1.1,0.6,1.4,1.2c0.1,1.1-0.2,2.2-0.6,3.2c-0.2,0.4-0.4,0.8-0.7,1.1
			c-0.8,0.9-1.8,1.2-3,1c-4,0.5-4,0.5-3.1-2.6c0-0.3,0-0.7,0-1C29.8,35.2,30.6,34.2,32,35z"/>
		<path fill="#FDAB3D" d="M29,37c0.1,0.6-0.1,1.7,0.3,1.8c0.9,0.5,0.6-0.7,1-1c1.5-1,1.5,0.3,1.7,1.2c1.1,1.6,0.2,2.6-1,3.5
			c-2.2,0.5-4,0.4-4-2.5c1.2-1-0.3-2,0-3C27.7,37,28.3,37,29,37z"/>
		<path fill="#FEB74B" d="M28,24c1.5,2,1.5,4,0,6C26.1,28,27.1,26,28,24z"/>
		<path fill="#FEBE54" d="M32,35c-1,0.3-2,0.7-3,1c0-1,0-2,0-3C31.3,31.6,32.2,32.6,32,35z"/>
		<path fill="#F8A038" d="M20,42c0-0.3,0-0.7,0-1c0.7,0,1.3,0,2,0c1.1,2.8,4.9,1.5,6.2,4c0.2,1.1-0.3,1.9-1.2,2.5
			c-2.8,1.1-4.8-0.9-7-2c-0.4-0.4-0.6-0.8-0.7-1.3C19.2,43.3,19.4,42.6,20,42z"/>
		<path fill="#FCA33A" d="M28,45c-1.7-1.8-6.5,1.1-6-4c0.3,0,0.7,0,1,0c0.7,1,1.3,1,2,0c2.2-0.4,2.1,1.9,3.2,2.7
			C28.3,44.2,28.3,44.6,28,45z"/>
		<path fill="#FCA73B" d="M28,44c-2.2,0.2-1.7-2.3-3-3c0.4-0.8,1.2-1,2-1c0.8,1.8,2.3,2.1,4,2c0.4,1.1-0.1,1.8-1,2.4
			C29.2,44.7,28.6,44.6,28,44z"/>
		<path fill="#F79F3E" d="M20,42c0,0.7,0,1.3,0,2c-1.1,1-2.4,1.2-3.8,0.8C15.4,44.5,14.8,44,15,43c0,0,0,0,0,0
			C16.9,44,17.7,39.1,20,42z"/>
		<path fill="#E3932D" d="M15,43c0.3,0.3,0.7,0.7,1,1c0.7,1.2,0.7,2-1,2c-0.7,0-1.3,0-2,0c-0.3-1-0.7-2-1-3C13,43,14,43,15,43z"/>
		<path fill="#FAA945" d="M36,13c1,0.3,2,0.7,3,1c0,0,0,0,0,0c0.5,1.8-1,2.4-2.1,3.2c-1.3,0.3-2.4-0.1-3.2-1.2
			c-0.2-0.7-0.3-1.4,0.3-2C34.4,13.2,35.2,13,36,13z"/>
		<path fill="#FEAC43" d="M34,14c0,0.7,0,1.3,0,2c0.3,0.2,0.4,0.4,0.3,0.7c0,0.3-0.1,0.4-0.1,0.4c-0.3,0.3-0.7,0.5-1.2,0.5
			c-0.4,0-0.9-0.2-1.2-0.5c-0.2-0.4-0.2-0.8,0.2-1.2c0.8-0.4,1-1.2,1-2C33.3,14,33.7,14,34,14z"/>
		<path fill="#FDB752" d="M31,19c0-0.7,0-1.3,0-2c0.3-0.3,0.7-0.4,1,0l0,0c0.6,0.5,1.4,0.9,1.1,1.9c-0.3,0.3-0.6,0.5-1,0.6
			C31.6,19.5,31.3,19.3,31,19z"/>
		<path fill="#FCAE45" d="M32,17l-0.5,0c0,0-0.5,0-0.5,0c0-0.3,0-0.7,0-1c0.3,0,0.7,0,1,0C32,16.3,32,16.7,32,17z"/>
		<path fill="#FEBC61" d="M31,19c0.3,0,0.7,0,1,0c0.2,0.9-0.1,1.3-1,1c0,0,0,0,0,0C31,19.7,31,19.3,31,19z"/>
		<path fill="#E79B35" d="M15,46c0.8-0.4,1-1.2,1-2c1.3,0,2.7,0,4,0c0,0.3,0,0.7,0,1c0.3,0.3,0.6,0.7,0.7,1.1c0.1,0.7,0,1.4-0.5,1.9
			c-0.4,0.3-0.8,0.2-1.2-0.1c-0.6,0-1.3,0-1.9,0C16.1,47.6,15.4,47,15,46z"/>
		<path fill="#F7A544" d="M37,17c-0.2-1.6,1.4-2,2-3c0.7,0,1.3,0,2,0c0.7-0.3,1.3-0.7,2-1c0.3-0.3,0.7-0.4,1.1-0.2
			c1.3,1.4,2.3,3.1,4,4c0.3,0.4,0.5,0.8,0.6,1.2c0.1,0.7-0.1,1.3-0.4,1.9c-0.3,0.3-0.7,0.6-1.1,0.7c-1.5,0.2-2.9-0.1-4.4-0.4
			c-0.8-0.6-1.4-1.6-2.5-1.9c-1-0.3-2.1-0.3-3-0.9C37.3,17.3,37.1,17.2,37,17z"/>
		<path fill="#EC993A" d="M44,13c-0.3,0-0.7,0-1,0c0.3-0.3,0.7-0.7,1-1c1-0.3,2-0.7,3-1c0.3,0.3,0.7,0.7,1,1c0.5,1.1-0.1,1.7-1,2.3
			C45.7,14.6,44.8,13.8,44,13z"/>
		<path fill="#E28D2C" d="M28,56c-1.6-0.5-2.9-2.7-5-1c-0.3-0.3-0.7-0.7-1-1c-0.4-1.8,0.8-2.4,2.1-2.9c1.1-0.2,2.2-0.1,3.2,0.5
			C28.7,52.9,29.3,54.3,28,56z"/>
		<path fill="#F19D37" d="M19,48c0.3,0,0.7,0,1,0c0.8,0.3,1.4,1,1.9,1.6c0.4,0.5,0.6,1.1,0.6,1.8c-0.6,0.9-1,2.1-2.5,1.6
			c-0.7,0-1.3,0-2,0C17.9,51.2,18,49.5,19,48z"/>
		<path fill="#EC9632" d="M20,53c1-0.4,1.6-1,2-2c1.2-0.6,2-0.7,2,1c-0.9,0.4-1.6,1-2,2C21.2,54,20.4,53.8,20,53z"/>
		<path fill="#CE8222" d="M32,64c-0.3,0-0.6,0-0.9,0.1c-0.2-2.5-3.4-2.1-4.1-4c0,0,0,0,0,0c1.1-1,2.6-0.8,3.8-1.6
			c0.7-0.2,1.4-0.1,2.1,0.2c0.4,0.3,0.6,0.7,0.8,1.1c0.2,0.7,0.2,1.4,0,2.1C33.5,62.8,32.8,63.4,32,64z"/>
		<path fill="#CE8534" d="M32,64c0.3-0.7,0.7-1.3,1-2c0.4-0.4,0.7-0.4,1.2-0.1c0.3,0.4,0.2,0.8-0.1,1.2c0,0.3,0,0.7,0,1
			C33.3,64,32.7,64,32,64z"/>
		<path fill="#DE8728" d="M28,56c0.2-1.5-0.3-2.8-1-4c-0.1-0.2-0.2-0.4-0.4-0.6c0.1-0.2,0.2-0.4,0.3-0.6c2.6,0.3,5.1-0.4,7.7-0.6
			c0.4,0.1,0.8,0.2,1.2,0.5c0.5,0.6,0.3,1.2-0.1,1.8c-0.4,0.5-0.8,1-1.3,1.5c-0.9,0.9-1.9,1.7-2.8,2.7c-0.5,0.4-1,0.8-1.8,0.4
			C29.2,57,28.4,56.8,28,56z"/>
		<path fill="#CC7415" d="M30,57c0.3-0.3,0.7-0.7,1-1c0.5-0.5,1.1-0.6,1.8-0.4c0.4,0.3,0.6,0.6,0.8,1c0.1,0.4,0.1,0.9,0.1,1.3
			c-0.1,0.4-0.4,0.8-0.7,1.1c-0.7,0-1.3,0-2,0c-1,0.4-1.2-0.1-1-1C30,57.7,30,57.3,30,57z"/>
		<path fill="#D27D1B" d="M30,58c0.3,0.3,0.7,0.7,1,1c-1.1,1.4-2.6,0.8-4,1C27.5,58.7,28.6,58,30,58z"/>
		<path fill="#BB731D" d="M61,28c0.7-0.3,1.3-0.7,2-1c0.3,2,0.7,4,1,6c0,0,0,0,0,0c-1,0.6-1.2,2.7-3.1,1.8c-0.7-0.7-0.7-1.6-0.6-2.5
			C60.8,30.9,60.3,29.4,61,28z"/>
		<path fill="#CC7E2B" d="M61,28c0.5,1.3,1.8,2.7,0,4c-0.8,0.8-1.7,0.9-2.7,0.7c-1-0.3-1.8-0.7-2.5-1.4c-0.4-0.6-0.6-1.3-0.5-2
			c0.1-0.4,0.3-0.8,0.6-1.2c1.1-0.5,2.5-0.4,3.5-1c0.2,0,0.4-0.1,0.6-0.1C60.3,27.3,60.7,27.7,61,28z"/>
		<path fill="#EB9941" d="M58,20c0.7,0,1.3,0,2,0.1c0,0.6,0,1.3,0,1.9c-0.6,1.1-0.7,2.4-1.8,3.2c-0.4,0.2-0.8,0.2-1.2,0.1
			c-0.9-0.6-1.5-1.4-2.1-2.2c-0.2-0.4-0.2-0.8-0.1-1.2c0.6-0.8,1.3-1.6,2.1-2.2C57.3,19.6,57.7,19.7,58,20z"/>
		<path fill="#CC7E2B" d="M58,25c0-1.4,0.7-2.4,2-3c1.4,1.7,0.2,3.3,0,5c0,0-0.1,0-0.1,0C58.3,27.3,58.2,26.2,58,25z"/>
		<path fill="#D88534" d="M58,20c-0.3,0-0.7,0-1,0c-0.6,0.5-1.3,0.6-2,0.4c-0.8-0.6-1.5-1.3-1-2.4c0-0.8,0.2-1.6,1-2
			c0.3-0.5,0.7-0.5,1,0c0,0.3,0,0.7,0,1C55.9,18.6,57.4,19,58,20z"/>
		<path fill="#C17114" d="M56,16c-0.3,0-0.7,0-1,0c0-0.7,0-1.3,0-2c0.3,0,0.7,0,1,0C56,14.7,56,15.3,56,16z"/>
		<path fill="#DF8E32" d="M47,14c0.3-0.7,0.7-1.3,1-2c1,0.3,2,0.7,3,1c0.3,0.7,0.7,1.3,1,2c-0.8,1.6-2,2.2-3.7,1.5
			C47.3,16,46.9,15.1,47,14z"/>
		<path fill="#E18E35" d="M48,20c0-0.7,0-1.3,0-2c1.5-0.9,3-2.1,5-1c0,0.3,0,0.7,0,1c0.6,0.6,0.6,1.3,0.3,2c-0.7,0.8-1.7,1-2.7,1
			c-0.7,0-1.5-0.2-2.1-0.5C48.3,20.4,48.2,20.2,48,20z"/>
		<path fill="#DD8A2E" d="M53,17c-1.7,0.3-3.3,0.7-5,1c0-0.3,0-0.7,0-1c-0.2-0.2-0.3-0.5-0.2-0.7c0.1-0.2,0.2-0.3,0.3-0.3
			c1.4,0.1,2.7-0.3,4-1C52.3,15.7,52.7,16.3,53,17z"/>
		<path fill="#E4913F" d="M53,20c0-0.7,0-1.3,0-2c0.3,0,0.7,0,1,0c0.3,0.7,0.7,1.3,1,2c-0.3,0.3-0.6,0.5-1,0.6
			C53.6,20.5,53.3,20.3,53,20z"/>
		<path fill="#90551B" d="M63,49c0,0.7,0,1.3,0,2c-3,0.9-3,5.3-6.5,5.5c-1,0-1.8-0.4-2.5-1.1c-0.3-0.4-0.4-0.9-0.3-1.3
			c0.5-1.4,1.7-2.2,2.7-3.1C58.4,49.8,59.6,45.6,63,49z"/>
		<path fill="#824C17" d="M56,56c3.3-0.3,3-5.6,7-5c-1.3,2-2.7,4-4,6c-1,0-2,0-3,0c-0.1-0.2-0.2-0.3-0.3-0.5
			C55.8,56.3,55.9,56.2,56,56z"/>
		<path fill="#96591A" d="M63,49c-3.5-2.1-3.9,2.3-6,3c-0.6-0.5-0.7-1.2-0.6-1.9c0.4-1.4,1.1-2.5,2.2-3.4c1-0.6,2-0.9,3.2-1.1
			c0.5,0,0.9,0.1,1.2,0.5c0,0,0.1,0,0.1,0C63,47,63,48,63,49z"/>
		<path fill="#925920" d="M63,46c-0.3,0-0.6,0-1,0c-1.5-0.6-1.8-1.7-1.1-3.1c1-0.9,2-1.7,3.4-0.7c0.6,1,0.5,2-0.3,2.9
			C63.7,45.3,63.3,45.7,63,46z"/>
		<path fill="#814914" d="M67,38c0,0.3,0,0.7,0,1c-0.3,1-0.7,2-1,3c-0.9,0.4-1.3-0.2-1.6-0.9c-0.1-0.8,0.1-1.5,0.6-2
			C65.4,38.2,66.2,38,67,38z"/>
		<path fill="#87531E" d="M65,41c0.3,0.3,0.7,0.7,1,1c0,1.5,0,2.9-2,3c0-1,0-2,0-3C63.8,41.1,64.1,40.8,65,41z"/>
		<path fill="#A55915" d="M61,35c1-0.6,1.4-2.2,3-2c0,1.3,0,2.7,0,4c-0.3,0.3-0.7,0.7-1,1c-0.5,0.6-1.1,0.6-1.8,0.4
			c-0.6-0.4-0.9-1-1-1.7c0-0.5,0.1-0.9,0.3-1.3C60.7,35.3,60.8,35.1,61,35z"/>
		<path fill="#9A5614" d="M61,38c0.7,0,1.3,0,2,0c0.3,0.3,0.7,0.7,1,1c0.2,2.2-1.4,2.8-3,3.4c-2.2-0.6-1.7-2-1.1-3.5
			C60.2,38.6,60.6,38.3,61,38z"/>
		<path fill="#985B22" d="M61,42c1.3-0.6,2.3-1.6,3-3c0.3,0,0.7,0,1,0c0,0.7,0,1.3,0,2c-0.3,0.3-0.7,0.7-1,1c-1,0.3-2,0.7-3,1
			c-0.1-0.2-0.2-0.3-0.3-0.5C60.8,42.3,60.9,42.2,61,42z"/>
		<path fill="#7D4712" d="M48,66c-0.3-0.3-0.7-0.7-1-1c0.8-1-0.3-2.1,0.2-3.1c0.1-0.4,0.3-0.8,0.6-1.2c0.9-1,1.9-2,3-2.8
			c1.6-1,3.2-2.5,5.2-0.8c0,0,0,0,0,0c-0.8,4.2-5.2,5.6-7,9C48.7,66,48.3,66,48,66z"/>
		<path fill="#8A4F1A" d="M48,62c0,1.1,0.2,2.3-1,3c-0.7-1.2-1.9-0.9-3-1c0-0.3,0-0.7,0-1C45,61.2,46.3,60.8,48,62z"/>
		<path fill="#9B5C1B" d="M38,65c0-0.3,0-0.7,0-1c0.3-0.4,0.7-0.6,1.1-0.7c0.7-0.1,1.4,0.2,1.9,0.7c0,0.3,0,0.7,0,1
			c-0.3,0.3-0.7,0.7-1,1c0,0-0.5,0-0.5,0S39,66,39,66c0,0,0,0,0,0C38.7,65.7,38.4,65.3,38,65z"/>
		<path fill="#9E5412" d="M43,62c0,0.3,0,0.7,0,1c-0.3,0.4-0.6,0.4-1,0c-0.3,0-0.7,0-1,0c-0.3-0.3-0.4-0.7-0.3-1.1
			c0.3-0.6,0.7-0.9,1.3-1.2c0.4-0.1,0.8,0,1.1,0.2C43.4,61.4,43.3,61.7,43,62z"/>
		<path fill="#A5601D" d="M41,62c0,0.3,0,0.7,0,1c0,0.3,0,0.7,0,1c-0.7,0-1.3,0-2,0c-0.6-1,0.1-1.6,0.8-2.2
			C40.2,61.7,40.6,61.7,41,62z"/>
		<path fill="#803D00" d="M42,63c0.3,0,0.6,0,1,0c0,0.3,0,0.7,0,1C42.7,63.7,42.3,63.3,42,63z"/>
		<path fill="#8D4B06" d="M43,62c0-0.3,0-0.7,0-1c0.3-2.6,2.2-1.9,3.8-1.8c0.8,0.4,1.5,0.8,1.3,1.8c0,0.3,0,0.7,0,1
			c-1.5-0.2-2.8,0.3-4,1C43.7,62.7,43.3,62.3,43,62z"/>
		<path fill="#B16720" d="M40,62c-0.3,0.7-0.7,1.3-1,2c-0.3,0-0.7,0-1,0c0,0-0.5,0-0.5,0S37,64,37,64c-0.8-0.4-1-1.2-1-2
			c0.1-0.7,0.5-1.2,1.1-1.5c0.6-0.3,1.3-0.3,1.9-0.2c0.4,0.1,0.8,0.3,1.2,0.6C40.4,61.3,40.3,61.7,40,62z"/>
		<path fill="#C57621" d="M37,61c-0.3,0.3-0.7,0.7-1,1c-0.7,0.3-1.3,0.7-2,1c0-0.3,0-0.7,0-1c-0.4-1,0.2-1.3,1-1.6
			C35.7,60.2,36.4,60.4,37,61z"/>
		<path fill="#8B4C06" d="M38,65c0.3,0.3,0.7,0.7,1,1C38.7,65.7,38.3,65.3,38,65z"/>
		<path fill="#F79F30" d="M36,34c-0.3-0.3-0.7-0.7-1-1c0.7-0.7,1.3-1.3,2-2c2.2-1.5,3.4-0.3,4.4,1.5c0.3,0.7,0.4,1.5,0.3,2.3
			c-0.2,0.8-0.6,1.3-1.4,1.6C38.5,36.2,37.1,35.4,36,34z"/>
		<path fill="#FEB646" d="M41,33c-1.1-1.1-2.1-2.4-4-2c0,0,0,0,0,0c-0.2-0.2-0.3-0.4-0.2-0.7c0.1-0.2,0.1-0.3,0.2-0.3
			c0-0.3,0-0.7,0-1c-0.2-2,1.3-1.7,2.5-1.9c1.3,0.2,2.3,0.9,2.8,2.1c0.2,1.2-0.2,2.3-0.8,3.3C41.4,32.7,41.2,32.9,41,33z"/>
		<path fill="#FEB444" d="M40,28c-1.1,0-2.3-0.2-3,1c-2.1-0.9-2-2.3-1-4c-0.2-0.3-0.3-0.5-0.2-0.8c0.1-0.3,0.2-0.4,0.3-0.4
			c1.8,0,3,1.1,4.2,2.3C40.6,26.8,40.6,27.4,40,28z"/>
		<path fill="#FEB044" d="M36,24c0,0.3,0,0.7,0,1c-2.2,0.2-1.7-2.3-3-3c-0.4-0.3-0.5-0.7-0.3-1.2c0.4-0.6,0.9-1,1.6-1.2
			c0.5-0.1,0.9,0,1.4,0.1c0.9,0.6,1.2,1.5,1.2,2.5C36.9,22.9,36.6,23.5,36,24z"/>
		<path fill="#FEBE4F" d="M31.5,29.9c-1,0-1-0.7-0.8-1.4c0.3-0.7-0.1-1.9,1.2-1.8c0.8,0.1,1.7,0.5,1.3,1.6
			C33,29.1,32.5,29.8,31.5,29.9z"/>
		<path fill="#FEB648" d="M33,20.9c0,0.4,0,0.7,0,1.1c-0.3,0-0.7,0-1,0c-0.3-0.3-0.7-0.7-1-1c0-0.3,0-0.7,0-1c0.3-0.3,0.7-0.7,1-1
			c0.3,0,0.6,0,1,0c0,0,0.4,0.3,0.4,0.3c0.2,0.3,0.2,0.6,0.1,0.9C33.4,20.5,33.3,20.7,33,20.9z"/>
		<path fill="#E9971A" d="M37,30c0,0.3,0,0.7,0,1C36.3,30.7,36.2,30.4,37,30z"/>
		<path fill="#F9AC3D" d="M30,44c0.3-0.7,0.7-1.3,1-2c0.3-1,0.7-2,1-3c1-0.3,2-0.7,3-1c1.3,1.3,0.7,2.7,0.3,4.1
			c-1.2,2.7-0.2,7-5,7.2c-0.4-0.2-0.7-0.5-0.9-0.9C28.9,46.8,29.6,45.4,30,44z"/>
		<path fill="#FBA93C" d="M34,42c0.7-1.2,1.2-2.5,1-4c0-0.3,0-0.7,0-1c1.7-1.3,3.2-0.3,4.7,0.4c0.4,0.3,0.6,0.7,0.5,1.2
			c-1.1,1.7-2.4,3.3-4.1,4.6C35.1,43.5,34.4,42.9,34,42z"/>
		<path fill="#FEAF42" d="M40,38c-1.7-0.3-3.3-0.7-5-1c0.3-1,0.7-2,1-3c1.6,0.2,3,0.7,4,2C40.6,36.7,40.5,37.3,40,38z"/>
		<path fill="#F29A30" d="M20,46c0-0.3,0-0.7,0-1c2.7-0.6,4.3,2.6,7,2c0.8-0.5,1.1,0.1,1.3,0.7c0,0.8-0.2,1.6-0.5,2.4
			c-0.2,0.4-0.5,0.7-0.8,0.9l0,0c-1.6,0.6-2.2-0.9-3.3-1.4C22.3,48.5,21.2,47.3,20,46z"/>
		<path fill="#F19F37" d="M28,48c-0.3-0.3-0.7-0.7-1-1c0.3-0.7,0.7-1.3,1-2c0-0.3,0-0.7,0-1c0.7,0,1.3,0,2,0c1.8,1.3-0.4,2.7,0,4
			C29.3,48.6,28.7,48.5,28,48z"/>
		<path fill="#F8A33B" d="M34,17c0-0.3,0-0.7,0-1c1,0.3,2,0.7,3,1c0,0,0,0,0,0c0.9,1.8,0.2,2.4-1.6,2.4C34.4,18.9,33.6,18.3,34,17z"
			/>
		<path fill="#FCAE45" d="M34,17c0.3,0.7,0.7,1.3,1,2c0,0-0.3,0.4-0.3,0.4c-0.3,0.1-0.6,0.2-0.9,0.1c-0.3,0-0.6-0.2-0.8-0.5
			c0,0,0,0,0,0c-0.3-0.7-0.6-1.3-1-2C32.7,17,33.3,17,34,17z"/>
		<path fill="#ED982D" d="M20,46c2,0.1,3.1,1.4,4,3c-0.7,1.2-2.1,0.3-3,1c-0.8-0.4-1-1.2-1-2C20,47.3,20,46.7,20,46z"/>
		<path fill="#F39D35" d="M47,20c0.3,0,0.7,0,1,0c0,0,0,0,0,0c2.4,1.8,1.4,4.5,1.6,6.8c-0.1,1.6,0.7,2.8,1.6,4
			c0.2,0.4,0.2,0.8,0.1,1.2c-0.9,1.1-1.9,2.2-1.7,3.8c-0.2,1-0.8,1.7-1.8,1.9c-0.7,0.1-1.4-0.1-2-0.5c-1.2-2,0.2-4.2-0.2-6.2
			c-0.1-0.7-0.2-1.3-0.3-2c-0.1-1.6,0-3.1-0.4-4.7C44.8,22.5,45.2,20.9,47,20z"/>
		<path fill="#FCAA44" d="M35,19c1.3,0,2-0.7,2-2c1.3,0,2.7,0,4,0c0.9,1.4,1.9,2.8,1.6,4.6c-0.2,0.7-0.7,1.2-1.3,1.6
			c-0.4,0.2-0.9,0.2-1.3,0.1c-1.2-0.9-2.8-0.7-4.1-1.4c0-0.8-0.2-1.6-1-2c-0.3-0.2-0.5-0.4-0.3-0.7C34.8,19.1,34.9,19,35,19L35,19z"
			/>
		<path fill="#ED9A39" d="M48,16c0,0.3,0,0.7,0,1c-2.9,0.2-3.6-1.7-4-4c1,0.3,2,0.7,3,1C47.8,14.4,48,15.2,48,16z"/>
		<path fill="#F79F3B" d="M47,20c-1,1.5-1.1,3.2-1,5c-0.7,0.4-1.2,0-1.6-0.5c-0.6-1.1-1.2-2.2-1.7-3.3c-0.1-0.4,0-0.8,0.3-1.1
			C44.3,19,45.7,20,47,20z"/>
		<path fill="#FCAD47" d="M43,20c0,0.3,0,0.7,0,1c0.3,1-0.2,1.2-1,1c-0.3-1.7-0.7-3.3-1-5C42.3,17.6,43,18.6,43,20z"/>
		<path fill="#E99528" d="M21,50c0.7-1.2,1.9-1,3-1c1.6-0.2,2,1.4,3,2c0,0.3,0,0.7,0,1c-1,0-2,0-3,0c-0.4-0.8-1.2-1-2-1
			C21.7,50.7,21.3,50.3,21,50z"/>
		<path fill="#D37E29" d="M35,61c-0.3,0.3-0.7,0.7-1,1c0,0-0.5,0-0.5,0S33,62,33,62c0-0.7,0-1.3,0-2c0.6-0.6,1.3-0.6,2-0.3
			c0.2,0.3,0.3,0.6,0.3,0.8C35.2,60.9,35.1,61,35,61z"/>
		<path fill="#D07920" d="M35,60c-0.7,0-1.3,0-2,0c0-0.3,0-0.7,0-1c0-0.3,0-0.7,0-1c1-0.6,1.6,0.1,2.1,0.8
			C35.2,59.2,35.2,59.6,35,60z"/>
		<path fill="#F4A238" d="M27,51c0-0.3,0-0.7,0-1c0.8-1,1.9-1,3-1c4.1-0.8,2.9-4.6,4-7c0.7,0.3,1.3,0.7,2,1c1.9-0.6,3,0.7,4.2,1.8
			c0.5,1.5,0,2.7-0.7,4c-0.3,0.4-0.7,0.6-1.1,0.8c-1.2,0.3-2.6,0.2-3.4,1.4C32.3,51,29.7,54.1,27,51z"/>
		<path fill="#C46D00" d="M33,56c-0.7,0-1.3,0-2,0c0.4-1.6,2.2-1.7,3-2.9c0.2-0.2,0.3-0.3,0.5-0.5c0.2,0,0.5,0.1,0.7,0.1
			c1.6,0.5,3.1,1.1,2.9,3.3c-0.3,0.3-0.7,0.6-1.2,0.8c-0.5,0.1-0.9,0.2-1.4,0.2C34.6,57.1,33.7,56.7,33,56z"/>
		<path fill="#F59E3E" d="M38,49c0.3,0,0.7,0,1,0c0.4,0.4,0.7,0.8,0.8,1.4c0.2,1.2,0,2.2-0.9,3c-1.4,0.6-2.7,0.3-3.9-0.3l-0.1,0
			c-0.2-0.4-0.2-0.7,0-1.1c0.4-0.3,0.7-0.7,1.1-1C36.1,49.8,37.2,49.5,38,49z"/>
		<path fill="#EC9533" d="M38,49c-0.4,1-1.1,1.6-2,2c0,0-0.5,0-0.5,0S35,51,35,51C35.1,49,35.8,47.9,38,49z"/>
		<path fill="#D9801C" d="M34.9,52c0,0.3,0,0.7,0,1c0,0-0.4,0-0.4,0s-0.4,0-0.4,0C34.4,52.7,34.6,52.4,34.9,52z"/>
		<path fill="#CF7518" d="M33,56c1,0,2,0,3,0c0.5,0.5,0.6,1.1,0.3,1.8c-0.3,0.3-0.7,0.5-1.1,0.5c-0.7-0.5-1.5-0.8-2.2-1.4
			C33,56.7,33,56.3,33,56z"/>
		<path fill="#C76D1B" d="M33,57c0.8,0,1.6,0.2,2,1c0.1,0.2,0.3,0.3,0.4,0.5c-0.1,0.2-0.3,0.3-0.4,0.5c-0.7-0.3-1.3-0.7-2-1
			C33,57.7,33,57.3,33,57z"/>
		<path fill="#C5701C" d="M58,32c1,0,2,0,3,0c0,1,0,2,0,3c0,0,0,0,0,0c-1.7,0.5-2.3-0.9-3.2-1.8C57.7,32.8,57.7,32.4,58,32z"/>
		<path fill="#D27818" d="M56,28.9c0,0.7,0,1.4,0,2c1.1,1.6,1.9,3.3,2.7,5.1c0.3,1,0.3,2-0.2,3c-0.8,1.2-1.8,1.8-3.2,1.7
			c-0.5-0.1-0.9-0.2-1.3-0.5c-1.4-2.1,1.5-4.2,0-6.4c-0.2-0.6-0.4-1.3-0.6-1.9c-0.1-0.5-0.1-0.9,0-1.4C53.9,29.5,54.5,28.5,56,28.9z
			"/>
		<path fill="#E89333" d="M56,28.9c-0.7,0.7-1.4,1.4-2.1,2.1c-1.4,0.4-1.9-0.8-2.7-1.4c-0.5-0.5-0.7-1.1-0.8-1.9
			c0.1-1.2,0.6-2.3,1.5-3.1c0.9-0.5,1.8-0.6,2.7-0.2c1.2,0.6,1.4,1.7,1.5,2.9c0,0.2,0,0.4-0.1,0.7C56,28.3,56,28.6,56,28.9z"/>
		<path fill="#EE9E42" d="M58,25c0.7,0.7,1.3,1.3,2,2c-0.9,2.2-1.9,3.8-4,1c0,0,0-0.1,0-0.1c-0.3-1.2-1.4-2.6,1-2.9
			C57.3,25,57.7,25,58,25z"/>
		<path fill="#C66A16" d="M58,36c-1.6-1.3-2.1-3.1-2-5c0.8,0.1,1.6,0.2,2,1c0,0.3,0,0.7,0,1c0.8,0.7,0.9,1.6,0.5,2.5
			C58.3,35.7,58.2,35.8,58,36z"/>
		<path fill="#E69837" d="M53,20c0.3,0,0.7,0,1,0c0.5,0.6,1.6,0.8,1,2c0,0.3,0,0.7,0,1c-0.2,0.1-0.4,0.2-0.6,0.3
			c-1.2,0.1-2.3-0.2-3.4-0.5c-1.2-0.6-2-1.4-1-2.8C51,20,52,20,53,20z"/>
		<path fill="#F7A64B" d="M57,25c-1.1,0.7-1,1.8-1,2.9C54.8,27.2,55.1,26,55,25c-0.6-0.7-0.6-1.3,0-2c0,0,0,0,0,0
			C56.3,23,57,23.7,57,25z"/>
		<path fill="#F4A850" d="M55,22c-0.3-0.7-0.7-1.3-1-2c0.3,0,0.7,0,1,0c0.6,0,1.3,0,1.9,0.1C57,21.3,56.3,22,55,22z"/>
		<path fill="#EC9736" d="M50,20c0,1.3,0.7,2,2,2c0.8,1,0.2,2,0,3c-0.3,1-0.7,2-1,3c-1.1,0.5-1.6-0.2-2-1c-1.9-2.1,0.7-4.9-1-7
			C48.7,20,49.3,20,50,20z"/>
		<path fill="#8F551E" d="M56,57c-2.1-0.4-3.4,1.1-5,2c-0.8-0.6-1-1.5-0.9-2.5c0.1-0.5,0.2-0.9,0.4-1.3c0.3-0.4,0.6-0.7,1-0.9
			c0.4-0.1,0.9-0.1,1.3-0.1c0.4,0.1,0.8,0.4,1.1,0.7c0.8,0,1.6,0.2,2,1C56,56.3,56,56.7,56,57z"/>
		<path fill="#A96225" d="M57,50c0,0.7,0,1.3,0,2c-1,0.7-2,1.3-3,2c-0.5,0.2-0.9,0.1-1.2-0.3c-0.6-2.1,0.9-3.1,2.2-4.1
			C55.7,49.4,56.4,49.4,57,50z"/>
		<path fill="#854500" d="M53,54c0.3,0,0.7,0,1,0c0,0.3,0,0.6,0,1c0,0-0.5,0-0.5,0L53,55c-0.1-0.2-0.2-0.3-0.4-0.5
			C52.8,54.3,52.9,54.1,53,54z"/>
		<path fill="#985104" d="M61,43c0.3,1,0.7,2,1,3c-0.7,1.2-1.9,1-3,1c-0.7-0.2-1.2-0.6-1.4-1.3c0-0.5,0-0.9,0.2-1.4
			C58.6,43.2,59.2,41.7,61,43L61,43z"/>
		<path fill="#AE601C" d="M58,46c0.3,0.3,0.7,0.7,1,1c-0.7,1-1.3,2-2,3c-0.7,0-1.3,0-2,0c-0.4,0.3-0.8,0.3-1.2,0
			c-0.6-1.4,0-2.2,1.1-2.8C55.9,46.7,56.9,46.1,58,46z"/>
		<path fill="#AC580A" d="M58,39c0-1,0-2,0-3c0,0,0,0,0,0c1-0.9,2-0.8,3,0c0,0.7,0,1.3,0,2c0,0.3,0,0.7,0,1C60,39.7,59,39.9,58,39z"
			/>
		<path fill="#BB6314" d="M61,36c-1,0-2,0-3,0c0-1,0-2,0-3c1.6-0.2,2,1.4,3,2C61,35.3,61,35.7,61,36z"/>
		<path fill="#B56618" d="M58,39c1,0,2,0,2.9,0c-0.3,1-1.6,2,0,3c0,0.3,0,0.7,0,1c-1.6-0.2-1.9,1.4-3,2c-0.6,0-1.2-0.1-1.8-0.4
			c-0.3-0.2-0.5-0.6-0.6-1c0.4-1-0.8-0.3-0.9-0.8c-0.6-1-0.6-1.9,0.2-2.8C56,39.7,57,39.3,58,39z"/>
		<path fill="#955A13" d="M51,55.9c0,1,0,2,0,3c-1,0.6-1.4,2.2-3,2c-0.3-0.3-0.7-0.7-1-1c-0.3-0.4-0.5-0.8-0.4-1.3
			c0.3-1.2,0.6-2.3,1.7-3.1C49.2,55.1,50.1,55.2,51,55.9z"/>
		<path fill="#A0580C" d="M47,59c0,0.3,0,0.7,0,1c-1.4,0.2-3-0.4-4,1c-0.3,0-0.7,0-1,0c-0.1-0.1-0.3-0.3-0.4-0.4
			c-0.2-0.4-0.3-0.8-0.3-1.2c0-0.4,0.1-0.8,0.3-1.2c0.2-0.4,0.6-0.6,0.9-0.8c0.6-0.2,1.2-0.1,1.9,0.1C45.3,57.8,46.4,58.1,47,59z"/>
		<path fill="#AF6623" d="M40,62c0-0.3,0-0.7,0-1c0.7-0.5,1.3-0.6,2,0c0,0,0,0,0,0c-0.3,0.3-0.7,0.7-1,1C40.7,62,40.3,62,40,62z"/>
		<path fill="#C87724" d="M35,60c0-0.3,0-0.7,0-1c0,0,0,0,0,0c0.8-0.6,1.8-0.8,2.8-0.8c0.8,0.2,1.3,0.6,1.6,1.4
			c0.1,0.5-0.1,1-0.5,1.3c-0.7,0-1.3,0-2,0c-0.7,0-1.3,0-2,0C35,60.7,35,60.3,35,60z"/>
		<path fill="#AD6117" d="M39,61c0-0.3,0-0.7,0-1c0.3-0.4,0.7-0.6,1.1-0.7c0.7-0.1,1.3,0.2,1.8,0.7c0,0.3,0,0.7,0,1
			c-0.7,0-1.3,0-2,0C39.7,61,39.3,61,39,61z"/>
		<path fill="#F7A138" d="M47,30c0.3,2.4-0.4,4.7-1,7c-0.2,0.1-0.4,0.2-0.5,0.3c-0.2,0-0.4-0.1-0.6-0.1c-0.7-0.4-1.1-1.1-1.4-1.9
			c-0.2-0.7-0.4,0.3-0.7,0.2c-0.7,0.2-1.2,0.1-1.7-0.5c0-0.7,0-1.3,0-2c0,0,0,0,0,0c1.2-1.3,3-1.6,4.2-2.8
			C45.8,29.9,46.3,29.6,47,30z"/>
		<path fill="#FDA640" d="M41,35c0.7,0,1.3,0,2,0c0.2,1.1,1.2,1.5,2,2l0,0c0.7,0.7,0.9,1.6,0.6,2.6c-0.6,1.1-1.7,1.4-2.8,1.8
			c-0.4,0.1-0.9,0.1-1.3,0.1c-0.4-0.1-0.8-0.4-1-0.7c-0.2-0.4-0.4-0.7-0.5-1.2c0-0.2,0-0.4,0-0.6c0-0.3,0-0.7,0-1c0-0.7,0-1.3,0-2
			C40.3,35.7,40.7,35.3,41,35z"/>
		<path fill="#F9AC41" d="M40,28c0-0.7,0-1.3,0-2c0-0.2,0.1-0.4,0.1-0.5c0.2-0.3,0.4-0.6,0.6-0.9c0.1-0.1,0.3-0.3,0.4-0.4
			c0.3-0.3,0.6-0.5,1-0.7c0.4-0.1,0.8-0.1,1.2-0.1c0.7,0.2,1.1,0.7,1.2,1.4c0.5,1.1,0.5,2.3,0.4,3.4c0,0.8-0.3,1.5-0.8,2
			c-0.8,0.3-1.5,0.3-2.1-0.2C41.6,29,41,28.4,40,28z"/>
		<path fill="#FBA63C" d="M42,30c0.7,0,1.3,0,2,0c1.2-0.6,1.5,0.3,2,1c-1.3,1.6-3,2.1-5,2C41,31.9,40.8,30.7,42,30z"/>
		<path fill="#FEB147" d="M36,22c1.5-0.5,3.4-2.3,4,1c0,0.3,0,0.6,0.1,0.9c0.1,0.3,0.1,0.6,0.2,0.9c0,0,0.1,0.4,0.1,0.5
			c0,0.3-0.1,0.6-0.4,0.8c0,0,0,0,0,0c-1.9,0.4-2.9-0.9-4-2C36,23.3,36,22.7,36,22z"/>
		<path fill="#E08A0C" d="M33,20.9c0-0.3,0-0.6,0-0.9c0.2-0.1,0.4-0.3,0.5-0.4c0.2,0.1,0.4,0.3,0.6,0.4C33.7,20.3,33.4,20.6,33,20.9
			z"/>
		<path fill="#FDAC43" d="M35,19c0,0.3,0,0.7,0,1c-0.3,0-0.6,0-0.9,0c0,0-0.1,0-0.1,0c-0.3-0.2-0.3-0.4-0.3-0.7
			c0.1-0.2,0.2-0.3,0.3-0.3C34.3,19,34.7,19,35,19z"/>
		<path fill="#E48818" d="M34,19c0,0.3,0,0.7,0,1c-0.3,0-0.7,0-1,0c0-0.3,0-0.7,0-1C33.3,19,33.7,19,34,19z"/>
		<path fill="#FCAB41" d="M30,49c-0.7,1.2-1.9,1-3,1c0-0.8,0.2-1.6,1-2c0.7,0,1.3,0,2,0C30,48.3,30,48.7,30,49z"/>
		<path fill="#FAA039" d="M41,39.9c0,0.4,0,0.7,0,1.1c1,1.2,1.2,2.4,0.4,3.8C41,45.2,40.5,45.3,40,45c-1.7,0.1-2.6-1.4-4-2
			c1-1.7,1.4-4,4-4c0,0,0,0.1,0,0.1C40.3,39.3,40.6,39.7,41,39.9z"/>
		<path fill="#EF9432" d="M48,37c0.8-0.4,1-1.2,1-2c-0.2-1.7,1-1.6,2.1-1.6c2.2,3.6,0.1,7.3-4.6,8.1C44.9,39.3,46.9,38.3,48,37z"/>
		<path fill="#EE9634" d="M51,34c-0.8,0-1.6,0.2-2,1c-1.8-2.6,0.5-2.5,2-3c1-0.9,2-0.8,3,0c0.3,0.3,0.7,0.7,1,1
			c-0.3,0.3-0.6,0.6-1,0.8C53,34.3,51.9,33.2,51,34z"/>
		<path fill="#F8A13E" d="M49,27c0.7,0.3,1.3,0.7,2,1c0.3,0.3,0.7,0.7,1,1c0.6,1.1,0.9,2.1-1,2C48.5,30.6,48.1,29.1,49,27z"/>
		<path fill="#E78721" d="M48,37c0.2,1.7-1.4,2.6-2,4c-0.4,0.2-0.8,0.3-1.2,0.1c-0.3-0.4-0.2-0.8,0.2-1.1c0-1,0-2,0-3
			c0.3,0,0.7,0,1,0C46.7,37,47.3,37,48,37z"/>
		<path fill="#FAA33C" d="M44,28c0-1.3,0-2.7,0-4c0.3-0.4,0.7-0.4,1,0c0.3,0.3,0.7,0.7,1,1c1,1.3,0,2.7,0,4
			C44.9,29.6,44.6,28.6,44,28z"/>
		<path fill="#F79C3C" d="M51,31c0.8-0.4,1-1.2,1-2c0.6,0.7,1.3,1.3,1.9,2c0,0.3,0.1,0.7,0.1,1c-1,0-2,0-3,0C51,31.7,51,31.3,51,31z
			"/>
		<path fill="#F8A238" d="M44,28c0.7,0.3,1.3,0.7,2,1c0.3,0.3,0.7,0.7,1,1c-0.3,0.3-0.7,0.7-1,1c-0.7-0.3-1.3-0.7-2-1
			C44,29.3,44,28.7,44,28z"/>
		<path fill="#FEAE47" d="M45,24l-0.5,0c0,0-0.5,0-0.5,0c-0.6,0-1.3,0-1.9,0c-0.6-0.1-1-0.4-1.1-1c0.3-0.3,0.7-0.7,1-1
			c0.3-0.3,0.7-0.7,1-1C44.3,21.6,45,22.6,45,24z"/>
		<path fill="#F29F34" d="M41,23c0.4,0.3,0.7,0.7,1.1,1c0,0-0.1,0-0.1,0c-0.3,0.3-0.6,0.6-0.9,0.9l-0.1,0.2
			c-0.3,0.2-0.6,0.2-0.9-0.1l0,0c-0.4-0.3-0.6-0.7-1-1c0.3-0.3,0.7-0.7,1-1C40.3,23,40.7,23,41,23z"/>
		<path fill="#EE9731" d="M40,45c0.3,0,0.7,0,1,0c1.1-0.6,1.7,0.1,2.3,0.9c0.1,0.5,0.1,0.9,0,1.4c-1.2,1.2-2.1,3-4.3,2.8
			c0-0.3,0-0.7,0-1C38.8,47.5,39.3,46.2,40,45z"/>
		<path fill="#DE8829" d="M35,53c1.3,0,2.7,0,4,0c0.4-0.2,0.8-0.2,1.1,0c0.3,0.3,0.5,0.7,0.6,1.1c0.1,0.7,0,1.3-0.4,1.9
			c-0.3,0.3-0.7,0.5-1.2,0.5c-0.4-0.1-0.8-0.2-1.1-0.6C37.6,54.4,35.7,54.3,35,53z"/>
		<path fill="#D87F31" d="M36,58c0-0.7,0-1.3,0-2c0.3,0,0.6,0,1,0c0.4,0.4,1,0.6,1.4,1.1c0,0.2,0,0.4,0.1,0.6
			c-0.1,0.4-0.4,0.7-0.8,0.8C37,58.5,36.4,58.6,36,58z"/>
		<path fill="#CF7518" d="M38,57c-0.3-0.3-0.7-0.7-1-1c0.3,0,0.7,0,1,0c0.3,0,0.7,0,1,0c0.3,0.2,0.4,0.5,0.3,0.7
			c0,0.3-0.1,0.4-0.2,0.4C38.7,57.4,38.3,57.4,38,57z"/>
		<path fill="#E18C26" d="M40,53l-0.5,0c0,0-0.5,0-0.5,0c0-1,0-2,0-3c1.2-1.2,2.3-2.5,4-3c0.3,0.2,0.6,0.5,0.8,0.8
			c0.4,0.7,0.7,1.5,0.5,2.3c-0.2,0.6-0.6,1-1.1,1.5c-0.8,0.7-1.6,1.2-2.7,1.4C40.4,53,40.2,53,40,53z"/>
		<path fill="#C2690F" d="M36,58c0.7,0,1.3,0,2,0c0.2,0.2,0.3,0.4,0.2,0.7C38.1,58.9,38.1,59,38,59c-1,0-2,0-3,0c0-0.3,0-0.7,0-1
			C35.3,58,35.7,58,36,58z"/>
		<path fill="#D0822A" d="M55,40c0.1,1.1-0.2,2.3,1,3l0,0c0,0.3,0,0.7,0,1c-0.1,0.6-0.4,1.1-0.8,1.5c-0.7,0.5-1.4,0.9-2.2,0.5
			c-0.7-0.5-1.1-1.2-1.5-2c-0.2-0.4-0.3-0.8-0.3-1.3c0-0.4,0-0.9,0-1.3c0.2-0.9,0.6-1.7,1.7-1.9c0.5,0,0.9,0.2,1.2,0.5
			C54.3,40,54.7,40,55,40z"/>
		<path fill="#E0852B" d="M54,40c-0.3,0-0.7,0-1,0c-2.1-2.7,0-4.8,1-7c0.3,0,0.6,0,1,0C56.4,35.6,55.3,37.8,54,40z"/>
		<path fill="#E29333" d="M52,25c-1.6-1-0.3-2,0-3c1,0.3,2,0.7,3,1c0,0.7,0,1.3,0,2C54,25,53,25,52,25z"/>
		<path fill="#A15512" d="M54,50c0.3,0,0.7,0,1,0c-0.7,1.3-1.3,2.6-2,4c0,0,0,0,0,0c-0.3,0.4-0.7,0.7-1,1c-0.3,0-0.7,0-1,0
			c-1.4-1.2-1.9-2.7-1.4-4.5C50.9,48.7,52.4,48.8,54,50z"/>
		<path fill="#B86F28" d="M50,51c0.8,1.2,1.2,2.5,1.1,4c0,0.3,0,0.6,0,0.9c-1,0-2,0.1-2.9,0.1c-0.1-0.2-0.2-0.3-0.3-0.5
			c-0.1-1.3,0.2-2.5,0.5-3.7c0.1-0.4,0.4-0.8,0.7-1.1C49.3,50.6,49.6,50.7,50,51z"/>
		<path fill="#95540F" d="M52,55c0.3-0.3,0.7-0.7,1-1c0,0.3,0,0.7,0,1C52.7,55,52.3,55,52,55z"/>
		<path fill="#B1681E" d="M55,45c0.3-0.3,0.7-0.7,1-1c0.8,0,1.6,0.2,2,1c0,0.3,0,0.7,0,1c-0.4,0.9-1,1.6-2,2
			C55.2,47.2,54.4,46.3,55,45z"/>
		<path fill="#B6661B" d="M55,45c0.3,1,0.7,2,1,3c-1.3,0-2,0.7-2,2c-1.4,0.2-3-0.5-4,1c-0.3,0-0.7,0-1,0c-0.6-0.1-1.1-0.5-1.3-1.1
			c0-0.4,0.1-0.8,0.3-1.1c0.3-0.2,0.7-0.4,1-0.6c0.4-0.1,0.7-0.2,1.1-0.3c1-0.3,1.6-1,2.4-1.6c0.2-0.1,0.4-0.2,0.5-0.2
			C53.7,45.7,54.3,45.4,55,45z"/>
		<path fill="#B9681B" d="M56,43c0.1-0.1,0.2-0.3,0.2-0.4C56.1,42.7,56.1,42.9,56,43C56,43,56,43,56,43z"/>
		<path fill="#AC6419" d="M47,59c-1.1,0-2.3,0.2-3-1c0-1.4,0.7-2.3,2-2.7c0.8-0.1,1.4,0.1,2,0.7c0,0,0,0.1,0,0.1
			C48,57.2,48.2,58.3,47,59z"/>
		<path fill="#DA8E38" d="M46,56c-0.7,0.7-1.3,1.4-2,2.1c-0.7,0-1.3,0-2,0c-0.3-0.3-0.4-0.6-0.4-1c0.1-0.5,0.3-1.1,0.4-1.6
			c0.1-0.6,0.3-1.1,0.6-1.7c0.3-0.4,0.6-0.6,0.9-0.9c1.1-0.5,2.2-0.7,3,0.5C46.9,54.4,46.8,55.2,46,56z"/>
		<path fill="#C0701F" d="M42,57c0,0.3,0,0.7,0,1c0,0.3,0,0.7,0,1c-0.5,0.6-1.2,0.5-1.8,0.4c-0.4-0.3-0.6-0.6-0.6-1.1
			c0.2-0.7,0.6-1.2,1.2-1.5C41.3,56.6,41.7,56.7,42,57z"/>
		<path fill="#B56617" d="M40,59c0.7,0,1.3,0,2,0c0,0.3,0,0.7,0,1c-0.7,0-1.3,0-2,0c-0.3-0.2-0.4-0.4-0.3-0.7
			C39.8,59.1,39.9,59,40,59z"/>
		<path fill="#BF6C19" d="M40,59c0,0.3,0,0.7,0,1c-0.3,0-0.7,0-1,0c-0.3-0.3-0.7-0.7-1-1c0-0.3,0-0.7,0-1c0,0,0,0,0,0
			c0.3-0.3,0.6-0.5,1-0.5c0.4,0,0.7,0.1,1,0.5C40,58.3,40,58.7,40,59z"/>
		<path fill="#F79E35" d="M45,37c-0.9,0-1.7,0.1-2.6,0.1c0.2-0.7,0.4-1.4,0.6-2.1C44.8,34.5,44.3,36.3,45,37z"/>
		<path fill="#F09632" d="M45,40c0,0.3,0,0.7,0,1c0.5,0.5,1.1,0.7,1.5,1.3c0.1,0.4,0.1,0.9,0,1.3c-0.2,0.4-0.5,0.8-1,1
			c-0.7,0.2-1.4,0.2-2.1,0C42,43.7,40.9,42.8,42,41C42.7,39.8,43.9,40,45,40z"/>
		<path fill="#E6922D" d="M42,41c0,1.5,0.7,2.4,2,3c0.3,0.3,0.5,0.6,0.5,1c-0.1,0.4-0.2,0.7-0.5,1c-0.4,0.2-0.7,0.2-1-0.1
			c-0.7-0.3-1.3-0.7-2-1c0-1.3,0-2.7,0-4C41.3,41,41.7,41,42,41z"/>
		<path fill="#DE8212" d="M41,39.9c-0.3-0.3-0.6-0.6-0.9-0.9C40.3,39.3,40.7,39.6,41,39.9z"/>
		<path fill="#FEBE58" d="M40,25c0.3,0,0.6,0,0.9,0.1c-0.3,0.3-0.6,0.6-0.9,0.9C40,25.7,40,25.3,40,25z"/>
		<path fill="#D08005" d="M41.1,24.9c0.3-0.3,0.6-0.6,0.9-0.9C41.7,24.3,41.4,24.6,41.1,24.9z"/>
		<path fill="#FCAC41" d="M39,24c0.3,0.3,0.7,0.7,1,1C39.7,24.7,39.3,24.3,39,24z"/>
		<path fill="#E88D32" d="M46,42c-0.3-0.3-0.7-0.7-1-1c0.3,0,0.7,0,1,0c3.8-0.8,5-3.5,5-7c0.7-1.2,1.9-1,3-1c-0.3,2.3-0.7,4.7-1,7
			c-0.8,0.4-1,1.2-1,2C50,43.6,48,43.6,46,42z"/>
		<path fill="#D78820" d="M43,46c0.3,0,0.6,0,1,0c0.1,0.1,0.3,0.2,0.4,0.4c0.1,0.3,0.2,0.7,0.2,1.1c-0.1,0.4-0.3,0.7-0.6,0.9
			c-0.4,0-0.7-0.1-1-0.3c0-0.3,0-0.7,0-1C43,46.7,43,46.3,43,46z"/>
		<path fill="#CF7B29" d="M40,58l-0.5,0L39,58c-0.3-0.2-0.4-0.4-0.3-0.7c0.1-0.2,0.2-0.3,0.3-0.3c0-0.3,0-0.7,0-1c0.3,0,0.7,0,1,0
			c0.3-0.3,0.7-0.3,1,0c0.3,0.3,0.3,0.7,0,1C40.7,57.3,40.3,57.7,40,58z"/>
		<path fill="#D98A2A" d="M40,54c0-0.3,0-0.7,0-1c0,0,0,0,0,0c0.9-0.6,1.8-0.6,2.8-0.3c0.5,0.4,0.5,0.8,0.2,1.3L43,54
			c-0.3,0.3-0.6,0.5-0.9,0.7c-0.4,0.1-0.8,0.1-1.1,0C40.6,54.5,40.3,54.3,40,54z"/>
		<path fill="#D48426" d="M40,54c0.3,0,0.7,0,1,0c0.5,0.4,0.6,1,0.4,1.6c-0.1,0.1-0.3,0.3-0.4,0.4l-0.5,0c0,0-0.5,0-0.5,0
			C40,55.3,40,54.7,40,54z"/>
		<path fill="#BE6715" d="M39,57c0,0.3,0,0.7,0,1c-0.3,0-0.7,0-1,0c0-0.3,0-0.7,0-1C38.3,57,38.7,57,39,57z"/>
		<path fill="#F1A13F" d="M43.1,53.9C43,53.6,43,53.3,43,53c-0.6-0.7-0.5-1.4,0-2.1c0.3-0.3,0.7-0.7,1-1c0.2-0.3,0.5-0.5,0.9-0.7
			c0.4-0.1,0.7-0.2,1.1-0.2c0.4,0,0.8,0.1,1.1,0.2c0.3,0.2,0.6,0.4,0.9,0.7c0.3,0.3,0.6,0.7,1,1c0,0,0,0,0,0c-0.8,0.9-1.5,2-3,2
			C45,53.3,44,53.6,43.1,53.9z"/>
		<path fill="#E79A35" d="M43,51c0,0.7,0,1.4,0,2.1c-1,0-2,0-3,0C41,52.3,42,51.7,43,51z"/>
		<path fill="#F7AA43" d="M45.1,50c-0.4,0-0.7,0-1.1,0c-0.3-0.7-0.6-1.3-1-2c0.3,0,0.6,0,0.9,0c0.4-0.3,0.8-0.2,1.2,0.1
			C45.5,48.7,45.6,49.4,45.1,50z"/>
		<path fill="#F4A543" d="M46,44c0-0.3,0-0.7,0-1c2-0.3,4-0.9,6,0c0,0.3,0,0.6,0,1c-0.6,1.3-1.1,2.7-2.5,3.6
			c-0.4,0.2-0.8,0.2-1.3,0.2c-0.4,0-0.9-0.2-1.2-0.4c-0.7-0.6-1.1-1.3-1.3-2.2C45.6,44.7,45.7,44.3,46,44z"/>
		<path fill="#D98C2C" d="M49,47c1.3-0.7,0.8-3.2,3-3c0.8,0.4,1,1.2,1,2c0,0,0,0,0,0c-1,0.9-1.7,2.3-3,2.9c-0.3,0-0.7,0-1-0.1
			C48.4,48.2,48.4,47.6,49,47z"/>
		<path fill="#E79131" d="M52,43c-2-0.1-4,0.8-6,0c0-0.3,0-0.7,0-1c2,0,4,0,6,0C52,42.3,52,42.7,52,43z"/>
		<path fill="#CA7C26" d="M46,53c0.6-1.3,1.6-2,3-2c0.2,1.8,0,3.5-0.9,5.1c-0.7,0-1.3,0-2,0C46,55,46,54,46,53z"/>
		<path fill="#D0822A" d="M50,48.9c0.8-1.2,1.1-2.9,3-2.9C52.9,47.9,52,48.9,50,48.9z"/>
		<path fill="#DE8D28" d="M49,47c0,0.6,0,1.3,0,1.9c-0.3,0-0.7,0.1-1,0.1c-0.2,0.1-0.4,0.3-0.5,0.4c-0.2-0.1-0.4-0.2-0.6-0.3
			c-0.1-0.2-0.1-0.4-0.2-0.7c0.1-0.2,0.1-0.4,0.2-0.7c0.4-0.3,0.8-0.5,1.1-0.8C48.3,47,48.6,47,49,47z"/>
		<path fill="#B86700" d="M47,49c0.3,0,0.7,0,1,0c0,0.3,0,0.6,0,1c0,0-0.5,0-0.5,0L47,49.9c-0.2-0.2-0.3-0.4-0.2-0.6
			C46.8,49.1,46.9,49,47,49z"/>
		<path fill="#BD730B" d="M42,54c0.3,0,0.6,0,1,0c0,0.7,0,1.3,0,2c-0.4,0.4-0.8,0.4-1.2,0C41.5,55.3,41.4,54.6,42,54z"/>
		<path fill="#C27117" d="M42,56c0.3,0,0.7,0,1,0c-0.3,0.3-0.6,0.7-0.9,1c-0.3,0-0.7,0-1,0c0-0.3,0-0.7,0-1c0,0,0,0,0,0
			C41.3,55.5,41.7,55.5,42,56z"/>
		<path fill="#F0A442" d="M46,44c0,0.3,0,0.7,0,1c0,0-0.3,0.4-0.3,0.4c-0.3,0.2-0.6,0.2-0.9,0.2c-0.3-0.1-0.6-0.2-0.7-0.6
			c0-0.3,0-0.7,0-1C44.7,44,45.3,44,46,44z"/>
		<path fill="#F3AD4B" d="M44,45c0.3,0,0.6,0,1,0c0.2,0.2,0.3,0.4,0.2,0.7C45.1,45.9,45.1,46,45,46c-0.3,0.3-0.7,0.3-1,0
			c0,0-0.1,0-0.1,0C44,45.7,44,45.3,44,45z"/>
		<path fill="#FEB552" d="M44.9,48c-0.3,0-0.7,0-1,0c0-0.3,0.1-0.6,0.1-1c0.3-0.3,0.6-0.3,0.9,0c0.1,0.2,0.2,0.3,0.2,0.5
			C45.1,47.6,45,47.8,44.9,48z"/>
		<path fill="#F5A945" d="M45,47c-0.3,0-0.7,0-1,0c0-0.3,0-0.7,0-1c0.3,0,0.7,0,1,0c0,0,0.3,0.3,0.3,0.3c0,0,0,0.4,0,0.4
			C45.3,46.7,45,47,45,47z"/>
		<path fill="#CE8123" d="M42,56c-0.3,0-0.7,0-1,0c0-0.7,0-1.3,0-2c0.3,0,0.7,0,1,0C42,54.7,42,55.3,42,56z"/>
		<path fill="#D38116" d="M45.1,50c0-0.7-0.1-1.3-0.1-2c0,0,0.1,0.1,0.1,0.1c0.1-0.1,0.3-0.3,0.4-0.4c0.2,0.1,0.4,0.1,0.6,0.2
			c0.3,0.3,0.4,0.7,0.4,1.1c0,0.4-0.1,0.8-0.4,1.1C45.7,50,45.4,50,45.1,50z"/>
		<path fill="#C27000" d="M46,49.9c0-0.3,0-0.6,0-0.9c0.3-0.5,0.7-0.5,1,0c0,0,0,0,0,0c0,0.3,0,0.6,0,0.9c0,0-0.5,0-0.5,0L46,49.9z"
			/>
		<path fill="#F4AA46" d="M46,45c0.8,0.4,1,1.2,1,2c0.3,0.2,0.3,0.4,0.3,0.6c-0.1,0.2-0.2,0.3-0.3,0.3l0,0.1c-0.3,0.4-0.7,0.3-1,0
			l0-0.1c-0.3-0.2-0.5-0.5-0.5-0.9c0-0.4,0-0.7,0-1.1C45.6,45.6,45.7,45.3,46,45L46,45z"/>
		<path fill="#FEB451" d="M47,47.9c0-0.3,0-0.6,0-0.8c0.3,0,0.6,0,0.9,0C47.6,47.3,47.3,47.6,47,47.9z"/>
		<path fill="#CF8011" d="M46,48c0.3,0,0.7,0,1,0c0,0.3,0,0.7,0,1c-0.3,0-0.7,0-1,0C46,48.7,46,48.3,46,48z"/>
		<path fill="#E39C37" d="M46,45c0,0.3,0,0.7,0,1c-0.3,0.5-0.7,0.4-1,0c0,0,0,0,0,0c0-0.3,0-0.7,0-1C45.3,45,45.7,45,46,45z"/>
		<path fill="#D88B24" d="M46,47c0,0.3,0,0.6,0,0.9c-0.3,0-0.7,0.1-1,0.1c0-0.3,0-0.7,0-1c0,0,0,0,0,0C45.3,46.7,45.7,46.6,46,47z"
			/>
		<path fill="#FEBC5B" d="M46,47c-0.3,0-0.7,0-1,0c0-0.3,0-0.7,0-1c0.3,0,0.7,0,1,0C46,46.3,46,46.7,46,47z"/>
	</g>
</g>
</svg>
