<?xml version="1.0" encoding="utf-8"?>
<!-- Generator: Adobe Illustrator 23.0.5, SVG Export Plug-In . SVG Version: 6.00 Build 0)  -->
<svg version="1.1" id="Слой_1" xmlns="http://www.w3.org/2000/svg" xmlns:xlink="http://www.w3.org/1999/xlink" x="0px" y="0px"
	 width="38.7px" height="39.7px" viewBox="0 0 38.7 39.7" style="enable-background:new 0 0 38.7 39.7;" xml:space="preserve">
<style type="text/css">
	.st0{fill:#FCFAF5;}
	.st1{fill:#FAF9F6;}
	.st2{fill:#FCFAF7;}
	.st3{fill:#EFE9DF;}
	.st4{fill:#D2C6B3;}
	.st5{fill:#D6C4A8;}
	.st6{fill:#EDC47A;}
	.st7{fill:#CF9C53;}
	.st8{fill:#D7A553;}
	.st9{fill:#D8A458;}
	.st10{fill:#C9A359;}
	.st11{fill:#EBBD69;}
	.st12{fill:#F0C87D;}
	.st13{fill:#C39F53;}
	.st14{fill:#E0B76D;}
	.st15{fill:#E9C27A;}
	.st16{fill:#ECBB7F;}
	.st17{fill:#9D722F;}
	.st18{fill:#826325;}
	.st19{fill:#BA8C44;}
	.st20{fill:#B18741;}
	.st21{fill:#A27C33;}
	.st22{fill:#97733B;}
	.st23{fill:#9E7634;}
	.st24{fill:#94753D;}
	.st25{fill:#957130;}
	.st26{fill:#9B6C27;}
	.st27{fill:#DAAA51;}
	.st28{fill:#E0B366;}
	.st29{fill:#ECC26C;}
	.st30{fill:#D4A75C;}
	.st31{fill:#CB9F53;}
	.st32{fill:#BA8E43;}
	.st33{fill:#D9AA5D;}
	.st34{fill:#DFB36A;}
	.st35{fill:#92692D;}
	.st36{fill:#956C24;}
	.st37{fill:#B08442;}
	.st38{fill:#A27228;}
	.st39{fill:#926626;}
	.st40{fill:#B78E42;}
	.st41{fill:#F7CA7B;}
	.st42{fill:#F4C775;}
	.st43{fill:#ECC26F;}
	.st44{fill:#E9BF6A;}
	.st45{fill:#E9BF67;}
	.st46{fill:#EDB561;}
	.st47{fill:#C58F37;}
	.st48{fill:#E4B260;}
	.st49{fill:#AE7D2A;}
	.st50{fill:#CE9A46;}
	.st51{fill:#DDB363;}
	.st52{fill:#DBB259;}
	.st53{fill:#D3A95A;}
	.st54{fill:#F6C981;}
	.st55{fill:#ECC16D;}
	.st56{fill:#7B5003;}
	.st57{fill:#825113;}
	.st58{fill:#B27E2E;}
	.st59{fill:#D5A35D;}
	.st60{fill:#F1BF67;}
	.st61{fill:#F6C977;}
	.st62{fill:#D29F49;}
	.st63{fill:#EBBA65;}
	.st64{fill:#E2AF5C;}
	.st65{fill:#E5B35D;}
	.st66{fill:#CA9236;}
	.st67{fill:#F1C674;}
	.st68{fill:#F5CE7F;}
	.st69{fill:#96621B;}
	.st70{fill:#895712;}
	.st71{fill:#926217;}
	.st72{fill:#855604;}
	.st73{fill:#855910;}
	.st74{fill:#AF7D26;}
	.st75{fill:#C89348;}
	.st76{fill:#996613;}
	.st77{fill:#926522;}
	.st78{fill:#946A1D;}
	.st79{fill:#BE8936;}
	.st80{fill:#A26F22;}
	.st81{fill:#865A11;}
	.st82{fill:#FCD07E;}
	.st83{fill:#F5C976;}
	.st84{fill:#F5C870;}
	.st85{fill:#EDB55F;}
	.st86{fill:#E4AB5B;}
	.st87{fill:#FDC870;}
	.st88{fill:#F5BA68;}
	.st89{fill:#FCC06C;}
	.st90{fill:#D09942;}
	.st91{fill:#C88D36;}
	.st92{fill:#E9AC58;}
	.st93{fill:#E2B865;}
	.st94{fill:#9F6B30;}
	.st95{fill:#8F5E22;}
	.st96{fill:#AE7C36;}
	.st97{fill:#BB894F;}
	.st98{fill:#C58F41;}
	.st99{fill:#DFAC66;}
	.st100{fill:#D9A554;}
	.st101{fill:#EDB863;}
	.st102{fill:#E8A644;}
	.st103{fill:#FEDA8A;}
	.st104{fill:#F9C771;}
	.st105{fill:#DFA34F;}
	.st106{fill:#D4A44D;}
	.st107{fill:#FECD79;}
	.st108{fill:#EAB962;}
	.st109{fill:#FED785;}
	.st110{fill:#E3B15E;}
	.st111{fill:#EDBC6D;}
	.st112{fill:#D6A24B;}
	.st113{fill:#ECC575;}
	.st114{fill:#9A661F;}
	.st115{fill:#D59841;}
	.st116{fill:#D59C4F;}
	.st117{fill:#C1883A;}
	.st118{fill:#E3A85A;}
	.st119{fill:#B68030;}
	.st120{fill:#FCC26F;}
	.st121{fill:#A9742D;}
	.st122{fill:#F4BB69;}
	.st123{fill:#F6C778;}
	.st124{fill:#FECE7B;}
	.st125{fill:#F8C976;}
	.st126{fill:#FED17E;}
	.st127{fill:#FBBE6D;}
	.st128{fill:#E5AD56;}
	.st129{fill:#F8BE77;}
	.st130{fill:#FED37F;}
	.st131{fill:#ECB45D;}
	.st132{fill:#F8BF6B;}
	.st133{fill:#B98643;}
	.st134{fill:#A67238;}
	.st135{fill:#996328;}
	.st136{fill:#E5AE60;}
	.st137{fill:#BE8738;}
	.st138{fill:#F1B968;}
	.st139{fill:#BB8236;}
	.st140{fill:#EDB467;}
	.st141{fill:#BD8A3A;}
	.st142{fill:#AD7119;}
	.st143{fill:#D2943C;}
	.st144{fill:#F3B765;}
	.st145{fill:#F7C171;}
	.st146{fill:#C99345;}
	.st147{fill:#C58936;}
	.st148{fill:#C88A32;}
	.st149{fill:#FEC977;}
	.st150{fill:#C58F45;}
	.st151{fill:#CC9449;}
	.st152{fill:#F8C16E;}
	.st153{fill:#FBC373;}
	.st154{fill:#EBB263;}
	.st155{fill:#E1A950;}
	.st156{fill:#FAC275;}
	.st157{fill:#F2C174;}
	.st158{fill:#F3BF6E;}
	.st159{fill:#EFBC6D;}
	.st160{fill:#EEC075;}
	.st161{fill:#F5C271;}
	.st162{fill:#E8B764;}
	.st163{fill:#DAAB55;}
	.st164{fill:#C5923E;}
	.st165{fill:#EFB669;}
	.st166{fill:#DCA557;}
	.st167{fill:#D89E4E;}
	.st168{fill:#C3862F;}
	.st169{fill:#E4AF60;}
	.st170{fill:#FECA7F;}
</style>
<g>
	<g>
		<path class="st0" d="M15,3c-0.4,0.1-0.7,0.1-1.1,0.1c-1.1,0.9-2.2,1.6-3.4,2.2c-0.1,0.3-0.3,0.6-0.7,0.6C9.7,6,9.5,6.1,9.3,6.1
			S9.1,6,9,6C8.8,6.1,8.7,6.2,8.6,6.2C8.4,6.3,8.1,6.6,7.9,6.7c0,0.4-0.1,0.7-0.3,1.1c0,0,0,0,0,0.1C7.8,8.3,7.5,8.9,7,9
			C6.8,9,6.6,9.1,6.5,9.2c-0.2,0-0.3,0.1-0.4,0.2C6,9.5,5.9,9.6,5.8,9.7c-0.3,0.4-0.5,0.9-0.7,1.4c-0.1,0.2-0.2,0.3-0.4,0.4
			c0,0.1-0.1,0.2-0.2,0.3v0.1c0,0.1,0,0.2,0,0.3c0,0.2,0,0.3-0.1,0.5c-0.1,0.1-0.1,0.1-0.2,0.2c0.1-0.1,0,0-0.2,0.1
			c-0.1,0-0.2,0-0.3,0c0,0,0,0-0.1,0c-0.1,0.3-0.3,0.7-0.4,1c-0.1,0.2-0.2,0.3-0.3,0.5c0,0.1-0.1,0.2-0.1,0.3c0,0,0,0.1-0.1,0.1
			c0,0,0,0,0,0.1l0,0c0,0,0,0.1-0.1,0.1c0,0.1-0.1,0.2-0.1,0.2c0,0.1-0.1,0.2-0.1,0.3s0,0.1,0,0.2c0,0.1,0,0,0-0.1
			c0,0.3-0.1,0.5-0.3,0.7C2,16.5,2,16.5,1.9,16.6c-0.1,0.6-0.2,1.1-0.3,1.7c0.2,0,0.4,0,0.6,0c1.4-1.2,1.6-2.9,2.2-4.5
			c0.2-0.4,0.5-0.7,0.7-1c0.4-0.4,0.8-0.8,1.2-1.2c0.3-0.4,0.7-0.8,1.1-1.2s0.7-0.8,1-1.3c0.2-0.3,0.3-0.6,0.5-0.9
			c0.2-0.4,0.5-0.8,0.9-1.1c0.3-0.2,0.6-0.3,0.9-0.5c0.6-0.2,1.1-0.5,1.6-0.9c0.5-0.3,1-0.6,1.5-0.9c0.8-0.3,1.5-0.5,2.3-0.7
			c0.9-0.2,1.7-0.5,2.2-1.3c0.1-0.1,0.1-0.2,0.1-0.3C17.1,2.5,16,2.7,15,3z"/>
		<path class="st1" d="M36,14.2c-0.1-0.3,0-0.6,0.2-0.9c-0.5-0.8-1-1.7-1.6-2.5c-0.3,0-0.5-0.1-0.7-0.3l0.1,0.1
			c-0.3-0.2-0.6-0.4-0.8-0.6c-0.3-0.2-0.4-0.6-0.6-0.9c-0.1,0-0.2-0.1-0.3-0.1c-0.4-0.2-0.7-0.4-1-0.7c0-0.1-0.2-0.3-0.3-0.5
			s-0.2-0.4-0.2-0.6C30.7,7.1,30.6,7,30.4,7c-0.2-0.1-0.3-0.2-0.4-0.4c-0.1,0-0.1-0.1-0.2-0.1c-0.4-0.4-0.7-0.8-1-1.2
			c-0.5-0.7-1.5-0.8-2.3-0.9c-1.2-0.2-2.3-0.6-3.5-0.9c-1.3-0.3-2.6-0.5-3.9-0.7c-0.2,0-0.3-0.1-0.4-0.2c-0.2,0-0.5,0-0.7,0v0.3
			c0.2,0.2,0.3,0.4,0.3,0.6c0.9,0.7,2,0.8,3.1,0.8c1,0.1,2,0.1,2.9,0.4c0.7,0.2,1.3,0.5,2,0.8c0.4,0.1,0.7,0.3,1,0.4
			c0.4,0.3,0.8,0.6,1.2,0.9c0.4,0.4,0.7,0.8,1,1.2c0.4,0.4,0.8,0.8,1.3,1s1,0.5,1.4,0.8c0.6,0.5,0.9,1.1,1.3,1.8
			c0.7,1.3,1.2,2.7,2.2,3.7c0.2,0.1,0.5,0.2,0.7,0.3C36.3,15.1,36.1,14.6,36,14.2z"/>
		<path class="st2" d="M16.1,38c-0.4-0.7-1.1-1.1-1.7-1.6c-0.5-0.4-1-0.7-1.5-1s-1.1-0.6-1.6-0.8c-0.9-0.5-1.6-1.2-2.2-2
			c-0.2-0.3-0.5-0.6-0.8-0.9c-0.3-0.2-0.6-0.4-1-0.6c-0.5-0.3-0.9-0.6-1.3-1c-0.2-0.3-0.4-0.6-0.6-0.9c-0.3-0.7-0.6-1.5-0.9-2.2
			c-0.9-2-0.9-4.3-2.3-6.1c-0.2-0.2-0.4-0.2-0.6-0.2c0,0.8,0.1,1.7,0.3,2.5l0,0c0.2,0.2,0.3,0.5,0.3,0.7c0,0.1,0,0.2,0,0.3
			c0,0.1,0,0.1,0.1,0.2c0,0,0,0.1,0.1,0.1l0,0c0.2,0.2,0.3,0.4,0.3,0.7c0,0.2-0.1,0.4-0.2,0.5c0,0,0,0,0,0.1
			c0.1,0.3,0.1,0.5,0.1,0.7c0.8,2.1,1.9,3.9,3.4,5.7c0.1,0,0.2,0,0.3,0.1c0.6,0.4,1.3,0.7,1.9,1.1c0.7,0.5,1.4,1,1.9,1.8
			c0.2,0.2,0.2,0.5,0.1,0.7c0.4,0.3,0.9,0.6,1.3,0.8c0.2-0.2,0.4-0.4,0.7-0.4c0.7,0,1,0.7,0.9,1.2c0.4,0.2,0.8,0.3,1.2,0.5
			c0.6,0,1.2,0.1,1.7,0.1C16.2,38.2,16.1,38.1,16.1,38z"/>
		<path class="st3" d="M28.8,35.9c0.3-0.2,0.6-0.3,1-0.4c1.2-0.9,2.3-1.8,3.5-2.5c0.3-1.3,1-2.3,1.7-3.3c0.3-0.4,0.7-0.8,1-1.2
			c-0.1-0.2-0.1-0.3-0.2-0.3c-0.1-0.2-0.2-0.5-0.1-0.8c0.2-0.4,0.4-0.9,0.6-1.3c0.1-0.3,0.2-0.7,0.3-1c-0.6,0.5-1.1,1.2-1.5,2
			c-0.9,1.9-1.9,3.7-3.5,5.2c-0.7,0.7-1.4,1.5-2.2,2.1c-1.2,0.9-2.5,1.4-3.8,2c-0.9,0.4-2,0.7-2.8,1.5c0,0,0,0,0,0
			C24.9,37.6,26.8,36.9,28.8,35.9z"/>
		<path class="st4" d="M37.1,17c-0.1-0.1-0.2-0.3-0.3-0.5c0-0.1-0.1-0.3-0.1-0.4c-0.5,0.6-0.7,1.4-0.8,2.2c-0.1,1.6-0.2,3.2,0.1,4.8
			c0,0.5,0.3,1.1,0.6,1.5c0-0.4,0.1-0.6,0.4-0.8c-0.2-2.1-0.2-4.1,0.2-6C37.2,17.5,37.1,17.2,37.1,17z"/>
		<path class="st5" d="M20.8,38.2c0.7-0.1,1.4-0.1,2.1-0.3c-1.1-1.3-2.7-1.1-4.1-1.1c-0.9,0-1.6,0.3-2.3,0.7
			c-0.2,0.2-0.3,0.4-0.5,0.6v0.1c0.4,0,0.8,0.1,1.2,0.1C18.4,38.3,19.6,38.3,20.8,38.2z"/>
		<path class="st6" d="M5.1,19.7C4.4,19.4,4,20,3.5,20.1c0.4-0.7,0.7-1.4,1-2.2c0.3-0.7,0.6-1.5,0.8-2.3c0.1-0.4,0.1-0.8,0.1-1.2
			c-0.1-0.5-0.3-1.1-0.6-1.6c-0.1-0.1-0.2-0.2-0.3-0.3c0,0,0,0,0,0.1c-0.1,0.1-0.1,0.1-0.2,0.2c0,0-0.1,0.1-0.3,0.2
			c-0.1,0-0.2,0-0.3,0l0,0c-0.6,1.7-1.2,3.3-1.7,5v3c0.7,2.4,1.3,4.8,1.9,7c1.2-0.6,1.5-1.9,2-3C6.5,23.1,6.8,21.3,5.1,19.7z"/>
		<path class="st7" d="M15,3.3c1-0.1,2-0.3,3-0.4v0.3c1.3,0.6,2.8,0.2,4.2,0.3c1,0,1.9,0,2.3,1.2c0,0.8-0.3,1.4-0.9,1.8
			c-0.6,0.3-1.3,0.4-1.9,0.3c-1-0.2-1.9-0.6-3-0.5c-0.6,0.1-1.2,0.2-1.8,0.2c-0.4,0-0.8-0.1-1.2-0.2c-0.6-0.3-1-0.8-1.2-1.4
			C14.3,4.3,14.5,3.7,15,3.3z"/>
		<path class="st8" d="M10,6.2c0.7-0.5,1.3-1,2-1.5c0.5,0.4,1,0.1,1.5-0.1c0.4,0,0.7,0.2,1,0.5c0.4,0.5,0.9,0.9,0.8,1.6
			c-0.4,0.9-1.2,1.2-2.1,1.4c-0.9,0.1-1.8,0.1-2.6-0.3c-0.4-0.2-0.7-0.5-0.9-0.9C9.8,6.6,9.9,6.4,10,6.2z"/>
		<path class="st9" d="M14,5c-0.3,0-0.7,0-1,0c-0.3-0.2-0.4-0.4-0.3-0.6c0.1-0.2,0.2-0.3,0.3-0.3c0.7-0.3,1.4-0.6,2-0.9
			c0,0.6,0,1.2,0,1.7C14.7,5.4,14.3,5.4,14,5z"/>
		<path class="st10" d="M8.1,7.9C8.4,7.4,8.7,6.8,9,6.2C9.4,6.4,9.7,6.6,10,7l0,0c0.2,0.3,0.3,0.5,0.2,0.8S10,8.2,10,8.2
			C9.3,8.6,8.7,8.6,8.1,7.9z"/>
		<path class="st11" d="M13,4.1c0,0.3,0,0.6,0,0.9c-0.4-0.1-0.7-0.2-1.1-0.3C12.3,4.5,12.6,4.3,13,4.1z"/>
		<path class="st12" d="M8.1,7.9c0.6,0,1.2,0,1.8,0c0.3,0.4,0.3,0.8,0.2,1.2C9.8,9.4,9.4,9.5,9,9.6C8.8,9.5,8.6,9.4,8.4,9.4
			C8.2,9.2,8.1,9,7.9,8.9C8,8.6,8,8.2,8.1,7.9z"/>
		<path class="st13" d="M10,7C9.7,6.7,9.4,6.5,9,6.2C9.4,6,9.7,6,10,6.2C10,6.4,10,6.7,10,7z"/>
		<path class="st14" d="M6.8,9.9c0.4-0.3,0.8-0.7,1.2-1l0.1,0.3c0.1,0.4,0,0.7-0.3,1c-0.2,0-0.4,0.1-0.6,0.1
			C7.1,10.1,6.9,10,6.8,9.9z"/>
		<path class="st15" d="M5.9,11c0.3-0.4,0.5-0.7,0.8-1.1L7,10.1c0.2,0.4,0.1,0.7-0.2,1c-0.2,0.1-0.3,0.1-0.5,0.2
			C6.3,11.1,6.1,11,5.9,11z"/>
		<path class="st16" d="M4.8,11.7c0.4-0.3,0.8-0.5,1.1-0.8C5.9,11,6,11,6,11c0.2,0.4,0.1,0.8-0.2,1.1c-0.2,0-0.4,0.1-0.6,0.1
			C5,12.1,4.9,11.9,4.8,11.7z"/>
		<path class="st17" d="M34,11c0.7,1.3,1.3,2.7,2,4c0.8,0.7,0.4,1.6,0.4,2.4c-0.1,0.4-0.4,0.8-0.8,0.9c-0.5,0-0.8-0.2-1.2-0.5
			c-0.6-0.9-0.9-2-1.3-3.1c-0.2-0.7-0.3-1.3-0.2-2C33.2,12,33.4,11.4,34,11z"/>
		<path class="st18" d="M33.2,10c-0.3-0.2-0.4-0.6-0.6-0.9c-0.1,0-0.2-0.1-0.3-0.1c-0.2-0.1-0.4-0.2-0.5-0.3c-0.1,0-0.2,0.1-0.3,0.2
			c-0.8,1.2-0.8,2.4-0.2,3.6c0.3,0.4,0.7,0.7,1.2,0.9c0.5,0.1,0.9-0.1,1.3-0.4c0.1-0.6,0.1-1.3,0.1-2c-0.1-0.2-0.2-0.4-0.3-0.6
			C33.5,10.2,33.4,10.1,33.2,10z"/>
		<path class="st19" d="M29.8,7c0.4,0.4,0.8,0.8,1.2,1.2c0.1,0.2,0.2,0.4,0.3,0.6C31.2,9,31,9.2,30.9,9.4c-1.2,0.6-2.3,0.5-3.2-0.6
			c-0.2-0.4-0.2-0.9-0.1-1.4c0.2-0.4,0.5-0.7,1-0.9C29.1,6.5,29.5,6.7,29.8,7z"/>
		<path class="st20" d="M22.1,3.2c-0.1,0-0.2,0-0.2,0H18c1.3,0.2,2.7,0.5,4,0.8c0.1,0,0.2-0.1,0.3-0.2C22.4,3.6,22.3,3.4,22.1,3.2z"
			/>
		<path class="st21" d="M22.4,3.3c-0.1,0-0.2,0-0.4-0.1V4c0.7,0.3,1.4,0.7,2,1c0.4,0.3,0.7,0.2,1,0c0.1,0,0.2-0.1,0.2-0.3
			c0.1-0.2,0-0.4-0.2-0.6C24.1,3.8,23.2,3.6,22.4,3.3z"/>
		<path class="st22" d="M36.7,16.5c-0.1-0.5-0.3-0.9-0.5-1.4c-0.1,0-0.2,0-0.3-0.1v3c0.2,0.3,0.5,0.3,0.9,0c0.1-0.3,0.1-0.7,0.1-1.1
			C36.9,16.8,36.8,16.6,36.7,16.5z"/>
		<path class="st23" d="M25,5c0-0.3,0-0.6,0-1c0.7,0.3,1.4,0.6,2,0.9c-0.1,0.1-0.3,0.3-0.4,0.4c-0.4,0.1-0.8,0.1-1.2,0
			C25.3,5.3,25.1,5.1,25,5z"/>
		<path class="st24" d="M29,7c-0.3,0-0.7,0-1,0l-0.4-0.3c-0.2-0.3-0.2-0.6-0.2-0.9s0.2-0.6,0.5-0.7c0.3,0.2,0.7,0.5,1,0.7
			c0.2,0.2,0.3,0.5,0.2,0.7C29.2,6.9,29.1,7,29,7z"/>
		<path class="st25" d="M29,7c0-0.4,0-0.7,0-1.1c0.3,0.4,0.5,0.7,0.8,1.1h-0.4H29z"/>
		<path class="st26" d="M28,5.2c0,0.3,0,0.6,0,0.8c-0.2,0.1-0.3,0.3-0.5,0.4c-0.2-0.1-0.4-0.2-0.6-0.2C26.6,5.8,26.7,5.4,27,5l0,0
			C27.4,5,27.7,5,28,5.2z"/>
		<path class="st27" d="M12.8,36.1c-0.6-0.1-1.2-0.2-1.8-0.3c-0.6-1-2-1.8-0.6-3.1c0.4-0.2,0.8-0.3,1.2-0.3c0.8,0,1.5-0.2,2.3-0.5
			c0.4-0.1,0.8-0.1,1.2,0c0.8,0.4,1.2,1,1.3,1.9c-0.1,0.6-0.4,1.1-0.9,1.5c-0.3,0.2-0.6,0.4-1,0.6c-0.4,0.1-0.7,0.2-1.1,0.2
			C13.2,36,13,36.1,12.8,36.1z"/>
		<path class="st28" d="M7,32c-0.6-0.3-1.3-0.7-1.9-1c0.4-0.6,0.3-1.2,0.2-1.8c0.1-0.7,0.4-1.2,1-1.5c1.5,0,2.5,1,3.4,2.1
			c0.5,0.8,1,1.7,0.1,2.6c-0.7,0.3-1.4,0.2-2-0.2v0.1C7.7,31.7,7.4,31.6,7,32z"/>
		<path class="st29" d="M6,28c0,0.7,0,1.3,0,2c-0.4,0.4-0.9,0.5-1.3,0.1c-0.3-0.6-0.5-1.2-0.8-1.9C4.3,27.1,4.6,26.1,5,25
			c0.2,0,0.4,0.1,0.6,0.1c0.3,0.2,0.6,0.5,0.8,0.8c0.2,0.4,0.2,0.7,0.2,1.1C6.5,27.4,6.3,27.8,6,28z"/>
		<path class="st30" d="M7.9,32.1c0.7,0,1.4-0.1,2.2-0.1c0.9-0.3,1.2,0.1,1.1,1c0,0.9,0,1.9,0,2.8C10,34.5,8.9,33.3,7.9,32.1z"/>
		<path class="st31" d="M16,38.1c-0.7-0.3-1.5-0.7-2.2-1c0.2-0.7,0.6-1.2,1.2-1.5c0.4-0.1,0.9-0.1,1.2,0.2c0.3,0.6,0.4,1.2-0.2,1.8
			V38.1z"/>
		<path class="st32" d="M15,36c-0.4,0.4-0.8,0.8-1.2,1.1c-0.3-0.4-0.6-0.7-1-1.1l0.4-0.1c0.2-0.3,0.6-0.4,0.9-0.4
			C14.5,35.5,14.8,35.7,15,36z"/>
		<path class="st33" d="M4.7,30.1C5.1,30,5.6,30,6,30c-0.3,0.3-0.6,0.7-0.9,1C5,30.7,4.8,30.4,4.7,30.1z"/>
		<path class="st34" d="M7,32c0.3,0.1,0.6,0.1,0.9,0.2C7.6,32.2,7.3,32.1,7,32z"/>
		<path class="st35" d="M35.7,27.4c0.2-0.4,0.4-0.9,0.6-1.3c0-0.1,0.1-0.2,0.1-0.3c0-0.2-0.1-0.3-0.1-0.5c-1.4-1-2.1,0-2.9,0.9
			c-0.2,0.4-0.4,0.8-0.5,1.2c-0.2,0.8-0.6,1.5-1.1,2.2c-0.3,0.4-0.5,0.7-0.7,1.1c-0.3,0.6-0.5,1.2-0.4,1.9c0.4,0.6,0.7,1.1,1.5,0.6
			c1.2-1.8,2.3-3.5,3.5-5.3C35.7,27.7,35.7,27.5,35.7,27.4z"/>
		<path class="st36" d="M25.2,37.3c0.4-0.1,0.8-0.3,1.2-0.4c1.2-0.6,2.4-1.3,3.6-1.9c0.7-0.8,0.7-1.6,0.4-2.5
			c-0.1-0.4-0.4-0.7-0.8-0.9c-0.6-0.1-1.1,0-1.6,0.4c-0.1,0-0.2,0.1-0.1,0.4c0.1,0.4,0.3,0.6-0.1,0.8c-0.4,0-0.7,0-1,0.1
			c-0.3,0.1-0.6,0.3-0.9,0.5c-0.2,0.3-0.3,0.6-0.3,1c0.1,0.8-0.7-0.1-0.7,0.4c-0.5,0.7-0.5,1.4,0.1,2.1
			C25.1,37.3,25.2,37.3,25.2,37.3z"/>
		<path class="st37" d="M21.5,38.1c1.6-0.2,3.1-0.5,4.5-1c-0.3-0.1-0.7-0.2-1-0.3c-0.7-0.8-1.4-1.7-2.7-1.7c-0.4-0.1-0.9-0.1-1.3,0
			c-0.5,0.1-0.9,0.2-1.3,0.4c-0.9,0.6-2.1,0.9-1.7,2.4C19.1,38,20.3,38,21.5,38.1z"/>
		<path class="st38" d="M30,35c0-1,0-2,0-3c-0.3-0.2-0.4-0.5-0.3-0.7c0-0.3,0.1-0.4,0.2-0.4c0.2-0.1,0.4-0.2,0.6-0.2
			c0.2,0.1,0.4,0.1,0.6,0.2c0.3,0.4,0.2,0.8-0.1,1.2c0.4,0.4,0.8,0.8,1.2,1.2C31.5,33.7,30.7,34.4,30,35z"/>
		<path class="st22" d="M36,26.7c0.1-0.2,0.2-0.4,0.2-0.5c0.1-0.3,0.2-0.7,0.3-1c0-0.2,0-0.4,0-0.6c0-0.3,0.1-0.5,0.3-0.7
			c0-0.3-0.1-0.5-0.1-0.8c-0.3-0.3-0.6-0.3-1-0.1c-0.2,0.3-0.4,0.7-0.4,1.1s0.2,0.7,0.5,1C36,25.6,36,26.1,36,26.7z"/>
		<path class="st39" d="M36.9,23c-0.3,0-0.6,0-0.8,0c-0.9-0.7-1.1-1.8-1.1-2.9c0.1-0.8,0.5-1.5,1-2.1v-0.1c0.3,0,0.5,0.1,0.8,0.1
			C36.8,19.7,36.8,21.3,36.9,23z"/>
		<path class="st40" d="M20,36c-0.6,0.6-1.3,1.2-1.9,1.9c-0.7-0.1-1.4-0.2-2.1-0.2c0-0.5,0-1.1,0-1.6C17.3,34.8,18.7,34.8,20,36z"/>
		<path class="st41" d="M5,25c0-1.7,0-3.3,0-5c-0.1-0.2-0.2-0.4-0.4-0.6c0.1-0.2,0.2-0.5,0.2-0.7c0.5-0.6,1.1-0.9,1.9-0.8
			c2.2,1.5,1.9,3.7,1.6,5.8c-0.4,0.9-1.2,1.4-2.1,1.6C5.8,25.4,5.4,25.3,5,25L5,25z"/>
		<path class="st42" d="M5,19c0,0.3,0,0.7,0,1c-0.5,0.9-0.9,1.9-1.4,2.8c-0.2,0-0.5,0-0.7-0.1C3.2,20.9,3.6,18.9,4,17
			C4.8,17.4,5,18.2,5,19z"/>
		<path class="st43" d="M5,19c-0.3-0.7-0.7-1.3-1-2c0.3-0.7,0.7-1.3,1-2c0.7,0.1,1.1,0.5,1.4,1.2C6.3,17.3,5.6,18.1,5,19L5,19z"/>
		<path class="st44" d="M6,16c-0.3-0.3-0.7-0.7-1-1c0-0.3,0-0.7,0-1c0.2-0.1,0.4-0.1,0.6-0.2c0.4,0.2,0.7,0.6,0.8,1
			C6.5,15.3,6.3,15.7,6,16z"/>
		<path class="st45" d="M4.1,13c0.3,0,0.6,0,0.9,0c0.2,0.2,0.3,0.4,0.2,0.7C5.1,13.9,5.1,14,5,14l0,0C4.7,13.7,4.4,13.3,4.1,13z"/>
		<path class="st46" d="M13,7c0.7-0.3,1.4-0.7,2-1c0.3-0.4,0.6-0.4,1-0.1c0.3,0,0.7,0,1,0.1c0.5,0.4,0.6,1,0.4,1.6
			c-0.2,0.4-0.4,0.7-0.7,1c-0.4,0.4-0.8,0.8-1.2,1.3c-0.5,0.8-0.8,1.9-1.7,2.4c-0.4,0.1-0.8-0.1-1.2-0.3c-0.4-0.5-0.6-1.2-0.7-1.9
			c-0.1-0.7,0-1.4,0.2-2C12.4,7.7,12.7,7.3,13,7z"/>
		<path class="st47" d="M21,6c0.7,0,1.3,0,2,0c0.3,0.5,0.2,1-0.2,1.4c-1.2,0.8-2.4,0.8-3.7,0.5c-0.5-0.2-0.9-0.4-1.3-0.8
			c-0.2-0.5-0.2-1,0.2-1.4C19,5.5,20,5.3,21,6z"/>
		<path class="st9" d="M18,6c0,0.3,0,0.7,0,1c0.3,0.2,0.4,0.4,0.3,0.7c0,0.3-0.1,0.4-0.2,0.4c-0.2,0.1-0.4,0.1-0.6,0.2
			C17.4,8.2,17.2,8.1,17,8c0-0.7,0-1.3,0-2c0.3-0.3,0.7-0.7,1-1c0.3,0.2,0.5,0.4,0.3,0.6C18.2,5.9,18.1,6,18,6z"/>
		<path class="st48" d="M18,6c0-0.3,0-0.6,0-1c1,0.3,2,0.6,2.9,1C20,6,19,6,18,6z"/>
		<path class="st49" d="M23,7c0-0.3,0-0.6,0-0.9c0.4-0.3,0.7-0.7,1.1-1c0.3,0,0.6,0,0.9,0l0,0c0.8,1,0.5,1.8-0.6,2.4
			C23.9,7.4,23.4,7.3,23,7z"/>
		<path class="st50" d="M16,6c-0.3,0-0.6,0-1,0.1c-0.3-0.3-0.7-0.7-1-1c0.3,0,0.7,0,1,0C15.3,5.3,15.7,5.6,16,6z"/>
		<path class="st11" d="M13,7c0,0.3,0,0.7,0,1c-1,0.7-1.2,2.5-3,2.1C9.6,9.7,9.6,9.4,10,9c0-0.4,0-0.7,0-1.1c0-0.3,0-0.6,0-0.9
			C11,7,12,7,13,7z"/>
		<path class="st51" d="M8,10c0-0.3,0-0.6,0-0.9C8.4,9.1,8.7,9,9,9c0.3,0.2,0.4,0.4,0.3,0.7c0,0.3-0.1,0.4-0.2,0.4
			c-0.2,0.1-0.4,0.1-0.6,0.2C8.4,10.2,8.2,10.1,8,10z"/>
		<path class="st52" d="M9,10c0-0.3,0-0.6,0-1c0.3,0,0.7,0,1,0c0,0.3,0,0.6,0,1C9.7,10.2,9.3,10.2,9,10z"/>
		<path class="st53" d="M7,11c0-0.3,0-0.6,0.1-1c0.3,0,0.6,0,0.9,0l0,0c0.2,0.2,0.3,0.4,0.3,0.7s-0.1,0.4-0.2,0.4
			c-0.2,0.1-0.4,0.1-0.6,0.2C7.4,11.2,7.2,11.1,7,11z"/>
		<path class="st54" d="M6,12c0-0.3,0-0.6,0-1c0.3,0,0.6,0,1,0l0,0c0.2,0.2,0.3,0.4,0.2,0.6C7.1,11.8,7.1,12,7,12
			c-0.2,0.1-0.3,0.2-0.5,0.2C6.4,12.1,6.2,12.1,6,12z"/>
		<path class="st55" d="M5,14c0-0.3,0-0.7,0-1s0-0.6,0-1c0.3,0,0.7,0,1,0l0,0c0.5,0.4,1.2,0.5,1.5,1.1c0.2,0.6,0.1,1.2-0.3,1.8
			C6.8,15.2,6.4,15.2,6,15C5.7,14.7,5.3,14.3,5,14z"/>
		<path class="st39" d="M34,15c0.3,1,0.7,2,1,3c0.6,0.6,0.5,1.2,0.1,1.9c-0.4,0.3-0.8,0.3-1.3,0.2c-0.9-1-0.9-2.1-0.8-3.3
			c0.1-0.5,0.2-0.9,0.5-1.3C33.7,15.3,33.8,15.2,34,15z"/>
		<path class="st56" d="M35,20c0-0.7,0-1.3,0-2c0.3,0,0.6,0,1,0c0,0.6,0,1.3,0,1.9c-0.2,0.1-0.3,0.3-0.5,0.4
			C35.3,20.2,35.2,20.1,35,20z"/>
		<path class="st57" d="M33,13c0.3,0,0.6,0,0.9,0c0,0.7,0,1.3,0,2l0,0c-0.9,0.4-1.2-0.1-1.5-0.8C32.5,13.7,32.7,13.3,33,13z"/>
		<path class="st17" d="M31,9c0.3,0,0.7,0,1,0c0,1.3,0,2.6,0,3.9c-0.1,0.2-0.2,0.4-0.2,0.7c-0.3,0.4-0.7,0.6-1.2,0.7
			c-1.1-0.4-1.3-1.2-1.3-2.2C29.5,10.8,30.1,9.8,31,9L31,9z"/>
		<path class="st17" d="M33,13c0,0.3,0,0.7,0,1c-0.3,0.3-0.7,0.4-1.1,0.2c-0.3-0.4-0.2-0.8,0.1-1.1l0.1-0.1C32.4,13,32.7,13,33,13z"
			/>
		<path class="st58" d="M30.9,9c-0.3,1-0.6,2-0.9,3c-1,0.8,0.1,2.3-0.9,3.2c-2,0.1-1.9-1.5-2.3-2.7c-0.1-0.6-0.3-1.2-0.6-1.7
			C25.7,10,25,9.4,24.8,8.5c0.1-0.8,0.7-1.1,1.3-1.3c0.8,0,1.4,0.3,1.9,0.8C29,8.3,30,8.6,30.9,9z"/>
		<path class="st59" d="M28,8c-0.6,0-1.3,0-1.9-0.1c-0.8-1.2-0.8-2,0.9-1.9l0,0c0.4,0.3,0.7,0.7,1,1l0,0C28,7.3,28,7.7,28,8z"/>
		<path class="st19" d="M27,6c-0.3,0.6-0.6,1.3-0.9,1.9c-0.3,0.3-0.7,0.7-1,1c-0.2,0.1-0.3,0.2-0.5,0.3c-0.4,0-0.8-0.2-1-0.6
			C23.4,8,23.5,7.5,24,7c0.3-0.7,0.7-1.4,1-2c0.7,0,1.3,0,2,0C27,5.4,27,5.7,27,6z"/>
		<path class="st19" d="M28,7c-0.3-0.3-0.7-0.7-1-1c0.3,0,0.7,0,1,0C28,6.3,28,6.7,28,7z"/>
		<path class="st60" d="M15,32c-0.3,0-0.7,0-1-0.1c-0.2-0.1-0.3-0.1-0.5-0.1c-0.3-0.1-0.7-0.2-1-0.3c-0.6-0.1-1.1-0.1-1.6-0.4
			c-0.6-0.7-0.6-1.4-0.3-2.2c0.9-1.1,1.8-2.2,3-3.1c0.7-0.3,1.4-0.6,2.1-1c0.6-0.2,1.1,0,1.6,0.3c0.6,0.5,1.1,1,1.6,1.7
			c0.2,0.4,0.2,0.7,0.1,1.1c-0.2,0.3-0.4,0.7-0.6,1c-0.3,0.4-0.7,0.9-1.1,1.3s-0.8,0.7-1.2,1.1c-0.2,0.2-0.5,0.5-0.8,0.7
			C15.3,31.9,15.2,32,15,32z"/>
		<path class="st61" d="M11,29c0.3,0.7,0.7,1.3,1,2c0.3-0.3,0.7-0.4,1.1-0.2c0.1,0.2,0.2,0.3,0.3,0.5c0,0.2,0,0.4-0.1,0.6
			c-0.2,0.4-0.4,0.7-0.7,1C12.4,33,12.2,33,12,33.1c-0.3,0-0.6-0.1-0.9-0.1c-0.4-0.3-0.7-0.7-1.1-1c-0.3-0.7-0.7-1.3-1-2
			c-0.7-0.9-0.9-1.8-0.2-2.8C10.5,26.6,11.2,27.3,11,29z"/>
		<path class="st62" d="M20,36c-1.3,0-2.7,0-4,0c-0.3,0-0.7,0-1,0s-0.7,0-1,0c-0.2-0.2-0.3-0.4-0.2-0.7C13.9,35.1,14,35,14,35
			c0.3,0,0.7,0,1,0c0.5-0.5,1.3-0.6,1.9-0.9c0.5-0.1,0.9-0.2,1.4-0.2c1,0,1.9,0.2,2.7,0.8c0.3,0.4,0.3,0.9-0.1,1.3
			C20.6,36,20.3,36,20,36z"/>
		<path class="st63" d="M14,32c-0.7,0.4-1.3,0.7-2,1.1V33c0.3-0.3,0.6-0.5,0.9-0.9l0.2-0.1C13.4,31.5,13.7,31.5,14,32L14,32z"/>
		<path class="st64" d="M16,34c-0.3-0.7-0.7-1.3-1-2v-0.1c0.3-0.3,0.7-0.5,1.1-0.5c0.4,0,0.8,0.2,1.1,0.5c0.2,0.4,0.3,0.8,0.4,1.2
			c-0.1,0.4-0.2,0.8-0.5,1.1C16.7,34.4,16.3,34.3,16,34z"/>
		<path class="st65" d="M16,34c0.3,0,0.7,0,1,0c0.2,0.2,0.3,0.4,0.2,0.7c0,0.2-0.1,0.3-0.2,0.3c-0.7,0-1.3,0-2,0
			C15.3,34.7,15.7,34.3,16,34z"/>
		<path class="st66" d="M14,35c0,0.3,0,0.7,0,1c-0.3,0-0.5,0-0.8,0C13.5,35.6,13.7,35.3,14,35z"/>
		<path class="st67" d="M9,27c0,1,0,2,0,3c-1-0.7-2-1.3-3-2c0-0.3,0-0.7,0-1c0.3-0.3,0.7-0.6,1.2-0.7c0.5,0,0.9,0,1.3,0.2
			C8.7,26.7,8.8,26.8,9,27z"/>
		<path class="st68" d="M7,27c-0.3,0-0.7,0-1,0c0-0.3,0-0.7,0-1c-0.3-0.2-0.4-0.4-0.3-0.7C5.8,25.1,5.9,25,6,25c0.7-0.3,1.3-0.7,2-1
			c0.3,0.3,0.4,0.7,0.4,1.1C8.2,25.9,7.5,26.4,7,27z"/>
		<path class="st6" d="M6,25c0,0.3,0,0.7,0,1c-0.3-0.3-0.7-0.7-1-1C5.3,25,5.7,25,6,25z"/>
		<path class="st69" d="M34,27c0,0.3,0,0.7,0,1c-0.7,0.6-1.4,0.6-2.2,0.2c-0.6-0.6-0.8-1.4-1-2.2c-0.1-0.8-0.1-1.6,0-2.4
			c0.3-1.6,0.7-3.3,3-2.9C36.5,22.6,33.2,24.9,34,27z"/>
		<path class="st70" d="M34,27c0-2,0-4,0-6c-0.2-0.2-0.3-0.4-0.2-0.7c0.1-0.2,0.2-0.3,0.3-0.3c0.3,0,0.7,0,1,0l0,0
			c1.1,1.2-0.1,2.8,0.9,4c0,0.3,0,0.7,0,1C35.3,25.6,34.6,26.3,34,27z"/>
		<path class="st71" d="M32,28c0.7,0,1.3,0,2,0c-0.7,0.7-1.3,1.3-2,2c-0.1-0.1-0.3-0.3-0.4-0.4C31.4,29,31.5,28.4,32,28z"/>
		<path class="st72" d="M32,30c0,0.3,0,0.6-0.1,1c-0.3,0.3-0.6,0.3-0.9,0l0,0C30.8,30.1,31.1,29.8,32,30L32,30z"/>
		<path class="st73" d="M31,31c0.3,0,0.6,0,0.9,0c-0.3,0.3-0.6,0.7-0.9,1C31,31.6,31,31.3,31,31z"/>
		<path class="st74" d="M25,36.8c-1-0.3-2-0.5-3-0.8c-0.6-0.6-0.6-1.2-0.4-1.9c0.3-0.4,0.7-0.7,1.1-0.8c0.7-0.2,1.4-0.2,2.1,0
			c0.5,0.2,0.8,0.5,1.1,0.9c0,0.3,0,0.6,0,0.9l0,0C25.7,35.6,25.4,36.2,25,36.8z"/>
		<path class="st75" d="M26,34.1c-0.3,0-0.7-0.1-1-0.1c-0.3-0.3-0.4-0.7-0.4-1.1c0.1-0.8,0.3-1.6,0.5-2.4c0.2-0.6,0.5-1.2,1-1.6
			c1-0.3,1.7,0.2,2.2,1c0.1,0.4,0.1,0.9,0,1.3c-1,0.7-0.5,2.1-1.4,2.8C26.6,34,26.3,34,26,34.1z"/>
		<path class="st38" d="M27,34c0.4-1,0.7-2,1.1-3c0.2-0.1,0.3-0.3,0.5-0.4c0.2,0.1,0.4,0.2,0.6,0.3c0.3,0.4,0.2,0.8-0.2,1.1
			c-0.3,0.3-0.7,0.7-1,1c0.2,0.2,0.3,0.4,0.2,0.7C28.1,33.9,28.1,34,28,34C27.6,34,27.3,34,27,34z"/>
		<path class="st76" d="M29,32c0-0.3,0-0.7,0-1c0.3-0.2,0.6-0.3,1,0c0,0.3,0,0.7,0,1C29.7,32,29.3,32,29,32z"/>
		<path class="st77" d="M28,34c0-0.3,0-0.7,0-1c0.1,0.2,0.3,0.5,0.4,0.7C28.4,33.8,28.1,33.9,28,34z"/>
		<path class="st78" d="M26,35c0.1,0.1,0.3,0.1,0.4,0.2C26.3,35.1,26.1,35.1,26,35L26,35z"/>
		<path class="st79" d="M22,33.9c0,0.7,0,1.4,0,2c-0.4,0-0.7,0-1.1,0c0-0.4-0.1-0.7-0.1-1.1c-0.6-0.6-1.5-0.3-2.1-0.8
			c-0.1-0.4-0.2-0.8-0.1-1.2c0.3-0.6,0.7-1,1.4-1.3c0.4-0.1,0.9,0,1.3,0.1C22,32.3,22.6,33,22,33.9z"/>
		<path class="st80" d="M30,31c-0.3,0-0.7,0-1,0l0,0c-0.5-0.4-0.5-1-0.6-1.6c0-0.4,0.2-0.8,0.3-1.1c0.2-0.5,0.5-1.1,0.9-1.6
			s0.8-0.9,1.4-1.1c0.4-0.1,0.8,0.1,1,0.4c0,0.7,0,1.3,0,2s0,1.4,0,2c-0.3,0.3-0.7,0.7-1,1C30.6,31,30.3,31,30,31z"/>
		<path class="st81" d="M35.9,24c-0.3-1.3-0.6-2.7-0.9-4c0.3,0,0.6,0,0.9,0c0,1,0,2,0.1,3C36,23.3,36,23.7,35.9,24z"/>
		<path class="st82" d="M8,25c0-0.3,0-0.7,0-1c-0.3-2-0.7-4-1-6c0.1-0.2,0.2-0.4,0.2-0.6c0.4-0.5,1-0.8,1.7-0.9
			c1.7-0.1,3.4,0.1,5.1-0.3c0.7-0.1,1.3-0.2,2-0.2c0.5,0,0.9,0.1,1.3,0.2c0.4,0.2,0.8,0.5,1.1,0.8c1.2,2.5,0.4,5.3,0.8,7.9
			c-0.5,0.9-1.1,1.5-2.2,1.1c-0.3-0.3-0.7-0.7-1-1c-0.4,0.8-1.4,0.4-2,1c-1,1-2,2-3,3c-0.7-0.7-1.3-1.3-2-2l0,0
			C8.5,26.4,7.3,26.2,8,25z"/>
		<path class="st83" d="M6,15c0.3,0,0.7,0,1,0c0.2,0.2,0.3,0.3,0.5,0.5C7.8,16.4,7.6,17.3,7,18l0,0c-0.7,0.3-1.3,0.7-2,1
			c0.3-1,0.7-2,1-3C6,15.7,6,15.3,6,15z"/>
		<path class="st84" d="M8,11c0-0.3,0-0.7,0-1c0.3,0,0.7,0,1,0s0.6,0,1,0c1-0.7,2-1.3,3-2c0,0.7,0,1.3,0,2c-0.6,0.5-0.4,1.3-0.6,2
			c-0.3,0.3-0.6,0.4-0.9,0.5c-0.5,0.1-1.1,0.1-1.6,0.2c-0.4,0-0.8,0-1.1,0c-0.2-0.1-0.4-0.1-0.5-0.2c-0.1-0.1-0.3-0.3-0.4-0.4
			C7.5,11.6,7.6,11.2,8,11z"/>
		<path class="st85" d="M13,12c0.3,0,0.7,0,1,0c0.6,0.2,0.9-0.4,1.4-0.5c0.4,0,0.7,0.1,1,0.2c0.5,0.3,0.8,0.8,1,1.3
			c0,0.4,0,0.8-0.2,1.1c-0.3,0.3-0.6,0.5-1,0.7c-0.8,0.3-1.6,0.5-2.4,0.2c-0.6-0.3-1-0.8-1.3-1.4C12.4,13.1,12.5,12.5,13,12z"/>
		<path class="st86" d="M15,12c-0.3,0-0.7,0-1,0c0.3-1,0.7-2,1-3c0.6,0.5,0.8,1.1,0.7,1.8C15.6,11.3,15.3,11.7,15,12z"/>
		<path class="st87" d="M13,12c0,0.7,0,1.3,0,2c-0.2,0.1-0.4,0.2-0.5,0.3c-0.2-0.1-0.4-0.1-0.6-0.2c-0.1-0.2-0.2-0.3-0.4-0.5
			C11.4,13,11.4,12.4,12,12c0.3-0.7,0.7-1.3,1-2C13,10.7,13,11.3,13,12z"/>
		<path class="st88" d="M15,11c0-0.7,0-1.3,0-2c0.3-0.3,0.7-0.7,1-1c0.5,0.4,0.8,0.9,0.8,1.6c0,0.4-0.1,0.8-0.3,1.2
			c-0.1,0.2-0.3,0.3-0.4,0.5C15.7,11.4,15.3,11.3,15,11z"/>
		<path class="st89" d="M16,10c0-0.7,0-1.3,0-2c0.3,0,0.7,0,1,0l0,0C17.7,9.2,17.7,10,16,10z"/>
		<path class="st90" d="M24,7c0,0.6,0,1.3,0,1.9c-0.2,0.3-0.5,0.5-0.9,0.6s-0.7,0-1.1,0c-0.5-0.1-1-0.3-1.6-0.5
			c-0.4-0.1-0.7-0.2-1-0.4s-0.6-0.4-0.8-0.7c-0.1-0.4,0-0.7,0.3-1c1.3,0,2.7,0,4,0C23.3,7,23.7,7,24,7z"/>
		<path class="st91" d="M19,7c0,0.3,0,0.7,0,1c-0.3,0.2-0.7,0.2-1,0c0-0.3,0-0.7,0-1C18.3,7,18.7,7,19,7z"/>
		<path class="st92" d="M18,8c0.3,0,0.7,0,1,0v0.1c0.8,1,0.9,2,0.1,3.1C18,11.9,17,11.8,16,11c0-0.3,0-0.6,0-0.9
			c0.3-0.7,0.7-1.3,1-2C17.3,8,17.7,8,18,8z"/>
		<path class="st55" d="M8,11c0,0.3,0,0.7,0,1c-0.2,0.1-0.3,0.2-0.5,0.3C7.3,12.2,7.2,12.1,7,12c0-0.3,0-0.7,0-1C7.3,11,7.7,11,8,11
			z"/>
		<path class="st93" d="M7,13c-0.3-0.3-0.7-0.7-1-1c0.3,0,0.7,0,1,0l0,0c0.3,0.2,0.3,0.4,0.3,0.7C7.2,12.9,7.1,13,7,13z"/>
		<path class="st83" d="M7,13c0-0.3,0-0.7,0-1c0.3,0,0.7,0,1,0l0,0c0.5,0.6,0.8,1.2,0.6,2c-0.3,0.7-0.7,1.3-1.6,1l0,0
			C7,14.3,7,13.7,7,13z"/>
		<path class="st94" d="M34,20c0,0.3,0,0.7,0,1c-0.7,1-1.3,2-2,3c-0.3,0.3-0.7,0.4-1.2,0.2c-1.4-1.4-1.5-3.1-1.5-4.9
			c0.1-0.6,0.3-1.2,0.8-1.6c0.3-0.2,0.7-0.2,1.1-0.2c0.3,0.1,0.6,0,0.6-0.3c-0.2,0.1-0.5,0.3-0.8,0.1c-0.1-0.1-0.3-0.3-0.4-0.4
			c0-0.2,0-0.4,0.1-0.6c0.3-0.6,0.9-0.9,1.5-1c0.6,0.1,1.3,0.2,1.7,0.7C34,17.3,34,18.7,34,20z"/>
		<path class="st95" d="M34,16c-0.7,0-1.4,0-2.1,0c-0.3-0.3-0.5-0.6-0.5-1c0.1-0.4,0.3-0.7,0.6-1c0.3,0,0.6,0,0.9,0
			c0.3,0.3,0.7,0.7,1,1C34,15.3,34,15.7,34,16z"/>
		<path class="st96" d="M31,18c-0.3,0.3-0.7,0.7-1,1c-0.3,0.8-0.8,1.4-1.8,1.2c-1.9-2-1.6-3.7,0.7-5.1c0.3-1,0.7-2,1-3
			c0.3,0.7,0.6,1.3,1,2c0.3,0.2,0.5,0.6,0.4,1c-0.3,0.6-1,1.2-0.4,2H31c0.3,0.2,0.5,0.4,0.3,0.7C31.2,17.9,31.1,18,31,18z"/>
		<path class="st97" d="M31,15c0-0.3,0-0.7,0-1c0.3-0.3,0.7-0.6,1-0.9c0,0.3,0,0.6,0.1,1c0,0.3-0.1,0.6-0.2,1
			C31.6,15.4,31.3,15.4,31,15z"/>
		<path class="st98" d="M29,15c0,1.7,0,3.3,0,5c0.6,0.9,0.1,1.6-0.1,2.4c-0.2,0.4-0.5,0.7-0.9,0.9c-0.4,0.2-0.8,0.2-1.3,0.1
			c-0.4-0.1-0.7-0.4-1-0.7c-0.5-1-0.2-1.9-0.1-2.9c0-0.5,0-1.1-0.1-1.6c-0.3-0.6-0.7-1.2-0.8-1.9c-0.3-0.2,0.7-0.9-0.3-0.9
			c-0.3-0.1-0.6-0.3-0.9-0.5c-0.4-0.4-0.6-0.9-0.8-1.5c0-0.2-0.1-0.4-0.1-0.6c0-0.4,0.1-0.8,0.2-1.2c0.3-0.5,0.7-0.9,1.3-1.2
			c0.4-0.1,0.8-0.2,1.2-0.1c0.9,0.2,1.9,0.1,2.8,0.6C28.3,12.3,28.7,13.7,29,15z"/>
		<path class="st99" d="M28,11c-1,0-2,0-3,0c-0.2-0.3-0.3-0.5-0.3-0.8c0.1-0.3,0.2-0.4,0.2-0.4c0.7-0.3,1.4-0.3,2,0.2
			C27.3,10.3,27.7,10.7,28,11z"/>
		<path class="st19" d="M27,9.9c-0.7,0-1.3,0-2,0.1c-0.2-0.2-0.3-0.4-0.3-0.6C24.8,9.1,24.9,9,25,9l0,0C25.7,9.3,26.3,9.6,27,9.9z"
			/>
		<path class="st100" d="M25,9c0,0.3,0,0.6,0,1c0,0.3,0,0.7,0,1c-0.3,0-0.7,0-1,0c-0.3,0.2-0.7,0.3-1.1,0c-0.3-0.3-0.4-0.7-0.5-1.1
			c0.1-0.4,0.2-0.7,0.6-1c0.3,0,0.7,0,1,0C24.4,9,24.7,9,25,9z"/>
		<path class="st101" d="M17,30c0.3-0.7,0.7-1.3,1-2c0.4,0.4,1,0.3,1.5,0.4c0.3,0.2,0.6,0.4,0.8,0.8c0,0.4-0.1,0.8-0.2,1.1
			c-0.4,0.5-0.8,0.9-1.4,1c-0.4,0-0.8-0.1-1.1-0.3C17.2,30.8,17.1,30.4,17,30z"/>
		<path class="st102" d="M14,26c0.7-0.3,1.3-0.7,2-1C15.3,25.3,14.7,25.7,14,26z"/>
		<path class="st103" d="M17,26c0.7-0.3,1.3-0.7,2-1c0.1,0.1,0.3,0.3,0.4,0.4c0.1,0.4,0.1,0.8,0,1.2c-0.1,0.2-0.3,0.3-0.4,0.5
			C18.4,26.7,17.7,26.4,17,26z"/>
		<path class="st104" d="M17,30c0.3,0.3,0.7,0.7,1,1c-0.5,0.6-1.2,0.5-1.8,0.5c-0.5,0-0.9-0.1-1.2-0.5C15.7,30.7,16.3,30.3,17,30z"
			/>
		<path class="st105" d="M19,28c0-0.3,0-0.6,0-0.9V27c0.3-0.3,0.7-0.5,1.1-0.5c0.4,0.1,0.8,0.3,1.1,0.6c0,0.5-0.1,0.8-0.5,1.2
			c-0.4,0.2-0.8,0.2-1.3,0.2C19.3,28.3,19.2,28.1,19,28z"/>
		<path class="st106" d="M14,32c-0.3,0-0.6,0-1,0c-0.1-0.3-0.1-0.6-0.1-0.9c-0.3-0.4-0.3-0.7,0.1-1C13.4,30.7,13.7,31.3,14,32z"/>
		<path class="st107" d="M15,31c0.3,0,0.7,0,1,0c0.3,0.2,0.4,0.4,0.3,0.7C16.2,31.9,16.1,32,16,32c-0.3,0-0.7,0-1-0.1
			C15,31.6,15,31.3,15,31z"/>
		<path class="st108" d="M13,30c0,0.3-0.1,0.7-0.1,1c-0.3,0-0.6,0-0.9,0C12.3,30.7,12.7,30.3,13,30z"/>
		<path class="st105" d="M19,29c-0.3-0.3-0.7-0.6-1-1c0.3,0,0.6,0,1,0l0,0c0.3,0.2,0.4,0.4,0.3,0.6C19.2,28.9,19.1,29,19,29z"/>
		<path class="st109" d="M12.9,32c-0.3,0.3-0.6,0.6-0.9,0.9C12.3,32.6,12.6,32.3,12.9,32z"/>
		<path class="st110" d="M19.1,33.9c0.6,0.3,1.2,0.7,1.8,1c-1,0-1.9,0.1-2.9,0.1c-0.3-0.2-0.4-0.5-0.3-0.8c0-0.3,0.1-0.4,0.2-0.4
			C18.3,33.6,18.7,33.6,19.1,33.9z"/>
		<path class="st111" d="M18,34c0,0.3,0,0.7,0,1h-0.5H17c0-0.3,0-0.7,0-1l0,0C17.3,33.7,17.7,33.7,18,34z"/>
		<path class="st112" d="M18,34c-0.3,0-0.7,0-1,0c0-0.7,0-1.3,0-2c0.2-0.1,0.4-0.3,0.6-0.4c0.2,0.1,0.5,0.2,0.7,0.2
			c0.4,0.3,0.6,0.7,0.7,1.2c0,0.3,0,0.6,0,0.9C18.7,34,18.3,34,18,34z"/>
		<path class="st101" d="M18,32c-0.3,0-0.7,0-1,0s-0.7,0-1,0c0-0.3,0-0.7,0-1c0.7,0,1.3,0,2,0l0,0c0.2,0.2,0.3,0.4,0.2,0.7
			C18.1,31.9,18.1,32,18,32z"/>
		<path class="st113" d="M8,25c0.3,0.7,0.7,1.3,1,2c-0.7,0-1.3,0-2,0C7.3,26.3,7.7,25.7,8,25z"/>
		<path class="st114" d="M31,24c0.3,0,0.7,0,1,0c0,0.7,0,1.3,0,2c-0.3,0-0.7,0-1,0c-1.6,0.3-1.4-0.7-1.2-1.7
			C30.1,23.9,30.5,23.8,31,24z"/>
		<path class="st115" d="M20,30c0-0.3-0.1-0.6-0.1-0.9c0.3-0.3,0.6-0.5,1.1-0.6c0.6-0.2,1.2-0.2,1.8,0c0.6,0.3,1,0.7,1.4,1.2
			c0.1,0.2,0.1,0.4,0.2,0.6c0,0.4-0.1,0.7-0.3,1.1c-0.1,0.4-1.1,0.1-0.6,0.9c0.1,0.3,0.2,0.7,0.1,1s-0.3,0.6-0.6,0.8
			c-0.3,0-0.7,0-1,0c-0.3-0.6-0.7-1.3-1-1.9c-0.3-0.2-0.5-0.4-0.7-0.7c-0.2-0.3-0.3-0.6-0.3-0.9C20,30.4,20,30,20,30z"/>
		<path class="st116" d="M23,34c0-0.3,0-0.6,0-1c0.4-0.5,1-0.6,1.6-0.4c0.1,0.1,0.3,0.3,0.4,0.4c0,0.3,0,0.7,0,1
			C24.3,34,23.7,34,23,34z"/>
		<path class="st117" d="M28,30c-0.7-0.3-1.3-0.7-2-1c-0.1-0.2-0.2-0.4-0.3-0.5c0-0.4,0.3-0.8,0.6-1c0.4-0.2,0.8-0.3,1.2-0.3
			c0.6,0,1.2,0.2,1.7,0.7c0.2,0.4,0.1,0.8-0.2,1.1l0,0C28.6,29.3,28.6,29.9,28,30z"/>
		<path class="st118" d="M26,29c0,0.7,0,1.3,0,2c-0.2,0.1-0.3,0.3-0.5,0.4c-0.4-0.1-0.8-0.3-0.9-0.8c-0.1-0.6-0.2-1.3,0.3-1.8
			C25.3,28.6,25.6,28.7,26,29L26,29z"/>
		<path class="st119" d="M28,30c0.3-0.3,0.7-0.7,1-1c0,0.7,0,1.3,0,2c-0.3,0-0.6,0-1,0C28,30.7,28,30.3,28,30z"/>
		<path class="st116" d="M25,31c0.3,0,0.6,0,0.9,0c-0.3,0.7-0.6,1.4-1,2l0,0C24.4,32.3,24.4,31.7,25,31z"/>
		<path class="st120" d="M21,31c0,0.4,0,0.7,0,1.1h-0.5L20,32c-0.7,0.5-1.4,0.5-2,0l0,0c0-0.3,0-0.7,0-1c0.7-0.3,1.4-0.7,2-1v0.1
			C20.3,30.3,20.6,30.7,21,31z"/>
		<path class="st101" d="M18,32c0.7,0,1.4,0,2,0c-0.3,0.3-0.7,0.7-1,1C18.7,32.7,18.3,32.3,18,32z"/>
		<path class="st121" d="M30,24c0.3,0.7,0.6,1.3,1,2c-0.3,0.3-0.7,0.7-1,1c-0.4,0.3-0.9,0.2-1.3-0.1c-0.7-1.2-0.7-2.3,0.6-3
			C29.6,23.9,29.8,24,30,24z"/>
		<path class="st119" d="M29,27c0.3,0,0.6,0,1,0c-0.3,0.7-0.7,1.3-1,2c0-0.3,0-0.7,0-1c-0.1-0.2-0.2-0.3-0.4-0.5
			C28.8,27.3,28.9,27.2,29,27z"/>
		<path class="st122" d="M16,14c0.3,0,0.7,0,1,0c0.2-0.3,0.5-0.5,0.8-0.7s0.6-0.4,0.9-0.6c0.4-0.3,0.9-0.7,1.4-1
			c0.4-0.1,0.8-0.1,1.1,0c0.8,0.2,1.4,0.7,1.9,1.3l0,0c0.6,0.7,0.4,1.6,0.6,2.4c0.1,0.4,0,0.8-0.1,1.2c-0.2,0.4-0.5,0.6-0.9,0.6
			c-0.8-0.1-1.3-0.6-2-0.9c-0.5-0.2-1-0.3-1.5-0.2c-0.3,0-0.7,0-1,0.1c-0.5,0.1-0.9,0.4-1.2,0.8h-0.5H16C15.1,16,15.3,15,16,14z"/>
		<path class="st123" d="M18,15c0.3,0,0.7,0,1,0c0.5,0.4,0.8,0.9,1,1.6c0.1,0.4,0.1,0.8,0.1,1.2c0,0.4,0,0.8,0,1.2
			c0,0.4,0,0.8,0,1.2c0,0.8,0.2,1.5,0.5,2.2c0.3,0.5,0.6,1,0.8,1.5c0.1,0.4,0.2,0.8,0.2,1.2c-0.1,0.4-0.2,0.8-0.4,1.1
			c-0.3,0.2-0.7,0.3-1.1,0.2c-0.5-0.4-0.7-1-1.1-1.4l0,0c-0.3-2.7-0.7-5.3-1-8C17.4,16.3,17.5,15.7,18,15z"/>
		<path class="st124" d="M14,17c-1.7,0-3.3,0-5,0c-0.9-0.8-0.6-1.6,0-2.4c0.5-0.5,1.1-0.8,1.7-1c0.5-0.1,0.9,0,1.2,0.3l0,0
			c0.3,0.2,0.6,0.4,0.9,0.6c0.3,0.2,0.5,0.5,0.7,0.8s0.3,0.7,0.4,1C14,16.6,14,16.8,14,17z"/>
		<path class="st125" d="M10,15c-0.3,0.7-0.7,1.3-1,2c-0.7,0.3-1.3,0.7-2,1c0-1,0-2,0-3c0.3-0.3,0.7-0.7,1-1s0.6-0.5,1-0.5
			c0.4,0.1,0.7,0.2,1,0.5S10.3,14.6,10,15z"/>
		<path class="st124" d="M16,14c0,1,0,2,0.1,3c-0.7,0-1.3,0-2,0l0,0c-0.4-0.5-0.5-1-0.4-1.6c0.1-0.1,0.3-0.3,0.4-0.4
			C14.6,14.7,15.3,14.4,16,14z"/>
		<path class="st124" d="M18,15c0,0.7,0,1.3,0,2c-0.3,0-0.7,0-1,0C17.3,16.3,17.7,15.7,18,15z"/>
		<path class="st126" d="M9,14c-0.3,0-0.7,0-1,0c0-0.7,0-1.3,0-2c0.3,0,0.7,0,1,0C9.6,12.7,9.6,13.3,9,14z"/>
		<path class="st11" d="M12,14c-0.3,0-0.6,0-1,0c-0.2-0.1-0.3-0.3-0.5-0.4c-0.1-0.4-0.1-0.8,0-1.2c0.2-0.1,0.3-0.3,0.5-0.4
			c0.3,0,0.7,0,1,0C12,12.7,12,13.3,12,14z"/>
		<path class="st11" d="M9,14c0-0.7,0-1.3,0-2c0.3,0,0.7,0,1,0c0.1,0.1,0.3,0.3,0.4,0.4c0.1,0.4,0.1,0.8,0,1.2
			c-0.1,0.1-0.3,0.3-0.4,0.4C9.7,14,9.3,14,9,14z"/>
		<path class="st11" d="M10,12c0.3,0,0.7,0,1,0l0,0C10.7,12.5,10.3,12.5,10,12L10,12z"/>
		<path class="st127" d="M16,11c1,0,2,0,3,0.1c0.2,0.2,0.4,0.4,0.3,0.7c0,0.3,0,0.4-0.1,0.4C18.7,12.9,17.8,13,17,13
			c-0.3-0.3-0.7-0.7-1-1c-0.3-0.2-0.4-0.4-0.3-0.7C15.8,11.1,15.9,11,16,11L16,11z"/>
		<path class="st128" d="M17,13c0.7-0.3,1.3-0.7,2-1c0.3,0.2,0.4,0.6,0.3,1c-0.3,0.5-0.9,0.6-1.3,1c-0.3,0-0.7,0-1,0
			C17,13.7,17,13.3,17,13z"/>
		<path class="st82" d="M13,14c0.3,0.3,0.7,0.7,1,1l0,0c-0.3,0.5-0.7,0.5-1,0l0,0c-0.2-0.2-0.3-0.4-0.2-0.6C12.8,14.1,12.9,14,13,14
			L13,14z"/>
		<path class="st129" d="M16,11c0,0.3,0,0.7,0,1c-0.3,0-0.7,0-1,0c0-0.3,0-0.7,0-1C15.3,11,15.7,11,16,11z"/>
		<path class="st130" d="M13,14c0,0.3,0,0.6,0,0.9c-0.3-0.3-0.6-0.6-1-1C12.3,14,12.7,14,13,14z"/>
		<path class="st131" d="M19,13c0-0.3,0-0.7,0-1s0-0.6,0-1c0-1,0-1.9,0-2.9c0.7,0,1.3-0.1,2-0.1c1.1,1.7,0.3,2.9-1,4
			c-0.3,0.7-0.7,1.3-1,2c-0.3-0.2-0.3-0.4-0.2-0.7C18.8,13.1,18.9,13,19,13z"/>
		<path class="st128" d="M20,12c0.3-1.3,0.7-2.7,1-4c0.3,0.3,0.7,0.6,1,1c0.4,0.3,0.6,0.7,1,1c0,0.3,0,0.6,0,1
			c-0.1,0.2-0.2,0.3-0.3,0.5c-0.3,0.2-0.7,0.4-1,0.5c-0.2,0-0.4,0.1-0.6,0.1C20.7,12.1,20.3,12.1,20,12z"/>
		<path class="st132" d="M23,10c-0.3-0.3-0.7-0.7-1-1c0.3,0,0.7,0,1,0C23,9.3,23,9.7,23,10z"/>
		<path class="st121" d="M31,24c-0.3,0-0.7,0-1,0l0,0c-0.5-0.6-1.6-0.2-2-1c0.3-1,0.7-2,1-3c0.3-0.3,0.7-0.7,1-1
			C30.3,20.7,30.7,22.3,31,24z"/>
		<path class="st133" d="M31,15c0.3,0,0.6,0,0.9,0c0,0.3,0,0.7,0,1c-0.3,0.3-0.6,0.6-1,1C31,16.3,31,15.7,31,15z"/>
		<path class="st134" d="M32,17c0.1,0.2,0.3,0.5,0.4,0.7c0,0-0.2,0.2-0.4,0.3c-0.3-0.2-0.4-0.4-0.3-0.7C31.8,17.1,31.9,17,32,17z"/>
		<path class="st135" d="M32,17c0,0.3,0,0.7,0,1c-0.3,0-0.7,0-1,0c0-0.3,0-0.7,0-1C31.3,17,31.7,17,32,17z"/>
		<path class="st136" d="M25.1,16c0.6,0.7,1.2,1.4,1.9,2.1c-0.6,0.7-0.5,1.3,0.1,1.9c-0.3,1-0.6,2-0.9,3c-0.2,0.1-0.4,0.2-0.6,0.3
			c-0.7,0-1.2-0.3-1.7-0.7c-0.6-0.6-1-1.3-1.1-2.1c0-0.8,0.2-1.6,0.4-2.3c0.1-0.4,0.3-0.7,0.4-1.1s0.1-0.8,0.1-1.1
			c0-0.4,0.2-0.7,0.5-0.9c0.3,0,0.6,0,0.9,0.1c0.3,0.2,0.4,0.4,0.4,0.6C25.2,15.8,25.1,16,25.1,16z"/>
		<path class="st137" d="M28,23c0.7,0.3,1.3,0.7,2,1c-0.3,1-0.6,2-1,3h-0.1c-0.3,0.3-0.7,0.4-1.1,0.2c-0.8-0.4-1.6-0.7-2.2-1.3
			c-0.4-0.6-0.5-1.2-0.4-1.9c0.1-0.4,0.4-0.8,0.7-1.1l0.2,0.1c0.3,0,0.6,0,0.9,0C27.3,23.4,27.7,23.4,28,23L28,23z"/>
		<path class="st138" d="M24,15c0,0.3,0,0.7,0,1c-0.3,0.5-0.7,0.5-1,0c0-1,0-2,0-3C23.3,13.6,23.7,14.3,24,15z"/>
		<path class="st139" d="M25.1,16C25,15.7,25,15.4,25,15c0.2-0.1,0.5-0.1,0.7-0.2C25.5,15.2,25.3,15.6,25.1,16z"/>
		<path class="st140" d="M27,20c0-0.6,0-1.3-0.1-1.9C26.9,18.7,27,19.3,27,20z"/>
		<path class="st138" d="M23,13c-0.7-0.3-1.3-0.6-2-0.9V12c0.5-0.4,1-0.5,1.6-0.4c0.1,0.1,0.3,0.3,0.4,0.4C23,12.3,23,12.7,23,13z"
			/>
		<path class="st141" d="M23,11c0.3,0,0.7,0,1,0c-0.3,0.3-0.7,0.7-1,1l0,0c-0.3-0.2-0.4-0.4-0.3-0.7C22.8,11.2,22.9,11,23,11L23,11z
			"/>
		<path class="st142" d="M28,23c-0.3,0-0.7,0-1,0C27.3,23,27.7,23,28,23z"/>
		<path class="st143" d="M21,29c-0.3,0-0.7,0-1,0s-0.6,0-1,0c0-0.3,0-0.6,0-0.9c0.7,0,1.3,0,2-0.1c0.1,0.2,0.2,0.3,0.3,0.5
			C21.3,28.7,21.1,28.8,21,29z"/>
		<path class="st82" d="M19,25c0.3,0.3,0.7,0.7,1,1c0.4,0.2,0.5,0.4,0.4,0.7C20.2,26.9,20.1,27,20,27c-0.3,0-0.7,0-1,0
			C19,26.3,19,25.7,19,25z"/>
		<path class="st144" d="M21,26c0-0.3,0-0.7,0-1c0.4-0.3,0.8-0.4,1.3-0.1c0.7,0.7,1.1,1.6,1,2.6c-0.6,1-1.3,1.3-2.3,0.5l0,0
			c0-0.3,0-0.6,0-1c-0.3-0.2-0.4-0.4-0.3-0.7C20.8,26.1,20.9,26,21,26z"/>
		<path class="st145" d="M21,26c0,0.3,0,0.7,0,1c-0.3,0-0.7,0-1,0c0-0.3,0-0.7,0-1C20.3,26,20.7,26,21,26z"/>
		<path class="st105" d="M21,28c0.6-0.3,1.3-0.6,1.9-0.9c0.2-0.1,0.3-0.3,0.5-0.4c0.4-0.1,0.8,0,1.2,0.1c0.6,0.3,1,0.6,1.3,1.2
			c0,0.3,0,0.7,0,1c-0.3,0-0.6,0-0.9,0c-0.2,0.4-0.5,0.5-0.9,0.5s-0.7-0.2-1-0.5c-0.7,0-1.4,0-2,0C21,28.7,21,28.3,21,28z"/>
		<path class="st146" d="M25,31c0,0.7,0,1.3,0,2c-0.7,0-1.3,0-2,0c0-0.3,0-0.7,0-1c0-0.6,0.7-0.6,1-1l0,0C24.3,30.5,24.7,30.5,25,31
			L25,31z"/>
		<path class="st147" d="M24,31c-0.3,0.3-0.7,0.7-1,1C23.3,31.7,23.7,31.3,24,31z"/>
		<path class="st116" d="M25,31c-0.3,0-0.7,0-1,0c0-0.3,0-0.7,0-1c-0.3-0.2-0.3-0.4-0.3-0.6c0.1-0.2,0.2-0.3,0.2-0.3
			c0.3,0,0.7,0,1,0C25,29.7,25,30.3,25,31z"/>
		<path class="st148" d="M24,29c0,0.3,0,0.7,0,1c-0.3-0.3-0.6-0.6-1-1C23.3,29,23.7,29,24,29z"/>
		<path class="st149" d="M21,31c-0.3-0.3-0.6-0.6-1-1C20.3,30.3,20.6,30.7,21,31z"/>
		<path class="st150" d="M25.9,28c-0.6-0.3-1.3-0.7-1.9-1c-0.3-0.2-0.4-0.4-0.4-0.6c0-0.3,0.1-0.4,0.1-0.4c0.7-0.6,1.5-0.2,2.3,0
			c0.7,0.3,1.3,0.7,2,1c-0.2,0.4-0.6,0.7-1,1C26.7,28,26.3,28,25.9,28z"/>
		<path class="st151" d="M27,28c0.3-0.3,0.7-0.6,1-1c0.3,0,0.6,0,1,0c0,0.3,0,0.6,0,1C28.3,28,27.7,28,27,28z"/>
		<path class="st152" d="M19,17c0-0.7,0-1.3,0-2c0.7,0,1.3,0,2,0c0.6,0.7,0.5,1.4,0.1,2.2C20.4,17.6,19.7,17.6,19,17z"/>
		<path class="st153" d="M21,17c0-0.7,0-1.3,0-2c0.3,0.7,0.7,1.3,1,2c-0.2,0.1-0.3,0.2-0.5,0.3C21.3,17.2,21.2,17.1,21,17z"/>
		<path class="st154" d="M24,17c0,0.3,0,0.7,0,1c-0.3,0.3-0.6,0.5-1.1,0.6c-0.2,0-0.4-0.1-0.6-0.1c-0.2-0.1-0.3-0.2-0.5-0.4
			c-0.2-0.4-0.1-0.8,0.2-1.1l0,0c0.3,0,0.7,0,1,0C23.3,16.6,23.7,16.6,24,17z"/>
		<path class="st155" d="M19,13c0,0.3,0,0.7,0,1h-0.5H18C18.3,13.7,18.7,13.3,19,13z"/>
		<path class="st156" d="M24,17c-0.3,0-0.7,0-1,0c0-0.3,0-0.7,0-1c0.3,0,0.7,0,1,0C24,16.3,24,16.7,24,17z"/>
		<path class="st157" d="M23,20c0.3,0.7,0.7,1.3,1,2c-0.1,0.2-0.2,0.3-0.3,0.5c-0.4,0.4-0.8,0.6-1.3,0.8c-0.3,0.1-0.7,0.2-1,0.1
			C21,23.3,20.5,23,20,23c-0.3-1-0.7-2-1-3c0.6-0.7,1.4-1,2.3-0.9c0.4,0.1,0.8,0.2,1.2,0.4C22.7,19.7,22.9,19.8,23,20z"/>
		<path class="st158" d="M19,19c0-0.3,0-0.7,0-1c1-0.7,2-0.7,3,0l0,0c0.4,0.5,0.3,0.9-0.1,1.3C20.9,19.5,19.9,19.8,19,19z"/>
		<path class="st159" d="M19,19c1,0,2,0,3,0c0.2,0.2,0.3,0.4,0.2,0.7c0,0.2-0.1,0.3-0.2,0.3c-1,0-2,0-3,0C19,19.7,19,19.3,19,19z"/>
		<path class="st145" d="M22.1,25.1c-0.4,0-0.7,0-1.1,0c0-0.3,0-0.7,0-1c0.1-0.6,0.6-0.7,1-1l0,0c0.8-0.5,1.2,0,1.5,0.7
			c0.1,0.5,0,0.9-0.2,1.3C22.9,25.3,22.5,25.3,22.1,25.1z"/>
		<path class="st160" d="M22,23c-0.3,0.3-0.7,0.7-1,1c-0.3-0.3-0.7-0.7-1-1C20.7,23,21.3,23,22,23z"/>
		<path class="st161" d="M22,18c-1,0-2,0-3,0c0-0.3,0-0.7,0-1c0.7,0,1.3,0,2,0c0.3,0,0.7,0,1,0C22,17.3,22,17.7,22,18z"/>
		<path class="st162" d="M13,15c0.3,0,0.7,0,1,0c0,0.7,0,1.3,0,2C13.7,16.3,13.3,15.7,13,15z"/>
		<path class="st11" d="M10,15c0-0.3,0-0.6,0-1l0,0c0.3-0.5,0.7-0.5,1,0l0,0C10.7,14.4,10.4,14.7,10,15z"/>
		<path class="st163" d="M11,14h-0.5H10c0-0.7,0-1.3,0-2c0.3,0,0.7,0,1,0C11,12.7,11,13.3,11,14z"/>
		<path class="st164" d="M23,11c0,0.3,0,0.6,0,1c-0.7,0-1.3,0-2,0C21.7,11.7,22.4,11.4,23,11z"/>
		<path class="st165" d="M23,25c0-0.3,0-0.6,0-1c0.6-0.6,0.2-1.5,1-2h0.1c0.6,0.3,1.2,0.6,1.9,1c0,0.3,0,0.7,0,1
			C25.2,25.1,24.5,26.1,23,25z"/>
		<path class="st166" d="M23,18c0.3,0,0.7,0,1,0c-0.3,0.7-0.7,1.3-1,2l0,0C22.4,19.3,22.4,18.7,23,18z"/>
		<path class="st167" d="M23,25c1-0.3,1.9-0.7,2.9-1c0,0.7,0.1,1.4,0.1,2c-0.7,0-1.4,0-2,0c-0.3,0.3-0.6,0.6-0.9,0.9L23,27
			c-0.3-0.7-0.6-1.3-0.9-2C22.4,25,22.7,25,23,25z"/>
		<path class="st168" d="M23,27c0.3-0.3,0.6-0.6,0.9-0.9c0,0.3,0,0.6,0,1C23.7,27,23.4,27,23,27z"/>
		<path class="st169" d="M23,18c0,0.7,0,1.3,0,2h-0.5H22c0-0.3,0-0.7,0-1s0-0.7,0-1C22.3,18,22.7,18,23,18z"/>
		<path class="st170" d="M24,22c-0.3,0.7-0.7,1.3-1,2c-0.3-0.3-0.7-0.7-1-1C22.7,22.7,23.3,22.3,24,22z"/>
	</g>
</g>
</svg>
